<svg xmlns="http://www.w3.org/2000/svg" height="3857" width="960.0" font-size="16" font-family="sans-serif" stroke-width="2">
<g transform="translate(10.0 0)">
<text fill="hsl(0, 100%, 40%)" y="22">countdown.10000.sp_modified_for_non_scoped_resumption_support.shallow 5.08 ms</text>
<g>
<title>5.08 ms ± 491 μs</title>
<rect y="28" rx="5" height="22" width="126.64767229078332" fill="hsl(0, 100%, 80%)" stroke="hsl(0, 100%, 55%)" />
<g stroke="hsl(0, 100%, 40%)"><line x1="114.41481087403523" x2="138.8805337075314" y1="39" y2="39" />
<line x1="114.41481087403523" x2="114.41481087403523" y1="33" y2="45" />
<line x1="138.8805337075314" x2="138.8805337075314" y1="33" y2="45" />
</g>
</g>
<text fill="hsl(5, 100%, 40%)" y="77">countdown.10000.sp_modified_for_non_scoped_resumption_support.deep 8.04 ms</text>
<g>
<title>8.04 ms ± 782 μs</title>
<rect y="83" rx="5" height="22" width="200.36548626603704" fill="hsl(5, 100%, 80%)" stroke="hsl(5, 100%, 55%)" />
<g stroke="hsl(5, 100%, 40%)"><line x1="180.87087427017394" x2="219.86009826190013" y1="94" y2="94" />
<line x1="180.87087427017394" x2="180.87087427017394" y1="88" y2="100" />
<line x1="219.86009826190013" x2="219.86009826190013" y1="88" y2="100" />
</g>
</g>
<text fill="hsl(10, 100%, 40%)" y="132">countdown.10000.sp_modified_for_non_scoped_resumption_support.shallowIO 162  μs</text>
<g>
<title>162  μs ±  12 μs</title>
<rect y="138" rx="5" height="22" width="4.049981338459916" fill="hsl(10, 100%, 80%)" stroke="hsl(10, 100%, 55%)" />
<g stroke="hsl(10, 100%, 40%)"><line x1="3.7612439915195224" x2="4.338718685400309" y1="149" y2="149" />
<line x1="3.7612439915195224" x2="3.7612439915195224" y1="143" y2="155" />
<line x1="4.338718685400309" x2="4.338718685400309" y1="143" y2="155" />
</g>
</g>
<text fill="hsl(15, 100%, 40%)" y="187">countdown.10000.sp_modified_for_non_scoped_resumption_support.deepIO 166  μs</text>
<g>
<title>166  μs ±  15 μs</title>
<rect y="193" rx="5" height="22" width="4.137248149188826" fill="hsl(15, 100%, 80%)" stroke="hsl(15, 100%, 55%)" />
<g stroke="hsl(15, 100%, 40%)"><line x1="3.7510756045471054" x2="4.5234206938305475" y1="204" y2="204" />
<line x1="3.7510756045471054" x2="3.7510756045471054" y1="198" y2="210" />
<line x1="4.5234206938305475" x2="4.5234206938305475" y1="198" y2="210" />
</g>
</g>
<text fill="hsl(20, 100%, 40%)" y="242">countdown.10000.effectful.shallow 228  μs</text>
<g>
<title>228  μs ±  17 μs</title>
<rect y="248" rx="5" height="22" width="5.680019505887206" fill="hsl(20, 100%, 80%)" stroke="hsl(20, 100%, 55%)" />
<g stroke="hsl(20, 100%, 40%)"><line x1="5.25595221790755" x2="6.104086793866861" y1="259" y2="259" />
<line x1="5.25595221790755" x2="5.25595221790755" y1="253" y2="265" />
<line x1="6.104086793866861" x2="6.104086793866861" y1="253" y2="265" />
</g>
</g>
<text fill="hsl(25, 100%, 40%)" y="297">countdown.10000.effectful.deep 224  μs</text>
<g>
<title>224  μs ±  20 μs</title>
<rect y="303" rx="5" height="22" width="5.597815993127425" fill="hsl(25, 100%, 80%)" stroke="hsl(25, 100%, 55%)" />
<g stroke="hsl(25, 100%, 40%)"><line x1="5.089091240815382" x2="6.106540745439469" y1="314" y2="314" />
<line x1="5.089091240815382" x2="5.089091240815382" y1="308" y2="320" />
<line x1="6.106540745439469" x2="6.106540745439469" y1="308" y2="320" />
</g>
</g>
<text fill="hsl(30, 100%, 40%)" y="352">countdown.10000.ev.shallow 298  μs</text>
<g>
<title>298  μs ±  29 μs</title>
<rect y="358" rx="5" height="22" width="7.425343926217693" fill="hsl(30, 100%, 80%)" stroke="hsl(30, 100%, 55%)" />
<g stroke="hsl(30, 100%, 40%)"><line x1="6.710430489781613" x2="8.140257362653772" y1="369" y2="369" />
<line x1="6.710430489781613" x2="6.710430489781613" y1="363" y2="375" />
<line x1="8.140257362653772" x2="8.140257362653772" y1="363" y2="375" />
</g>
</g>
<text fill="hsl(36, 100%, 40%)" y="407">countdown.10000.ev.deep 286  μs</text>
<g>
<title>286  μs ±  22 μs</title>
<rect y="413" rx="5" height="22" width="7.1338817340321965" fill="hsl(36, 100%, 80%)" stroke="hsl(36, 100%, 55%)" />
<g stroke="hsl(36, 100%, 40%)"><line x1="6.5914441843863285" x2="7.6763192836780645" y1="424" y2="424" />
<line x1="6.5914441843863285" x2="6.5914441843863285" y1="418" y2="430" />
<line x1="7.6763192836780645" x2="7.6763192836780645" y1="418" y2="430" />
</g>
</g>
<text fill="hsl(41, 100%, 40%)" y="462">countdown.10000.freer.shallow 456  μs</text>
<g>
<title>456  μs ±  25 μs</title>
<rect y="468" rx="5" height="22" width="11.358141309837848" fill="hsl(41, 100%, 80%)" stroke="hsl(41, 100%, 55%)" />
<g stroke="hsl(41, 100%, 40%)"><line x1="10.72925985382423" x2="11.987022765851465" y1="479" y2="479" />
<line x1="10.72925985382423" x2="10.72925985382423" y1="473" y2="485" />
<line x1="11.987022765851465" x2="11.987022765851465" y1="473" y2="485" />
</g>
</g>
<text fill="hsl(46, 100%, 40%)" y="517">countdown.10000.freer.deep 1.28 ms</text>
<g>
<title>1.28 ms ±  65 μs</title>
<rect y="523" rx="5" height="22" width="31.876466852476685" fill="hsl(46, 100%, 80%)" stroke="hsl(46, 100%, 55%)" />
<g stroke="hsl(46, 100%, 40%)"><line x1="30.24966786422146" x2="33.503265840731906" y1="534" y2="534" />
<line x1="30.24966786422146" x2="30.24966786422146" y1="528" y2="540" />
<line x1="33.503265840731906" x2="33.503265840731906" y1="528" y2="540" />
</g>
</g>
<text fill="hsl(51, 100%, 40%)" y="572">countdown.10000.hefty-freer.shallow 501  μs</text>
<g>
<title>501  μs ±  25 μs</title>
<rect y="578" rx="5" height="22" width="12.481928923733182" fill="hsl(51, 100%, 80%)" stroke="hsl(51, 100%, 55%)" />
<g stroke="hsl(51, 100%, 40%)"><line x1="11.868856995993806" x2="13.095000851472559" y1="589" y2="589" />
<line x1="11.868856995993806" x2="11.868856995993806" y1="583" y2="595" />
<line x1="13.095000851472559" x2="13.095000851472559" y1="583" y2="595" />
</g>
</g>
<text fill="hsl(56, 100%, 40%)" y="627">countdown.10000.hefty-freer.deep 1.66 ms</text>
<g>
<title>1.66 ms ±  57 μs</title>
<rect y="633" rx="5" height="22" width="41.49533124872959" fill="hsl(56, 100%, 80%)" stroke="hsl(56, 100%, 55%)" />
<g stroke="hsl(56, 100%, 40%)"><line x1="40.06401146846056" x2="42.92665102899862" y1="644" y2="644" />
<line x1="40.06401146846056" x2="40.06401146846056" y1="638" y2="650" />
<line x1="42.92665102899862" x2="42.92665102899862" y1="638" y2="650" />
</g>
</g>
<text fill="hsl(61, 100%, 40%)" y="682">countdown.10000.mtl.shallow 1.24 ms</text>
<g>
<title>1.24 ms ±  98 μs</title>
<rect y="688" rx="5" height="22" width="30.811913192114268" fill="hsl(61, 100%, 80%)" stroke="hsl(61, 100%, 55%)" />
<g stroke="hsl(61, 100%, 40%)"><line x1="28.37695419830162" x2="33.24687218592692" y1="699" y2="699" />
<line x1="28.37695419830162" x2="28.37695419830162" y1="693" y2="705" />
<line x1="33.24687218592692" x2="33.24687218592692" y1="693" y2="705" />
</g>
</g>
<text fill="hsl(66, 100%, 40%)" y="737">countdown.10000.mtl.deep 10.0 ms</text>
<g>
<title>10.0 ms ± 849 μs</title>
<rect y="743" rx="5" height="22" width="250.10672483098716" fill="hsl(66, 100%, 80%)" stroke="hsl(66, 100%, 55%)" />
<g stroke="hsl(66, 100%, 40%)"><line x1="228.9341207775539" x2="271.27932888442047" y1="754" y2="754" />
<line x1="228.9341207775539" x2="228.9341207775539" y1="748" y2="760" />
<line x1="271.27932888442047" x2="271.27932888442047" y1="748" y2="760" />
</g>
</g>
<text fill="hsl(72, 100%, 40%)" y="792">countdown.10000.fused.shallow 2.19 ms</text>
<g>
<title>2.19 ms ± 207 μs</title>
<rect y="798" rx="5" height="22" width="54.57068221027758" fill="hsl(72, 100%, 80%)" stroke="hsl(72, 100%, 55%)" />
<g stroke="hsl(72, 100%, 40%)"><line x1="49.41336059816718" x2="59.72800382238798" y1="809" y2="809" />
<line x1="49.41336059816718" x2="49.41336059816718" y1="803" y2="815" />
<line x1="59.72800382238798" x2="59.72800382238798" y1="803" y2="815" />
</g>
</g>
<g fill="hsl(77, 100%, 40%)">
<text y="847">countdown.10000.fused.deep</text>
<text y="847" x="395.1878045249203" text-anchor="end">15.8 ms</text>
</g>
<g>
<title>15.8 ms ± 925 μs</title>
<rect y="853" rx="5" height="22" width="395.1878045249203" fill="hsl(77, 100%, 80%)" stroke="hsl(77, 100%, 55%)" />
<g stroke="hsl(77, 100%, 40%)"><line x1="372.13281135830493" x2="418.24279769153566" y1="864" y2="864" />
<line x1="372.13281135830493" x2="372.13281135830493" y1="858" y2="870" />
<line x1="418.24279769153566" x2="418.24279769153566" y1="858" y2="870" />
</g>
</g>
<text fill="hsl(82, 100%, 40%)" y="902">countdown.10000.sem.shallow 2.65 ms</text>
<g>
<title>2.65 ms ± 188 μs</title>
<rect y="908" rx="5" height="22" width="65.9603043121744" fill="hsl(82, 100%, 80%)" stroke="hsl(82, 100%, 55%)" />
<g stroke="hsl(82, 100%, 40%)"><line x1="61.26714150352323" x2="70.65346712082558" y1="919" y2="919" />
<line x1="61.26714150352323" x2="61.26714150352323" y1="913" y2="925" />
<line x1="70.65346712082558" x2="70.65346712082558" y1="913" y2="925" />
</g>
</g>
<text fill="hsl(87, 100%, 40%)" y="957">countdown.10000.sem.deep 4.55 ms</text>
<g>
<title>4.55 ms ± 228 μs</title>
<rect y="963" rx="5" height="22" width="113.35855634952607" fill="hsl(87, 100%, 80%)" stroke="hsl(87, 100%, 55%)" />
<g stroke="hsl(87, 100%, 40%)"><line x1="107.6649007234257" x2="119.05221197562643" y1="974" y2="974" />
<line x1="107.6649007234257" x2="107.6649007234257" y1="968" y2="980" />
<line x1="119.05221197562643" x2="119.05221197562643" y1="968" y2="980" />
</g>
</g>
<text fill="hsl(92, 100%, 40%)" y="1012">pyth.32.sp_modified_for_non_scoped_resumption_support.shallow 4.10 ms</text>
<g>
<title>4.10 ms ± 338 μs</title>
<rect y="1018" rx="5" height="22" width="102.3248010613604" fill="hsl(92, 100%, 80%)" stroke="hsl(92, 100%, 55%)" />
<g stroke="hsl(92, 100%, 40%)"><line x1="93.9001130724332" x2="110.74948905028761" y1="1029" y2="1029" />
<line x1="93.9001130724332" x2="93.9001130724332" y1="1023" y2="1035" />
<line x1="110.74948905028761" x2="110.74948905028761" y1="1023" y2="1035" />
</g>
</g>
<text fill="hsl(97, 100%, 40%)" y="1067">pyth.32.sp_modified_for_non_scoped_resumption_support.deep 10.6 ms</text>
<g>
<title>10.6 ms ± 594 μs</title>
<rect y="1073" rx="5" height="22" width="264.97613810879375" fill="hsl(97, 100%, 80%)" stroke="hsl(97, 100%, 55%)" />
<g stroke="hsl(97, 100%, 40%)"><line x1="250.1694645436123" x2="279.7828116739752" y1="1084" y2="1084" />
<line x1="250.1694645436123" x2="250.1694645436123" y1="1078" y2="1090" />
<line x1="279.7828116739752" x2="279.7828116739752" y1="1078" y2="1090" />
</g>
</g>
<text fill="hsl(102, 100%, 40%)" y="1122">pyth.32.ev.shallow 1.38 ms</text>
<g>
<title>1.38 ms ±  93 μs</title>
<rect y="1128" rx="5" height="22" width="34.526995021742984" fill="hsl(102, 100%, 80%)" stroke="hsl(102, 100%, 55%)" />
<g stroke="hsl(102, 100%, 40%)"><line x1="32.198112095448614" x2="36.85587794803735" y1="1139" y2="1139" />
<line x1="32.198112095448614" x2="32.198112095448614" y1="1133" y2="1145" />
<line x1="36.85587794803735" x2="36.85587794803735" y1="1133" y2="1145" />
</g>
</g>
<text fill="hsl(108, 100%, 40%)" y="1177">pyth.32.ev.deep 2.68 ms</text>
<g>
<title>2.68 ms ± 190 μs</title>
<rect y="1183" rx="5" height="22" width="66.88200764014776" fill="hsl(108, 100%, 80%)" stroke="hsl(108, 100%, 55%)" />
<g stroke="hsl(108, 100%, 40%)"><line x1="62.136410199429335" x2="71.62760508086619" y1="1194" y2="1194" />
<line x1="62.136410199429335" x2="62.136410199429335" y1="1188" y2="1200" />
<line x1="71.62760508086619" x2="71.62760508086619" y1="1188" y2="1200" />
</g>
</g>
<text fill="hsl(113, 100%, 40%)" y="1232">pyth.32.freer.shallow 6.80 ms</text>
<g>
<title>6.80 ms ± 635 μs</title>
<rect y="1238" rx="5" height="22" width="169.49361401103823" fill="hsl(113, 100%, 80%)" stroke="hsl(113, 100%, 55%)" />
<g stroke="hsl(113, 100%, 40%)"><line x1="153.66623877093366" x2="185.3209892511428" y1="1249" y2="1249" />
<line x1="153.66623877093366" x2="153.66623877093366" y1="1243" y2="1255" />
<line x1="185.3209892511428" x2="185.3209892511428" y1="1243" y2="1255" />
</g>
</g>
<g fill="hsl(118, 100%, 40%)">
<text y="1287">pyth.32.freer.deep</text>
<text y="1287" x="248.39639152491006" text-anchor="end">10.0 ms</text>
</g>
<g>
<title>10.0 ms ± 272 μs</title>
<rect y="1293" rx="5" height="22" width="248.39639152491006" fill="hsl(118, 100%, 80%)" stroke="hsl(118, 100%, 55%)" />
<g stroke="hsl(118, 100%, 40%)"><line x1="241.60733050617932" x2="255.1854525436408" y1="1304" y2="1304" />
<line x1="241.60733050617932" x2="241.60733050617932" y1="1298" y2="1310" />
<line x1="255.1854525436408" x2="255.1854525436408" y1="1298" y2="1310" />
</g>
</g>
<text fill="hsl(123, 100%, 40%)" y="1342">pyth.32.hefty-freer.shallow 7.06 ms</text>
<g>
<title>7.06 ms ± 635 μs</title>
<rect y="1348" rx="5" height="22" width="176.0762208379291" fill="hsl(123, 100%, 80%)" stroke="hsl(123, 100%, 55%)" />
<g stroke="hsl(123, 100%, 40%)"><line x1="160.25152885151536" x2="191.90091282434284" y1="1359" y2="1359" />
<line x1="160.25152885151536" x2="160.25152885151536" y1="1353" y2="1365" />
<line x1="191.90091282434284" x2="191.90091282434284" y1="1353" y2="1365" />
</g>
</g>
<g fill="hsl(128, 100%, 40%)">
<text y="1397">pyth.32.hefty-freer.deep</text>
<text y="1397" x="279.05060350677826" text-anchor="end">11.2 ms</text>
</g>
<g>
<title>11.2 ms ± 1.1 ms</title>
<rect y="1403" rx="5" height="22" width="279.05060350677826" fill="hsl(128, 100%, 80%)" stroke="hsl(128, 100%, 55%)" />
<g stroke="hsl(128, 100%, 40%)"><line x1="251.17129469908957" x2="306.92991231446695" y1="1414" y2="1414" />
<line x1="251.17129469908957" x2="251.17129469908957" y1="1408" y2="1420" />
<line x1="306.92991231446695" x2="306.92991231446695" y1="1408" y2="1420" />
</g>
</g>
<text fill="hsl(133, 100%, 40%)" y="1452">pyth.32.fused.shallow 1.47 ms</text>
<g>
<title>1.47 ms ±  88 μs</title>
<rect y="1458" rx="5" height="22" width="36.702072928872084" fill="hsl(133, 100%, 80%)" stroke="hsl(133, 100%, 55%)" />
<g stroke="hsl(133, 100%, 40%)"><line x1="34.51401790823733" x2="38.89012794950684" y1="1469" y2="1469" />
<line x1="34.51401790823733" x2="34.51401790823733" y1="1463" y2="1475" />
<line x1="38.89012794950684" x2="38.89012794950684" y1="1463" y2="1475" />
</g>
</g>
<g fill="hsl(138, 100%, 40%)">
<text y="1507">pyth.32.fused.deep</text>
<text y="1507" x="320.28611176733835" text-anchor="end">12.8 ms</text>
</g>
<g>
<title>12.8 ms ± 787 μs</title>
<rect y="1513" rx="5" height="22" width="320.28611176733835" fill="hsl(138, 100%, 80%)" stroke="hsl(138, 100%, 55%)" />
<g stroke="hsl(138, 100%, 40%)"><line x1="300.6617269408398" x2="339.9104965938369" y1="1524" y2="1524" />
<line x1="300.6617269408398" x2="300.6617269408398" y1="1518" y2="1530" />
<line x1="339.9104965938369" x2="339.9104965938369" y1="1518" y2="1530" />
</g>
</g>
<g fill="hsl(144, 100%, 40%)">
<text y="1562">pyth.32.sem.shallow</text>
<text y="1562" x="354.147900621034" text-anchor="end">14.2 ms</text>
</g>
<g>
<title>14.2 ms ± 1.4 ms</title>
<rect y="1568" rx="5" height="22" width="354.147900621034" fill="hsl(144, 100%, 80%)" stroke="hsl(144, 100%, 55%)" />
<g stroke="hsl(144, 100%, 40%)"><line x1="319.60057074534" x2="388.695230496728" y1="1579" y2="1579" />
<line x1="319.60057074534" x2="319.60057074534" y1="1573" y2="1585" />
<line x1="388.695230496728" x2="388.695230496728" y1="1573" y2="1585" />
</g>
</g>
<g fill="hsl(149, 100%, 40%)">
<text y="1617">pyth.32.sem.deep</text>
<text y="1617" x="393.0955049816855" text-anchor="end">15.8 ms</text>
</g>
<g>
<title>15.8 ms ± 906 μs</title>
<rect y="1623" rx="5" height="22" width="393.0955049816855" fill="hsl(149, 100%, 80%)" stroke="hsl(149, 100%, 55%)" />
<g stroke="hsl(149, 100%, 40%)"><line x1="370.5043653644481" x2="415.6866445989229" y1="1634" y2="1634" />
<line x1="370.5043653644481" x2="370.5043653644481" y1="1628" y2="1640" />
<line x1="415.6866445989229" x2="415.6866445989229" y1="1628" y2="1640" />
</g>
</g>
<text fill="hsl(154, 100%, 40%)" y="1672">catch.10000.sp_modified_for_non_scoped_resumption_support.shallow 5.72 ms</text>
<g>
<title>5.72 ms ± 526 μs</title>
<rect y="1678" rx="5" height="22" width="142.7124637424325" fill="hsl(154, 100%, 80%)" stroke="hsl(154, 100%, 55%)" />
<g stroke="hsl(154, 100%, 40%)"><line x1="129.6020340450953" x2="155.8228934397697" y1="1689" y2="1689" />
<line x1="129.6020340450953" x2="129.6020340450953" y1="1683" y2="1695" />
<line x1="155.8228934397697" x2="155.8228934397697" y1="1683" y2="1695" />
</g>
</g>
<text fill="hsl(159, 100%, 40%)" y="1727">catch.10000.sp_modified_for_non_scoped_resumption_support.deep0 6.68 ms</text>
<g>
<title>6.68 ms ± 393 μs</title>
<rect y="1733" rx="5" height="22" width="166.64333050834486" fill="hsl(159, 100%, 80%)" stroke="hsl(159, 100%, 55%)" />
<g stroke="hsl(159, 100%, 40%)"><line x1="156.8330756431375" x2="176.45358537355222" y1="1744" y2="1744" />
<line x1="156.8330756431375" x2="156.8330756431375" y1="1738" y2="1750" />
<line x1="176.45358537355222" x2="176.45358537355222" y1="1738" y2="1750" />
</g>
</g>
<text fill="hsl(164, 100%, 40%)" y="1782">catch.10000.sp_modified_for_non_scoped_resumption_support.deep1 11.8 ms</text>
<g>
<title>11.8 ms ± 741 μs</title>
<rect y="1788" rx="5" height="22" width="294.0840771390138" fill="hsl(164, 100%, 80%)" stroke="hsl(164, 100%, 55%)" />
<g stroke="hsl(164, 100%, 40%)"><line x1="275.6098838558688" x2="312.5582704221588" y1="1799" y2="1799" />
<line x1="275.6098838558688" x2="275.6098838558688" y1="1793" y2="1805" />
<line x1="312.5582704221588" x2="312.5582704221588" y1="1793" y2="1805" />
</g>
</g>
<text fill="hsl(169, 100%, 40%)" y="1837">catch.10000.sp_modified_for_non_scoped_resumption_support.deep2 18.2 ms</text>
<g>
<title>18.2 ms ± 1.1 ms</title>
<rect y="1843" rx="5" height="22" width="453.0317224333604" fill="hsl(169, 100%, 80%)" stroke="hsl(169, 100%, 55%)" />
<g stroke="hsl(169, 100%, 40%)"><line x1="425.07111251000396" x2="480.9923323567169" y1="1854" y2="1854" />
<line x1="425.07111251000396" x2="425.07111251000396" y1="1848" y2="1860" />
<line x1="480.9923323567169" x2="480.9923323567169" y1="1848" y2="1860" />
</g>
</g>
<g fill="hsl(174, 100%, 40%)">
<text y="1892">catch.10000.sp_modified_for_non_scoped_resumption_support.deep3</text>
<text y="1892" x="604.1596530827469" text-anchor="end">24.2 ms</text>
</g>
<g>
<title>24.2 ms ± 1.8 ms</title>
<rect y="1898" rx="5" height="22" width="604.1596530827469" fill="hsl(174, 100%, 80%)" stroke="hsl(174, 100%, 55%)" />
<g stroke="hsl(174, 100%, 40%)"><line x1="560.4166451457744" x2="647.9026610197194" y1="1909" y2="1909" />
<line x1="560.4166451457744" x2="560.4166451457744" y1="1903" y2="1915" />
<line x1="647.9026610197194" x2="647.9026610197194" y1="1903" y2="1915" />
</g>
</g>
<g fill="hsl(180, 100%, 40%)">
<text y="1947">catch.10000.sp_modified_for_non_scoped_resumption_support.deep4</text>
<text y="1947" x="736.7089132126815" text-anchor="end">29.5 ms</text>
</g>
<g>
<title>29.5 ms ± 1.9 ms</title>
<rect y="1953" rx="5" height="22" width="736.7089132126815" fill="hsl(180, 100%, 80%)" stroke="hsl(180, 100%, 55%)" />
<g stroke="hsl(180, 100%, 40%)"><line x1="690.4420396468414" x2="782.9757867785216" y1="1964" y2="1964" />
<line x1="690.4420396468414" x2="690.4420396468414" y1="1958" y2="1970" />
<line x1="782.9757867785216" x2="782.9757867785216" y1="1958" y2="1970" />
</g>
</g>
<g fill="hsl(185, 100%, 40%)">
<text y="2002">catch.10000.sp_modified_for_non_scoped_resumption_support.deep5</text>
<text y="2002" x="875.3099277627875" text-anchor="end">35.1 ms</text>
</g>
<g>
<title>35.1 ms ± 1.7 ms</title>
<rect y="2008" rx="5" height="22" width="875.3099277627875" fill="hsl(185, 100%, 80%)" stroke="hsl(185, 100%, 55%)" />
<g stroke="hsl(185, 100%, 40%)"><line x1="833.4063264115351" x2="917.2135291140399" y1="2019" y2="2019" />
<line x1="833.4063264115351" x2="833.4063264115351" y1="2013" y2="2025" />
<line x1="917.2135291140399" x2="917.2135291140399" y1="2013" y2="2025" />
</g>
</g>
<text fill="hsl(190, 100%, 40%)" y="2057">catch.10000.hefty-freer.shallow 1.15 ms</text>
<g>
<title>1.15 ms ±  85 μs</title>
<rect y="2063" rx="5" height="22" width="28.663597754586696" fill="hsl(190, 100%, 80%)" stroke="hsl(190, 100%, 55%)" />
<g stroke="hsl(190, 100%, 40%)"><line x1="26.5381528843972" x2="30.789042624776194" y1="2074" y2="2074" />
<line x1="26.5381528843972" x2="26.5381528843972" y1="2068" y2="2080" />
<line x1="30.789042624776194" x2="30.789042624776194" y1="2068" y2="2080" />
</g>
</g>
<text fill="hsl(195, 100%, 40%)" y="2112">catch.10000.hefty-freer.deep0 1.14 ms</text>
<g>
<title>1.14 ms ±  54 μs</title>
<rect y="2118" rx="5" height="22" width="28.309393879912275" fill="hsl(195, 100%, 80%)" stroke="hsl(195, 100%, 55%)" />
<g stroke="hsl(195, 100%, 40%)"><line x1="26.96377015595343" x2="29.65501760387112" y1="2129" y2="2129" />
<line x1="26.96377015595343" x2="26.96377015595343" y1="2123" y2="2135" />
<line x1="29.65501760387112" x2="29.65501760387112" y1="2123" y2="2135" />
</g>
</g>
<text fill="hsl(200, 100%, 40%)" y="2167">catch.10000.hefty-freer.deep1 2.21 ms</text>
<g>
<title>2.21 ms ± 136 μs</title>
<rect y="2173" rx="5" height="22" width="55.20486045545595" fill="hsl(200, 100%, 80%)" stroke="hsl(200, 100%, 55%)" />
<g stroke="hsl(200, 100%, 40%)"><line x1="51.804684266621564" x2="58.60503664429034" y1="2184" y2="2184" />
<line x1="51.804684266621564" x2="51.804684266621564" y1="2178" y2="2190" />
<line x1="58.60503664429034" x2="58.60503664429034" y1="2178" y2="2190" />
</g>
</g>
<text fill="hsl(205, 100%, 40%)" y="2222">catch.10000.hefty-freer.deep2 3.37 ms</text>
<g>
<title>3.37 ms ± 282 μs</title>
<rect y="2228" rx="5" height="22" width="84.0508179756312" fill="hsl(205, 100%, 80%)" stroke="hsl(205, 100%, 55%)" />
<g stroke="hsl(205, 100%, 40%)"><line x1="77.02623949456176" x2="91.07539645670064" y1="2239" y2="2239" />
<line x1="77.02623949456176" x2="77.02623949456176" y1="2233" y2="2245" />
<line x1="91.07539645670064" x2="91.07539645670064" y1="2233" y2="2245" />
</g>
</g>
<text fill="hsl(210, 100%, 40%)" y="2277">catch.10000.hefty-freer.deep3 4.72 ms</text>
<g>
<title>4.72 ms ± 242 μs</title>
<rect y="2283" rx="5" height="22" width="117.61097921743206" fill="hsl(210, 100%, 80%)" stroke="hsl(210, 100%, 55%)" />
<g stroke="hsl(210, 100%, 40%)"><line x1="111.57222405303264" x2="123.64973438183148" y1="2294" y2="2294" />
<line x1="111.57222405303264" x2="111.57222405303264" y1="2288" y2="2300" />
<line x1="123.64973438183148" x2="123.64973438183148" y1="2288" y2="2300" />
</g>
</g>
<text fill="hsl(216, 100%, 40%)" y="2332">catch.10000.hefty-freer.deep4 5.60 ms</text>
<g>
<title>5.60 ms ± 243 μs</title>
<rect y="2338" rx="5" height="22" width="139.69053132171257" fill="hsl(216, 100%, 80%)" stroke="hsl(216, 100%, 55%)" />
<g stroke="hsl(216, 100%, 40%)"><line x1="133.62179667574085" x2="145.75926596768429" y1="2349" y2="2349" />
<line x1="133.62179667574085" x2="133.62179667574085" y1="2343" y2="2355" />
<line x1="145.75926596768429" x2="145.75926596768429" y1="2343" y2="2355" />
</g>
</g>
<text fill="hsl(221, 100%, 40%)" y="2387">catch.10000.hefty-freer.deep5 6.70 ms</text>
<g>
<title>6.70 ms ± 644 μs</title>
<rect y="2393" rx="5" height="22" width="167.17921232638943" fill="hsl(221, 100%, 80%)" stroke="hsl(221, 100%, 55%)" />
<g stroke="hsl(221, 100%, 40%)"><line x1="151.1286877253884" x2="183.22973692739046" y1="2404" y2="2404" />
<line x1="151.1286877253884" x2="151.1286877253884" y1="2398" y2="2410" />
<line x1="183.22973692739046" x2="183.22973692739046" y1="2398" y2="2410" />
</g>
</g>
<text fill="hsl(226, 100%, 40%)" y="2442">catch.10000.effectful.shallow 1.33 ms</text>
<g>
<title>1.33 ms ± 113 μs</title>
<rect y="2448" rx="5" height="22" width="33.218640621838794" fill="hsl(226, 100%, 80%)" stroke="hsl(226, 100%, 55%)" />
<g stroke="hsl(226, 100%, 40%)"><line x1="30.391964540212868" x2="36.04531670346472" y1="2459" y2="2459" />
<line x1="30.391964540212868" x2="30.391964540212868" y1="2453" y2="2465" />
<line x1="36.04531670346472" x2="36.04531670346472" y1="2453" y2="2465" />
</g>
</g>
<text fill="hsl(231, 100%, 40%)" y="2497">catch.10000.effectful.deep 1.33 ms</text>
<g>
<title>1.33 ms ± 132 μs</title>
<rect y="2503" rx="5" height="22" width="33.20731657313598" fill="hsl(231, 100%, 80%)" stroke="hsl(231, 100%, 55%)" />
<g stroke="hsl(231, 100%, 40%)"><line x1="29.915727554377142" x2="36.49890559189481" y1="2514" y2="2514" />
<line x1="29.915727554377142" x2="29.915727554377142" y1="2508" y2="2520" />
<line x1="36.49890559189481" x2="36.49890559189481" y1="2508" y2="2520" />
</g>
</g>
<text fill="hsl(236, 100%, 40%)" y="2552">catch.10000.fused.shallow 5.50 ms</text>
<g>
<title>5.50 ms ± 406 μs</title>
<rect y="2558" rx="5" height="22" width="137.18787479229042" fill="hsl(236, 100%, 80%)" stroke="hsl(236, 100%, 55%)" />
<g stroke="hsl(236, 100%, 40%)"><line x1="127.06408817900419" x2="147.31166140557664" y1="2569" y2="2569" />
<line x1="127.06408817900419" x2="127.06408817900419" y1="2563" y2="2575" />
<line x1="147.31166140557664" x2="147.31166140557664" y1="2563" y2="2575" />
</g>
</g>
<g fill="hsl(241, 100%, 40%)">
<text y="2607">catch.10000.fused.deep</text>
<text y="2607" x="682.8838652624389" text-anchor="end">27.4 ms</text>
</g>
<g>
<title>27.4 ms ± 1.2 ms</title>
<rect y="2613" rx="5" height="22" width="682.8838652624389" fill="hsl(241, 100%, 80%)" stroke="hsl(241, 100%, 55%)" />
<g stroke="hsl(241, 100%, 40%)"><line x1="653.9988908248796" x2="711.7688396999982" y1="2624" y2="2624" />
<line x1="653.9988908248796" x2="653.9988908248796" y1="2618" y2="2630" />
<line x1="711.7688396999982" x2="711.7688396999982" y1="2618" y2="2630" />
</g>
</g>
<text fill="hsl(246, 100%, 40%)" y="2662">catch.10000.sem.shallow 3.16 ms</text>
<g>
<title>3.16 ms ± 280 μs</title>
<rect y="2668" rx="5" height="22" width="78.91053431381046" fill="hsl(246, 100%, 80%)" stroke="hsl(246, 100%, 55%)" />
<g stroke="hsl(246, 100%, 40%)"><line x1="71.92737299174088" x2="85.89369563588004" y1="2679" y2="2679" />
<line x1="71.92737299174088" x2="71.92737299174088" y1="2673" y2="2685" />
<line x1="85.89369563588004" x2="85.89369563588004" y1="2673" y2="2685" />
</g>
</g>
<g fill="hsl(252, 100%, 40%)">
<text y="2717">catch.10000.sem.deep</text>
<text y="2717" x="328.3185698306244" text-anchor="end">13.2 ms</text>
</g>
<g>
<title>13.2 ms ± 1.3 ms</title>
<rect y="2723" rx="5" height="22" width="328.3185698306244" fill="hsl(252, 100%, 80%)" stroke="hsl(252, 100%, 55%)" />
<g stroke="hsl(252, 100%, 40%)"><line x1="295.65684064425665" x2="360.9802990169922" y1="2734" y2="2734" />
<line x1="295.65684064425665" x2="295.65684064425665" y1="2728" y2="2740" />
<line x1="360.9802990169922" x2="360.9802990169922" y1="2728" y2="2740" />
</g>
</g>
<text fill="hsl(257, 100%, 40%)" y="2772">local.10000.sp_modified_for_non_scoped_resumption_support.shallow 5.81 ms</text>
<g>
<title>5.81 ms ± 353 μs</title>
<rect y="2778" rx="5" height="22" width="144.75226579250392" fill="hsl(257, 100%, 80%)" stroke="hsl(257, 100%, 55%)" />
<g stroke="hsl(257, 100%, 40%)"><line x1="135.9408254706735" x2="153.56370611433434" y1="2789" y2="2789" />
<line x1="135.9408254706735" x2="135.9408254706735" y1="2783" y2="2795" />
<line x1="153.56370611433434" x2="153.56370611433434" y1="2783" y2="2795" />
</g>
</g>
<text fill="hsl(262, 100%, 40%)" y="2827">local.10000.sp_modified_for_non_scoped_resumption_support.deep0 6.67 ms</text>
<g>
<title>6.67 ms ± 396 μs</title>
<rect y="2833" rx="5" height="22" width="166.19555149625725" fill="hsl(262, 100%, 80%)" stroke="hsl(262, 100%, 55%)" />
<g stroke="hsl(262, 100%, 40%)"><line x1="156.32397232788952" x2="176.06713066462498" y1="2844" y2="2844" />
<line x1="156.32397232788952" x2="156.32397232788952" y1="2838" y2="2850" />
<line x1="176.06713066462498" x2="176.06713066462498" y1="2838" y2="2850" />
</g>
</g>
<text fill="hsl(267, 100%, 40%)" y="2882">local.10000.sp_modified_for_non_scoped_resumption_support.deep1 10.4 ms</text>
<g>
<title>10.4 ms ± 511 μs</title>
<rect y="2888" rx="5" height="22" width="258.36880620002154" fill="hsl(267, 100%, 80%)" stroke="hsl(267, 100%, 55%)" />
<g stroke="hsl(267, 100%, 40%)"><line x1="245.6307900724439" x2="271.1068223275992" y1="2899" y2="2899" />
<line x1="245.6307900724439" x2="245.6307900724439" y1="2893" y2="2905" />
<line x1="271.1068223275992" x2="271.1068223275992" y1="2893" y2="2905" />
</g>
</g>
<text fill="hsl(272, 100%, 40%)" y="2937">local.10000.sp_modified_for_non_scoped_resumption_support.deep2 15.1 ms</text>
<g>
<title>15.1 ms ± 841 μs</title>
<rect y="2943" rx="5" height="22" width="376.47591511009375" fill="hsl(272, 100%, 80%)" stroke="hsl(272, 100%, 55%)" />
<g stroke="hsl(272, 100%, 40%)"><line x1="355.4933620681132" x2="397.4584681520743" y1="2954" y2="2954" />
<line x1="355.4933620681132" x2="355.4933620681132" y1="2948" y2="2960" />
<line x1="397.4584681520743" x2="397.4584681520743" y1="2948" y2="2960" />
</g>
</g>
<text fill="hsl(277, 100%, 40%)" y="2992">local.10000.sp_modified_for_non_scoped_resumption_support.deep3 21.6 ms</text>
<g>
<title>21.6 ms ± 2.0 ms</title>
<rect y="2998" rx="5" height="22" width="538.8229194239601" fill="hsl(277, 100%, 80%)" stroke="hsl(277, 100%, 55%)" />
<g stroke="hsl(277, 100%, 40%)"><line x1="488.2827309390975" x2="589.3631079088227" y1="3009" y2="3009" />
<line x1="488.2827309390975" x2="488.2827309390975" y1="3003" y2="3015" />
<line x1="589.3631079088227" x2="589.3631079088227" y1="3003" y2="3015" />
</g>
</g>
<g fill="hsl(282, 100%, 40%)">
<text y="3047">local.10000.sp_modified_for_non_scoped_resumption_support.deep4</text>
<text y="3047" x="663.8784648973538" text-anchor="end">26.6 ms</text>
</g>
<g>
<title>26.6 ms ± 701 μs</title>
<rect y="3053" rx="5" height="22" width="663.8784648973538" fill="hsl(282, 100%, 80%)" stroke="hsl(282, 100%, 55%)" />
<g stroke="hsl(282, 100%, 40%)"><line x1="646.4076344982533" x2="681.3492952964542" y1="3064" y2="3064" />
<line x1="646.4076344982533" x2="646.4076344982533" y1="3058" y2="3070" />
<line x1="681.3492952964542" x2="681.3492952964542" y1="3058" y2="3070" />
</g>
</g>
<g fill="hsl(288, 100%, 40%)">
<text y="3102">local.10000.sp_modified_for_non_scoped_resumption_support.deep5</text>
<text y="3102" x="883.9704818799429" text-anchor="end">35.5 ms</text>
</g>
<g>
<title>35.5 ms ± 2.2 ms</title>
<rect y="3108" rx="5" height="22" width="883.9704818799429" fill="hsl(288, 100%, 80%)" stroke="hsl(288, 100%, 55%)" />
<g stroke="hsl(288, 100%, 40%)"><line x1="827.9409637598858" x2="940.0" y1="3119" y2="3119" />
<line x1="827.9409637598858" x2="827.9409637598858" y1="3113" y2="3125" />
<line x1="940.0" x2="940.0" y1="3113" y2="3125" />
</g>
</g>
<text fill="hsl(293, 100%, 40%)" y="3157">local.10000.hefty-freer.shallow 1.86 ms</text>
<g>
<title>1.86 ms ± 153 μs</title>
<rect y="3163" rx="5" height="22" width="46.29413558292274" fill="hsl(293, 100%, 80%)" stroke="hsl(293, 100%, 55%)" />
<g stroke="hsl(293, 100%, 40%)"><line x1="42.49142176971592" x2="50.096849396129564" y1="3174" y2="3174" />
<line x1="42.49142176971592" x2="42.49142176971592" y1="3168" y2="3180" />
<line x1="50.096849396129564" x2="50.096849396129564" y1="3168" y2="3180" />
</g>
</g>
<text fill="hsl(298, 100%, 40%)" y="3212">local.10000.hefty-freer.deep0 1.80 ms</text>
<g>
<title>1.80 ms ±  37 μs</title>
<rect y="3218" rx="5" height="22" width="44.85442206346896" fill="hsl(298, 100%, 80%)" stroke="hsl(298, 100%, 55%)" />
<g stroke="hsl(298, 100%, 40%)"><line x1="43.920094277476885" x2="45.788749849461034" y1="3229" y2="3229" />
<line x1="43.920094277476885" x2="43.920094277476885" y1="3223" y2="3235" />
<line x1="45.788749849461034" x2="45.788749849461034" y1="3223" y2="3235" />
</g>
</g>
<text fill="hsl(303, 100%, 40%)" y="3267">local.10000.hefty-freer.deep1 2.43 ms</text>
<g>
<title>2.43 ms ± 220 μs</title>
<rect y="3273" rx="5" height="22" width="60.569241281872095" fill="hsl(303, 100%, 80%)" stroke="hsl(303, 100%, 55%)" />
<g stroke="hsl(303, 100%, 40%)"><line x1="55.07553760155223" x2="66.06294496219196" y1="3284" y2="3284" />
<line x1="55.07553760155223" x2="55.07553760155223" y1="3278" y2="3290" />
<line x1="66.06294496219196" x2="66.06294496219196" y1="3278" y2="3290" />
</g>
</g>
<text fill="hsl(308, 100%, 40%)" y="3322">local.10000.hefty-freer.deep2 3.21 ms</text>
<g>
<title>3.21 ms ±  96 μs</title>
<rect y="3328" rx="5" height="22" width="80.0968943016494" fill="hsl(308, 100%, 80%)" stroke="hsl(308, 100%, 55%)" />
<g stroke="hsl(308, 100%, 40%)"><line x1="77.71084717515228" x2="82.48294142814652" y1="3339" y2="3339" />
<line x1="77.71084717515228" x2="77.71084717515228" y1="3333" y2="3345" />
<line x1="82.48294142814652" x2="82.48294142814652" y1="3333" y2="3345" />
</g>
</g>
<text fill="hsl(313, 100%, 40%)" y="3377">local.10000.hefty-freer.deep3 3.88 ms</text>
<g>
<title>3.88 ms ± 333 μs</title>
<rect y="3383" rx="5" height="22" width="96.81179580791559" fill="hsl(313, 100%, 80%)" stroke="hsl(313, 100%, 55%)" />
<g stroke="hsl(313, 100%, 40%)"><line x1="88.51318189375097" x2="105.1104097220802" y1="3394" y2="3394" />
<line x1="88.51318189375097" x2="88.51318189375097" y1="3388" y2="3400" />
<line x1="105.1104097220802" x2="105.1104097220802" y1="3388" y2="3400" />
</g>
</g>
<text fill="hsl(318, 100%, 40%)" y="3432">local.10000.hefty-freer.deep4 4.55 ms</text>
<g>
<title>4.55 ms ± 154 μs</title>
<rect y="3438" rx="5" height="22" width="113.56534030653702" fill="hsl(318, 100%, 80%)" stroke="hsl(318, 100%, 55%)" />
<g stroke="hsl(318, 100%, 40%)"><line x1="109.71795137911488" x2="117.41272923395917" y1="3449" y2="3449" />
<line x1="109.71795137911488" x2="109.71795137911488" y1="3443" y2="3455" />
<line x1="117.41272923395917" x2="117.41272923395917" y1="3443" y2="3455" />
</g>
</g>
<text fill="hsl(324, 100%, 40%)" y="3487">local.10000.hefty-freer.deep5 5.61 ms</text>
<g>
<title>5.61 ms ± 393 μs</title>
<rect y="3493" rx="5" height="22" width="139.98459139020167" fill="hsl(324, 100%, 80%)" stroke="hsl(324, 100%, 55%)" />
<g stroke="hsl(324, 100%, 40%)"><line x1="130.19051140066264" x2="149.7786713797407" y1="3504" y2="3504" />
<line x1="130.19051140066264" x2="130.19051140066264" y1="3498" y2="3510" />
<line x1="149.7786713797407" x2="149.7786713797407" y1="3498" y2="3510" />
</g>
</g>
<text fill="hsl(329, 100%, 40%)" y="3542">local.10000.effectful.shallow 696  μs</text>
<g>
<title>696  μs ±  32 μs</title>
<rect y="3548" rx="5" height="22" width="17.34349601047723" fill="hsl(329, 100%, 80%)" stroke="hsl(329, 100%, 55%)" />
<g stroke="hsl(329, 100%, 40%)"><line x1="16.54914410172162" x2="18.137847919232843" y1="3559" y2="3559" />
<line x1="16.54914410172162" x2="16.54914410172162" y1="3553" y2="3565" />
<line x1="18.137847919232843" x2="18.137847919232843" y1="3553" y2="3565" />
</g>
</g>
<text fill="hsl(334, 100%, 40%)" y="3597">local.10000.effectful.deep 697  μs</text>
<g>
<title>697  μs ±  44 μs</title>
<rect y="3603" rx="5" height="22" width="17.373556780099275" fill="hsl(334, 100%, 80%)" stroke="hsl(334, 100%, 55%)" />
<g stroke="hsl(334, 100%, 40%)"><line x1="16.27002143548603" x2="18.47709212471252" y1="3614" y2="3614" />
<line x1="16.27002143548603" x2="16.27002143548603" y1="3608" y2="3620" />
<line x1="18.47709212471252" x2="18.47709212471252" y1="3608" y2="3620" />
</g>
</g>
<text fill="hsl(339, 100%, 40%)" y="3652">local.10000.fused.shallow 1.72 ms</text>
<g>
<title>1.72 ms ± 171 μs</title>
<rect y="3658" rx="5" height="22" width="42.79531933793206" fill="hsl(339, 100%, 80%)" stroke="hsl(339, 100%, 55%)" />
<g stroke="hsl(339, 100%, 40%)"><line x1="38.543796747644386" x2="47.04684192821973" y1="3669" y2="3669" />
<line x1="38.543796747644386" x2="38.543796747644386" y1="3663" y2="3675" />
<line x1="47.04684192821973" x2="47.04684192821973" y1="3663" y2="3675" />
</g>
</g>
<text fill="hsl(344, 100%, 40%)" y="3707">local.10000.fused.deep 7.36 ms</text>
<g>
<title>7.36 ms ± 530 μs</title>
<rect y="3713" rx="5" height="22" width="183.53774662365387" fill="hsl(344, 100%, 80%)" stroke="hsl(344, 100%, 55%)" />
<g stroke="hsl(344, 100%, 40%)"><line x1="170.32682175717747" x2="196.74867149013028" y1="3724" y2="3724" />
<line x1="170.32682175717747" x2="170.32682175717747" y1="3718" y2="3730" />
<line x1="196.74867149013028" x2="196.74867149013028" y1="3718" y2="3730" />
</g>
</g>
<text fill="hsl(349, 100%, 40%)" y="3762">local.10000.sem.shallow 4.17 ms</text>
<g>
<title>4.17 ms ± 263 μs</title>
<rect y="3768" rx="5" height="22" width="104.10159729715541" fill="hsl(349, 100%, 80%)" stroke="hsl(349, 100%, 55%)" />
<g stroke="hsl(349, 100%, 40%)"><line x1="97.5526522506199" x2="110.65054234369092" y1="3779" y2="3779" />
<line x1="97.5526522506199" x2="97.5526522506199" y1="3773" y2="3785" />
<line x1="110.65054234369092" x2="110.65054234369092" y1="3773" y2="3785" />
</g>
</g>
<text fill="hsl(354, 100%, 40%)" y="3817">local.10000.sem.deep 8.35 ms</text>
<g>
<title>8.35 ms ± 600 μs</title>
<rect y="3823" rx="5" height="22" width="208.27604683954291" fill="hsl(354, 100%, 80%)" stroke="hsl(354, 100%, 55%)" />
<g stroke="hsl(354, 100%, 40%)"><line x1="193.31089568843547" x2="223.24119799065036" y1="3834" y2="3834" />
<line x1="193.31089568843547" x2="193.31089568843547" y1="3828" y2="3840" />
<line x1="223.24119799065036" x2="223.24119799065036" y1="3828" y2="3840" />
</g>
</g>
</g>
</svg>
