<svg xmlns="http://www.w3.org/2000/svg" height="3967" width="960.0" font-size="16" font-family="sans-serif" stroke-width="2">
<g transform="translate(10.0 0)">
<text fill="hsl(0, 100%, 40%)" y="22">countdown.10000.sp_modified_for_non_scoped_resumption_support.shallow 5.19 ms</text>
<g>
<title>5.19 ms ± 196 μs</title>
<rect y="28" rx="5" height="22" width="135.29564681999648" fill="hsl(0, 100%, 80%)" stroke="hsl(0, 100%, 55%)" />
<g stroke="hsl(0, 100%, 40%)"><line x1="130.19226302723587" x2="140.3990306127571" y1="39" y2="39" />
<line x1="130.19226302723587" x2="130.19226302723587" y1="33" y2="45" />
<line x1="140.3990306127571" x2="140.3990306127571" y1="33" y2="45" />
</g>
</g>
<text fill="hsl(5, 100%, 40%)" y="77">countdown.10000.sp_modified_for_non_scoped_resumption_support.deep 8.34 ms</text>
<g>
<title>8.34 ms ± 667 μs</title>
<rect y="83" rx="5" height="22" width="217.64811946533607" fill="hsl(5, 100%, 80%)" stroke="hsl(5, 100%, 55%)" />
<g stroke="hsl(5, 100%, 40%)"><line x1="200.24666969783752" x2="235.0495692328346" y1="94" y2="94" />
<line x1="200.24666969783752" x2="200.24666969783752" y1="88" y2="100" />
<line x1="235.0495692328346" x2="235.0495692328346" y1="88" y2="100" />
</g>
</g>
<text fill="hsl(10, 100%, 40%)" y="132">countdown.10000.sp_modified_for_non_scoped_resumption_support.shallowIO 155  μs</text>
<g>
<title>155  μs ± 5.4 μs</title>
<rect y="138" rx="5" height="22" width="4.049428072339696" fill="hsl(10, 100%, 80%)" stroke="hsl(10, 100%, 55%)" />
<g stroke="hsl(10, 100%, 40%)"><line x1="3.9094967504129583" x2="4.189359394266433" y1="149" y2="149" />
<line x1="3.9094967504129583" x2="3.9094967504129583" y1="143" y2="155" />
<line x1="4.189359394266433" x2="4.189359394266433" y1="143" y2="155" />
</g>
</g>
<text fill="hsl(15, 100%, 40%)" y="187">countdown.10000.sp_modified_for_non_scoped_resumption_support.deepIO 161  μs</text>
<g>
<title>161  μs ± 9.7 μs</title>
<rect y="193" rx="5" height="22" width="4.196200384872567" fill="hsl(15, 100%, 80%)" stroke="hsl(15, 100%, 55%)" />
<g stroke="hsl(15, 100%, 40%)"><line x1="3.9428515824017327" x2="4.4495491873434005" y1="204" y2="204" />
<line x1="3.9428515824017327" x2="3.9428515824017327" y1="198" y2="210" />
<line x1="4.4495491873434005" x2="4.4495491873434005" y1="198" y2="210" />
</g>
</g>
<text fill="hsl(20, 100%, 40%)" y="242">countdown.10000.effectful.shallow 226  μs</text>
<g>
<title>226  μs ±  20 μs</title>
<rect y="248" rx="5" height="22" width="5.902544351755369" fill="hsl(20, 100%, 80%)" stroke="hsl(20, 100%, 55%)" />
<g stroke="hsl(20, 100%, 40%)"><line x1="5.376039740549917" x2="6.42904896296082" y1="259" y2="259" />
<line x1="5.376039740549917" x2="5.376039740549917" y1="253" y2="265" />
<line x1="6.42904896296082" x2="6.42904896296082" y1="253" y2="265" />
</g>
</g>
<text fill="hsl(25, 100%, 40%)" y="297">countdown.10000.effectful.deep 222  μs</text>
<g>
<title>222  μs ± 7.9 μs</title>
<rect y="303" rx="5" height="22" width="5.802567910003274" fill="hsl(25, 100%, 80%)" stroke="hsl(25, 100%, 55%)" />
<g stroke="hsl(25, 100%, 40%)"><line x1="5.596704514558495" x2="6.008431305448053" y1="314" y2="314" />
<line x1="5.596704514558495" x2="5.596704514558495" y1="308" y2="320" />
<line x1="6.008431305448053" x2="6.008431305448053" y1="308" y2="320" />
</g>
</g>
<text fill="hsl(30, 100%, 40%)" y="352">countdown.10000.ev.shallow 303  μs</text>
<g>
<title>303  μs ±  27 μs</title>
<rect y="358" rx="5" height="22" width="7.909425805000717" fill="hsl(30, 100%, 80%)" stroke="hsl(30, 100%, 55%)" />
<g stroke="hsl(30, 100%, 40%)"><line x1="7.2162237910360645" x2="8.60262781896537" y1="369" y2="369" />
<line x1="7.2162237910360645" x2="7.2162237910360645" y1="363" y2="375" />
<line x1="8.60262781896537" x2="8.60262781896537" y1="363" y2="375" />
</g>
</g>
<text fill="hsl(35, 100%, 40%)" y="407">countdown.10000.ev.deep 314  μs</text>
<g>
<title>314  μs ±  27 μs</title>
<rect y="413" rx="5" height="22" width="8.203074712346242" fill="hsl(35, 100%, 80%)" stroke="hsl(35, 100%, 55%)" />
<g stroke="hsl(35, 100%, 40%)"><line x1="7.49326778687945" x2="8.912881637813033" y1="424" y2="424" />
<line x1="7.49326778687945" x2="7.49326778687945" y1="418" y2="430" />
<line x1="8.912881637813033" x2="8.912881637813033" y1="418" y2="430" />
</g>
</g>
<text fill="hsl(40, 100%, 40%)" y="462">countdown.10000.freer.shallow 454  μs</text>
<g>
<title>454  μs ±  24 μs</title>
<rect y="468" rx="5" height="22" width="11.850869198318389" fill="hsl(40, 100%, 80%)" stroke="hsl(40, 100%, 55%)" />
<g stroke="hsl(40, 100%, 40%)"><line x1="11.231648013125323" x2="12.470090383511454" y1="479" y2="479" />
<line x1="11.231648013125323" x2="11.231648013125323" y1="473" y2="485" />
<line x1="12.470090383511454" x2="12.470090383511454" y1="473" y2="485" />
</g>
</g>
<text fill="hsl(45, 100%, 40%)" y="517">countdown.10000.freer.deep 1.30 ms</text>
<g>
<title>1.30 ms ± 104 μs</title>
<rect y="523" rx="5" height="22" width="33.921875690513914" fill="hsl(45, 100%, 80%)" stroke="hsl(45, 100%, 55%)" />
<g stroke="hsl(45, 100%, 40%)"><line x1="31.21229353474623" x2="36.6314578462816" y1="534" y2="534" />
<line x1="31.21229353474623" x2="31.21229353474623" y1="528" y2="540" />
<line x1="36.6314578462816" x2="36.6314578462816" y1="528" y2="540" />
</g>
</g>
<text fill="hsl(50, 100%, 40%)" y="572">countdown.10000.hefty-freer.shallow 488  μs</text>
<g>
<title>488  μs ±  30 μs</title>
<rect y="578" rx="5" height="22" width="12.730281872447362" fill="hsl(50, 100%, 80%)" stroke="hsl(50, 100%, 55%)" />
<g stroke="hsl(50, 100%, 40%)"><line x1="11.9487851975477" x2="13.511778547347024" y1="589" y2="589" />
<line x1="11.9487851975477" x2="11.9487851975477" y1="583" y2="595" />
<line x1="13.511778547347024" x2="13.511778547347024" y1="583" y2="595" />
</g>
</g>
<text fill="hsl(55, 100%, 40%)" y="627">countdown.10000.hefty-freer.deep 1.68 ms</text>
<g>
<title>1.68 ms ± 125 μs</title>
<rect y="633" rx="5" height="22" width="43.81564850560698" fill="hsl(55, 100%, 80%)" stroke="hsl(55, 100%, 55%)" />
<g stroke="hsl(55, 100%, 40%)"><line x1="40.545212559322806" x2="47.08608445189115" y1="644" y2="644" />
<line x1="40.545212559322806" x2="40.545212559322806" y1="638" y2="650" />
<line x1="47.08608445189115" x2="47.08608445189115" y1="638" y2="650" />
</g>
</g>
<text fill="hsl(60, 100%, 40%)" y="682">countdown.10000.hefty-freer.IO.shallow 2.12 ms</text>
<g>
<title>2.12 ms ± 200 μs</title>
<rect y="688" rx="5" height="22" width="55.34769637961927" fill="hsl(60, 100%, 80%)" stroke="hsl(60, 100%, 55%)" />
<g stroke="hsl(60, 100%, 40%)"><line x1="50.12583419361313" x2="60.569558565625414" y1="699" y2="699" />
<line x1="50.12583419361313" x2="50.12583419361313" y1="693" y2="705" />
<line x1="60.569558565625414" x2="60.569558565625414" y1="693" y2="705" />
</g>
</g>
<text fill="hsl(65, 100%, 40%)" y="737">countdown.10000.hefty-freer.IO.deep 4.41 ms</text>
<g>
<title>4.41 ms ± 258 μs</title>
<rect y="743" rx="5" height="22" width="115.0298347382795" fill="hsl(65, 100%, 80%)" stroke="hsl(65, 100%, 55%)" />
<g stroke="hsl(65, 100%, 40%)"><line x1="108.30118894277533" x2="121.75848053378368" y1="754" y2="754" />
<line x1="108.30118894277533" x2="108.30118894277533" y1="748" y2="760" />
<line x1="121.75848053378368" x2="121.75848053378368" y1="748" y2="760" />
</g>
</g>
<text fill="hsl(70, 100%, 40%)" y="792">countdown.10000.mtl.shallow 1.24 ms</text>
<g>
<title>1.24 ms ±  44 μs</title>
<rect y="798" rx="5" height="22" width="32.275953821000215" fill="hsl(70, 100%, 80%)" stroke="hsl(70, 100%, 55%)" />
<g stroke="hsl(70, 100%, 40%)"><line x1="31.13773363537175" x2="33.414174006628684" y1="809" y2="809" />
<line x1="31.13773363537175" x2="31.13773363537175" y1="803" y2="815" />
<line x1="33.414174006628684" x2="33.414174006628684" y1="803" y2="815" />
</g>
</g>
<g fill="hsl(75, 100%, 40%)">
<text y="847">countdown.10000.mtl.deep</text>
<text y="847" x="257.17434455033276" text-anchor="end">9.86 ms</text>
</g>
<g>
<title>9.86 ms ± 876 μs</title>
<rect y="853" rx="5" height="22" width="257.17434455033276" fill="hsl(75, 100%, 80%)" stroke="hsl(75, 100%, 55%)" />
<g stroke="hsl(75, 100%, 40%)"><line x1="234.3177511280135" x2="280.03093797265205" y1="864" y2="864" />
<line x1="234.3177511280135" x2="234.3177511280135" y1="858" y2="870" />
<line x1="280.03093797265205" x2="280.03093797265205" y1="858" y2="870" />
</g>
</g>
<text fill="hsl(80, 100%, 40%)" y="902">countdown.10000.fused.shallow 2.05 ms</text>
<g>
<title>2.05 ms ± 129 μs</title>
<rect y="908" rx="5" height="22" width="53.504666573470125" fill="hsl(80, 100%, 80%)" stroke="hsl(80, 100%, 55%)" />
<g stroke="hsl(80, 100%, 40%)"><line x1="50.13596603762885" x2="56.8733671093114" y1="919" y2="919" />
<line x1="50.13596603762885" x2="50.13596603762885" y1="913" y2="925" />
<line x1="56.8733671093114" x2="56.8733671093114" y1="913" y2="925" />
</g>
</g>
<g fill="hsl(85, 100%, 40%)">
<text y="957">countdown.10000.fused.deep</text>
<text y="957" x="418.16489237363476" text-anchor="end">16.0 ms</text>
</g>
<g>
<title>16.0 ms ± 843 μs</title>
<rect y="963" rx="5" height="22" width="418.16489237363476" fill="hsl(85, 100%, 80%)" stroke="hsl(85, 100%, 55%)" />
<g stroke="hsl(85, 100%, 40%)"><line x1="396.160070559669" x2="440.1697141876005" y1="974" y2="974" />
<line x1="396.160070559669" x2="396.160070559669" y1="968" y2="980" />
<line x1="440.1697141876005" x2="440.1697141876005" y1="968" y2="980" />
</g>
</g>
<text fill="hsl(90, 100%, 40%)" y="1012">countdown.10000.sem.shallow 2.70 ms</text>
<g>
<title>2.70 ms ± 110 μs</title>
<rect y="1018" rx="5" height="22" width="70.42170041792743" fill="hsl(90, 100%, 80%)" stroke="hsl(90, 100%, 55%)" />
<g stroke="hsl(90, 100%, 40%)"><line x1="67.55708153329634" x2="73.28631930255851" y1="1029" y2="1029" />
<line x1="67.55708153329634" x2="67.55708153329634" y1="1023" y2="1035" />
<line x1="73.28631930255851" x2="73.28631930255851" y1="1023" y2="1035" />
</g>
</g>
<text fill="hsl(95, 100%, 40%)" y="1067">countdown.10000.sem.deep 4.45 ms</text>
<g>
<title>4.45 ms ± 281 μs</title>
<rect y="1073" rx="5" height="22" width="115.99099115288662" fill="hsl(95, 100%, 80%)" stroke="hsl(95, 100%, 55%)" />
<g stroke="hsl(95, 100%, 40%)"><line x1="108.66417917409267" x2="123.31780313168058" y1="1084" y2="1084" />
<line x1="108.66417917409267" x2="108.66417917409267" y1="1078" y2="1090" />
<line x1="123.31780313168058" x2="123.31780313168058" y1="1078" y2="1090" />
</g>
</g>
<text fill="hsl(100, 100%, 40%)" y="1122">pyth.32.sp_modified_for_non_scoped_resumption_support.shallow 3.86 ms</text>
<g>
<title>3.86 ms ± 347 μs</title>
<rect y="1128" rx="5" height="22" width="100.76639828454468" fill="hsl(100, 100%, 80%)" stroke="hsl(100, 100%, 55%)" />
<g stroke="hsl(100, 100%, 40%)"><line x1="91.71633026817642" x2="109.81646630091294" y1="1139" y2="1139" />
<line x1="91.71633026817642" x2="91.71633026817642" y1="1133" y2="1145" />
<line x1="109.81646630091294" x2="109.81646630091294" y1="1133" y2="1145" />
</g>
</g>
<text fill="hsl(105, 100%, 40%)" y="1177">pyth.32.sp_modified_for_non_scoped_resumption_support.deep 10.5 ms</text>
<g>
<title>10.5 ms ± 901 μs</title>
<rect y="1183" rx="5" height="22" width="273.80031731600775" fill="hsl(105, 100%, 80%)" stroke="hsl(105, 100%, 55%)" />
<g stroke="hsl(105, 100%, 40%)"><line x1="250.2947281217219" x2="297.3059065102936" y1="1194" y2="1194" />
<line x1="250.2947281217219" x2="250.2947281217219" y1="1188" y2="1200" />
<line x1="297.3059065102936" x2="297.3059065102936" y1="1188" y2="1200" />
</g>
</g>
<text fill="hsl(110, 100%, 40%)" y="1232">pyth.32.ev.shallow 1.38 ms</text>
<g>
<title>1.38 ms ± 105 μs</title>
<rect y="1238" rx="5" height="22" width="35.90333113066172" fill="hsl(110, 100%, 80%)" stroke="hsl(110, 100%, 55%)" />
<g stroke="hsl(110, 100%, 40%)"><line x1="33.1586389549918" x2="38.64802330633164" y1="1249" y2="1249" />
<line x1="33.1586389549918" x2="33.1586389549918" y1="1243" y2="1255" />
<line x1="38.64802330633164" x2="38.64802330633164" y1="1243" y2="1255" />
</g>
</g>
<text fill="hsl(115, 100%, 40%)" y="1287">pyth.32.ev.deep 2.78 ms</text>
<g>
<title>2.78 ms ± 194 μs</title>
<rect y="1293" rx="5" height="22" width="72.58773705869893" fill="hsl(115, 100%, 80%)" stroke="hsl(115, 100%, 55%)" />
<g stroke="hsl(115, 100%, 40%)"><line x1="67.51487935303379" x2="77.66059476436408" y1="1304" y2="1304" />
<line x1="67.51487935303379" x2="67.51487935303379" y1="1298" y2="1310" />
<line x1="77.66059476436408" x2="77.66059476436408" y1="1298" y2="1310" />
</g>
</g>
<text fill="hsl(120, 100%, 40%)" y="1342">pyth.32.freer.shallow 7.13 ms</text>
<g>
<title>7.13 ms ± 495 μs</title>
<rect y="1348" rx="5" height="22" width="186.099406417155" fill="hsl(120, 100%, 80%)" stroke="hsl(120, 100%, 55%)" />
<g stroke="hsl(120, 100%, 40%)"><line x1="173.19072978531923" x2="199.00808304899076" y1="1359" y2="1359" />
<line x1="173.19072978531923" x2="173.19072978531923" y1="1353" y2="1365" />
<line x1="199.00808304899076" x2="199.00808304899076" y1="1353" y2="1365" />
</g>
</g>
<g fill="hsl(125, 100%, 40%)">
<text y="1397">pyth.32.freer.deep</text>
<text y="1397" x="258.0104186621681" text-anchor="end">9.89 ms</text>
</g>
<g>
<title>9.89 ms ± 681 μs</title>
<rect y="1403" rx="5" height="22" width="258.0104186621681" fill="hsl(125, 100%, 80%)" stroke="hsl(125, 100%, 55%)" />
<g stroke="hsl(125, 100%, 40%)"><line x1="240.23365454334868" x2="275.7871827809875" y1="1414" y2="1414" />
<line x1="240.23365454334868" x2="240.23365454334868" y1="1408" y2="1420" />
<line x1="275.7871827809875" x2="275.7871827809875" y1="1408" y2="1420" />
</g>
</g>
<text fill="hsl(130, 100%, 40%)" y="1452">pyth.32.hefty-freer.shallow 6.46 ms</text>
<g>
<title>6.46 ms ± 253 μs</title>
<rect y="1458" rx="5" height="22" width="168.6339141804405" fill="hsl(130, 100%, 80%)" stroke="hsl(130, 100%, 55%)" />
<g stroke="hsl(130, 100%, 40%)"><line x1="162.03906669822948" x2="175.22876166265155" y1="1469" y2="1469" />
<line x1="162.03906669822948" x2="162.03906669822948" y1="1463" y2="1475" />
<line x1="175.22876166265155" x2="175.22876166265155" y1="1463" y2="1475" />
</g>
</g>
<g fill="hsl(135, 100%, 40%)">
<text y="1507">pyth.32.hefty-freer.deep</text>
<text y="1507" x="273.79521278059633" text-anchor="end">10.5 ms</text>
</g>
<g>
<title>10.5 ms ± 897 μs</title>
<rect y="1513" rx="5" height="22" width="273.79521278059633" fill="hsl(135, 100%, 80%)" stroke="hsl(135, 100%, 55%)" />
<g stroke="hsl(135, 100%, 40%)"><line x1="250.39466936787846" x2="297.1957561933142" y1="1524" y2="1524" />
<line x1="250.39466936787846" x2="250.39466936787846" y1="1518" y2="1530" />
<line x1="297.1957561933142" x2="297.1957561933142" y1="1518" y2="1530" />
</g>
</g>
<text fill="hsl(140, 100%, 40%)" y="1562">pyth.32.fused.shallow 1.43 ms</text>
<g>
<title>1.43 ms ±  86 μs</title>
<rect y="1568" rx="5" height="22" width="37.19603352537012" fill="hsl(140, 100%, 80%)" stroke="hsl(140, 100%, 55%)" />
<g stroke="hsl(140, 100%, 40%)"><line x1="34.960240336087686" x2="39.43182671465255" y1="1579" y2="1579" />
<line x1="34.960240336087686" x2="34.960240336087686" y1="1573" y2="1585" />
<line x1="39.43182671465255" x2="39.43182671465255" y1="1573" y2="1585" />
</g>
</g>
<g fill="hsl(145, 100%, 40%)">
<text y="1617">pyth.32.fused.deep</text>
<text y="1617" x="325.09911363549105" text-anchor="end">12.5 ms</text>
</g>
<g>
<title>12.5 ms ± 879 μs</title>
<rect y="1623" rx="5" height="22" width="325.09911363549105" fill="hsl(145, 100%, 80%)" stroke="hsl(145, 100%, 55%)" />
<g stroke="hsl(145, 100%, 40%)"><line x1="302.15819657553226" x2="348.04003069544984" y1="1634" y2="1634" />
<line x1="302.15819657553226" x2="302.15819657553226" y1="1628" y2="1640" />
<line x1="348.04003069544984" x2="348.04003069544984" y1="1628" y2="1640" />
</g>
</g>
<g fill="hsl(150, 100%, 40%)">
<text y="1672">pyth.32.sem.shallow</text>
<text y="1672" x="405.13427166513213" text-anchor="end">15.5 ms</text>
</g>
<g>
<title>15.5 ms ± 254 μs</title>
<rect y="1678" rx="5" height="22" width="405.13427166513213" fill="hsl(150, 100%, 80%)" stroke="hsl(150, 100%, 55%)" />
<g stroke="hsl(150, 100%, 40%)"><line x1="398.50365345637556" x2="411.7648898738887" y1="1689" y2="1689" />
<line x1="398.50365345637556" x2="398.50365345637556" y1="1683" y2="1695" />
<line x1="411.7648898738887" x2="411.7648898738887" y1="1683" y2="1695" />
</g>
</g>
<g fill="hsl(155, 100%, 40%)">
<text y="1727">pyth.32.sem.deep</text>
<text y="1727" x="365.3912205785151" text-anchor="end">14.0 ms</text>
</g>
<g>
<title>14.0 ms ± 1.4 ms</title>
<rect y="1733" rx="5" height="22" width="365.3912205785151" fill="hsl(155, 100%, 80%)" stroke="hsl(155, 100%, 55%)" />
<g stroke="hsl(155, 100%, 40%)"><line x1="329.4520869435203" x2="401.3303542135099" y1="1744" y2="1744" />
<line x1="329.4520869435203" x2="329.4520869435203" y1="1738" y2="1750" />
<line x1="401.3303542135099" x2="401.3303542135099" y1="1738" y2="1750" />
</g>
</g>
<text fill="hsl(160, 100%, 40%)" y="1782">catch.10000.sp_modified_for_non_scoped_resumption_support.shallow 5.65 ms</text>
<g>
<title>5.65 ms ± 542 μs</title>
<rect y="1788" rx="5" height="22" width="147.33288162780607" fill="hsl(160, 100%, 80%)" stroke="hsl(160, 100%, 55%)" />
<g stroke="hsl(160, 100%, 40%)"><line x1="133.1866055457481" x2="161.47915770986404" y1="1799" y2="1799" />
<line x1="133.1866055457481" x2="133.1866055457481" y1="1793" y2="1805" />
<line x1="161.47915770986404" x2="161.47915770986404" y1="1793" y2="1805" />
</g>
</g>
<text fill="hsl(165, 100%, 40%)" y="1837">catch.10000.sp_modified_for_non_scoped_resumption_support.deep0 6.65 ms</text>
<g>
<title>6.65 ms ± 392 μs</title>
<rect y="1843" rx="5" height="22" width="173.5919462947479" fill="hsl(165, 100%, 80%)" stroke="hsl(165, 100%, 55%)" />
<g stroke="hsl(165, 100%, 40%)"><line x1="163.3623388810137" x2="183.82155370848213" y1="1854" y2="1854" />
<line x1="163.3623388810137" x2="163.3623388810137" y1="1848" y2="1860" />
<line x1="183.82155370848213" x2="183.82155370848213" y1="1848" y2="1860" />
</g>
</g>
<text fill="hsl(170, 100%, 40%)" y="1892">catch.10000.sp_modified_for_non_scoped_resumption_support.deep1 11.1 ms</text>
<g>
<title>11.1 ms ± 762 μs</title>
<rect y="1898" rx="5" height="22" width="288.5993745098188" fill="hsl(170, 100%, 80%)" stroke="hsl(170, 100%, 55%)" />
<g stroke="hsl(170, 100%, 40%)"><line x1="268.7069320205698" x2="308.4918169990678" y1="1909" y2="1909" />
<line x1="268.7069320205698" x2="268.7069320205698" y1="1903" y2="1915" />
<line x1="308.4918169990678" x2="308.4918169990678" y1="1903" y2="1915" />
</g>
</g>
<text fill="hsl(175, 100%, 40%)" y="1947">catch.10000.sp_modified_for_non_scoped_resumption_support.deep2 16.5 ms</text>
<g>
<title>16.5 ms ± 1.0 ms</title>
<rect y="1953" rx="5" height="22" width="431.2519258297989" fill="hsl(175, 100%, 80%)" stroke="hsl(175, 100%, 55%)" />
<g stroke="hsl(175, 100%, 40%)"><line x1="404.598440221105" x2="457.90541143849276" y1="1964" y2="1964" />
<line x1="404.598440221105" x2="404.598440221105" y1="1958" y2="1970" />
<line x1="457.90541143849276" x2="457.90541143849276" y1="1958" y2="1970" />
</g>
</g>
<g fill="hsl(180, 100%, 40%)">
<text y="2002">catch.10000.sp_modified_for_non_scoped_resumption_support.deep3</text>
<text y="2002" x="575.5851366285716" text-anchor="end">22.1 ms</text>
</g>
<g>
<title>22.1 ms ± 496 μs</title>
<rect y="2008" rx="5" height="22" width="575.5851366285716" fill="hsl(180, 100%, 80%)" stroke="hsl(180, 100%, 55%)" />
<g stroke="hsl(180, 100%, 40%)"><line x1="562.6552470451398" x2="588.5150262120034" y1="2019" y2="2019" />
<line x1="562.6552470451398" x2="562.6552470451398" y1="2013" y2="2025" />
<line x1="588.5150262120034" x2="588.5150262120034" y1="2013" y2="2025" />
</g>
</g>
<g fill="hsl(185, 100%, 40%)">
<text y="2057">catch.10000.sp_modified_for_non_scoped_resumption_support.deep4</text>
<text y="2057" x="805.577360490553" text-anchor="end">30.9 ms</text>
</g>
<g>
<title>30.9 ms ± 1.4 ms</title>
<rect y="2063" rx="5" height="22" width="805.577360490553" fill="hsl(185, 100%, 80%)" stroke="hsl(185, 100%, 55%)" />
<g stroke="hsl(185, 100%, 40%)"><line x1="769.1577208266202" x2="841.9970001544858" y1="2074" y2="2074" />
<line x1="769.1577208266202" x2="769.1577208266202" y1="2068" y2="2080" />
<line x1="841.9970001544858" x2="841.9970001544858" y1="2068" y2="2080" />
</g>
</g>
<g fill="hsl(190, 100%, 40%)">
<text y="2112">catch.10000.sp_modified_for_non_scoped_resumption_support.deep5</text>
<text y="2112" x="824.9183681985631" text-anchor="end">31.6 ms</text>
</g>
<g>
<title>31.6 ms ± 2.3 ms</title>
<rect y="2118" rx="5" height="22" width="824.9183681985631" fill="hsl(190, 100%, 80%)" stroke="hsl(190, 100%, 55%)" />
<g stroke="hsl(190, 100%, 40%)"><line x1="765.0746977364855" x2="884.7620386606408" y1="2129" y2="2129" />
<line x1="765.0746977364855" x2="765.0746977364855" y1="2123" y2="2135" />
<line x1="884.7620386606408" x2="884.7620386606408" y1="2123" y2="2135" />
</g>
</g>
<text fill="hsl(195, 100%, 40%)" y="2167">catch.10000.hefty-freer.shallow 1.11 ms</text>
<g>
<title>1.11 ms ±  67 μs</title>
<rect y="2173" rx="5" height="22" width="28.995888605019925" fill="hsl(195, 100%, 80%)" stroke="hsl(195, 100%, 55%)" />
<g stroke="hsl(195, 100%, 40%)"><line x1="27.243405299577624" x2="30.748371910462225" y1="2184" y2="2184" />
<line x1="27.243405299577624" x2="27.243405299577624" y1="2178" y2="2190" />
<line x1="30.748371910462225" x2="30.748371910462225" y1="2178" y2="2190" />
</g>
</g>
<text fill="hsl(200, 100%, 40%)" y="2222">catch.10000.hefty-freer.deep0 1.12 ms</text>
<g>
<title>1.12 ms ±  43 μs</title>
<rect y="2228" rx="5" height="22" width="29.314530063917754" fill="hsl(200, 100%, 80%)" stroke="hsl(200, 100%, 55%)" />
<g stroke="hsl(200, 100%, 40%)"><line x1="28.184556866407927" x2="30.44450326142758" y1="2239" y2="2239" />
<line x1="28.184556866407927" x2="28.184556866407927" y1="2233" y2="2245" />
<line x1="30.44450326142758" x2="30.44450326142758" y1="2233" y2="2245" />
</g>
</g>
<text fill="hsl(205, 100%, 40%)" y="2277">catch.10000.hefty-freer.deep1 2.21 ms</text>
<g>
<title>2.21 ms ±  97 μs</title>
<rect y="2283" rx="5" height="22" width="57.76360609473737" fill="hsl(205, 100%, 80%)" stroke="hsl(205, 100%, 55%)" />
<g stroke="hsl(205, 100%, 40%)"><line x1="55.22694316119071" x2="60.30026902828403" y1="2294" y2="2294" />
<line x1="55.22694316119071" x2="55.22694316119071" y1="2288" y2="2300" />
<line x1="60.30026902828403" x2="60.30026902828403" y1="2288" y2="2300" />
</g>
</g>
<text fill="hsl(210, 100%, 40%)" y="2332">catch.10000.hefty-freer.deep2 3.37 ms</text>
<g>
<title>3.37 ms ± 113 μs</title>
<rect y="2338" rx="5" height="22" width="87.99439131608999" fill="hsl(210, 100%, 80%)" stroke="hsl(210, 100%, 55%)" />
<g stroke="hsl(210, 100%, 40%)"><line x1="85.03404416853348" x2="90.95473846364649" y1="2349" y2="2349" />
<line x1="85.03404416853348" x2="85.03404416853348" y1="2343" y2="2355" />
<line x1="90.95473846364649" x2="90.95473846364649" y1="2343" y2="2355" />
</g>
</g>
<text fill="hsl(215, 100%, 40%)" y="2387">catch.10000.hefty-freer.deep3 4.61 ms</text>
<g>
<title>4.61 ms ± 456 μs</title>
<rect y="2393" rx="5" height="22" width="120.30501334660318" fill="hsl(215, 100%, 80%)" stroke="hsl(215, 100%, 55%)" />
<g stroke="hsl(215, 100%, 40%)"><line x1="108.41807622898244" x2="132.1919504642239" y1="2404" y2="2404" />
<line x1="108.41807622898244" x2="108.41807622898244" y1="2398" y2="2410" />
<line x1="132.1919504642239" x2="132.1919504642239" y1="2398" y2="2410" />
</g>
</g>
<text fill="hsl(220, 100%, 40%)" y="2442">catch.10000.hefty-freer.deep4 5.88 ms</text>
<g>
<title>5.88 ms ± 495 μs</title>
<rect y="2448" rx="5" height="22" width="153.37893608565577" fill="hsl(220, 100%, 80%)" stroke="hsl(220, 100%, 55%)" />
<g stroke="hsl(220, 100%, 40%)"><line x1="140.4692085952598" x2="166.28866357605173" y1="2459" y2="2459" />
<line x1="140.4692085952598" x2="140.4692085952598" y1="2453" y2="2465" />
<line x1="166.28866357605173" x2="166.28866357605173" y1="2453" y2="2465" />
</g>
</g>
<text fill="hsl(225, 100%, 40%)" y="2497">catch.10000.hefty-freer.deep5 6.50 ms</text>
<g>
<title>6.50 ms ± 555 μs</title>
<rect y="2503" rx="5" height="22" width="169.49010248381916" fill="hsl(225, 100%, 80%)" stroke="hsl(225, 100%, 55%)" />
<g stroke="hsl(225, 100%, 40%)"><line x1="155.0040188491544" x2="183.97618611848392" y1="2514" y2="2514" />
<line x1="155.0040188491544" x2="155.0040188491544" y1="2508" y2="2520" />
<line x1="183.97618611848392" x2="183.97618611848392" y1="2508" y2="2520" />
</g>
</g>
<text fill="hsl(230, 100%, 40%)" y="2552">catch.10000.effectful.shallow 1.31 ms</text>
<g>
<title>1.31 ms ±  43 μs</title>
<rect y="2558" rx="5" height="22" width="34.169595337087486" fill="hsl(230, 100%, 80%)" stroke="hsl(230, 100%, 55%)" />
<g stroke="hsl(230, 100%, 40%)"><line x1="33.0600467515775" x2="35.27914392259747" y1="2569" y2="2569" />
<line x1="33.0600467515775" x2="33.0600467515775" y1="2563" y2="2575" />
<line x1="35.27914392259747" x2="35.27914392259747" y1="2563" y2="2575" />
</g>
</g>
<text fill="hsl(235, 100%, 40%)" y="2607">catch.10000.effectful.deep 1.30 ms</text>
<g>
<title>1.30 ms ±  46 μs</title>
<rect y="2613" rx="5" height="22" width="33.87051276724535" fill="hsl(235, 100%, 80%)" stroke="hsl(235, 100%, 55%)" />
<g stroke="hsl(235, 100%, 40%)"><line x1="32.6742700985587" x2="35.066755435932" y1="2624" y2="2624" />
<line x1="32.6742700985587" x2="32.6742700985587" y1="2618" y2="2630" />
<line x1="35.066755435932" x2="35.066755435932" y1="2618" y2="2630" />
</g>
</g>
<text fill="hsl(240, 100%, 40%)" y="2662">catch.10000.fused.shallow 5.01 ms</text>
<g>
<title>5.01 ms ± 155 μs</title>
<rect y="2668" rx="5" height="22" width="130.8101583116387" fill="hsl(240, 100%, 80%)" stroke="hsl(240, 100%, 55%)" />
<g stroke="hsl(240, 100%, 40%)"><line x1="126.75847281623773" x2="134.86184380703966" y1="2679" y2="2679" />
<line x1="126.75847281623773" x2="126.75847281623773" y1="2673" y2="2685" />
<line x1="134.86184380703966" x2="134.86184380703966" y1="2673" y2="2685" />
</g>
</g>
<g fill="hsl(245, 100%, 40%)">
<text y="2717">catch.10000.fused.deep</text>
<text y="2717" x="682.0680112394892" text-anchor="end">26.1 ms</text>
</g>
<g>
<title>26.1 ms ± 1.3 ms</title>
<rect y="2723" rx="5" height="22" width="682.0680112394892" fill="hsl(245, 100%, 80%)" stroke="hsl(245, 100%, 55%)" />
<g stroke="hsl(245, 100%, 40%)"><line x1="647.0286040858091" x2="717.1074183931694" y1="2734" y2="2734" />
<line x1="647.0286040858091" x2="647.0286040858091" y1="2728" y2="2740" />
<line x1="717.1074183931694" x2="717.1074183931694" y1="2728" y2="2740" />
</g>
</g>
<text fill="hsl(250, 100%, 40%)" y="2772">catch.10000.sem.shallow 3.14 ms</text>
<g>
<title>3.14 ms ±  50 μs</title>
<rect y="2778" rx="5" height="22" width="81.89206567566508" fill="hsl(250, 100%, 80%)" stroke="hsl(250, 100%, 55%)" />
<g stroke="hsl(250, 100%, 40%)"><line x1="80.59669869520881" x2="83.18743265612135" y1="2789" y2="2789" />
<line x1="80.59669869520881" x2="80.59669869520881" y1="2783" y2="2795" />
<line x1="83.18743265612135" x2="83.18743265612135" y1="2783" y2="2795" />
</g>
</g>
<g fill="hsl(255, 100%, 40%)">
<text y="2827">catch.10000.sem.deep</text>
<text y="2827" x="347.9762690082942" text-anchor="end">13.3 ms</text>
</g>
<g>
<title>13.3 ms ± 776 μs</title>
<rect y="2833" rx="5" height="22" width="347.9762690082942" fill="hsl(255, 100%, 80%)" stroke="hsl(255, 100%, 55%)" />
<g stroke="hsl(255, 100%, 40%)"><line x1="327.72818272256876" x2="368.22435529401963" y1="2844" y2="2844" />
<line x1="327.72818272256876" x2="327.72818272256876" y1="2838" y2="2850" />
<line x1="368.22435529401963" x2="368.22435529401963" y1="2838" y2="2850" />
</g>
</g>
<text fill="hsl(260, 100%, 40%)" y="2882">local.10000.sp_modified_for_non_scoped_resumption_support.shallow 5.39 ms</text>
<g>
<title>5.39 ms ± 294 μs</title>
<rect y="2888" rx="5" height="22" width="140.62129126829922" fill="hsl(260, 100%, 80%)" stroke="hsl(260, 100%, 55%)" />
<g stroke="hsl(260, 100%, 40%)"><line x1="132.94465484602878" x2="148.29792769056965" y1="2899" y2="2899" />
<line x1="132.94465484602878" x2="132.94465484602878" y1="2893" y2="2905" />
<line x1="148.29792769056965" x2="148.29792769056965" y1="2893" y2="2905" />
</g>
</g>
<text fill="hsl(265, 100%, 40%)" y="2937">local.10000.sp_modified_for_non_scoped_resumption_support.deep0 6.55 ms</text>
<g>
<title>6.55 ms ± 264 μs</title>
<rect y="2943" rx="5" height="22" width="170.9622269109918" fill="hsl(265, 100%, 80%)" stroke="hsl(265, 100%, 55%)" />
<g stroke="hsl(265, 100%, 40%)"><line x1="164.06513583005346" x2="177.85931799193014" y1="2954" y2="2954" />
<line x1="164.06513583005346" x2="164.06513583005346" y1="2948" y2="2960" />
<line x1="177.85931799193014" x2="177.85931799193014" y1="2948" y2="2960" />
</g>
</g>
<text fill="hsl(270, 100%, 40%)" y="2992">local.10000.sp_modified_for_non_scoped_resumption_support.deep1 10.2 ms</text>
<g>
<title>10.2 ms ± 663 μs</title>
<rect y="2998" rx="5" height="22" width="265.3100053997989" fill="hsl(270, 100%, 80%)" stroke="hsl(270, 100%, 55%)" />
<g stroke="hsl(270, 100%, 40%)"><line x1="248.0127686166778" x2="282.60724218292006" y1="3009" y2="3009" />
<line x1="248.0127686166778" x2="248.0127686166778" y1="3003" y2="3015" />
<line x1="282.60724218292006" x2="282.60724218292006" y1="3003" y2="3015" />
</g>
</g>
<text fill="hsl(275, 100%, 40%)" y="3047">local.10000.sp_modified_for_non_scoped_resumption_support.deep2 15.5 ms</text>
<g>
<title>15.5 ms ± 820 μs</title>
<rect y="3053" rx="5" height="22" width="403.22131799441996" fill="hsl(275, 100%, 80%)" stroke="hsl(275, 100%, 55%)" />
<g stroke="hsl(275, 100%, 40%)"><line x1="381.83619392809976" x2="424.60644206074016" y1="3064" y2="3064" />
<line x1="381.83619392809976" x2="381.83619392809976" y1="3058" y2="3070" />
<line x1="424.60644206074016" x2="424.60644206074016" y1="3058" y2="3070" />
</g>
</g>
<text fill="hsl(280, 100%, 40%)" y="3102">local.10000.sp_modified_for_non_scoped_resumption_support.deep3 21.1 ms</text>
<g>
<title>21.1 ms ± 880 μs</title>
<rect y="3108" rx="5" height="22" width="550.060399755052" fill="hsl(280, 100%, 80%)" stroke="hsl(280, 100%, 55%)" />
<g stroke="hsl(280, 100%, 40%)"><line x1="527.0955460896779" x2="573.0252534204261" y1="3119" y2="3119" />
<line x1="527.0955460896779" x2="527.0955460896779" y1="3113" y2="3125" />
<line x1="573.0252534204261" x2="573.0252534204261" y1="3113" y2="3125" />
</g>
</g>
<g fill="hsl(285, 100%, 40%)">
<text y="3157">local.10000.sp_modified_for_non_scoped_resumption_support.deep4</text>
<text y="3157" x="714.0404116324967" text-anchor="end">27.4 ms</text>
</g>
<g>
<title>27.4 ms ± 1.8 ms</title>
<rect y="3163" rx="5" height="22" width="714.0404116324967" fill="hsl(285, 100%, 80%)" stroke="hsl(285, 100%, 55%)" />
<g stroke="hsl(285, 100%, 40%)"><line x1="667.2670301328452" x2="760.8137931321481" y1="3174" y2="3174" />
<line x1="667.2670301328452" x2="667.2670301328452" y1="3168" y2="3180" />
<line x1="760.8137931321481" x2="760.8137931321481" y1="3168" y2="3180" />
</g>
</g>
<g fill="hsl(290, 100%, 40%)">
<text y="3212">local.10000.sp_modified_for_non_scoped_resumption_support.deep5</text>
<text y="3212" x="856.6030537294697" text-anchor="end">32.8 ms</text>
</g>
<g>
<title>32.8 ms ± 3.2 ms</title>
<rect y="3218" rx="5" height="22" width="856.6030537294697" fill="hsl(290, 100%, 80%)" stroke="hsl(290, 100%, 55%)" />
<g stroke="hsl(290, 100%, 40%)"><line x1="773.2061074589394" x2="940.0" y1="3229" y2="3229" />
<line x1="773.2061074589394" x2="773.2061074589394" y1="3223" y2="3235" />
<line x1="940.0" x2="940.0" y1="3223" y2="3235" />
</g>
</g>
<text fill="hsl(295, 100%, 40%)" y="3267">local.10000.hefty-freer.shallow 1.83 ms</text>
<g>
<title>1.83 ms ±  52 μs</title>
<rect y="3273" rx="5" height="22" width="47.647948765615176" fill="hsl(295, 100%, 80%)" stroke="hsl(295, 100%, 55%)" />
<g stroke="hsl(295, 100%, 40%)"><line x1="46.28987773999924" x2="49.00601979123111" y1="3284" y2="3284" />
<line x1="46.28987773999924" x2="46.28987773999924" y1="3278" y2="3290" />
<line x1="49.00601979123111" x2="49.00601979123111" y1="3278" y2="3290" />
</g>
</g>
<text fill="hsl(300, 100%, 40%)" y="3322">local.10000.hefty-freer.deep0 1.83 ms</text>
<g>
<title>1.83 ms ±  44 μs</title>
<rect y="3328" rx="5" height="22" width="47.79587126186189" fill="hsl(300, 100%, 80%)" stroke="hsl(300, 100%, 55%)" />
<g stroke="hsl(300, 100%, 40%)"><line x1="46.647377354049716" x2="48.944365169674064" y1="3339" y2="3339" />
<line x1="46.647377354049716" x2="46.647377354049716" y1="3333" y2="3345" />
<line x1="48.944365169674064" x2="48.944365169674064" y1="3333" y2="3345" />
</g>
</g>
<text fill="hsl(305, 100%, 40%)" y="3377">local.10000.hefty-freer.deep1 2.56 ms</text>
<g>
<title>2.56 ms ± 228 μs</title>
<rect y="3383" rx="5" height="22" width="66.8488607316517" fill="hsl(305, 100%, 80%)" stroke="hsl(305, 100%, 55%)" />
<g stroke="hsl(305, 100%, 40%)"><line x1="60.893931427669564" x2="72.80379003563384" y1="3394" y2="3394" />
<line x1="60.893931427669564" x2="60.893931427669564" y1="3388" y2="3400" />
<line x1="72.80379003563384" x2="72.80379003563384" y1="3388" y2="3400" />
</g>
</g>
<text fill="hsl(310, 100%, 40%)" y="3432">local.10000.hefty-freer.deep2 3.45 ms</text>
<g>
<title>3.45 ms ± 219 μs</title>
<rect y="3438" rx="5" height="22" width="90.13822183199942" fill="hsl(310, 100%, 80%)" stroke="hsl(310, 100%, 55%)" />
<g stroke="hsl(310, 100%, 40%)"><line x1="84.41402963443784" x2="95.862414029561" y1="3449" y2="3449" />
<line x1="84.41402963443784" x2="84.41402963443784" y1="3443" y2="3455" />
<line x1="95.862414029561" x2="95.862414029561" y1="3443" y2="3455" />
</g>
</g>
<text fill="hsl(315, 100%, 40%)" y="3487">local.10000.hefty-freer.deep3 3.94 ms</text>
<g>
<title>3.94 ms ± 123 μs</title>
<rect y="3493" rx="5" height="22" width="102.91468123896765" fill="hsl(315, 100%, 80%)" stroke="hsl(315, 100%, 55%)" />
<g stroke="hsl(315, 100%, 40%)"><line x1="99.69318031993201" x2="106.13618215800328" y1="3504" y2="3504" />
<line x1="99.69318031993201" x2="99.69318031993201" y1="3498" y2="3510" />
<line x1="106.13618215800328" x2="106.13618215800328" y1="3498" y2="3510" />
</g>
</g>
<text fill="hsl(320, 100%, 40%)" y="3542">local.10000.hefty-freer.deep4 4.72 ms</text>
<g>
<title>4.72 ms ± 103 μs</title>
<rect y="3548" rx="5" height="22" width="123.06702861699155" fill="hsl(320, 100%, 80%)" stroke="hsl(320, 100%, 55%)" />
<g stroke="hsl(320, 100%, 40%)"><line x1="120.38702453708134" x2="125.74703269690175" y1="3559" y2="3559" />
<line x1="120.38702453708134" x2="120.38702453708134" y1="3553" y2="3565" />
<line x1="125.74703269690175" x2="125.74703269690175" y1="3553" y2="3565" />
</g>
</g>
<text fill="hsl(325, 100%, 40%)" y="3597">local.10000.hefty-freer.deep5 5.63 ms</text>
<g>
<title>5.63 ms ± 264 μs</title>
<rect y="3603" rx="5" height="22" width="147.0101919709859" fill="hsl(325, 100%, 80%)" stroke="hsl(325, 100%, 55%)" />
<g stroke="hsl(325, 100%, 40%)"><line x1="140.11027068410652" x2="153.91011325786525" y1="3614" y2="3614" />
<line x1="140.11027068410652" x2="140.11027068410652" y1="3608" y2="3620" />
<line x1="153.91011325786525" x2="153.91011325786525" y1="3608" y2="3620" />
</g>
</g>
<text fill="hsl(330, 100%, 40%)" y="3652">local.10000.effectful.shallow 715  μs</text>
<g>
<title>715  μs ±  56 μs</title>
<rect y="3658" rx="5" height="22" width="18.666455680979343" fill="hsl(330, 100%, 80%)" stroke="hsl(330, 100%, 55%)" />
<g stroke="hsl(330, 100%, 40%)"><line x1="17.20581994151578" x2="20.127091420442905" y1="3669" y2="3669" />
<line x1="17.20581994151578" x2="17.20581994151578" y1="3663" y2="3675" />
<line x1="20.127091420442905" x2="20.127091420442905" y1="3663" y2="3675" />
</g>
</g>
<text fill="hsl(335, 100%, 40%)" y="3707">local.10000.effectful.deep 719  μs</text>
<g>
<title>719  μs ±  48 μs</title>
<rect y="3713" rx="5" height="22" width="18.753199909400376" fill="hsl(335, 100%, 80%)" stroke="hsl(335, 100%, 55%)" />
<g stroke="hsl(335, 100%, 40%)"><line x1="17.510953440418795" x2="19.995446378381956" y1="3724" y2="3724" />
<line x1="17.510953440418795" x2="17.510953440418795" y1="3718" y2="3730" />
<line x1="19.995446378381956" x2="19.995446378381956" y1="3718" y2="3730" />
</g>
</g>
<text fill="hsl(340, 100%, 40%)" y="3762">local.10000.fused.shallow 1.75 ms</text>
<g>
<title>1.75 ms ±  88 μs</title>
<rect y="3768" rx="5" height="22" width="45.61238217146996" fill="hsl(340, 100%, 80%)" stroke="hsl(340, 100%, 55%)" />
<g stroke="hsl(340, 100%, 40%)"><line x1="43.322465409284646" x2="47.902298933655274" y1="3779" y2="3779" />
<line x1="43.322465409284646" x2="43.322465409284646" y1="3773" y2="3785" />
<line x1="47.902298933655274" x2="47.902298933655274" y1="3773" y2="3785" />
</g>
</g>
<text fill="hsl(345, 100%, 40%)" y="3817">local.10000.fused.deep 7.24 ms</text>
<g>
<title>7.24 ms ± 672 μs</title>
<rect y="3823" rx="5" height="22" width="188.91166643969686" fill="hsl(345, 100%, 80%)" stroke="hsl(345, 100%, 55%)" />
<g stroke="hsl(345, 100%, 40%)"><line x1="171.3663665072512" x2="206.45696637214252" y1="3834" y2="3834" />
<line x1="171.3663665072512" x2="171.3663665072512" y1="3828" y2="3840" />
<line x1="206.45696637214252" x2="206.45696637214252" y1="3828" y2="3840" />
</g>
</g>
<text fill="hsl(350, 100%, 40%)" y="3872">local.10000.sem.shallow 4.42 ms</text>
<g>
<title>4.42 ms ± 234 μs</title>
<rect y="3878" rx="5" height="22" width="115.41918615758469" fill="hsl(350, 100%, 80%)" stroke="hsl(350, 100%, 55%)" />
<g stroke="hsl(350, 100%, 40%)"><line x1="109.31477695877514" x2="121.52359535639424" y1="3889" y2="3889" />
<line x1="109.31477695877514" x2="109.31477695877514" y1="3883" y2="3895" />
<line x1="121.52359535639424" x2="121.52359535639424" y1="3883" y2="3895" />
</g>
</g>
<g fill="hsl(355, 100%, 40%)">
<text y="3927">local.10000.sem.deep</text>
<text y="3927" x="239.00349386096414" text-anchor="end">9.16 ms</text>
</g>
<g>
<title>9.16 ms ± 697 μs</title>
<rect y="3933" rx="5" height="22" width="239.00349386096414" fill="hsl(355, 100%, 80%)" stroke="hsl(355, 100%, 55%)" />
<g stroke="hsl(355, 100%, 40%)"><line x1="220.80876062494522" x2="257.19822709698303" y1="3944" y2="3944" />
<line x1="220.80876062494522" x2="220.80876062494522" y1="3938" y2="3950" />
<line x1="257.19822709698303" x2="257.19822709698303" y1="3938" y2="3950" />
</g>
</g>
</g>
</svg>
