<svg xmlns="http://www.w3.org/2000/svg" height="337" width="960.0" font-size="16" font-family="sans-serif" stroke-width="2">
<g transform="translate(10.0 0)">
<g fill="hsl(0, 100%, 40%)">
<text y="22">coroutine.10000.sp_modified_for_non_scoped_resumption_support.shallow</text>
<text y="22" x="856.8309666813382" text-anchor="end">758  ms</text>
</g>
<g>
<title>758  ms ±  19 ms</title>
<rect y="28" rx="5" height="22" width="856.8309666813382" fill="hsl(0, 100%, 80%)" stroke="hsl(0, 100%, 55%)" />
<g stroke="hsl(0, 100%, 40%)"><line x1="835.4524021162564" x2="878.2095312464199" y1="39" y2="39" />
<line x1="835.4524021162564" x2="835.4524021162564" y1="33" y2="45" />
<line x1="878.2095312464199" x2="878.2095312464199" y1="33" y2="45" />
</g>
</g>
<g fill="hsl(60, 100%, 40%)">
<text y="77">coroutine.10000.sp_modified_for_non_scoped_resumption_support.deep</text>
<text y="77" x="891.2331450212679" text-anchor="end">789  ms</text>
</g>
<g>
<title>789  ms ±  13 ms</title>
<rect y="83" rx="5" height="22" width="891.2331450212679" fill="hsl(60, 100%, 80%)" stroke="hsl(60, 100%, 55%)" />
<g stroke="hsl(60, 100%, 40%)"><line x1="877.006121875696" x2="905.4601681668398" y1="94" y2="94" />
<line x1="877.006121875696" x2="877.006121875696" y1="88" y2="100" />
<line x1="905.4601681668398" x2="905.4601681668398" y1="88" y2="100" />
</g>
</g>
<g fill="hsl(120, 100%, 40%)">
<text y="132">coroutine.10000.mp.shallow</text>
<text y="132" x="930.2688298187527" text-anchor="end">823  ms</text>
</g>
<g>
<title>823  ms ± 8.6 ms</title>
<rect y="138" rx="5" height="22" width="930.2688298187527" fill="hsl(120, 100%, 80%)" stroke="hsl(120, 100%, 55%)" />
<g stroke="hsl(120, 100%, 40%)"><line x1="920.5376596375054" x2="940.0" y1="149" y2="149" />
<line x1="920.5376596375054" x2="920.5376596375054" y1="143" y2="155" />
<line x1="940.0" x2="940.0" y1="143" y2="155" />
</g>
</g>
<g fill="hsl(180, 100%, 40%)">
<text y="187">coroutine.10000.mp.deep</text>
<text y="187" x="922.5463316385434" text-anchor="end">816  ms</text>
</g>
<g>
<title>816  ms ± 6.7 ms</title>
<rect y="193" rx="5" height="22" width="922.5463316385434" fill="hsl(180, 100%, 80%)" stroke="hsl(180, 100%, 55%)" />
<g stroke="hsl(180, 100%, 40%)"><line x1="914.9615217128452" x2="930.1311415642416" y1="204" y2="204" />
<line x1="914.9615217128452" x2="914.9615217128452" y1="198" y2="210" />
<line x1="930.1311415642416" x2="930.1311415642416" y1="198" y2="210" />
</g>
</g>
<text fill="hsl(240, 100%, 40%)" y="242">coroutine.10000.freer.shallow 1.96 ms</text>
<g>
<title>1.96 ms ±  90 μs</title>
<rect y="248" rx="5" height="22" width="2.21267712989428" fill="hsl(240, 100%, 80%)" stroke="hsl(240, 100%, 55%)" />
<g stroke="hsl(240, 100%, 40%)"><line x1="2.110630469112616" x2="2.314723790675944" y1="259" y2="259" />
<line x1="2.110630469112616" x2="2.110630469112616" y1="253" y2="265" />
<line x1="2.314723790675944" x2="2.314723790675944" y1="253" y2="265" />
</g>
</g>
<text fill="hsl(300, 100%, 40%)" y="297">coroutine.10000.freer.deep 2.46 ms</text>
<g>
<title>2.46 ms ±  94 μs</title>
<rect y="303" rx="5" height="22" width="2.7829191449613777" fill="hsl(300, 100%, 80%)" stroke="hsl(300, 100%, 55%)" />
<g stroke="hsl(300, 100%, 40%)"><line x1="2.677004502309436" x2="2.8888337876133194" y1="314" y2="314" />
<line x1="2.677004502309436" x2="2.677004502309436" y1="308" y2="320" />
<line x1="2.8888337876133194" x2="2.8888337876133194" y1="308" y2="320" />
</g>
</g>
</g>
</svg>
