<svg xmlns="http://www.w3.org/2000/svg" height="2647" width="960.0" font-size="16" font-family="sans-serif" stroke-width="2">
<g transform="translate(10.0 0)">
<text fill="hsl(0, 100%, 40%)" y="22">countdown.10000.sp_modified_for_non_scoped_resumption_support.shallow 150  μs</text>
<g>
<title>150  μs ± 6.2 μs</title>
<rect y="28" rx="5" height="22" width="0.17081663930160385" fill="hsl(0, 100%, 80%)" stroke="hsl(0, 100%, 55%)" />
<g stroke="hsl(0, 100%, 40%)"><line x1="0.16378274072740476" x2="0.17785053787580293" y1="39" y2="39" />
<line x1="0.16378274072740476" x2="0.16378274072740476" y1="33" y2="45" />
<line x1="0.17785053787580293" x2="0.17785053787580293" y1="33" y2="45" />
</g>
</g>
<text fill="hsl(7, 100%, 40%)" y="77">countdown.10000.sp_modified_for_non_scoped_resumption_support.deep 155  μs</text>
<g>
<title>155  μs ± 5.9 μs</title>
<rect y="83" rx="5" height="22" width="0.17690632991228547" fill="hsl(7, 100%, 80%)" stroke="hsl(7, 100%, 55%)" />
<g stroke="hsl(7, 100%, 40%)"><line x1="0.17022056457494508" x2="0.18359209524962586" y1="94" y2="94" />
<line x1="0.17022056457494508" x2="0.17022056457494508" y1="88" y2="100" />
<line x1="0.18359209524962586" x2="0.18359209524962586" y1="88" y2="100" />
</g>
</g>
<text fill="hsl(15, 100%, 40%)" y="132">countdown.10000.effectful.shallow 233  μs</text>
<g>
<title>233  μs ±  22 μs</title>
<rect y="138" rx="5" height="22" width="0.2659617846316726" fill="hsl(15, 100%, 80%)" stroke="hsl(15, 100%, 55%)" />
<g stroke="hsl(15, 100%, 40%)"><line x1="0.24095879674417908" x2="0.2909647725191661" y1="149" y2="149" />
<line x1="0.24095879674417908" x2="0.24095879674417908" y1="143" y2="155" />
<line x1="0.2909647725191661" x2="0.2909647725191661" y1="143" y2="155" />
</g>
</g>
<text fill="hsl(22, 100%, 40%)" y="187">countdown.10000.effectful.deep 233  μs</text>
<g>
<title>233  μs ± 5.7 μs</title>
<rect y="193" rx="5" height="22" width="0.2652184240815553" fill="hsl(22, 100%, 80%)" stroke="hsl(22, 100%, 55%)" />
<g stroke="hsl(22, 100%, 40%)"><line x1="0.2587129922624421" x2="0.27172385590066855" y1="204" y2="204" />
<line x1="0.2587129922624421" x2="0.2587129922624421" y1="198" y2="210" />
<line x1="0.27172385590066855" x2="0.27172385590066855" y1="198" y2="210" />
</g>
</g>
<text fill="hsl(30, 100%, 40%)" y="242">countdown.10000.ev.shallow 332  μs</text>
<g>
<title>332  μs ±  14 μs</title>
<rect y="248" rx="5" height="22" width="0.37787445351411" fill="hsl(30, 100%, 80%)" stroke="hsl(30, 100%, 55%)" />
<g stroke="hsl(30, 100%, 40%)"><line x1="0.36244294568606306" x2="0.3933059613421569" y1="259" y2="259" />
<line x1="0.36244294568606306" x2="0.36244294568606306" y1="253" y2="265" />
<line x1="0.3933059613421569" x2="0.3933059613421569" y1="253" y2="265" />
</g>
</g>
<text fill="hsl(37, 100%, 40%)" y="297">countdown.10000.ev.deep 331  μs</text>
<g>
<title>331  μs ±  25 μs</title>
<rect y="303" rx="5" height="22" width="0.376918638449712" fill="hsl(37, 100%, 80%)" stroke="hsl(37, 100%, 55%)" />
<g stroke="hsl(37, 100%, 40%)"><line x1="0.348165871927465" x2="0.405671404971959" y1="314" y2="314" />
<line x1="0.348165871927465" x2="0.348165871927465" y1="308" y2="320" />
<line x1="0.405671404971959" x2="0.405671404971959" y1="308" y2="320" />
</g>
</g>
<text fill="hsl(45, 100%, 40%)" y="352">countdown.10000.freer.shallow 472  μs</text>
<g>
<title>472  μs ±  30 μs</title>
<rect y="358" rx="5" height="22" width="0.5383127739140909" fill="hsl(45, 100%, 80%)" stroke="hsl(45, 100%, 55%)" />
<g stroke="hsl(45, 100%, 40%)"><line x1="0.503917843869507" x2="0.5727077039586749" y1="369" y2="369" />
<line x1="0.503917843869507" x2="0.503917843869507" y1="363" y2="375" />
<line x1="0.5727077039586749" x2="0.5727077039586749" y1="363" y2="375" />
</g>
</g>
<text fill="hsl(52, 100%, 40%)" y="407">countdown.10000.freer.deep 1.42 ms</text>
<g>
<title>1.42 ms ± 105 μs</title>
<rect y="413" rx="5" height="22" width="1.6216588912844927" fill="hsl(52, 100%, 80%)" stroke="hsl(52, 100%, 55%)" />
<g stroke="hsl(52, 100%, 40%)"><line x1="1.5025372700986184" x2="1.740780512470367" y1="424" y2="424" />
<line x1="1.5025372700986184" x2="1.5025372700986184" y1="418" y2="430" />
<line x1="1.740780512470367" x2="1.740780512470367" y1="418" y2="430" />
</g>
</g>
<text fill="hsl(60, 100%, 40%)" y="462">countdown.10000.mtl.shallow 1.29 ms</text>
<g>
<title>1.29 ms ±  57 μs</title>
<rect y="468" rx="5" height="22" width="1.4748353126680975" fill="hsl(60, 100%, 80%)" stroke="hsl(60, 100%, 55%)" />
<g stroke="hsl(60, 100%, 40%)"><line x1="1.4096606148320676" x2="1.5400100105041274" y1="479" y2="479" />
<line x1="1.4096606148320676" x2="1.4096606148320676" y1="473" y2="485" />
<line x1="1.5400100105041274" x2="1.5400100105041274" y1="473" y2="485" />
</g>
</g>
<text fill="hsl(67, 100%, 40%)" y="517">countdown.10000.mtl.deep 10.1 ms</text>
<g>
<title>10.1 ms ± 717 μs</title>
<rect y="523" rx="5" height="22" width="11.461754000307538" fill="hsl(67, 100%, 80%)" stroke="hsl(67, 100%, 55%)" />
<g stroke="hsl(67, 100%, 40%)"><line x1="10.644232070477305" x2="12.279275930137771" y1="534" y2="534" />
<line x1="10.644232070477305" x2="10.644232070477305" y1="528" y2="540" />
<line x1="12.279275930137771" x2="12.279275930137771" y1="528" y2="540" />
</g>
</g>
<text fill="hsl(75, 100%, 40%)" y="572">countdown.10000.fused.shallow 2.28 ms</text>
<g>
<title>2.28 ms ± 178 μs</title>
<rect y="578" rx="5" height="22" width="2.598642809135584" fill="hsl(75, 100%, 80%)" stroke="hsl(75, 100%, 55%)" />
<g stroke="hsl(75, 100%, 40%)"><line x1="2.3962191575910126" x2="2.801066460680156" y1="589" y2="589" />
<line x1="2.3962191575910126" x2="2.3962191575910126" y1="583" y2="595" />
<line x1="2.801066460680156" x2="2.801066460680156" y1="583" y2="595" />
</g>
</g>
<text fill="hsl(82, 100%, 40%)" y="627">countdown.10000.fused.deep 17.0 ms</text>
<g>
<title>17.0 ms ± 677 μs</title>
<rect y="633" rx="5" height="22" width="19.33340434184691" fill="hsl(82, 100%, 80%)" stroke="hsl(82, 100%, 55%)" />
<g stroke="hsl(82, 100%, 40%)"><line x1="18.561733761502747" x2="20.105074922191076" y1="644" y2="644" />
<line x1="18.561733761502747" x2="18.561733761502747" y1="638" y2="650" />
<line x1="20.105074922191076" x2="20.105074922191076" y1="638" y2="650" />
</g>
</g>
<text fill="hsl(90, 100%, 40%)" y="682">countdown.10000.sem.shallow 2.77 ms</text>
<g>
<title>2.77 ms ± 129 μs</title>
<rect y="688" rx="5" height="22" width="3.159831553457937" fill="hsl(90, 100%, 80%)" stroke="hsl(90, 100%, 55%)" />
<g stroke="hsl(90, 100%, 40%)"><line x1="3.0130507203870707" x2="3.306612386528803" y1="699" y2="699" />
<line x1="3.0130507203870707" x2="3.0130507203870707" y1="693" y2="705" />
<line x1="3.306612386528803" x2="3.306612386528803" y1="693" y2="705" />
</g>
</g>
<text fill="hsl(97, 100%, 40%)" y="737">countdown.10000.sem.deep 4.68 ms</text>
<g>
<title>4.68 ms ± 354 μs</title>
<rect y="743" rx="5" height="22" width="5.33094472467339" fill="hsl(97, 100%, 80%)" stroke="hsl(97, 100%, 55%)" />
<g stroke="hsl(97, 100%, 40%)"><line x1="4.927978038651985" x2="5.7339114106947955" y1="754" y2="754" />
<line x1="4.927978038651985" x2="4.927978038651985" y1="748" y2="760" />
<line x1="5.7339114106947955" x2="5.7339114106947955" y1="748" y2="760" />
</g>
</g>
<text fill="hsl(105, 100%, 40%)" y="792">pyth.32.sp_modified_for_non_scoped_resumption_support.shallow 4.09 ms</text>
<g>
<title>4.09 ms ± 371 μs</title>
<rect y="798" rx="5" height="22" width="4.656955951284933" fill="hsl(105, 100%, 80%)" stroke="hsl(105, 100%, 55%)" />
<g stroke="hsl(105, 100%, 40%)"><line x1="4.233659909658246" x2="5.080251992911619" y1="809" y2="809" />
<line x1="4.233659909658246" x2="4.233659909658246" y1="803" y2="815" />
<line x1="5.080251992911619" x2="5.080251992911619" y1="803" y2="815" />
</g>
</g>
<text fill="hsl(112, 100%, 40%)" y="847">pyth.32.sp_modified_for_non_scoped_resumption_support.deep 10.3 ms</text>
<g>
<title>10.3 ms ± 347 μs</title>
<rect y="853" rx="5" height="22" width="11.71543908439485" fill="hsl(112, 100%, 80%)" stroke="hsl(112, 100%, 55%)" />
<g stroke="hsl(112, 100%, 40%)"><line x1="11.32021305460829" x2="12.11066511418141" y1="864" y2="864" />
<line x1="11.32021305460829" x2="11.32021305460829" y1="858" y2="870" />
<line x1="12.11066511418141" x2="12.11066511418141" y1="858" y2="870" />
</g>
</g>
<text fill="hsl(120, 100%, 40%)" y="902">pyth.32.ev.shallow 1.45 ms</text>
<g>
<title>1.45 ms ± 144 μs</title>
<rect y="908" rx="5" height="22" width="1.653939999902766" fill="hsl(120, 100%, 80%)" stroke="hsl(120, 100%, 55%)" />
<g stroke="hsl(120, 100%, 40%)"><line x1="1.4892477152150725" x2="1.8186322845904594" y1="919" y2="919" />
<line x1="1.4892477152150725" x2="1.4892477152150725" y1="913" y2="925" />
<line x1="1.8186322845904594" x2="1.8186322845904594" y1="913" y2="925" />
</g>
</g>
<text fill="hsl(127, 100%, 40%)" y="957">pyth.32.ev.deep 2.83 ms</text>
<g>
<title>2.83 ms ± 265 μs</title>
<rect y="963" rx="5" height="22" width="3.225714054197814" fill="hsl(127, 100%, 80%)" stroke="hsl(127, 100%, 55%)" />
<g stroke="hsl(127, 100%, 40%)"><line x1="2.9235512629980684" x2="3.52787684539756" y1="974" y2="974" />
<line x1="2.9235512629980684" x2="2.9235512629980684" y1="968" y2="980" />
<line x1="3.52787684539756" x2="3.52787684539756" y1="968" y2="980" />
</g>
</g>
<text fill="hsl(135, 100%, 40%)" y="1012">pyth.32.freer.shallow 7.28 ms</text>
<g>
<title>7.28 ms ± 409 μs</title>
<rect y="1018" rx="5" height="22" width="8.296617687148371" fill="hsl(135, 100%, 80%)" stroke="hsl(135, 100%, 55%)" />
<g stroke="hsl(135, 100%, 40%)"><line x1="7.830746186252154" x2="8.762489188044588" y1="1029" y2="1029" />
<line x1="7.830746186252154" x2="7.830746186252154" y1="1023" y2="1035" />
<line x1="8.762489188044588" x2="8.762489188044588" y1="1023" y2="1035" />
</g>
</g>
<text fill="hsl(142, 100%, 40%)" y="1067">pyth.32.freer.deep 10.7 ms</text>
<g>
<title>10.7 ms ± 689 μs</title>
<rect y="1073" rx="5" height="22" width="12.17607907354326" fill="hsl(142, 100%, 80%)" stroke="hsl(142, 100%, 55%)" />
<g stroke="hsl(142, 100%, 40%)"><line x1="11.390605043413323" x2="12.961553103673197" y1="1084" y2="1084" />
<line x1="11.390605043413323" x2="11.390605043413323" y1="1078" y2="1090" />
<line x1="12.961553103673197" x2="12.961553103673197" y1="1078" y2="1090" />
</g>
</g>
<text fill="hsl(150, 100%, 40%)" y="1122">pyth.32.fused.shallow 1.54 ms</text>
<g>
<title>1.54 ms ±  89 μs</title>
<rect y="1128" rx="5" height="22" width="1.7545090740573923" fill="hsl(150, 100%, 80%)" stroke="hsl(150, 100%, 55%)" />
<g stroke="hsl(150, 100%, 40%)"><line x1="1.6531761813101655" x2="1.855841966804619" y1="1139" y2="1139" />
<line x1="1.6531761813101655" x2="1.6531761813101655" y1="1133" y2="1145" />
<line x1="1.855841966804619" x2="1.855841966804619" y1="1133" y2="1145" />
</g>
</g>
<text fill="hsl(157, 100%, 40%)" y="1177">pyth.32.fused.deep 13.1 ms</text>
<g>
<title>13.1 ms ± 873 μs</title>
<rect y="1183" rx="5" height="22" width="14.892534612030463" fill="hsl(157, 100%, 80%)" stroke="hsl(157, 100%, 55%)" />
<g stroke="hsl(157, 100%, 40%)"><line x1="13.897976446909759" x2="15.887092777151167" y1="1194" y2="1194" />
<line x1="13.897976446909759" x2="13.897976446909759" y1="1188" y2="1200" />
<line x1="15.887092777151167" x2="15.887092777151167" y1="1188" y2="1200" />
</g>
</g>
<text fill="hsl(165, 100%, 40%)" y="1232">pyth.32.sem.shallow 15.8 ms</text>
<g>
<title>15.8 ms ± 517 μs</title>
<rect y="1238" rx="5" height="22" width="18.04360119029484" fill="hsl(165, 100%, 80%)" stroke="hsl(165, 100%, 55%)" />
<g stroke="hsl(165, 100%, 40%)"><line x1="17.453775891800547" x2="18.633426488789134" y1="1249" y2="1249" />
<line x1="17.453775891800547" x2="17.453775891800547" y1="1243" y2="1255" />
<line x1="18.633426488789134" x2="18.633426488789134" y1="1243" y2="1255" />
</g>
</g>
<text fill="hsl(172, 100%, 40%)" y="1287">pyth.32.sem.deep 15.9 ms</text>
<g>
<title>15.9 ms ± 777 μs</title>
<rect y="1293" rx="5" height="22" width="18.067603997844394" fill="hsl(172, 100%, 80%)" stroke="hsl(172, 100%, 55%)" />
<g stroke="hsl(172, 100%, 40%)"><line x1="17.18242358053269" x2="18.9527844151561" y1="1304" y2="1304" />
<line x1="17.18242358053269" x2="17.18242358053269" y1="1298" y2="1310" />
<line x1="18.9527844151561" x2="18.9527844151561" y1="1298" y2="1310" />
</g>
</g>
<text fill="hsl(180, 100%, 40%)" y="1342">catch.10000.sp_modified_for_non_scoped_resumption_support.shallow 204  μs</text>
<g>
<title>204  μs ±  12 μs</title>
<rect y="1348" rx="5" height="22" width="0.23218671686046993" fill="hsl(180, 100%, 80%)" stroke="hsl(180, 100%, 55%)" />
<g stroke="hsl(180, 100%, 40%)"><line x1="0.21903798598609478" x2="0.24533544773484509" y1="1359" y2="1359" />
<line x1="0.21903798598609478" x2="0.21903798598609478" y1="1353" y2="1365" />
<line x1="0.24533544773484509" x2="0.24533544773484509" y1="1353" y2="1365" />
</g>
</g>
<text fill="hsl(187, 100%, 40%)" y="1397">catch.10000.sp_modified_for_non_scoped_resumption_support.deep 211  μs</text>
<g>
<title>211  μs ±  15 μs</title>
<rect y="1403" rx="5" height="22" width="0.2400506821568162" fill="hsl(187, 100%, 80%)" stroke="hsl(187, 100%, 55%)" />
<g stroke="hsl(187, 100%, 40%)"><line x1="0.22257211396487367" x2="0.25752925034875873" y1="1414" y2="1414" />
<line x1="0.22257211396487367" x2="0.22257211396487367" y1="1408" y2="1420" />
<line x1="0.25752925034875873" x2="0.25752925034875873" y1="1408" y2="1420" />
</g>
</g>
<text fill="hsl(195, 100%, 40%)" y="1452">catch.10000.effectful.shallow 1.32 ms</text>
<g>
<title>1.32 ms ±  96 μs</title>
<rect y="1458" rx="5" height="22" width="1.508597373601615" fill="hsl(195, 100%, 80%)" stroke="hsl(195, 100%, 55%)" />
<g stroke="hsl(195, 100%, 40%)"><line x1="1.3993192829496406" x2="1.6178754642535893" y1="1469" y2="1469" />
<line x1="1.3993192829496406" x2="1.3993192829496406" y1="1463" y2="1475" />
<line x1="1.6178754642535893" x2="1.6178754642535893" y1="1463" y2="1475" />
</g>
</g>
<text fill="hsl(202, 100%, 40%)" y="1507">catch.10000.effectful.deep 1.32 ms</text>
<g>
<title>1.32 ms ±  86 μs</title>
<rect y="1513" rx="5" height="22" width="1.5001828307240137" fill="hsl(202, 100%, 80%)" stroke="hsl(202, 100%, 55%)" />
<g stroke="hsl(202, 100%, 40%)"><line x1="1.401772246469557" x2="1.5985934149784704" y1="1524" y2="1524" />
<line x1="1.401772246469557" x2="1.401772246469557" y1="1518" y2="1530" />
<line x1="1.5985934149784704" x2="1.5985934149784704" y1="1518" y2="1530" />
</g>
</g>
<text fill="hsl(210, 100%, 40%)" y="1562">catch.10000.fused.shallow 5.01 ms</text>
<g>
<title>5.01 ms ± 173 μs</title>
<rect y="1568" rx="5" height="22" width="5.710432570909148" fill="hsl(210, 100%, 80%)" stroke="hsl(210, 100%, 55%)" />
<g stroke="hsl(210, 100%, 40%)"><line x1="5.512752714024046" x2="5.908112427794251" y1="1579" y2="1579" />
<line x1="5.512752714024046" x2="5.512752714024046" y1="1573" y2="1585" />
<line x1="5.908112427794251" x2="5.908112427794251" y1="1573" y2="1585" />
</g>
</g>
<text fill="hsl(217, 100%, 40%)" y="1617">catch.10000.fused.deep 26.1 ms</text>
<g>
<title>26.1 ms ± 1.8 ms</title>
<rect y="1623" rx="5" height="22" width="29.713912668921157" fill="hsl(217, 100%, 80%)" stroke="hsl(217, 100%, 55%)" />
<g stroke="hsl(217, 100%, 40%)"><line x1="27.67450959257155" x2="31.753315745270765" y1="1634" y2="1634" />
<line x1="27.67450959257155" x2="27.67450959257155" y1="1628" y2="1640" />
<line x1="31.753315745270765" x2="31.753315745270765" y1="1628" y2="1640" />
</g>
</g>
<text fill="hsl(225, 100%, 40%)" y="1672">catch.10000.sem.shallow 3.19 ms</text>
<g>
<title>3.19 ms ± 167 μs</title>
<rect y="1678" rx="5" height="22" width="3.6401117204701476" fill="hsl(225, 100%, 80%)" stroke="hsl(225, 100%, 55%)" />
<g stroke="hsl(225, 100%, 40%)"><line x1="3.449425377244759" x2="3.830798063695536" y1="1689" y2="1689" />
<line x1="3.449425377244759" x2="3.449425377244759" y1="1683" y2="1695" />
<line x1="3.830798063695536" x2="3.830798063695536" y1="1683" y2="1695" />
</g>
</g>
<text fill="hsl(232, 100%, 40%)" y="1727">catch.10000.sem.deep 13.2 ms</text>
<g>
<title>13.2 ms ± 501 μs</title>
<rect y="1733" rx="5" height="22" width="15.051543459197697" fill="hsl(232, 100%, 80%)" stroke="hsl(232, 100%, 55%)" />
<g stroke="hsl(232, 100%, 40%)"><line x1="14.480214303356771" x2="15.622872615038624" y1="1744" y2="1744" />
<line x1="14.480214303356771" x2="14.480214303356771" y1="1738" y2="1750" />
<line x1="15.622872615038624" x2="15.622872615038624" y1="1738" y2="1750" />
</g>
</g>
<text fill="hsl(240, 100%, 40%)" y="1782">local.10000.sp_modified_for_non_scoped_resumption_support.shallow 341  μs</text>
<g>
<title>341  μs ±  27 μs</title>
<rect y="1788" rx="5" height="22" width="0.38865922839940037" fill="hsl(240, 100%, 80%)" stroke="hsl(240, 100%, 55%)" />
<g stroke="hsl(240, 100%, 40%)"><line x1="0.35834957611996093" x2="0.4189688806788398" y1="1799" y2="1799" />
<line x1="0.35834957611996093" x2="0.35834957611996093" y1="1793" y2="1805" />
<line x1="0.4189688806788398" x2="0.4189688806788398" y1="1793" y2="1805" />
</g>
</g>
<text fill="hsl(247, 100%, 40%)" y="1837">local.10000.sp_modified_for_non_scoped_resumption_support.deep 343  μs</text>
<g>
<title>343  μs ±  11 μs</title>
<rect y="1843" rx="5" height="22" width="0.39073179748475384" fill="hsl(247, 100%, 80%)" stroke="hsl(247, 100%, 55%)" />
<g stroke="hsl(247, 100%, 40%)"><line x1="0.37855924169008925" x2="0.4029043532794184" y1="1854" y2="1854" />
<line x1="0.37855924169008925" x2="0.37855924169008925" y1="1848" y2="1860" />
<line x1="0.4029043532794184" x2="0.4029043532794184" y1="1848" y2="1860" />
</g>
</g>
<text fill="hsl(255, 100%, 40%)" y="1892">local.10000.effectful.shallow 768  μs</text>
<g>
<title>768  μs ±  69 μs</title>
<rect y="1898" rx="5" height="22" width="0.8749465631027653" fill="hsl(255, 100%, 80%)" stroke="hsl(255, 100%, 55%)" />
<g stroke="hsl(255, 100%, 40%)"><line x1="0.7964661951723233" x2="0.9534269310332073" y1="1909" y2="1909" />
<line x1="0.7964661951723233" x2="0.7964661951723233" y1="1903" y2="1915" />
<line x1="0.9534269310332073" x2="0.9534269310332073" y1="1903" y2="1915" />
</g>
</g>
<text fill="hsl(262, 100%, 40%)" y="1947">local.10000.effectful.deep 766  μs</text>
<g>
<title>766  μs ±  56 μs</title>
<rect y="1953" rx="5" height="22" width="0.8734502091232672" fill="hsl(262, 100%, 80%)" stroke="hsl(262, 100%, 55%)" />
<g stroke="hsl(262, 100%, 40%)"><line x1="0.8096720701877614" x2="0.937228348058773" y1="1964" y2="1964" />
<line x1="0.8096720701877614" x2="0.8096720701877614" y1="1958" y2="1970" />
<line x1="0.937228348058773" x2="0.937228348058773" y1="1958" y2="1970" />
</g>
</g>
<text fill="hsl(270, 100%, 40%)" y="2002">local.10000.fused.shallow 1.76 ms</text>
<g>
<title>1.76 ms ± 111 μs</title>
<rect y="2008" rx="5" height="22" width="2.011043406759439" fill="hsl(270, 100%, 80%)" stroke="hsl(270, 100%, 55%)" />
<g stroke="hsl(270, 100%, 40%)"><line x1="1.8841386926927612" x2="2.1379481208261164" y1="2019" y2="2019" />
<line x1="1.8841386926927612" x2="1.8841386926927612" y1="2013" y2="2025" />
<line x1="2.1379481208261164" x2="2.1379481208261164" y1="2013" y2="2025" />
</g>
</g>
<text fill="hsl(277, 100%, 40%)" y="2057">local.10000.fused.deep 7.67 ms</text>
<g>
<title>7.67 ms ± 466 μs</title>
<rect y="2063" rx="5" height="22" width="8.74244168905035" fill="hsl(277, 100%, 80%)" stroke="hsl(277, 100%, 55%)" />
<g stroke="hsl(277, 100%, 40%)"><line x1="8.210869611024375" x2="9.274013767076326" y1="2074" y2="2074" />
<line x1="8.210869611024375" x2="8.210869611024375" y1="2068" y2="2080" />
<line x1="9.274013767076326" x2="9.274013767076326" y1="2068" y2="2080" />
</g>
</g>
<text fill="hsl(285, 100%, 40%)" y="2112">local.10000.sem.shallow 4.38 ms</text>
<g>
<title>4.38 ms ± 421 μs</title>
<rect y="2118" rx="5" height="22" width="4.994010963224623" fill="hsl(285, 100%, 80%)" stroke="hsl(285, 100%, 55%)" />
<g stroke="hsl(285, 100%, 40%)"><line x1="4.514490150009358" x2="5.473531776439888" y1="2129" y2="2129" />
<line x1="4.514490150009358" x2="4.514490150009358" y1="2123" y2="2135" />
<line x1="5.473531776439888" x2="5.473531776439888" y1="2123" y2="2135" />
</g>
</g>
<text fill="hsl(292, 100%, 40%)" y="2167">local.10000.sem.deep 8.84 ms</text>
<g>
<title>8.84 ms ± 758 μs</title>
<rect y="2173" rx="5" height="22" width="10.0741468326943" fill="hsl(292, 100%, 80%)" stroke="hsl(292, 100%, 55%)" />
<g stroke="hsl(292, 100%, 40%)"><line x1="9.21014387698907" x2="10.93814978839953" y1="2184" y2="2184" />
<line x1="9.21014387698907" x2="9.21014387698907" y1="2178" y2="2190" />
<line x1="10.93814978839953" x2="10.93814978839953" y1="2178" y2="2190" />
</g>
</g>
<text fill="hsl(300, 100%, 40%)" y="2222">coroutine.10000.sp_modified_for_non_scoped_resumption_support.shallow 3.40 ms</text>
<g>
<title>3.40 ms ± 226 μs</title>
<rect y="2228" rx="5" height="22" width="3.871690908243088" fill="hsl(300, 100%, 80%)" stroke="hsl(300, 100%, 55%)" />
<g stroke="hsl(300, 100%, 40%)"><line x1="3.6142553866872493" x2="4.1291264297989265" y1="2239" y2="2239" />
<line x1="3.6142553866872493" x2="3.6142553866872493" y1="2233" y2="2245" />
<line x1="4.1291264297989265" x2="4.1291264297989265" y1="2233" y2="2245" />
</g>
</g>
<text fill="hsl(307, 100%, 40%)" y="2277">coroutine.10000.sp_modified_for_non_scoped_resumption_support.deep 5.93 ms</text>
<g>
<title>5.93 ms ± 409 μs</title>
<rect y="2283" rx="5" height="22" width="6.761052740341161" fill="hsl(307, 100%, 80%)" stroke="hsl(307, 100%, 55%)" />
<g stroke="hsl(307, 100%, 40%)"><line x1="6.294430558772873" x2="7.22767492190945" y1="2294" y2="2294" />
<line x1="6.294430558772873" x2="6.294430558772873" y1="2288" y2="2300" />
<line x1="7.22767492190945" x2="7.22767492190945" y1="2288" y2="2300" />
</g>
</g>
<g fill="hsl(315, 100%, 40%)">
<text y="2332">coroutine.10000.mp.shallow</text>
<text y="2332" x="922.3697794053302" text-anchor="end">809  ms</text>
</g>
<g>
<title>809  ms ±  12 ms</title>
<rect y="2338" rx="5" height="22" width="922.3697794053302" fill="hsl(315, 100%, 80%)" stroke="hsl(315, 100%, 55%)" />
<g stroke="hsl(315, 100%, 40%)"><line x1="908.8560047568814" x2="935.883554053779" y1="2349" y2="2349" />
<line x1="908.8560047568814" x2="908.8560047568814" y1="2343" y2="2355" />
<line x1="935.883554053779" x2="935.883554053779" y1="2343" y2="2355" />
</g>
</g>
<g fill="hsl(322, 100%, 40%)">
<text y="2387">coroutine.10000.mp.deep</text>
<text y="2387" x="928.0924373686788" text-anchor="end">814  ms</text>
</g>
<g>
<title>814  ms ±  10 ms</title>
<rect y="2393" rx="5" height="22" width="928.0924373686788" fill="hsl(322, 100%, 80%)" stroke="hsl(322, 100%, 55%)" />
<g stroke="hsl(322, 100%, 40%)"><line x1="916.1848747373576" x2="940.0" y1="2404" y2="2404" />
<line x1="916.1848747373576" x2="916.1848747373576" y1="2398" y2="2410" />
<line x1="940.0" x2="940.0" y1="2398" y2="2410" />
</g>
</g>
<text fill="hsl(330, 100%, 40%)" y="2442">coroutine.10000.freer.shallow 2.44 ms</text>
<g>
<title>2.44 ms ± 163 μs</title>
<rect y="2448" rx="5" height="22" width="2.785753003781785" fill="hsl(330, 100%, 80%)" stroke="hsl(330, 100%, 55%)" />
<g stroke="hsl(330, 100%, 40%)"><line x1="2.600317123463906" x2="2.9711888840996634" y1="2459" y2="2459" />
<line x1="2.600317123463906" x2="2.600317123463906" y1="2453" y2="2465" />
<line x1="2.9711888840996634" x2="2.9711888840996634" y1="2453" y2="2465" />
</g>
</g>
<text fill="hsl(337, 100%, 40%)" y="2497">coroutine.10000.freer.deep 3.15 ms</text>
<g>
<title>3.15 ms ± 267 μs</title>
<rect y="2503" rx="5" height="22" width="3.594774040195843" fill="hsl(337, 100%, 80%)" stroke="hsl(337, 100%, 55%)" />
<g stroke="hsl(337, 100%, 40%)"><line x1="3.2905357105993627" x2="3.899012369792323" y1="2514" y2="2514" />
<line x1="3.2905357105993627" x2="3.2905357105993627" y1="2508" y2="2520" />
<line x1="3.899012369792323" x2="3.899012369792323" y1="2508" y2="2520" />
</g>
</g>
<g fill="hsl(345, 100%, 40%)">
<text y="2552">coroutine.10000.eff.shallow</text>
<text y="2552" x="431.99018671838087" text-anchor="end">379  ms</text>
</g>
<g>
<title>379  ms ± 7.9 ms</title>
<rect y="2558" rx="5" height="22" width="431.99018671838087" fill="hsl(345, 100%, 80%)" stroke="hsl(345, 100%, 55%)" />
<g stroke="hsl(345, 100%, 40%)"><line x1="423.00197875218197" x2="440.97839468457977" y1="2569" y2="2569" />
<line x1="423.00197875218197" x2="423.00197875218197" y1="2563" y2="2575" />
<line x1="440.97839468457977" x2="440.97839468457977" y1="2563" y2="2575" />
</g>
</g>
<g fill="hsl(352, 100%, 40%)">
<text y="2607">coroutine.10000.eff.deep</text>
<text y="2607" x="437.5231395380462" text-anchor="end">384  ms</text>
</g>
<g>
<title>384  ms ± 3.2 ms</title>
<rect y="2613" rx="5" height="22" width="437.5231395380462" fill="hsl(352, 100%, 80%)" stroke="hsl(352, 100%, 55%)" />
<g stroke="hsl(352, 100%, 40%)"><line x1="433.8595297770034" x2="441.18674929908906" y1="2624" y2="2624" />
<line x1="433.8595297770034" x2="433.8595297770034" y1="2618" y2="2630" />
<line x1="441.18674929908906" x2="441.18674929908906" y1="2618" y2="2630" />
</g>
</g>
</g>
</svg>
