<svg xmlns="http://www.w3.org/2000/svg" height="2647" width="960.0" font-size="16" font-family="sans-serif" stroke-width="2">
<g transform="translate(10.0 0)">
<text fill="hsl(0, 100%, 40%)" y="22">countdown.10000.sp_modified_for_non_scoped_resumption_support.shallow 152  μs</text>
<g>
<title>152  μs ±  11 μs</title>
<rect y="28" rx="5" height="22" width="0.17356734266232832" fill="hsl(0, 100%, 80%)" stroke="hsl(0, 100%, 55%)" />
<g stroke="hsl(0, 100%, 40%)"><line x1="0.16075525447934552" x2="0.1863794308453111" y1="39" y2="39" />
<line x1="0.16075525447934552" x2="0.16075525447934552" y1="33" y2="45" />
<line x1="0.1863794308453111" x2="0.1863794308453111" y1="33" y2="45" />
</g>
</g>
<text fill="hsl(7, 100%, 40%)" y="77">countdown.10000.sp_modified_for_non_scoped_resumption_support.deep 154  μs</text>
<g>
<title>154  μs ±  14 μs</title>
<rect y="83" rx="5" height="22" width="0.17607491123410843" fill="hsl(7, 100%, 80%)" stroke="hsl(7, 100%, 55%)" />
<g stroke="hsl(7, 100%, 40%)"><line x1="0.15999641543745396" x2="0.1921534070307629" y1="94" y2="94" />
<line x1="0.15999641543745396" x2="0.15999641543745396" y1="88" y2="100" />
<line x1="0.1921534070307629" x2="0.1921534070307629" y1="88" y2="100" />
</g>
</g>
<text fill="hsl(15, 100%, 40%)" y="132">countdown.10000.effectful.shallow 233  μs</text>
<g>
<title>233  μs ±  22 μs</title>
<rect y="138" rx="5" height="22" width="0.2655045781438411" fill="hsl(15, 100%, 80%)" stroke="hsl(15, 100%, 55%)" />
<g stroke="hsl(15, 100%, 40%)"><line x1="0.24017634665548052" x2="0.29083280963220165" y1="149" y2="149" />
<line x1="0.24017634665548052" x2="0.24017634665548052" y1="143" y2="155" />
<line x1="0.29083280963220165" x2="0.29083280963220165" y1="143" y2="155" />
</g>
</g>
<text fill="hsl(22, 100%, 40%)" y="187">countdown.10000.effectful.deep 228  μs</text>
<g>
<title>228  μs ±  14 μs</title>
<rect y="193" rx="5" height="22" width="0.25990639205728266" fill="hsl(22, 100%, 80%)" stroke="hsl(22, 100%, 55%)" />
<g stroke="hsl(22, 100%, 40%)"><line x1="0.2442913901498597" x2="0.2755213939647056" y1="204" y2="204" />
<line x1="0.2442913901498597" x2="0.2442913901498597" y1="198" y2="210" />
<line x1="0.2755213939647056" x2="0.2755213939647056" y1="198" y2="210" />
</g>
</g>
<text fill="hsl(30, 100%, 40%)" y="242">countdown.10000.ev.shallow 282  μs</text>
<g>
<title>282  μs ±  23 μs</title>
<rect y="248" rx="5" height="22" width="0.3216801820911778" fill="hsl(30, 100%, 80%)" stroke="hsl(30, 100%, 55%)" />
<g stroke="hsl(30, 100%, 40%)"><line x1="0.2957974535839109" x2="0.34756291059844474" y1="259" y2="259" />
<line x1="0.2957974535839109" x2="0.2957974535839109" y1="253" y2="265" />
<line x1="0.34756291059844474" x2="0.34756291059844474" y1="253" y2="265" />
</g>
</g>
<text fill="hsl(37, 100%, 40%)" y="297">countdown.10000.ev.deep 278  μs</text>
<g>
<title>278  μs ±  19 μs</title>
<rect y="303" rx="5" height="22" width="0.31703747641877666" fill="hsl(37, 100%, 80%)" stroke="hsl(37, 100%, 55%)" />
<g stroke="hsl(37, 100%, 40%)"><line x1="0.2958725195362454" x2="0.33820243330130795" y1="314" y2="314" />
<line x1="0.2958725195362454" x2="0.2958725195362454" y1="308" y2="320" />
<line x1="0.33820243330130795" x2="0.33820243330130795" y1="308" y2="320" />
</g>
</g>
<text fill="hsl(45, 100%, 40%)" y="352">countdown.10000.freer.shallow 474  μs</text>
<g>
<title>474  μs ±  46 μs</title>
<rect y="358" rx="5" height="22" width="0.5406728173477391" fill="hsl(45, 100%, 80%)" stroke="hsl(45, 100%, 55%)" />
<g stroke="hsl(45, 100%, 40%)"><line x1="0.48824660026321015" x2="0.5930990344322681" y1="369" y2="369" />
<line x1="0.48824660026321015" x2="0.48824660026321015" y1="363" y2="375" />
<line x1="0.5930990344322681" x2="0.5930990344322681" y1="363" y2="375" />
</g>
</g>
<text fill="hsl(52, 100%, 40%)" y="407">countdown.10000.freer.deep 1.40 ms</text>
<g>
<title>1.40 ms ± 139 μs</title>
<rect y="413" rx="5" height="22" width="1.5940963383376199" fill="hsl(52, 100%, 80%)" stroke="hsl(52, 100%, 55%)" />
<g stroke="hsl(52, 100%, 40%)"><line x1="1.4355065013678097" x2="1.75268617530743" y1="424" y2="424" />
<line x1="1.4355065013678097" x2="1.4355065013678097" y1="418" y2="430" />
<line x1="1.75268617530743" x2="1.75268617530743" y1="418" y2="430" />
</g>
</g>
<text fill="hsl(60, 100%, 40%)" y="462">countdown.10000.mtl.shallow 1.28 ms</text>
<g>
<title>1.28 ms ±  93 μs</title>
<rect y="468" rx="5" height="22" width="1.45824112313753" fill="hsl(60, 100%, 80%)" stroke="hsl(60, 100%, 55%)" />
<g stroke="hsl(60, 100%, 40%)"><line x1="1.351709377030885" x2="1.5647728692441751" y1="479" y2="479" />
<line x1="1.351709377030885" x2="1.351709377030885" y1="473" y2="485" />
<line x1="1.5647728692441751" x2="1.5647728692441751" y1="473" y2="485" />
</g>
</g>
<text fill="hsl(67, 100%, 40%)" y="517">countdown.10000.mtl.deep 10.6 ms</text>
<g>
<title>10.6 ms ± 692 μs</title>
<rect y="523" rx="5" height="22" width="12.06980930267099" fill="hsl(67, 100%, 80%)" stroke="hsl(67, 100%, 55%)" />
<g stroke="hsl(67, 100%, 40%)"><line x1="11.280919295683516" x2="12.858699309658464" y1="534" y2="534" />
<line x1="11.280919295683516" x2="11.280919295683516" y1="528" y2="540" />
<line x1="12.858699309658464" x2="12.858699309658464" y1="528" y2="540" />
</g>
</g>
<text fill="hsl(75, 100%, 40%)" y="572">countdown.10000.fused.shallow 2.28 ms</text>
<g>
<title>2.28 ms ± 178 μs</title>
<rect y="578" rx="5" height="22" width="2.5948924425050595" fill="hsl(75, 100%, 80%)" stroke="hsl(75, 100%, 55%)" />
<g stroke="hsl(75, 100%, 40%)"><line x1="2.392232221570149" x2="2.79755266343997" y1="589" y2="589" />
<line x1="2.392232221570149" x2="2.392232221570149" y1="583" y2="595" />
<line x1="2.79755266343997" x2="2.79755266343997" y1="583" y2="595" />
</g>
</g>
<text fill="hsl(82, 100%, 40%)" y="627">countdown.10000.fused.deep 16.7 ms</text>
<g>
<title>16.7 ms ± 1.3 ms</title>
<rect y="633" rx="5" height="22" width="18.99467293571417" fill="hsl(82, 100%, 80%)" stroke="hsl(82, 100%, 55%)" />
<g stroke="hsl(82, 100%, 40%)"><line x1="17.457233319829466" x2="20.532112551598875" y1="644" y2="644" />
<line x1="17.457233319829466" x2="17.457233319829466" y1="638" y2="650" />
<line x1="20.532112551598875" x2="20.532112551598875" y1="638" y2="650" />
</g>
</g>
<text fill="hsl(90, 100%, 40%)" y="682">countdown.10000.sem.shallow 2.94 ms</text>
<g>
<title>2.94 ms ± 169 μs</title>
<rect y="688" rx="5" height="22" width="3.352743135406964" fill="hsl(90, 100%, 80%)" stroke="hsl(90, 100%, 55%)" />
<g stroke="hsl(90, 100%, 40%)"><line x1="3.16030498672542" x2="3.545181284088508" y1="699" y2="699" />
<line x1="3.16030498672542" x2="3.16030498672542" y1="693" y2="705" />
<line x1="3.545181284088508" x2="3.545181284088508" y1="693" y2="705" />
</g>
</g>
<text fill="hsl(97, 100%, 40%)" y="737">countdown.10000.sem.deep 4.65 ms</text>
<g>
<title>4.65 ms ± 265 μs</title>
<rect y="743" rx="5" height="22" width="5.306319110547023" fill="hsl(97, 100%, 80%)" stroke="hsl(97, 100%, 55%)" />
<g stroke="hsl(97, 100%, 40%)"><line x1="5.0039373098567985" x2="5.608700911237248" y1="754" y2="754" />
<line x1="5.0039373098567985" x2="5.0039373098567985" y1="748" y2="760" />
<line x1="5.608700911237248" x2="5.608700911237248" y1="748" y2="760" />
</g>
</g>
<text fill="hsl(105, 100%, 40%)" y="792">pyth.32.sp_modified_for_non_scoped_resumption_support.shallow 4.23 ms</text>
<g>
<title>4.23 ms ± 392 μs</title>
<rect y="798" rx="5" height="22" width="4.820349274824532" fill="hsl(105, 100%, 80%)" stroke="hsl(105, 100%, 55%)" />
<g stroke="hsl(105, 100%, 40%)"><line x1="4.373089527115319" x2="5.267609022533746" y1="809" y2="809" />
<line x1="4.373089527115319" x2="4.373089527115319" y1="803" y2="815" />
<line x1="5.267609022533746" x2="5.267609022533746" y1="803" y2="815" />
</g>
</g>
<text fill="hsl(112, 100%, 40%)" y="847">pyth.32.sp_modified_for_non_scoped_resumption_support.deep 13.7 ms</text>
<g>
<title>13.7 ms ± 398 μs</title>
<rect y="853" rx="5" height="22" width="15.574497698910616" fill="hsl(112, 100%, 80%)" stroke="hsl(112, 100%, 55%)" />
<g stroke="hsl(112, 100%, 40%)"><line x1="15.120543020972105" x2="16.028452376849128" y1="864" y2="864" />
<line x1="15.120543020972105" x2="15.120543020972105" y1="858" y2="870" />
<line x1="16.028452376849128" x2="16.028452376849128" y1="858" y2="870" />
</g>
</g>
<text fill="hsl(120, 100%, 40%)" y="902">pyth.32.ev.shallow 1.45 ms</text>
<g>
<title>1.45 ms ±  95 μs</title>
<rect y="908" rx="5" height="22" width="1.6571595404237187" fill="hsl(120, 100%, 80%)" stroke="hsl(120, 100%, 55%)" />
<g stroke="hsl(120, 100%, 40%)"><line x1="1.5490498883426176" x2="1.7652691925048198" y1="919" y2="919" />
<line x1="1.5490498883426176" x2="1.5490498883426176" y1="913" y2="925" />
<line x1="1.7652691925048198" x2="1.7652691925048198" y1="913" y2="925" />
</g>
</g>
<text fill="hsl(127, 100%, 40%)" y="957">pyth.32.ev.deep 2.73 ms</text>
<g>
<title>2.73 ms ±  70 μs</title>
<rect y="963" rx="5" height="22" width="3.111306100787757" fill="hsl(127, 100%, 80%)" stroke="hsl(127, 100%, 55%)" />
<g stroke="hsl(127, 100%, 40%)"><line x1="3.0316884345088844" x2="3.19092376706663" y1="974" y2="974" />
<line x1="3.0316884345088844" x2="3.0316884345088844" y1="968" y2="980" />
<line x1="3.19092376706663" x2="3.19092376706663" y1="968" y2="980" />
</g>
</g>
<text fill="hsl(135, 100%, 40%)" y="1012">pyth.32.freer.shallow 6.91 ms</text>
<g>
<title>6.91 ms ± 256 μs</title>
<rect y="1018" rx="5" height="22" width="7.875066553196727" fill="hsl(135, 100%, 80%)" stroke="hsl(135, 100%, 55%)" />
<g stroke="hsl(135, 100%, 40%)"><line x1="7.582802103207118" x2="8.167331003186336" y1="1029" y2="1029" />
<line x1="7.582802103207118" x2="7.582802103207118" y1="1023" y2="1035" />
<line x1="8.167331003186336" x2="8.167331003186336" y1="1023" y2="1035" />
</g>
</g>
<text fill="hsl(142, 100%, 40%)" y="1067">pyth.32.freer.deep 11.3 ms</text>
<g>
<title>11.3 ms ± 697 μs</title>
<rect y="1073" rx="5" height="22" width="12.83819377657666" fill="hsl(142, 100%, 80%)" stroke="hsl(142, 100%, 55%)" />
<g stroke="hsl(142, 100%, 40%)"><line x1="12.043658586045911" x2="13.632728967107408" y1="1084" y2="1084" />
<line x1="12.043658586045911" x2="12.043658586045911" y1="1078" y2="1090" />
<line x1="13.632728967107408" x2="13.632728967107408" y1="1078" y2="1090" />
</g>
</g>
<text fill="hsl(150, 100%, 40%)" y="1122">pyth.32.fused.shallow 1.47 ms</text>
<g>
<title>1.47 ms ±  84 μs</title>
<rect y="1128" rx="5" height="22" width="1.6735836522333931" fill="hsl(150, 100%, 80%)" stroke="hsl(150, 100%, 55%)" />
<g stroke="hsl(150, 100%, 40%)"><line x1="1.577504576041946" x2="1.7696627284248403" y1="1139" y2="1139" />
<line x1="1.577504576041946" x2="1.577504576041946" y1="1133" y2="1145" />
<line x1="1.7696627284248403" x2="1.7696627284248403" y1="1133" y2="1145" />
</g>
</g>
<text fill="hsl(157, 100%, 40%)" y="1177">pyth.32.fused.deep 13.1 ms</text>
<g>
<title>13.1 ms ± 1.2 ms</title>
<rect y="1183" rx="5" height="22" width="14.898892583764722" fill="hsl(157, 100%, 80%)" stroke="hsl(157, 100%, 55%)" />
<g stroke="hsl(157, 100%, 40%)"><line x1="13.50001891474789" x2="16.297766252781553" y1="1194" y2="1194" />
<line x1="13.50001891474789" x2="13.50001891474789" y1="1188" y2="1200" />
<line x1="16.297766252781553" x2="16.297766252781553" y1="1188" y2="1200" />
</g>
</g>
<text fill="hsl(165, 100%, 40%)" y="1232">pyth.32.sem.shallow 16.0 ms</text>
<g>
<title>16.0 ms ± 417 μs</title>
<rect y="1238" rx="5" height="22" width="18.19393729159175" fill="hsl(165, 100%, 80%)" stroke="hsl(165, 100%, 55%)" />
<g stroke="hsl(165, 100%, 40%)"><line x1="17.718332315106963" x2="18.66954226807654" y1="1249" y2="1249" />
<line x1="17.718332315106963" x2="17.718332315106963" y1="1243" y2="1255" />
<line x1="18.66954226807654" x2="18.66954226807654" y1="1243" y2="1255" />
</g>
</g>
<text fill="hsl(172, 100%, 40%)" y="1287">pyth.32.sem.deep 16.0 ms</text>
<g>
<title>16.0 ms ± 977 μs</title>
<rect y="1293" rx="5" height="22" width="18.2557681923148" fill="hsl(172, 100%, 80%)" stroke="hsl(172, 100%, 55%)" />
<g stroke="hsl(172, 100%, 40%)"><line x1="17.141492566178385" x2="19.370043818451215" y1="1304" y2="1304" />
<line x1="17.141492566178385" x2="17.141492566178385" y1="1298" y2="1310" />
<line x1="19.370043818451215" x2="19.370043818451215" y1="1298" y2="1310" />
</g>
</g>
<text fill="hsl(180, 100%, 40%)" y="1342">catch.10000.sp_modified_for_non_scoped_resumption_support.shallow 204  μs</text>
<g>
<title>204  μs ±  15 μs</title>
<rect y="1348" rx="5" height="22" width="0.23298474383752393" fill="hsl(180, 100%, 80%)" stroke="hsl(180, 100%, 55%)" />
<g stroke="hsl(180, 100%, 40%)"><line x1="0.21531563838706552" x2="0.25065384928798234" y1="1359" y2="1359" />
<line x1="0.21531563838706552" x2="0.21531563838706552" y1="1353" y2="1365" />
<line x1="0.25065384928798234" x2="0.25065384928798234" y1="1353" y2="1365" />
</g>
</g>
<text fill="hsl(187, 100%, 40%)" y="1397">catch.10000.sp_modified_for_non_scoped_resumption_support.deep 209  μs</text>
<g>
<title>209  μs ±  12 μs</title>
<rect y="1403" rx="5" height="22" width="0.23802813076238052" fill="hsl(187, 100%, 80%)" stroke="hsl(187, 100%, 55%)" />
<g stroke="hsl(187, 100%, 40%)"><line x1="0.2238181065358661" x2="0.25223815498889496" y1="1414" y2="1414" />
<line x1="0.2238181065358661" x2="0.2238181065358661" y1="1408" y2="1420" />
<line x1="0.25223815498889496" x2="0.25223815498889496" y1="1408" y2="1420" />
</g>
</g>
<text fill="hsl(195, 100%, 40%)" y="1452">catch.10000.effectful.shallow 1.36 ms</text>
<g>
<title>1.36 ms ± 115 μs</title>
<rect y="1458" rx="5" height="22" width="1.5453614818770676" fill="hsl(195, 100%, 80%)" stroke="hsl(195, 100%, 55%)" />
<g stroke="hsl(195, 100%, 40%)"><line x1="1.4145353707988195" x2="1.6761875929553156" y1="1469" y2="1469" />
<line x1="1.4145353707988195" x2="1.4145353707988195" y1="1463" y2="1475" />
<line x1="1.6761875929553156" x2="1.6761875929553156" y1="1463" y2="1475" />
</g>
</g>
<text fill="hsl(202, 100%, 40%)" y="1507">catch.10000.effectful.deep 1.35 ms</text>
<g>
<title>1.35 ms ±  93 μs</title>
<rect y="1513" rx="5" height="22" width="1.5433424770654132" fill="hsl(202, 100%, 80%)" stroke="hsl(202, 100%, 55%)" />
<g stroke="hsl(202, 100%, 40%)"><line x1="1.4377470589401766" x2="1.6489378951906497" y1="1524" y2="1524" />
<line x1="1.4377470589401766" x2="1.4377470589401766" y1="1518" y2="1530" />
<line x1="1.6489378951906497" x2="1.6489378951906497" y1="1518" y2="1530" />
</g>
</g>
<text fill="hsl(210, 100%, 40%)" y="1562">catch.10000.fused.shallow 5.01 ms</text>
<g>
<title>5.01 ms ± 149 μs</title>
<rect y="1568" rx="5" height="22" width="5.710544689540568" fill="hsl(210, 100%, 80%)" stroke="hsl(210, 100%, 55%)" />
<g stroke="hsl(210, 100%, 40%)"><line x1="5.5410502545645075" x2="5.880039124516629" y1="1579" y2="1579" />
<line x1="5.5410502545645075" x2="5.5410502545645075" y1="1573" y2="1585" />
<line x1="5.880039124516629" x2="5.880039124516629" y1="1573" y2="1585" />
</g>
</g>
<text fill="hsl(217, 100%, 40%)" y="1617">catch.10000.fused.deep 26.8 ms</text>
<g>
<title>26.8 ms ± 2.6 ms</title>
<rect y="1623" rx="5" height="22" width="30.52787309911641" fill="hsl(217, 100%, 80%)" stroke="hsl(217, 100%, 55%)" />
<g stroke="hsl(217, 100%, 40%)"><line x1="27.508311180526114" x2="33.547435017706704" y1="1634" y2="1634" />
<line x1="27.508311180526114" x2="27.508311180526114" y1="1628" y2="1640" />
<line x1="33.547435017706704" x2="33.547435017706704" y1="1628" y2="1640" />
</g>
</g>
<text fill="hsl(225, 100%, 40%)" y="1672">catch.10000.sem.shallow 3.23 ms</text>
<g>
<title>3.23 ms ± 155 μs</title>
<rect y="1678" rx="5" height="22" width="3.6834027311614608" fill="hsl(225, 100%, 80%)" stroke="hsl(225, 100%, 55%)" />
<g stroke="hsl(225, 100%, 40%)"><line x1="3.50718414133673" x2="3.8596213209861916" y1="1689" y2="1689" />
<line x1="3.50718414133673" x2="3.50718414133673" y1="1683" y2="1695" />
<line x1="3.8596213209861916" x2="3.8596213209861916" y1="1683" y2="1695" />
</g>
</g>
<text fill="hsl(232, 100%, 40%)" y="1727">catch.10000.sem.deep 13.3 ms</text>
<g>
<title>13.3 ms ± 1.3 ms</title>
<rect y="1733" rx="5" height="22" width="15.190007851304236" fill="hsl(232, 100%, 80%)" stroke="hsl(232, 100%, 55%)" />
<g stroke="hsl(232, 100%, 40%)"><line x1="13.726327966300978" x2="16.653687736307493" y1="1744" y2="1744" />
<line x1="13.726327966300978" x2="13.726327966300978" y1="1738" y2="1750" />
<line x1="16.653687736307493" x2="16.653687736307493" y1="1738" y2="1750" />
</g>
</g>
<text fill="hsl(240, 100%, 40%)" y="1782">local.10000.sp_modified_for_non_scoped_resumption_support.shallow 265  μs</text>
<g>
<title>265  μs ±  16 μs</title>
<rect y="1788" rx="5" height="22" width="0.30238992890150385" fill="hsl(240, 100%, 80%)" stroke="hsl(240, 100%, 55%)" />
<g stroke="hsl(240, 100%, 40%)"><line x1="0.2843370633352982" x2="0.3204427944677095" y1="1799" y2="1799" />
<line x1="0.2843370633352982" x2="0.2843370633352982" y1="1793" y2="1805" />
<line x1="0.3204427944677095" x2="0.3204427944677095" y1="1793" y2="1805" />
</g>
</g>
<text fill="hsl(247, 100%, 40%)" y="1837">local.10000.sp_modified_for_non_scoped_resumption_support.deep 268  μs</text>
<g>
<title>268  μs ±  20 μs</title>
<rect y="1843" rx="5" height="22" width="0.3053390295718495" fill="hsl(247, 100%, 80%)" stroke="hsl(247, 100%, 55%)" />
<g stroke="hsl(247, 100%, 40%)"><line x1="0.2830663715946379" x2="0.3276116875490611" y1="1854" y2="1854" />
<line x1="0.2830663715946379" x2="0.2830663715946379" y1="1848" y2="1860" />
<line x1="0.3276116875490611" x2="0.3276116875490611" y1="1848" y2="1860" />
</g>
</g>
<text fill="hsl(255, 100%, 40%)" y="1892">local.10000.effectful.shallow 726  μs</text>
<g>
<title>726  μs ±  69 μs</title>
<rect y="1898" rx="5" height="22" width="0.8273964461959554" fill="hsl(255, 100%, 80%)" stroke="hsl(255, 100%, 55%)" />
<g stroke="hsl(255, 100%, 40%)"><line x1="0.7491348788748134" x2="0.9056580135170974" y1="1909" y2="1909" />
<line x1="0.7491348788748134" x2="0.7491348788748134" y1="1903" y2="1915" />
<line x1="0.9056580135170974" x2="0.9056580135170974" y1="1903" y2="1915" />
</g>
</g>
<text fill="hsl(262, 100%, 40%)" y="1947">local.10000.effectful.deep 705  μs</text>
<g>
<title>705  μs ±  58 μs</title>
<rect y="1953" rx="5" height="22" width="0.8035520562187689" fill="hsl(262, 100%, 80%)" stroke="hsl(262, 100%, 55%)" />
<g stroke="hsl(262, 100%, 40%)"><line x1="0.7374251478495962" x2="0.8696789645879416" y1="1964" y2="1964" />
<line x1="0.7374251478495962" x2="0.7374251478495962" y1="1958" y2="1970" />
<line x1="0.8696789645879416" x2="0.8696789645879416" y1="1958" y2="1970" />
</g>
</g>
<text fill="hsl(270, 100%, 40%)" y="2002">local.10000.fused.shallow 1.83 ms</text>
<g>
<title>1.83 ms ± 182 μs</title>
<rect y="2008" rx="5" height="22" width="2.0846540698892517" fill="hsl(270, 100%, 80%)" stroke="hsl(270, 100%, 55%)" />
<g stroke="hsl(270, 100%, 40%)"><line x1="1.8774441781793942" x2="2.291863961599109" y1="2019" y2="2019" />
<line x1="1.8774441781793942" x2="1.8774441781793942" y1="2013" y2="2025" />
<line x1="2.291863961599109" x2="2.291863961599109" y1="2013" y2="2025" />
</g>
</g>
<text fill="hsl(277, 100%, 40%)" y="2057">local.10000.fused.deep 7.41 ms</text>
<g>
<title>7.41 ms ± 514 μs</title>
<rect y="2063" rx="5" height="22" width="8.453705978631316" fill="hsl(277, 100%, 80%)" stroke="hsl(277, 100%, 55%)" />
<g stroke="hsl(277, 100%, 40%)"><line x1="7.867196770921494" x2="9.040215186341138" y1="2074" y2="2074" />
<line x1="7.867196770921494" x2="7.867196770921494" y1="2068" y2="2080" />
<line x1="9.040215186341138" x2="9.040215186341138" y1="2068" y2="2080" />
</g>
</g>
<text fill="hsl(285, 100%, 40%)" y="2112">local.10000.sem.shallow 4.47 ms</text>
<g>
<title>4.47 ms ± 307 μs</title>
<rect y="2118" rx="5" height="22" width="5.096794996570939" fill="hsl(285, 100%, 80%)" stroke="hsl(285, 100%, 55%)" />
<g stroke="hsl(285, 100%, 40%)"><line x1="4.746689634159855" x2="5.446900358982022" y1="2129" y2="2129" />
<line x1="4.746689634159855" x2="4.746689634159855" y1="2123" y2="2135" />
<line x1="5.446900358982022" x2="5.446900358982022" y1="2123" y2="2135" />
</g>
</g>
<text fill="hsl(292, 100%, 40%)" y="2167">local.10000.sem.deep 8.95 ms</text>
<g>
<title>8.95 ms ± 490 μs</title>
<rect y="2173" rx="5" height="22" width="10.203649794191167" fill="hsl(292, 100%, 80%)" stroke="hsl(292, 100%, 55%)" />
<g stroke="hsl(292, 100%, 40%)"><line x1="9.645534000761913" x2="10.76176558762042" y1="2184" y2="2184" />
<line x1="9.645534000761913" x2="9.645534000761913" y1="2178" y2="2190" />
<line x1="10.76176558762042" x2="10.76176558762042" y1="2178" y2="2190" />
</g>
</g>
<g fill="hsl(300, 100%, 40%)">
<text y="2222">coroutine.10000.sp_modified_for_non_scoped_resumption_support.shallow</text>
<text y="2222" x="917.1233908320777" text-anchor="end">804  ms</text>
</g>
<g>
<title>804  ms ±  20 ms</title>
<rect y="2228" rx="5" height="22" width="917.1233908320777" fill="hsl(300, 100%, 80%)" stroke="hsl(300, 100%, 55%)" />
<g stroke="hsl(300, 100%, 40%)"><line x1="894.2467816641554" x2="940.0" y1="2239" y2="2239" />
<line x1="894.2467816641554" x2="894.2467816641554" y1="2233" y2="2245" />
<line x1="940.0" x2="940.0" y1="2233" y2="2245" />
</g>
</g>
<g fill="hsl(307, 100%, 40%)">
<text y="2277">coroutine.10000.sp_modified_for_non_scoped_resumption_support.deep</text>
<text y="2277" x="923.9749651124238" text-anchor="end">810  ms</text>
</g>
<g>
<title>810  ms ± 3.4 ms</title>
<rect y="2283" rx="5" height="22" width="923.9749651124238" fill="hsl(307, 100%, 80%)" stroke="hsl(307, 100%, 55%)" />
<g stroke="hsl(307, 100%, 40%)"><line x1="920.0977292734989" x2="927.8522009513487" y1="2294" y2="2294" />
<line x1="920.0977292734989" x2="920.0977292734989" y1="2288" y2="2300" />
<line x1="927.8522009513487" x2="927.8522009513487" y1="2288" y2="2300" />
</g>
</g>
<g fill="hsl(315, 100%, 40%)">
<text y="2332">coroutine.10000.mp.shallow</text>
<text y="2332" x="908.7693564314194" text-anchor="end">797  ms</text>
</g>
<g>
<title>797  ms ± 5.6 ms</title>
<rect y="2338" rx="5" height="22" width="908.7693564314194" fill="hsl(315, 100%, 80%)" stroke="hsl(315, 100%, 55%)" />
<g stroke="hsl(315, 100%, 40%)"><line x1="902.4168726095196" x2="915.1218402533192" y1="2349" y2="2349" />
<line x1="902.4168726095196" x2="902.4168726095196" y1="2343" y2="2355" />
<line x1="915.1218402533192" x2="915.1218402533192" y1="2343" y2="2355" />
</g>
</g>
<g fill="hsl(322, 100%, 40%)">
<text y="2387">coroutine.10000.mp.deep</text>
<text y="2387" x="906.2930239519166" text-anchor="end">795  ms</text>
</g>
<g>
<title>795  ms ±  13 ms</title>
<rect y="2393" rx="5" height="22" width="906.2930239519166" fill="hsl(322, 100%, 80%)" stroke="hsl(322, 100%, 55%)" />
<g stroke="hsl(322, 100%, 40%)"><line x1="891.5959498146979" x2="920.9900980891352" y1="2404" y2="2404" />
<line x1="891.5959498146979" x2="891.5959498146979" y1="2398" y2="2410" />
<line x1="920.9900980891352" x2="920.9900980891352" y1="2398" y2="2410" />
</g>
</g>
<text fill="hsl(330, 100%, 40%)" y="2442">coroutine.10000.freer.shallow 2.37 ms</text>
<g>
<title>2.37 ms ± 218 μs</title>
<rect y="2448" rx="5" height="22" width="2.70489358487667" fill="hsl(330, 100%, 80%)" stroke="hsl(330, 100%, 55%)" />
<g stroke="hsl(330, 100%, 40%)"><line x1="2.456266743193857" x2="2.953520426559483" y1="2459" y2="2459" />
<line x1="2.456266743193857" x2="2.456266743193857" y1="2453" y2="2465" />
<line x1="2.953520426559483" x2="2.953520426559483" y1="2453" y2="2465" />
</g>
</g>
<text fill="hsl(337, 100%, 40%)" y="2497">coroutine.10000.freer.deep 3.22 ms</text>
<g>
<title>3.22 ms ± 116 μs</title>
<rect y="2503" rx="5" height="22" width="3.6674502471531043" fill="hsl(337, 100%, 80%)" stroke="hsl(337, 100%, 55%)" />
<g stroke="hsl(337, 100%, 40%)"><line x1="3.5348533489807363" x2="3.8000471453254723" y1="2514" y2="2514" />
<line x1="3.5348533489807363" x2="3.5348533489807363" y1="2508" y2="2520" />
<line x1="3.8000471453254723" x2="3.8000471453254723" y1="2508" y2="2520" />
</g>
</g>
<g fill="hsl(345, 100%, 40%)">
<text y="2552">coroutine.10000.eff.shallow</text>
<text y="2552" x="430.9347407887459" text-anchor="end">378  ms</text>
</g>
<g>
<title>378  ms ± 8.3 ms</title>
<rect y="2558" rx="5" height="22" width="430.9347407887459" fill="hsl(345, 100%, 80%)" stroke="hsl(345, 100%, 55%)" />
<g stroke="hsl(345, 100%, 40%)"><line x1="421.41700381720335" x2="440.45247776028845" y1="2569" y2="2569" />
<line x1="421.41700381720335" x2="421.41700381720335" y1="2563" y2="2575" />
<line x1="440.45247776028845" x2="440.45247776028845" y1="2563" y2="2575" />
</g>
</g>
<g fill="hsl(352, 100%, 40%)">
<text y="2607">coroutine.10000.eff.deep</text>
<text y="2607" x="432.40095312292505" text-anchor="end">379  ms</text>
</g>
<g>
<title>379  ms ± 3.9 ms</title>
<rect y="2613" rx="5" height="22" width="432.40095312292505" fill="hsl(352, 100%, 80%)" stroke="hsl(352, 100%, 55%)" />
<g stroke="hsl(352, 100%, 40%)"><line x1="428.0066942401842" x2="436.7952120056659" y1="2624" y2="2624" />
<line x1="428.0066942401842" x2="428.0066942401842" y1="2618" y2="2630" />
<line x1="436.7952120056659" x2="436.7952120056659" y1="2618" y2="2630" />
</g>
</g>
</g>
</svg>
