<svg xmlns="http://www.w3.org/2000/svg" height="2207" width="960.0" font-size="16" font-family="sans-serif" stroke-width="2">
<g transform="translate(10.0 0)">
<text fill="hsl(0, 100%, 40%)" y="22">countdown.10000.sp_modified_for_non_scoped_resumption_support.shallow 151  μs</text>
<g>
<title>151  μs ±  11 μs</title>
<rect y="28" rx="5" height="22" width="5.1354070815768145" fill="hsl(0, 100%, 80%)" stroke="hsl(0, 100%, 55%)" />
<g stroke="hsl(0, 100%, 40%)"><line x1="4.761416034123417" x2="5.509398129030212" y1="39" y2="39" />
<line x1="4.761416034123417" x2="4.761416034123417" y1="33" y2="45" />
<line x1="5.509398129030212" x2="5.509398129030212" y1="33" y2="45" />
</g>
</g>
<text fill="hsl(9, 100%, 40%)" y="77">countdown.10000.sp_modified_for_non_scoped_resumption_support.deep 154  μs</text>
<g>
<title>154  μs ±  12 μs</title>
<rect y="83" rx="5" height="22" width="5.239243121442999" fill="hsl(9, 100%, 80%)" stroke="hsl(9, 100%, 55%)" />
<g stroke="hsl(9, 100%, 40%)"><line x1="4.835902723418484" x2="5.642583519467514" y1="94" y2="94" />
<line x1="4.835902723418484" x2="4.835902723418484" y1="88" y2="100" />
<line x1="5.642583519467514" x2="5.642583519467514" y1="88" y2="100" />
</g>
</g>
<text fill="hsl(18, 100%, 40%)" y="132">countdown.10000.effectful.shallow 229  μs</text>
<g>
<title>229  μs ±  18 μs</title>
<rect y="138" rx="5" height="22" width="7.8107260790067" fill="hsl(18, 100%, 80%)" stroke="hsl(18, 100%, 55%)" />
<g stroke="hsl(18, 100%, 40%)"><line x1="7.191820937581593" x2="8.429631220431807" y1="149" y2="149" />
<line x1="7.191820937581593" x2="7.191820937581593" y1="143" y2="155" />
<line x1="8.429631220431807" x2="8.429631220431807" y1="143" y2="155" />
</g>
</g>
<text fill="hsl(27, 100%, 40%)" y="187">countdown.10000.effectful.deep 232  μs</text>
<g>
<title>232  μs ±  14 μs</title>
<rect y="193" rx="5" height="22" width="7.910815621172138" fill="hsl(27, 100%, 80%)" stroke="hsl(27, 100%, 55%)" />
<g stroke="hsl(27, 100%, 40%)"><line x1="7.444333504445469" x2="8.377297737898807" y1="204" y2="204" />
<line x1="7.444333504445469" x2="7.444333504445469" y1="198" y2="210" />
<line x1="8.377297737898807" x2="8.377297737898807" y1="198" y2="210" />
</g>
</g>
<text fill="hsl(36, 100%, 40%)" y="242">countdown.10000.ev.shallow 290  μs</text>
<g>
<title>290  μs ±  15 μs</title>
<rect y="248" rx="5" height="22" width="9.900880553675067" fill="hsl(36, 100%, 80%)" stroke="hsl(36, 100%, 55%)" />
<g stroke="hsl(36, 100%, 40%)"><line x1="9.395435693218582" x2="10.406325414131553" y1="259" y2="259" />
<line x1="9.395435693218582" x2="9.395435693218582" y1="253" y2="265" />
<line x1="10.406325414131553" x2="10.406325414131553" y1="253" y2="265" />
</g>
</g>
<text fill="hsl(45, 100%, 40%)" y="297">countdown.10000.ev.deep 291  μs</text>
<g>
<title>291  μs ± 8.8 μs</title>
<rect y="303" rx="5" height="22" width="9.929234486012726" fill="hsl(45, 100%, 80%)" stroke="hsl(45, 100%, 55%)" />
<g stroke="hsl(45, 100%, 40%)"><line x1="9.628073803765728" x2="10.230395168259724" y1="314" y2="314" />
<line x1="9.628073803765728" x2="9.628073803765728" y1="308" y2="320" />
<line x1="10.230395168259724" x2="10.230395168259724" y1="308" y2="320" />
</g>
</g>
<text fill="hsl(54, 100%, 40%)" y="352">countdown.10000.freer.shallow 471  μs</text>
<g>
<title>471  μs ±  21 μs</title>
<rect y="358" rx="5" height="22" width="16.063090334461876" fill="hsl(54, 100%, 80%)" stroke="hsl(54, 100%, 55%)" />
<g stroke="hsl(54, 100%, 40%)"><line x1="15.342754599411641" x2="16.78342606951211" y1="369" y2="369" />
<line x1="15.342754599411641" x2="15.342754599411641" y1="363" y2="375" />
<line x1="16.78342606951211" x2="16.78342606951211" y1="363" y2="375" />
</g>
</g>
<text fill="hsl(63, 100%, 40%)" y="407">countdown.10000.freer.deep 1.38 ms</text>
<g>
<title>1.38 ms ±  92 μs</title>
<rect y="413" rx="5" height="22" width="47.092179973784894" fill="hsl(63, 100%, 80%)" stroke="hsl(63, 100%, 55%)" />
<g stroke="hsl(63, 100%, 40%)"><line x1="43.941138935928855" x2="50.243221011640934" y1="424" y2="424" />
<line x1="43.941138935928855" x2="43.941138935928855" y1="418" y2="430" />
<line x1="50.243221011640934" x2="50.243221011640934" y1="418" y2="430" />
</g>
</g>
<text fill="hsl(72, 100%, 40%)" y="462">countdown.10000.mtl.shallow 1.26 ms</text>
<g>
<title>1.26 ms ±  42 μs</title>
<rect y="468" rx="5" height="22" width="43.14881116339968" fill="hsl(72, 100%, 80%)" stroke="hsl(72, 100%, 55%)" />
<g stroke="hsl(72, 100%, 40%)"><line x1="41.71109258545564" x2="44.58652974134372" y1="479" y2="479" />
<line x1="41.71109258545564" x2="41.71109258545564" y1="473" y2="485" />
<line x1="44.58652974134372" x2="44.58652974134372" y1="473" y2="485" />
</g>
</g>
<g fill="hsl(81, 100%, 40%)">
<text y="517">countdown.10000.mtl.deep</text>
<text y="517" x="358.9509670290627" text-anchor="end">10.5 ms</text>
</g>
<g>
<title>10.5 ms ± 867 μs</title>
<rect y="523" rx="5" height="22" width="358.9509670290627" fill="hsl(81, 100%, 80%)" stroke="hsl(81, 100%, 55%)" />
<g stroke="hsl(81, 100%, 40%)"><line x1="329.3642742287028" x2="388.53765982942264" y1="534" y2="534" />
<line x1="329.3642742287028" x2="329.3642742287028" y1="528" y2="540" />
<line x1="388.53765982942264" x2="388.53765982942264" y1="528" y2="540" />
</g>
</g>
<text fill="hsl(90, 100%, 40%)" y="572">countdown.10000.fused.shallow 2.24 ms</text>
<g>
<title>2.24 ms ± 123 μs</title>
<rect y="578" rx="5" height="22" width="76.47778352004399" fill="hsl(90, 100%, 80%)" stroke="hsl(90, 100%, 55%)" />
<g stroke="hsl(90, 100%, 40%)"><line x1="72.28270915476024" x2="80.67285788532773" y1="589" y2="589" />
<line x1="72.28270915476024" x2="72.28270915476024" y1="583" y2="595" />
<line x1="80.67285788532773" x2="80.67285788532773" y1="583" y2="595" />
</g>
</g>
<g fill="hsl(99, 100%, 40%)">
<text y="627">countdown.10000.fused.deep</text>
<text y="627" x="581.744142222184" text-anchor="end">17.1 ms</text>
</g>
<g>
<title>17.1 ms ± 1.5 ms</title>
<rect y="633" rx="5" height="22" width="581.744142222184" fill="hsl(99, 100%, 80%)" stroke="hsl(99, 100%, 55%)" />
<g stroke="hsl(99, 100%, 40%)"><line x1="531.0826143002561" x2="632.4056701441119" y1="644" y2="644" />
<line x1="531.0826143002561" x2="531.0826143002561" y1="638" y2="650" />
<line x1="632.4056701441119" x2="632.4056701441119" y1="638" y2="650" />
</g>
</g>
<text fill="hsl(108, 100%, 40%)" y="682">countdown.10000.sem.shallow 2.76 ms</text>
<g>
<title>2.76 ms ± 172 μs</title>
<rect y="688" rx="5" height="22" width="94.23773531028394" fill="hsl(108, 100%, 80%)" stroke="hsl(108, 100%, 55%)" />
<g stroke="hsl(108, 100%, 40%)"><line x1="88.37233366194141" x2="100.10313695862646" y1="699" y2="699" />
<line x1="88.37233366194141" x2="88.37233366194141" y1="693" y2="705" />
<line x1="100.10313695862646" x2="100.10313695862646" y1="693" y2="705" />
</g>
</g>
<text fill="hsl(117, 100%, 40%)" y="737">countdown.10000.sem.deep 4.44 ms</text>
<g>
<title>4.44 ms ± 287 μs</title>
<rect y="743" rx="5" height="22" width="151.47619109601249" fill="hsl(117, 100%, 80%)" stroke="hsl(117, 100%, 55%)" />
<g stroke="hsl(117, 100%, 40%)"><line x1="141.69248501596678" x2="161.2598971760582" y1="754" y2="754" />
<line x1="141.69248501596678" x2="141.69248501596678" y1="748" y2="760" />
<line x1="161.2598971760582" x2="161.2598971760582" y1="748" y2="760" />
</g>
</g>
<text fill="hsl(126, 100%, 40%)" y="792">pyth.32.sp_modified_for_non_scoped_resumption_support.shallow 4.20 ms</text>
<g>
<title>4.20 ms ± 307 μs</title>
<rect y="798" rx="5" height="22" width="143.1704697965406" fill="hsl(126, 100%, 80%)" stroke="hsl(126, 100%, 55%)" />
<g stroke="hsl(126, 100%, 40%)"><line x1="132.71088360536473" x2="153.63005598771647" y1="809" y2="809" />
<line x1="132.71088360536473" x2="132.71088360536473" y1="803" y2="815" />
<line x1="153.63005598771647" x2="153.63005598771647" y1="803" y2="815" />
</g>
</g>
<text fill="hsl(135, 100%, 40%)" y="847">pyth.32.sp_modified_for_non_scoped_resumption_support.deep 13.4 ms</text>
<g>
<title>13.4 ms ± 199 μs</title>
<rect y="853" rx="5" height="22" width="456.5602731016447" fill="hsl(135, 100%, 80%)" stroke="hsl(135, 100%, 55%)" />
<g stroke="hsl(135, 100%, 40%)"><line x1="449.7784968642212" x2="463.34204933906824" y1="864" y2="864" />
<line x1="449.7784968642212" x2="449.7784968642212" y1="858" y2="870" />
<line x1="463.34204933906824" x2="463.34204933906824" y1="858" y2="870" />
</g>
</g>
<text fill="hsl(144, 100%, 40%)" y="902">pyth.32.ev.shallow 1.43 ms</text>
<g>
<title>1.43 ms ±  96 μs</title>
<rect y="908" rx="5" height="22" width="48.77747411023649" fill="hsl(144, 100%, 80%)" stroke="hsl(144, 100%, 55%)" />
<g stroke="hsl(144, 100%, 40%)"><line x1="45.49931502556902" x2="52.05563319490396" y1="919" y2="919" />
<line x1="45.49931502556902" x2="45.49931502556902" y1="913" y2="925" />
<line x1="52.05563319490396" x2="52.05563319490396" y1="913" y2="925" />
</g>
</g>
<text fill="hsl(153, 100%, 40%)" y="957">pyth.32.ev.deep 2.77 ms</text>
<g>
<title>2.77 ms ± 274 μs</title>
<rect y="963" rx="5" height="22" width="94.61538787987881" fill="hsl(153, 100%, 80%)" stroke="hsl(153, 100%, 55%)" />
<g stroke="hsl(153, 100%, 40%)"><line x1="85.27979452715395" x2="103.95098123260367" y1="974" y2="974" />
<line x1="85.27979452715395" x2="85.27979452715395" y1="968" y2="980" />
<line x1="103.95098123260367" x2="103.95098123260367" y1="968" y2="980" />
</g>
</g>
<g fill="hsl(162, 100%, 40%)">
<text y="1012">pyth.32.freer.shallow</text>
<text y="1012" x="236.40540310788887" text-anchor="end">6.93 ms</text>
</g>
<g>
<title>6.93 ms ± 437 μs</title>
<rect y="1018" rx="5" height="22" width="236.40540310788887" fill="hsl(162, 100%, 80%)" stroke="hsl(162, 100%, 55%)" />
<g stroke="hsl(162, 100%, 40%)"><line x1="221.49599244266105" x2="251.3148137731167" y1="1029" y2="1029" />
<line x1="221.49599244266105" x2="221.49599244266105" y1="1023" y2="1035" />
<line x1="251.3148137731167" x2="251.3148137731167" y1="1023" y2="1035" />
</g>
</g>
<g fill="hsl(171, 100%, 40%)">
<text y="1067">pyth.32.freer.deep</text>
<text y="1067" x="345.9321092536677" text-anchor="end">10.1 ms</text>
</g>
<g>
<title>10.1 ms ± 275 μs</title>
<rect y="1073" rx="5" height="22" width="345.9321092536677" fill="hsl(171, 100%, 80%)" stroke="hsl(171, 100%, 55%)" />
<g stroke="hsl(171, 100%, 40%)"><line x1="336.56645624884817" x2="355.29776225848724" y1="1084" y2="1084" />
<line x1="336.56645624884817" x2="336.56645624884817" y1="1078" y2="1090" />
<line x1="355.29776225848724" x2="355.29776225848724" y1="1078" y2="1090" />
</g>
</g>
<text fill="hsl(180, 100%, 40%)" y="1122">pyth.32.fused.shallow 1.47 ms</text>
<g>
<title>1.47 ms ±  59 μs</title>
<rect y="1128" rx="5" height="22" width="50.22136144984643" fill="hsl(180, 100%, 80%)" stroke="hsl(180, 100%, 55%)" />
<g stroke="hsl(180, 100%, 40%)"><line x1="48.216557197864915" x2="52.22616570182794" y1="1139" y2="1139" />
<line x1="48.216557197864915" x2="48.216557197864915" y1="1133" y2="1145" />
<line x1="52.22616570182794" x2="52.22616570182794" y1="1133" y2="1145" />
</g>
</g>
<g fill="hsl(189, 100%, 40%)">
<text y="1177">pyth.32.fused.deep</text>
<text y="1177" x="459.4262252317083" text-anchor="end">13.5 ms</text>
</g>
<g>
<title>13.5 ms ± 839 μs</title>
<rect y="1183" rx="5" height="22" width="459.4262252317083" fill="hsl(189, 100%, 80%)" stroke="hsl(189, 100%, 55%)" />
<g stroke="hsl(189, 100%, 40%)"><line x1="430.80755176087416" x2="488.04489870254247" y1="1194" y2="1194" />
<line x1="430.80755176087416" x2="430.80755176087416" y1="1188" y2="1200" />
<line x1="488.04489870254247" x2="488.04489870254247" y1="1188" y2="1200" />
</g>
</g>
<g fill="hsl(198, 100%, 40%)">
<text y="1232">pyth.32.sem.shallow</text>
<text y="1232" x="547.7848974094866" text-anchor="end">16.1 ms</text>
</g>
<g>
<title>16.1 ms ± 422 μs</title>
<rect y="1238" rx="5" height="22" width="547.7848974094866" fill="hsl(198, 100%, 80%)" stroke="hsl(198, 100%, 55%)" />
<g stroke="hsl(198, 100%, 40%)"><line x1="533.4050673925908" x2="562.1647274263823" y1="1249" y2="1249" />
<line x1="533.4050673925908" x2="533.4050673925908" y1="1243" y2="1255" />
<line x1="562.1647274263823" x2="562.1647274263823" y1="1243" y2="1255" />
</g>
</g>
<g fill="hsl(207, 100%, 40%)">
<text y="1287">pyth.32.sem.deep</text>
<text y="1287" x="538.8973911651966" text-anchor="end">15.8 ms</text>
</g>
<g>
<title>15.8 ms ± 1.0 ms</title>
<rect y="1293" rx="5" height="22" width="538.8973911651966" fill="hsl(207, 100%, 80%)" stroke="hsl(207, 100%, 55%)" />
<g stroke="hsl(207, 100%, 40%)"><line x1="504.39640498867305" x2="573.3983773417201" y1="1304" y2="1304" />
<line x1="504.39640498867305" x2="504.39640498867305" y1="1298" y2="1310" />
<line x1="573.3983773417201" x2="573.3983773417201" y1="1298" y2="1310" />
</g>
</g>
<text fill="hsl(216, 100%, 40%)" y="1342">catch.10000.sp_modified_for_non_scoped_resumption_support.shallow 205  μs</text>
<g>
<title>205  μs ±  12 μs</title>
<rect y="1348" rx="5" height="22" width="6.987986914924151" fill="hsl(216, 100%, 80%)" stroke="hsl(216, 100%, 55%)" />
<g stroke="hsl(216, 100%, 40%)"><line x1="6.5783711520130534" x2="7.397602677835248" y1="1359" y2="1359" />
<line x1="6.5783711520130534" x2="6.5783711520130534" y1="1353" y2="1365" />
<line x1="7.397602677835248" x2="7.397602677835248" y1="1353" y2="1365" />
</g>
</g>
<text fill="hsl(225, 100%, 40%)" y="1397">catch.10000.sp_modified_for_non_scoped_resumption_support.deep 201  μs</text>
<g>
<title>201  μs ±  18 μs</title>
<rect y="1403" rx="5" height="22" width="6.84611586930886" fill="hsl(225, 100%, 80%)" stroke="hsl(225, 100%, 55%)" />
<g stroke="hsl(225, 100%, 40%)"><line x1="6.246025974599767" x2="7.446205764017953" y1="1414" y2="1414" />
<line x1="6.246025974599767" x2="6.246025974599767" y1="1408" y2="1420" />
<line x1="7.446205764017953" x2="7.446205764017953" y1="1408" y2="1420" />
</g>
</g>
<text fill="hsl(234, 100%, 40%)" y="1452">catch.10000.effectful.shallow 1.34 ms</text>
<g>
<title>1.34 ms ± 109 μs</title>
<rect y="1458" rx="5" height="22" width="45.82234308149453" fill="hsl(234, 100%, 80%)" stroke="hsl(234, 100%, 55%)" />
<g stroke="hsl(234, 100%, 40%)"><line x1="42.11475866058347" x2="49.52992750240559" y1="1469" y2="1469" />
<line x1="42.11475866058347" x2="42.11475866058347" y1="1463" y2="1475" />
<line x1="49.52992750240559" x2="49.52992750240559" y1="1463" y2="1475" />
</g>
</g>
<text fill="hsl(243, 100%, 40%)" y="1507">catch.10000.effectful.deep 1.38 ms</text>
<g>
<title>1.38 ms ± 132 μs</title>
<rect y="1513" rx="5" height="22" width="46.96929842424601" fill="hsl(243, 100%, 80%)" stroke="hsl(243, 100%, 55%)" />
<g stroke="hsl(243, 100%, 40%)"><line x1="42.47117597095719" x2="51.467420877534835" y1="1524" y2="1524" />
<line x1="42.47117597095719" x2="42.47117597095719" y1="1518" y2="1530" />
<line x1="51.467420877534835" x2="51.467420877534835" y1="1518" y2="1530" />
</g>
</g>
<text fill="hsl(252, 100%, 40%)" y="1562">catch.10000.fused.shallow 4.95 ms</text>
<g>
<title>4.95 ms ± 229 μs</title>
<rect y="1568" rx="5" height="22" width="168.69952400333008" fill="hsl(252, 100%, 80%)" stroke="hsl(252, 100%, 55%)" />
<g stroke="hsl(252, 100%, 40%)"><line x1="160.88726822780438" x2="176.51177977885578" y1="1579" y2="1579" />
<line x1="160.88726822780438" x2="160.88726822780438" y1="1573" y2="1585" />
<line x1="176.51177977885578" x2="176.51177977885578" y1="1573" y2="1585" />
</g>
</g>
<g fill="hsl(261, 100%, 40%)">
<text y="1617">catch.10000.fused.deep</text>
<text y="1617" x="917.2148092287929" text-anchor="end">26.9 ms</text>
</g>
<g>
<title>26.9 ms ± 668 μs</title>
<rect y="1623" rx="5" height="22" width="917.2148092287929" fill="hsl(261, 100%, 80%)" stroke="hsl(261, 100%, 55%)" />
<g stroke="hsl(261, 100%, 40%)"><line x1="894.4296184575858" x2="940.0" y1="1634" y2="1634" />
<line x1="894.4296184575858" x2="894.4296184575858" y1="1628" y2="1640" />
<line x1="940.0" x2="940.0" y1="1628" y2="1640" />
</g>
</g>
<text fill="hsl(270, 100%, 40%)" y="1672">catch.10000.sem.shallow 3.24 ms</text>
<g>
<title>3.24 ms ±  86 μs</title>
<rect y="1678" rx="5" height="22" width="110.51329183334924" fill="hsl(270, 100%, 80%)" stroke="hsl(270, 100%, 55%)" />
<g stroke="hsl(270, 100%, 40%)"><line x1="107.59082768151912" x2="113.43575598517937" y1="1689" y2="1689" />
<line x1="107.59082768151912" x2="107.59082768151912" y1="1683" y2="1695" />
<line x1="113.43575598517937" x2="113.43575598517937" y1="1683" y2="1695" />
</g>
</g>
<g fill="hsl(279, 100%, 40%)">
<text y="1727">catch.10000.sem.deep</text>
<text y="1727" x="456.4942341291391" text-anchor="end">13.4 ms</text>
</g>
<g>
<title>13.4 ms ± 916 μs</title>
<rect y="1733" rx="5" height="22" width="456.4942341291391" fill="hsl(279, 100%, 80%)" stroke="hsl(279, 100%, 55%)" />
<g stroke="hsl(279, 100%, 40%)"><line x1="425.2590975548624" x2="487.7293707034158" y1="1744" y2="1744" />
<line x1="425.2590975548624" x2="425.2590975548624" y1="1738" y2="1750" />
<line x1="487.7293707034158" x2="487.7293707034158" y1="1738" y2="1750" />
</g>
</g>
<text fill="hsl(288, 100%, 40%)" y="1782">local.10000.sp_modified_for_non_scoped_resumption_support.shallow 269  μs</text>
<g>
<title>269  μs ±  23 μs</title>
<rect y="1788" rx="5" height="22" width="9.165937414235657" fill="hsl(288, 100%, 80%)" stroke="hsl(288, 100%, 55%)" />
<g stroke="hsl(288, 100%, 40%)"><line x1="8.380783782610779" x2="9.951091045860535" y1="1799" y2="1799" />
<line x1="8.380783782610779" x2="8.380783782610779" y1="1793" y2="1805" />
<line x1="9.951091045860535" x2="9.951091045860535" y1="1793" y2="1805" />
</g>
</g>
<text fill="hsl(297, 100%, 40%)" y="1837">local.10000.sp_modified_for_non_scoped_resumption_support.deep 272  μs</text>
<g>
<title>272  μs ±  27 μs</title>
<rect y="1843" rx="5" height="22" width="9.27688090403128" fill="hsl(297, 100%, 80%)" stroke="hsl(297, 100%, 55%)" />
<g stroke="hsl(297, 100%, 40%)"><line x1="8.35922366499905" x2="10.194538143063511" y1="1854" y2="1854" />
<line x1="8.35922366499905" x2="8.35922366499905" y1="1848" y2="1860" />
<line x1="10.194538143063511" x2="10.194538143063511" y1="1848" y2="1860" />
</g>
</g>
<text fill="hsl(306, 100%, 40%)" y="1892">local.10000.effectful.shallow 714  μs</text>
<g>
<title>714  μs ±  43 μs</title>
<rect y="1898" rx="5" height="22" width="24.356634544184974" fill="hsl(306, 100%, 80%)" stroke="hsl(306, 100%, 55%)" />
<g stroke="hsl(306, 100%, 40%)"><line x1="22.877872122965186" x2="25.83539696540476" y1="1909" y2="1909" />
<line x1="22.877872122965186" x2="22.877872122965186" y1="1903" y2="1915" />
<line x1="25.83539696540476" x2="25.83539696540476" y1="1903" y2="1915" />
</g>
</g>
<text fill="hsl(315, 100%, 40%)" y="1947">local.10000.effectful.deep 699  μs</text>
<g>
<title>699  μs ±  53 μs</title>
<rect y="1953" rx="5" height="22" width="23.847481358509004" fill="hsl(315, 100%, 80%)" stroke="hsl(315, 100%, 55%)" />
<g stroke="hsl(315, 100%, 40%)"><line x1="22.02874035524041" x2="25.6662223617776" y1="1964" y2="1964" />
<line x1="22.02874035524041" x2="22.02874035524041" y1="1958" y2="1970" />
<line x1="25.6662223617776" x2="25.6662223617776" y1="1958" y2="1970" />
</g>
</g>
<text fill="hsl(324, 100%, 40%)" y="2002">local.10000.fused.shallow 1.79 ms</text>
<g>
<title>1.79 ms ±  91 μs</title>
<rect y="2008" rx="5" height="22" width="61.01705146037523" fill="hsl(324, 100%, 80%)" stroke="hsl(324, 100%, 55%)" />
<g stroke="hsl(324, 100%, 40%)"><line x1="57.90588623562655" x2="64.1282166851239" y1="2019" y2="2019" />
<line x1="57.90588623562655" x2="57.90588623562655" y1="2013" y2="2025" />
<line x1="64.1282166851239" x2="64.1282166851239" y1="2013" y2="2025" />
</g>
</g>
<g fill="hsl(333, 100%, 40%)">
<text y="2057">local.10000.fused.deep</text>
<text y="2057" x="256.2777917656062" text-anchor="end">7.51 ms</text>
</g>
<g>
<title>7.51 ms ± 356 μs</title>
<rect y="2063" rx="5" height="22" width="256.2777917656062" fill="hsl(333, 100%, 80%)" stroke="hsl(333, 100%, 55%)" />
<g stroke="hsl(333, 100%, 40%)"><line x1="244.14212969990376" x2="268.41345383130863" y1="2074" y2="2074" />
<line x1="244.14212969990376" x2="244.14212969990376" y1="2068" y2="2080" />
<line x1="268.41345383130863" x2="268.41345383130863" y1="2068" y2="2080" />
</g>
</g>
<text fill="hsl(342, 100%, 40%)" y="2112">local.10000.sem.shallow 4.44 ms</text>
<g>
<title>4.44 ms ± 174 μs</title>
<rect y="2118" rx="5" height="22" width="151.40693693625798" fill="hsl(342, 100%, 80%)" stroke="hsl(342, 100%, 55%)" />
<g stroke="hsl(342, 100%, 40%)"><line x1="145.45767406490208" x2="157.35619980761388" y1="2129" y2="2129" />
<line x1="145.45767406490208" x2="145.45767406490208" y1="2123" y2="2135" />
<line x1="157.35619980761388" x2="157.35619980761388" y1="2123" y2="2135" />
</g>
</g>
<g fill="hsl(351, 100%, 40%)">
<text y="2167">local.10000.sem.deep</text>
<text y="2167" x="309.09668522432725" text-anchor="end">9.06 ms</text>
</g>
<g>
<title>9.06 ms ± 619 μs</title>
<rect y="2173" rx="5" height="22" width="309.09668522432725" fill="hsl(351, 100%, 80%)" stroke="hsl(351, 100%, 55%)" />
<g stroke="hsl(351, 100%, 40%)"><line x1="287.965281623927" x2="330.2280888247275" y1="2184" y2="2184" />
<line x1="287.965281623927" x2="287.965281623927" y1="2178" y2="2190" />
<line x1="330.2280888247275" x2="330.2280888247275" y1="2178" y2="2190" />
</g>
</g>
</g>
</svg>
