<svg xmlns="http://www.w3.org/2000/svg" height="2757" width="960.0" font-size="16" font-family="sans-serif" stroke-width="2">
<g transform="translate(10.0 0)">
<text fill="hsl(0, 100%, 40%)" y="22">countdown.10000.sp_modified_for_non_scoped_resumption_support.shallow 147  μs</text>
<g>
<title>147  μs ±  11 μs</title>
<rect y="28" rx="5" height="22" width="2.0791519128031393" fill="hsl(0, 100%, 80%)" stroke="hsl(0, 100%, 55%)" />
<g stroke="hsl(0, 100%, 40%)"><line x1="1.921324620152106" x2="2.2369792054541726" y1="39" y2="39" />
<line x1="1.921324620152106" x2="1.921324620152106" y1="33" y2="45" />
<line x1="2.2369792054541726" x2="2.2369792054541726" y1="33" y2="45" />
</g>
</g>
<text fill="hsl(7, 100%, 40%)" y="77">countdown.10000.sp_modified_for_non_scoped_resumption_support.deep 150  μs</text>
<g>
<title>150  μs ±  12 μs</title>
<rect y="83" rx="5" height="22" width="2.11780113605309" fill="hsl(7, 100%, 80%)" stroke="hsl(7, 100%, 55%)" />
<g stroke="hsl(7, 100%, 40%)"><line x1="1.9503949763963906" x2="2.2852072957097898" y1="94" y2="94" />
<line x1="1.9503949763963906" x2="1.9503949763963906" y1="88" y2="100" />
<line x1="2.2852072957097898" x2="2.2852072957097898" y1="88" y2="100" />
</g>
</g>
<text fill="hsl(14, 100%, 40%)" y="132">countdown.10000.effectful.shallow 227  μs</text>
<g>
<title>227  μs ±  18 μs</title>
<rect y="138" rx="5" height="22" width="3.208273766958562" fill="hsl(14, 100%, 80%)" stroke="hsl(14, 100%, 55%)" />
<g stroke="hsl(14, 100%, 40%)"><line x1="2.9604781501262982" x2="3.456069383790826" y1="149" y2="149" />
<line x1="2.9604781501262982" x2="2.9604781501262982" y1="143" y2="155" />
<line x1="3.456069383790826" x2="3.456069383790826" y1="143" y2="155" />
</g>
</g>
<text fill="hsl(21, 100%, 40%)" y="187">countdown.10000.effectful.deep 227  μs</text>
<g>
<title>227  μs ±  13 μs</title>
<rect y="193" rx="5" height="22" width="3.2076726820726527" fill="hsl(21, 100%, 80%)" stroke="hsl(21, 100%, 55%)" />
<g stroke="hsl(21, 100%, 40%)"><line x1="3.0193297605414267" x2="3.3960156036038787" y1="204" y2="204" />
<line x1="3.0193297605414267" x2="3.0193297605414267" y1="198" y2="210" />
<line x1="3.3960156036038787" x2="3.3960156036038787" y1="198" y2="210" />
</g>
</g>
<text fill="hsl(28, 100%, 40%)" y="242">countdown.10000.ev.shallow 297  μs</text>
<g>
<title>297  μs ±  14 μs</title>
<rect y="248" rx="5" height="22" width="4.201707981818714" fill="hsl(28, 100%, 80%)" stroke="hsl(28, 100%, 55%)" />
<g stroke="hsl(28, 100%, 40%)"><line x1="4.005282141239711" x2="4.3981338223977176" y1="259" y2="259" />
<line x1="4.005282141239711" x2="4.005282141239711" y1="253" y2="265" />
<line x1="4.3981338223977176" x2="4.3981338223977176" y1="253" y2="265" />
</g>
</g>
<text fill="hsl(36, 100%, 40%)" y="297">countdown.10000.ev.deep 358  μs</text>
<g>
<title>358  μs ±  33 μs</title>
<rect y="303" rx="5" height="22" width="5.0678292593031715" fill="hsl(36, 100%, 80%)" stroke="hsl(36, 100%, 55%)" />
<g stroke="hsl(36, 100%, 40%)"><line x1="4.606237982675405" x2="5.529420535930938" y1="314" y2="314" />
<line x1="4.606237982675405" x2="4.606237982675405" y1="308" y2="320" />
<line x1="5.529420535930938" x2="5.529420535930938" y1="308" y2="320" />
</g>
</g>
<text fill="hsl(43, 100%, 40%)" y="352">countdown.10000.freer.shallow 481  μs</text>
<g>
<title>481  μs ±  42 μs</title>
<rect y="358" rx="5" height="22" width="6.812956478336277" fill="hsl(43, 100%, 80%)" stroke="hsl(43, 100%, 55%)" />
<g stroke="hsl(43, 100%, 40%)"><line x1="6.211774543736862" x2="7.414138412935692" y1="369" y2="369" />
<line x1="6.211774543736862" x2="6.211774543736862" y1="363" y2="375" />
<line x1="7.414138412935692" x2="7.414138412935692" y1="363" y2="375" />
</g>
</g>
<text fill="hsl(50, 100%, 40%)" y="407">countdown.10000.freer.deep 1.51 ms</text>
<g>
<title>1.51 ms ±  88 μs</title>
<rect y="413" rx="5" height="22" width="21.350183561814635" fill="hsl(50, 100%, 80%)" stroke="hsl(50, 100%, 55%)" />
<g stroke="hsl(50, 100%, 40%)"><line x1="20.105162958486876" x2="22.595204165142395" y1="424" y2="424" />
<line x1="20.105162958486876" x2="20.105162958486876" y1="418" y2="430" />
<line x1="22.595204165142395" x2="22.595204165142395" y1="418" y2="430" />
</g>
</g>
<text fill="hsl(57, 100%, 40%)" y="462">countdown.10000.mtl.shallow 1.22 ms</text>
<g>
<title>1.22 ms ±  95 μs</title>
<rect y="468" rx="5" height="22" width="17.28605714046328" fill="hsl(57, 100%, 80%)" stroke="hsl(57, 100%, 55%)" />
<g stroke="hsl(57, 100%, 40%)"><line x1="15.948684958646552" x2="18.62342932228001" y1="479" y2="479" />
<line x1="15.948684958646552" x2="15.948684958646552" y1="473" y2="485" />
<line x1="18.62342932228001" x2="18.62342932228001" y1="473" y2="485" />
</g>
</g>
<text fill="hsl(64, 100%, 40%)" y="517">countdown.10000.mtl.deep 9.81 ms</text>
<g>
<title>9.81 ms ± 702 μs</title>
<rect y="523" rx="5" height="22" width="138.8175210986031" fill="hsl(64, 100%, 80%)" stroke="hsl(64, 100%, 55%)" />
<g stroke="hsl(64, 100%, 40%)"><line x1="128.88674297751962" x2="148.74829921968657" y1="534" y2="534" />
<line x1="128.88674297751962" x2="128.88674297751962" y1="528" y2="540" />
<line x1="148.74829921968657" x2="148.74829921968657" y1="528" y2="540" />
</g>
</g>
<text fill="hsl(72, 100%, 40%)" y="572">countdown.10000.fused.shallow 2.13 ms</text>
<g>
<title>2.13 ms ± 199 μs</title>
<rect y="578" rx="5" height="22" width="30.13706186615768" fill="hsl(72, 100%, 80%)" stroke="hsl(72, 100%, 55%)" />
<g stroke="hsl(72, 100%, 40%)"><line x1="27.322684192941164" x2="32.95143953937419" y1="589" y2="589" />
<line x1="27.322684192941164" x2="27.322684192941164" y1="583" y2="595" />
<line x1="32.95143953937419" x2="32.95143953937419" y1="583" y2="595" />
</g>
</g>
<text fill="hsl(79, 100%, 40%)" y="627">countdown.10000.fused.deep 16.3 ms</text>
<g>
<title>16.3 ms ± 810 μs</title>
<rect y="633" rx="5" height="22" width="230.44350779880318" fill="hsl(79, 100%, 80%)" stroke="hsl(79, 100%, 55%)" />
<g stroke="hsl(79, 100%, 40%)"><line x1="218.9852730470959" x2="241.90174255051048" y1="644" y2="644" />
<line x1="218.9852730470959" x2="218.9852730470959" y1="638" y2="650" />
<line x1="241.90174255051048" x2="241.90174255051048" y1="638" y2="650" />
</g>
</g>
<text fill="hsl(86, 100%, 40%)" y="682">countdown.10000.sem.shallow 2.70 ms</text>
<g>
<title>2.70 ms ± 267 μs</title>
<rect y="688" rx="5" height="22" width="38.13885263858458" fill="hsl(86, 100%, 80%)" stroke="hsl(86, 100%, 55%)" />
<g stroke="hsl(86, 100%, 40%)"><line x1="34.36461007344158" x2="41.91309520372758" y1="699" y2="699" />
<line x1="34.36461007344158" x2="34.36461007344158" y1="693" y2="705" />
<line x1="41.91309520372758" x2="41.91309520372758" y1="693" y2="705" />
</g>
</g>
<text fill="hsl(93, 100%, 40%)" y="737">countdown.10000.sem.deep 4.43 ms</text>
<g>
<title>4.43 ms ± 443 μs</title>
<rect y="743" rx="5" height="22" width="62.67352522691586" fill="hsl(93, 100%, 80%)" stroke="hsl(93, 100%, 55%)" />
<g stroke="hsl(93, 100%, 40%)"><line x1="56.40824943014625" x2="68.93880102368547" y1="754" y2="754" />
<line x1="56.40824943014625" x2="56.40824943014625" y1="748" y2="760" />
<line x1="68.93880102368547" x2="68.93880102368547" y1="748" y2="760" />
</g>
</g>
<text fill="hsl(100, 100%, 40%)" y="792">pyth.32.sp_modified_for_non_scoped_resumption_support.shallow 4.09 ms</text>
<g>
<title>4.09 ms ± 367 μs</title>
<rect y="798" rx="5" height="22" width="57.91302378099114" fill="hsl(100, 100%, 80%)" stroke="hsl(100, 100%, 55%)" />
<g stroke="hsl(100, 100%, 40%)"><line x1="52.71425045196966" x2="63.11179711001262" y1="809" y2="809" />
<line x1="52.71425045196966" x2="52.71425045196966" y1="803" y2="815" />
<line x1="63.11179711001262" x2="63.11179711001262" y1="803" y2="815" />
</g>
</g>
<text fill="hsl(108, 100%, 40%)" y="847">pyth.32.sp_modified_for_non_scoped_resumption_support.deep 10.7 ms</text>
<g>
<title>10.7 ms ± 845 μs</title>
<rect y="853" rx="5" height="22" width="151.6020847742616" fill="hsl(108, 100%, 80%)" stroke="hsl(108, 100%, 55%)" />
<g stroke="hsl(108, 100%, 40%)"><line x1="139.6473022550406" x2="163.55686729348264" y1="864" y2="864" />
<line x1="139.6473022550406" x2="139.6473022550406" y1="858" y2="870" />
<line x1="163.55686729348264" x2="163.55686729348264" y1="858" y2="870" />
</g>
</g>
<text fill="hsl(115, 100%, 40%)" y="902">pyth.32.ev.shallow 1.42 ms</text>
<g>
<title>1.42 ms ±  89 μs</title>
<rect y="908" rx="5" height="22" width="20.08432672648874" fill="hsl(115, 100%, 80%)" stroke="hsl(115, 100%, 55%)" />
<g stroke="hsl(115, 100%, 40%)"><line x1="18.823622669979045" x2="21.345030782998435" y1="919" y2="919" />
<line x1="18.823622669979045" x2="18.823622669979045" y1="913" y2="925" />
<line x1="21.345030782998435" x2="21.345030782998435" y1="913" y2="925" />
</g>
</g>
<text fill="hsl(122, 100%, 40%)" y="957">pyth.32.ev.deep 2.82 ms</text>
<g>
<title>2.82 ms ±  55 μs</title>
<rect y="963" rx="5" height="22" width="39.84233409686983" fill="hsl(122, 100%, 80%)" stroke="hsl(122, 100%, 55%)" />
<g stroke="hsl(122, 100%, 40%)"><line x1="39.06775640880449" x2="40.61691178493516" y1="974" y2="974" />
<line x1="39.06775640880449" x2="39.06775640880449" y1="968" y2="980" />
<line x1="40.61691178493516" x2="40.61691178493516" y1="968" y2="980" />
</g>
</g>
<text fill="hsl(129, 100%, 40%)" y="1012">pyth.32.freer.shallow 6.85 ms</text>
<g>
<title>6.85 ms ± 249 μs</title>
<rect y="1018" rx="5" height="22" width="96.98483867317105" fill="hsl(129, 100%, 80%)" stroke="hsl(129, 100%, 55%)" />
<g stroke="hsl(129, 100%, 40%)"><line x1="93.45769050633064" x2="100.51198684001147" y1="1029" y2="1029" />
<line x1="93.45769050633064" x2="93.45769050633064" y1="1023" y2="1035" />
<line x1="100.51198684001147" x2="100.51198684001147" y1="1023" y2="1035" />
</g>
</g>
<text fill="hsl(136, 100%, 40%)" y="1067">pyth.32.freer.deep 10.8 ms</text>
<g>
<title>10.8 ms ± 1.0 ms</title>
<rect y="1073" rx="5" height="22" width="153.08535470339785" fill="hsl(136, 100%, 80%)" stroke="hsl(136, 100%, 55%)" />
<g stroke="hsl(136, 100%, 40%)"><line x1="139.0027250370092" x2="167.1679843697865" y1="1084" y2="1084" />
<line x1="139.0027250370092" x2="139.0027250370092" y1="1078" y2="1090" />
<line x1="167.1679843697865" x2="167.1679843697865" y1="1078" y2="1090" />
</g>
</g>
<text fill="hsl(144, 100%, 40%)" y="1122">pyth.32.fused.shallow 1.50 ms</text>
<g>
<title>1.50 ms ± 129 μs</title>
<rect y="1128" rx="5" height="22" width="21.16901751683883" fill="hsl(144, 100%, 80%)" stroke="hsl(144, 100%, 55%)" />
<g stroke="hsl(144, 100%, 40%)"><line x1="19.343852383871894" x2="22.99418264980577" y1="1139" y2="1139" />
<line x1="19.343852383871894" x2="19.343852383871894" y1="1133" y2="1145" />
<line x1="22.99418264980577" x2="22.99418264980577" y1="1133" y2="1145" />
</g>
</g>
<text fill="hsl(151, 100%, 40%)" y="1177">pyth.32.fused.deep 12.4 ms</text>
<g>
<title>12.4 ms ± 1.1 ms</title>
<rect y="1183" rx="5" height="22" width="176.1221070152141" fill="hsl(151, 100%, 80%)" stroke="hsl(151, 100%, 55%)" />
<g stroke="hsl(151, 100%, 40%)"><line x1="159.8625836221679" x2="192.38163040826032" y1="1194" y2="1194" />
<line x1="159.8625836221679" x2="159.8625836221679" y1="1188" y2="1200" />
<line x1="192.38163040826032" x2="192.38163040826032" y1="1188" y2="1200" />
</g>
</g>
<g fill="hsl(158, 100%, 40%)">
<text y="1232">pyth.32.sem.shallow</text>
<text y="1232" x="222.3573350444055" text-anchor="end">15.7 ms</text>
</g>
<g>
<title>15.7 ms ± 532 μs</title>
<rect y="1238" rx="5" height="22" width="222.3573350444055" fill="hsl(158, 100%, 80%)" stroke="hsl(158, 100%, 55%)" />
<g stroke="hsl(158, 100%, 40%)"><line x1="214.82812207445127" x2="229.8865480143597" y1="1249" y2="1249" />
<line x1="214.82812207445127" x2="214.82812207445127" y1="1243" y2="1255" />
<line x1="229.8865480143597" x2="229.8865480143597" y1="1243" y2="1255" />
</g>
</g>
<g fill="hsl(165, 100%, 40%)">
<text y="1287">pyth.32.sem.deep</text>
<text y="1287" x="222.61818028543274" text-anchor="end">15.7 ms</text>
</g>
<g>
<title>15.7 ms ± 830 μs</title>
<rect y="1293" rx="5" height="22" width="222.61818028543274" fill="hsl(165, 100%, 80%)" stroke="hsl(165, 100%, 55%)" />
<g stroke="hsl(165, 100%, 40%)"><line x1="210.87697513013543" x2="234.35938544073005" y1="1304" y2="1304" />
<line x1="210.87697513013543" x2="210.87697513013543" y1="1298" y2="1310" />
<line x1="234.35938544073005" x2="234.35938544073005" y1="1298" y2="1310" />
</g>
</g>
<text fill="hsl(172, 100%, 40%)" y="1342">catch.10000.sp_modified_for_non_scoped_resumption_support.shallow 8.16 ms</text>
<g>
<title>8.16 ms ± 615 μs</title>
<rect y="1348" rx="5" height="22" width="115.40959026582932" fill="hsl(172, 100%, 80%)" stroke="hsl(172, 100%, 55%)" />
<g stroke="hsl(172, 100%, 40%)"><line x1="106.70640581475503" x2="124.11277471690362" y1="1359" y2="1359" />
<line x1="106.70640581475503" x2="106.70640581475503" y1="1353" y2="1365" />
<line x1="124.11277471690362" x2="124.11277471690362" y1="1353" y2="1365" />
</g>
</g>
<text fill="hsl(180, 100%, 40%)" y="1397">catch.10000.sp_modified_for_non_scoped_resumption_support.deep0 9.28 ms</text>
<g>
<title>9.28 ms ± 545 μs</title>
<rect y="1403" rx="5" height="22" width="131.37267533680335" fill="hsl(180, 100%, 80%)" stroke="hsl(180, 100%, 55%)" />
<g stroke="hsl(180, 100%, 40%)"><line x1="123.66693060200275" x2="139.07842007160394" y1="1414" y2="1414" />
<line x1="123.66693060200275" x2="123.66693060200275" y1="1408" y2="1420" />
<line x1="139.07842007160394" x2="139.07842007160394" y1="1408" y2="1420" />
</g>
</g>
<text fill="hsl(187, 100%, 40%)" y="1452">catch.10000.sp_modified_for_non_scoped_resumption_support.deep1 20.4 ms</text>
<g>
<title>20.4 ms ± 700 μs</title>
<rect y="1458" rx="5" height="22" width="288.7846478368522" fill="hsl(187, 100%, 80%)" stroke="hsl(187, 100%, 55%)" />
<g stroke="hsl(187, 100%, 40%)"><line x1="278.88565824194353" x2="298.6836374317608" y1="1469" y2="1469" />
<line x1="278.88565824194353" x2="278.88565824194353" y1="1463" y2="1475" />
<line x1="298.6836374317608" x2="298.6836374317608" y1="1463" y2="1475" />
</g>
</g>
<text fill="hsl(194, 100%, 40%)" y="1507">catch.10000.sp_modified_for_non_scoped_resumption_support.deep2 30.2 ms</text>
<g>
<title>30.2 ms ± 213 μs</title>
<rect y="1513" rx="5" height="22" width="427.0102092443516" fill="hsl(194, 100%, 80%)" stroke="hsl(194, 100%, 55%)" />
<g stroke="hsl(194, 100%, 40%)"><line x1="423.9905589033175" x2="430.0298595853857" y1="1524" y2="1524" />
<line x1="423.9905589033175" x2="423.9905589033175" y1="1518" y2="1530" />
<line x1="430.0298595853857" x2="430.0298595853857" y1="1518" y2="1530" />
</g>
</g>
<g fill="hsl(201, 100%, 40%)">
<text y="1562">catch.10000.sp_modified_for_non_scoped_resumption_support.deep3</text>
<text y="1562" x="587.4928999182794" text-anchor="end">41.5 ms</text>
</g>
<g>
<title>41.5 ms ± 806 μs</title>
<rect y="1568" rx="5" height="22" width="587.4928999182794" fill="hsl(201, 100%, 80%)" stroke="hsl(201, 100%, 55%)" />
<g stroke="hsl(201, 100%, 40%)"><line x1="576.0851609951752" x2="598.9006388413835" y1="1579" y2="1579" />
<line x1="576.0851609951752" x2="576.0851609951752" y1="1573" y2="1585" />
<line x1="598.9006388413835" x2="598.9006388413835" y1="1573" y2="1585" />
</g>
</g>
<g fill="hsl(208, 100%, 40%)">
<text y="1617">catch.10000.sp_modified_for_non_scoped_resumption_support.deep4</text>
<text y="1617" x="693.5911214198956" text-anchor="end">49.0 ms</text>
</g>
<g>
<title>49.0 ms ± 3.1 ms</title>
<rect y="1623" rx="5" height="22" width="693.5911214198956" fill="hsl(208, 100%, 80%)" stroke="hsl(208, 100%, 55%)" />
<g stroke="hsl(208, 100%, 40%)"><line x1="650.0548463080211" x2="737.12739653177" y1="1634" y2="1634" />
<line x1="650.0548463080211" x2="650.0548463080211" y1="1628" y2="1640" />
<line x1="737.12739653177" x2="737.12739653177" y1="1628" y2="1640" />
</g>
</g>
<g fill="hsl(216, 100%, 40%)">
<text y="1672">catch.10000.sp_modified_for_non_scoped_resumption_support.deep5</text>
<text y="1672" x="869.7358204163046" text-anchor="end">61.5 ms</text>
</g>
<g>
<title>61.5 ms ± 5.0 ms</title>
<rect y="1678" rx="5" height="22" width="869.7358204163046" fill="hsl(216, 100%, 80%)" stroke="hsl(216, 100%, 55%)" />
<g stroke="hsl(216, 100%, 40%)"><line x1="799.4716408326092" x2="940.0" y1="1689" y2="1689" />
<line x1="799.4716408326092" x2="799.4716408326092" y1="1683" y2="1695" />
<line x1="940.0" x2="940.0" y1="1683" y2="1695" />
</g>
</g>
<text fill="hsl(223, 100%, 40%)" y="1727">catch.10000.effectful.shallow 1.30 ms</text>
<g>
<title>1.30 ms ±  47 μs</title>
<rect y="1733" rx="5" height="22" width="18.461807125853447" fill="hsl(223, 100%, 80%)" stroke="hsl(223, 100%, 55%)" />
<g stroke="hsl(223, 100%, 40%)"><line x1="17.80227673966279" x2="19.121337512044104" y1="1744" y2="1744" />
<line x1="17.80227673966279" x2="17.80227673966279" y1="1738" y2="1750" />
<line x1="19.121337512044104" x2="19.121337512044104" y1="1738" y2="1750" />
</g>
</g>
<text fill="hsl(230, 100%, 40%)" y="1782">catch.10000.effectful.deep 1.32 ms</text>
<g>
<title>1.32 ms ±  91 μs</title>
<rect y="1788" rx="5" height="22" width="18.6685320286801" fill="hsl(230, 100%, 80%)" stroke="hsl(230, 100%, 55%)" />
<g stroke="hsl(230, 100%, 40%)"><line x1="17.381340047881693" x2="19.95572400947851" y1="1799" y2="1799" />
<line x1="17.381340047881693" x2="17.381340047881693" y1="1793" y2="1805" />
<line x1="19.95572400947851" x2="19.95572400947851" y1="1793" y2="1805" />
</g>
</g>
<text fill="hsl(237, 100%, 40%)" y="1837">catch.10000.fused.shallow 4.90 ms</text>
<g>
<title>4.90 ms ± 110 μs</title>
<rect y="1843" rx="5" height="22" width="69.31066165909988" fill="hsl(237, 100%, 80%)" stroke="hsl(237, 100%, 55%)" />
<g stroke="hsl(237, 100%, 40%)"><line x1="67.75914451012999" x2="70.86217880806977" y1="1854" y2="1854" />
<line x1="67.75914451012999" x2="67.75914451012999" y1="1848" y2="1860" />
<line x1="70.86217880806977" x2="70.86217880806977" y1="1848" y2="1860" />
</g>
</g>
<g fill="hsl(244, 100%, 40%)">
<text y="1892">catch.10000.fused.deep</text>
<text y="1892" x="371.7285077554065" text-anchor="end">26.3 ms</text>
</g>
<g>
<title>26.3 ms ± 512 μs</title>
<rect y="1898" rx="5" height="22" width="371.7285077554065" fill="hsl(244, 100%, 80%)" stroke="hsl(244, 100%, 55%)" />
<g stroke="hsl(244, 100%, 40%)"><line x1="364.4819519105508" x2="378.9750636002622" y1="1909" y2="1909" />
<line x1="364.4819519105508" x2="364.4819519105508" y1="1903" y2="1915" />
<line x1="378.9750636002622" x2="378.9750636002622" y1="1903" y2="1915" />
</g>
</g>
<text fill="hsl(252, 100%, 40%)" y="1947">catch.10000.sem.shallow 3.13 ms</text>
<g>
<title>3.13 ms ± 160 μs</title>
<rect y="1953" rx="5" height="22" width="44.23822401148188" fill="hsl(252, 100%, 80%)" stroke="hsl(252, 100%, 55%)" />
<g stroke="hsl(252, 100%, 40%)"><line x1="41.97754684052976" x2="46.498901182434004" y1="1964" y2="1964" />
<line x1="41.97754684052976" x2="41.97754684052976" y1="1958" y2="1970" />
<line x1="46.498901182434004" x2="46.498901182434004" y1="1958" y2="1970" />
</g>
</g>
<text fill="hsl(259, 100%, 40%)" y="2002">catch.10000.sem.deep 13.1 ms</text>
<g>
<title>13.1 ms ± 687 μs</title>
<rect y="2008" rx="5" height="22" width="186.03053484285033" fill="hsl(259, 100%, 80%)" stroke="hsl(259, 100%, 55%)" />
<g stroke="hsl(259, 100%, 40%)"><line x1="176.30928062597872" x2="195.75178905972194" y1="2019" y2="2019" />
<line x1="176.30928062597872" x2="176.30928062597872" y1="2013" y2="2025" />
<line x1="195.75178905972194" x2="195.75178905972194" y1="2013" y2="2025" />
</g>
</g>
<text fill="hsl(266, 100%, 40%)" y="2057">local.10000.sp_modified_for_non_scoped_resumption_support.shallow 7.94 ms</text>
<g>
<title>7.94 ms ± 311 μs</title>
<rect y="2063" rx="5" height="22" width="112.4268176061483" fill="hsl(266, 100%, 80%)" stroke="hsl(266, 100%, 55%)" />
<g stroke="hsl(266, 100%, 40%)"><line x1="108.02271545914242" x2="116.83091975315419" y1="2074" y2="2074" />
<line x1="108.02271545914242" x2="108.02271545914242" y1="2068" y2="2080" />
<line x1="116.83091975315419" x2="116.83091975315419" y1="2068" y2="2080" />
</g>
</g>
<text fill="hsl(273, 100%, 40%)" y="2112">local.10000.sp_modified_for_non_scoped_resumption_support.deep0 9.14 ms</text>
<g>
<title>9.14 ms ± 589 μs</title>
<rect y="2118" rx="5" height="22" width="129.2945105102147" fill="hsl(273, 100%, 80%)" stroke="hsl(273, 100%, 55%)" />
<g stroke="hsl(273, 100%, 40%)"><line x1="120.95800790589729" x2="137.63101311453212" y1="2129" y2="2129" />
<line x1="120.95800790589729" x2="120.95800790589729" y1="2123" y2="2135" />
<line x1="137.63101311453212" x2="137.63101311453212" y1="2123" y2="2135" />
</g>
</g>
<text fill="hsl(280, 100%, 40%)" y="2167">local.10000.sp_modified_for_non_scoped_resumption_support.deep1 16.9 ms</text>
<g>
<title>16.9 ms ± 1.4 ms</title>
<rect y="2173" rx="5" height="22" width="238.48939501658705" fill="hsl(280, 100%, 80%)" stroke="hsl(280, 100%, 55%)" />
<g stroke="hsl(280, 100%, 40%)"><line x1="218.0990547378699" x2="258.8797352953042" y1="2184" y2="2184" />
<line x1="218.0990547378699" x2="218.0990547378699" y1="2178" y2="2190" />
<line x1="258.8797352953042" x2="258.8797352953042" y1="2178" y2="2190" />
</g>
</g>
<text fill="hsl(288, 100%, 40%)" y="2222">local.10000.sp_modified_for_non_scoped_resumption_support.deep2 26.3 ms</text>
<g>
<title>26.3 ms ± 854 μs</title>
<rect y="2228" rx="5" height="22" width="372.648045506294" fill="hsl(288, 100%, 80%)" stroke="hsl(288, 100%, 55%)" />
<g stroke="hsl(288, 100%, 40%)"><line x1="360.5630260793737" x2="384.73306493321434" y1="2239" y2="2239" />
<line x1="360.5630260793737" x2="360.5630260793737" y1="2233" y2="2245" />
<line x1="384.73306493321434" x2="384.73306493321434" y1="2233" y2="2245" />
</g>
</g>
<text fill="hsl(295, 100%, 40%)" y="2277">local.10000.sp_modified_for_non_scoped_resumption_support.deep3 36.1 ms</text>
<g>
<title>36.1 ms ± 796 μs</title>
<rect y="2283" rx="5" height="22" width="511.4130424332052" fill="hsl(295, 100%, 80%)" stroke="hsl(295, 100%, 55%)" />
<g stroke="hsl(295, 100%, 40%)"><line x1="500.1517582472763" x2="522.674326619134" y1="2294" y2="2294" />
<line x1="500.1517582472763" x2="500.1517582472763" y1="2288" y2="2300" />
<line x1="522.674326619134" x2="522.674326619134" y1="2288" y2="2300" />
</g>
</g>
<g fill="hsl(302, 100%, 40%)">
<text y="2332">local.10000.sp_modified_for_non_scoped_resumption_support.deep4</text>
<text y="2332" x="687.3633263563769" text-anchor="end">48.6 ms</text>
</g>
<g>
<title>48.6 ms ± 894 μs</title>
<rect y="2338" rx="5" height="22" width="687.3633263563769" fill="hsl(302, 100%, 80%)" stroke="hsl(302, 100%, 55%)" />
<g stroke="hsl(302, 100%, 40%)"><line x1="674.7093418484952" x2="700.0173108642585" y1="2349" y2="2349" />
<line x1="674.7093418484952" x2="674.7093418484952" y1="2343" y2="2355" />
<line x1="700.0173108642585" x2="700.0173108642585" y1="2343" y2="2355" />
</g>
</g>
<g fill="hsl(309, 100%, 40%)">
<text y="2387">local.10000.sp_modified_for_non_scoped_resumption_support.deep5</text>
<text y="2387" x="853.8862474156132" text-anchor="end">60.3 ms</text>
</g>
<g>
<title>60.3 ms ± 5.7 ms</title>
<rect y="2393" rx="5" height="22" width="853.8862474156132" fill="hsl(309, 100%, 80%)" stroke="hsl(309, 100%, 55%)" />
<g stroke="hsl(309, 100%, 40%)"><line x1="772.7132878650349" x2="935.0592069661915" y1="2404" y2="2404" />
<line x1="772.7132878650349" x2="772.7132878650349" y1="2398" y2="2410" />
<line x1="935.0592069661915" x2="935.0592069661915" y1="2398" y2="2410" />
</g>
</g>
<text fill="hsl(316, 100%, 40%)" y="2442">local.10000.effectful.shallow 697  μs</text>
<g>
<title>697  μs ±  55 μs</title>
<rect y="2448" rx="5" height="22" width="9.86998506988409" fill="hsl(316, 100%, 80%)" stroke="hsl(316, 100%, 55%)" />
<g stroke="hsl(316, 100%, 40%)"><line x1="9.094614916576951" x2="10.645355223191228" y1="2459" y2="2459" />
<line x1="9.094614916576951" x2="9.094614916576951" y1="2453" y2="2465" />
<line x1="10.645355223191228" x2="10.645355223191228" y1="2453" y2="2465" />
</g>
</g>
<text fill="hsl(324, 100%, 40%)" y="2497">local.10000.effectful.deep 695  μs</text>
<g>
<title>695  μs ±  44 μs</title>
<rect y="2503" rx="5" height="22" width="9.83918183272578" fill="hsl(324, 100%, 80%)" stroke="hsl(324, 100%, 55%)" />
<g stroke="hsl(324, 100%, 40%)"><line x1="9.212803777088784" x2="10.465559888362776" y1="2514" y2="2514" />
<line x1="9.212803777088784" x2="9.212803777088784" y1="2508" y2="2520" />
<line x1="10.465559888362776" x2="10.465559888362776" y1="2508" y2="2520" />
</g>
</g>
<text fill="hsl(331, 100%, 40%)" y="2552">local.10000.fused.shallow 1.77 ms</text>
<g>
<title>1.77 ms ±  84 μs</title>
<rect y="2558" rx="5" height="22" width="24.998405459821523" fill="hsl(331, 100%, 80%)" stroke="hsl(331, 100%, 55%)" />
<g stroke="hsl(331, 100%, 40%)"><line x1="23.80403694226125" x2="26.192773977381798" y1="2569" y2="2569" />
<line x1="23.80403694226125" x2="23.80403694226125" y1="2563" y2="2575" />
<line x1="26.192773977381798" x2="26.192773977381798" y1="2563" y2="2575" />
</g>
</g>
<text fill="hsl(338, 100%, 40%)" y="2607">local.10000.fused.deep 7.48 ms</text>
<g>
<title>7.48 ms ± 716 μs</title>
<rect y="2613" rx="5" height="22" width="105.82537801135123" fill="hsl(338, 100%, 80%)" stroke="hsl(338, 100%, 55%)" />
<g stroke="hsl(338, 100%, 40%)"><line x1="95.68832730112902" x2="115.96242872157345" y1="2624" y2="2624" />
<line x1="95.68832730112902" x2="95.68832730112902" y1="2618" y2="2630" />
<line x1="115.96242872157345" x2="115.96242872157345" y1="2618" y2="2630" />
</g>
</g>
<text fill="hsl(345, 100%, 40%)" y="2662">local.10000.sem.shallow 4.36 ms</text>
<g>
<title>4.36 ms ± 297 μs</title>
<rect y="2668" rx="5" height="22" width="61.66588134610721" fill="hsl(345, 100%, 80%)" stroke="hsl(345, 100%, 55%)" />
<g stroke="hsl(345, 100%, 40%)"><line x1="57.45819935091198" x2="65.87356334130244" y1="2679" y2="2679" />
<line x1="57.45819935091198" x2="57.45819935091198" y1="2673" y2="2685" />
<line x1="65.87356334130244" x2="65.87356334130244" y1="2673" y2="2685" />
</g>
</g>
<text fill="hsl(352, 100%, 40%)" y="2717">local.10000.sem.deep 8.65 ms</text>
<g>
<title>8.65 ms ± 635 μs</title>
<rect y="2723" rx="5" height="22" width="122.41172452782907" fill="hsl(352, 100%, 80%)" stroke="hsl(352, 100%, 55%)" />
<g stroke="hsl(352, 100%, 40%)"><line x1="113.42275820460316" x2="131.40069085105497" y1="2734" y2="2734" />
<line x1="113.42275820460316" x2="113.42275820460316" y1="2728" y2="2740" />
<line x1="131.40069085105497" x2="131.40069085105497" y1="2728" y2="2740" />
</g>
</g>
</g>
</svg>
