<svg xmlns="http://www.w3.org/2000/svg" height="2757" width="960.0" font-size="16" font-family="sans-serif" stroke-width="2">
<g transform="translate(10.0 0)">
<text fill="hsl(0, 100%, 40%)" y="22">countdown.10000.sp_modified_for_non_scoped_resumption_support.shallow 142  μs</text>
<g>
<title>142  μs ±  12 μs</title>
<rect y="28" rx="5" height="22" width="2.09659463950216" fill="hsl(0, 100%, 80%)" stroke="hsl(0, 100%, 55%)" />
<g stroke="hsl(0, 100%, 40%)"><line x1="1.9202667627352468" x2="2.2729225162690736" y1="39" y2="39" />
<line x1="1.9202667627352468" x2="1.9202667627352468" y1="33" y2="45" />
<line x1="2.2729225162690736" x2="2.2729225162690736" y1="33" y2="45" />
</g>
</g>
<text fill="hsl(7, 100%, 40%)" y="77">countdown.10000.sp_modified_for_non_scoped_resumption_support.deep 142  μs</text>
<g>
<title>142  μs ±  14 μs</title>
<rect y="83" rx="5" height="22" width="2.0866419686442805" fill="hsl(7, 100%, 80%)" stroke="hsl(7, 100%, 55%)" />
<g stroke="hsl(7, 100%, 40%)"><line x1="1.8826945672498678" x2="2.2905893700386932" y1="94" y2="94" />
<line x1="1.8826945672498678" x2="1.8826945672498678" y1="88" y2="100" />
<line x1="2.2905893700386932" x2="2.2905893700386932" y1="88" y2="100" />
</g>
</g>
<text fill="hsl(14, 100%, 40%)" y="132">countdown.10000.effectful.shallow 219  μs</text>
<g>
<title>219  μs ±  13 μs</title>
<rect y="138" rx="5" height="22" width="3.2210675854581585" fill="hsl(14, 100%, 80%)" stroke="hsl(14, 100%, 55%)" />
<g stroke="hsl(14, 100%, 40%)"><line x1="3.0314082006126597" x2="3.4107269703036573" y1="149" y2="149" />
<line x1="3.0314082006126597" x2="3.0314082006126597" y1="143" y2="155" />
<line x1="3.4107269703036573" x2="3.4107269703036573" y1="143" y2="155" />
</g>
</g>
<text fill="hsl(21, 100%, 40%)" y="187">countdown.10000.effectful.deep 218  μs</text>
<g>
<title>218  μs ±  13 μs</title>
<rect y="193" rx="5" height="22" width="3.2138976172945313" fill="hsl(21, 100%, 80%)" stroke="hsl(21, 100%, 55%)" />
<g stroke="hsl(21, 100%, 40%)"><line x1="3.0155167410114254" x2="3.412278493577637" y1="204" y2="204" />
<line x1="3.0155167410114254" x2="3.0155167410114254" y1="198" y2="210" />
<line x1="3.412278493577637" x2="3.412278493577637" y1="198" y2="210" />
</g>
</g>
<text fill="hsl(28, 100%, 40%)" y="242">countdown.10000.ev.shallow 310  μs</text>
<g>
<title>310  μs ±  26 μs</title>
<rect y="248" rx="5" height="22" width="4.5702770452121175" fill="hsl(28, 100%, 80%)" stroke="hsl(28, 100%, 55%)" />
<g stroke="hsl(28, 100%, 40%)"><line x1="4.184067825528514" x2="4.956486264895721" y1="259" y2="259" />
<line x1="4.184067825528514" x2="4.184067825528514" y1="253" y2="265" />
<line x1="4.956486264895721" x2="4.956486264895721" y1="253" y2="265" />
</g>
</g>
<text fill="hsl(36, 100%, 40%)" y="297">countdown.10000.ev.deep 282  μs</text>
<g>
<title>282  μs ±  25 μs</title>
<rect y="303" rx="5" height="22" width="4.152667807324711" fill="hsl(36, 100%, 80%)" stroke="hsl(36, 100%, 55%)" />
<g stroke="hsl(36, 100%, 40%)"><line x1="3.7864188841733286" x2="4.518916730476094" y1="314" y2="314" />
<line x1="3.7864188841733286" x2="3.7864188841733286" y1="308" y2="320" />
<line x1="4.518916730476094" x2="4.518916730476094" y1="308" y2="320" />
</g>
</g>
<text fill="hsl(43, 100%, 40%)" y="352">countdown.10000.freer.shallow 473  μs</text>
<g>
<title>473  μs ±  25 μs</title>
<rect y="358" rx="5" height="22" width="6.970471940301039" fill="hsl(43, 100%, 80%)" stroke="hsl(43, 100%, 55%)" />
<g stroke="hsl(43, 100%, 40%)"><line x1="6.596297501292252" x2="7.344646379309825" y1="369" y2="369" />
<line x1="6.596297501292252" x2="6.596297501292252" y1="363" y2="375" />
<line x1="7.344646379309825" x2="7.344646379309825" y1="363" y2="375" />
</g>
</g>
<text fill="hsl(50, 100%, 40%)" y="407">countdown.10000.freer.deep 1.42 ms</text>
<g>
<title>1.42 ms ±  91 μs</title>
<rect y="413" rx="5" height="22" width="20.97735631144018" fill="hsl(50, 100%, 80%)" stroke="hsl(50, 100%, 55%)" />
<g stroke="hsl(50, 100%, 40%)"><line x1="19.634702592960227" x2="22.32001002992013" y1="424" y2="424" />
<line x1="19.634702592960227" x2="19.634702592960227" y1="418" y2="430" />
<line x1="22.32001002992013" x2="22.32001002992013" y1="418" y2="430" />
</g>
</g>
<text fill="hsl(57, 100%, 40%)" y="462">countdown.10000.mtl.shallow 1.28 ms</text>
<g>
<title>1.28 ms ±  75 μs</title>
<rect y="468" rx="5" height="22" width="18.878742590728272" fill="hsl(57, 100%, 80%)" stroke="hsl(57, 100%, 55%)" />
<g stroke="hsl(57, 100%, 40%)"><line x1="17.775349384175694" x2="19.98213579728085" y1="479" y2="479" />
<line x1="17.775349384175694" x2="17.775349384175694" y1="473" y2="485" />
<line x1="19.98213579728085" x2="19.98213579728085" y1="473" y2="485" />
</g>
</g>
<text fill="hsl(64, 100%, 40%)" y="517">countdown.10000.mtl.deep 9.85 ms</text>
<g>
<title>9.85 ms ± 408 μs</title>
<rect y="523" rx="5" height="22" width="145.06160761014837" fill="hsl(64, 100%, 80%)" stroke="hsl(64, 100%, 55%)" />
<g stroke="hsl(64, 100%, 40%)"><line x1="139.04623728214074" x2="151.076977938156" y1="534" y2="534" />
<line x1="139.04623728214074" x2="139.04623728214074" y1="528" y2="540" />
<line x1="151.076977938156" x2="151.076977938156" y1="528" y2="540" />
</g>
</g>
<text fill="hsl(72, 100%, 40%)" y="572">countdown.10000.fused.shallow 2.07 ms</text>
<g>
<title>2.07 ms ± 206 μs</title>
<rect y="578" rx="5" height="22" width="30.46209823697568" fill="hsl(72, 100%, 80%)" stroke="hsl(72, 100%, 55%)" />
<g stroke="hsl(72, 100%, 40%)"><line x1="27.43060828186529" x2="33.49358819208607" y1="589" y2="589" />
<line x1="27.43060828186529" x2="27.43060828186529" y1="583" y2="595" />
<line x1="33.49358819208607" x2="33.49358819208607" y1="583" y2="595" />
</g>
</g>
<text fill="hsl(79, 100%, 40%)" y="627">countdown.10000.fused.deep 15.7 ms</text>
<g>
<title>15.7 ms ± 1.4 ms</title>
<rect y="633" rx="5" height="22" width="231.49130200651905" fill="hsl(79, 100%, 80%)" stroke="hsl(79, 100%, 55%)" />
<g stroke="hsl(79, 100%, 40%)"><line x1="211.5482164388221" x2="251.434387574216" y1="644" y2="644" />
<line x1="211.5482164388221" x2="211.5482164388221" y1="638" y2="650" />
<line x1="251.434387574216" x2="251.434387574216" y1="638" y2="650" />
</g>
</g>
<text fill="hsl(86, 100%, 40%)" y="682">countdown.10000.sem.shallow 2.69 ms</text>
<g>
<title>2.69 ms ± 184 μs</title>
<rect y="688" rx="5" height="22" width="39.58413698894396" fill="hsl(86, 100%, 80%)" stroke="hsl(86, 100%, 55%)" />
<g stroke="hsl(86, 100%, 40%)"><line x1="36.867415345713695" x2="42.300858632174226" y1="699" y2="699" />
<line x1="36.867415345713695" x2="36.867415345713695" y1="693" y2="705" />
<line x1="42.300858632174226" x2="42.300858632174226" y1="693" y2="705" />
</g>
</g>
<text fill="hsl(93, 100%, 40%)" y="737">countdown.10000.sem.deep 4.40 ms</text>
<g>
<title>4.40 ms ± 395 μs</title>
<rect y="743" rx="5" height="22" width="64.78679667134278" fill="hsl(93, 100%, 80%)" stroke="hsl(93, 100%, 55%)" />
<g stroke="hsl(93, 100%, 40%)"><line x1="58.96330127654253" x2="70.61029206614303" y1="754" y2="754" />
<line x1="58.96330127654253" x2="58.96330127654253" y1="748" y2="760" />
<line x1="70.61029206614303" x2="70.61029206614303" y1="748" y2="760" />
</g>
</g>
<text fill="hsl(100, 100%, 40%)" y="792">pyth.32.sp_modified_for_non_scoped_resumption_support.shallow 3.84 ms</text>
<g>
<title>3.84 ms ± 182 μs</title>
<rect y="798" rx="5" height="22" width="56.627063533511425" fill="hsl(100, 100%, 80%)" stroke="hsl(100, 100%, 55%)" />
<g stroke="hsl(100, 100%, 40%)"><line x1="53.94566325140319" x2="59.30846381561966" y1="809" y2="809" />
<line x1="53.94566325140319" x2="53.94566325140319" y1="803" y2="815" />
<line x1="59.30846381561966" x2="59.30846381561966" y1="803" y2="815" />
</g>
</g>
<text fill="hsl(108, 100%, 40%)" y="847">pyth.32.sp_modified_for_non_scoped_resumption_support.deep 10.2 ms</text>
<g>
<title>10.2 ms ± 937 μs</title>
<rect y="853" rx="5" height="22" width="149.6104236650762" fill="hsl(108, 100%, 80%)" stroke="hsl(108, 100%, 55%)" />
<g stroke="hsl(108, 100%, 40%)"><line x1="135.81171221978877" x2="163.40913511036365" y1="864" y2="864" />
<line x1="135.81171221978877" x2="135.81171221978877" y1="858" y2="870" />
<line x1="163.40913511036365" x2="163.40913511036365" y1="858" y2="870" />
</g>
</g>
<text fill="hsl(115, 100%, 40%)" y="902">pyth.32.ev.shallow 1.36 ms</text>
<g>
<title>1.36 ms ±  92 μs</title>
<rect y="908" rx="5" height="22" width="20.090037958751882" fill="hsl(115, 100%, 80%)" stroke="hsl(115, 100%, 55%)" />
<g stroke="hsl(115, 100%, 40%)"><line x1="18.733975441853623" x2="21.44610047565014" y1="919" y2="919" />
<line x1="18.733975441853623" x2="18.733975441853623" y1="913" y2="925" />
<line x1="21.44610047565014" x2="21.44610047565014" y1="913" y2="925" />
</g>
</g>
<text fill="hsl(122, 100%, 40%)" y="957">pyth.32.ev.deep 2.67 ms</text>
<g>
<title>2.67 ms ± 211 μs</title>
<rect y="963" rx="5" height="22" width="39.40303526241032" fill="hsl(122, 100%, 80%)" stroke="hsl(122, 100%, 55%)" />
<g stroke="hsl(122, 100%, 40%)"><line x1="36.29766084021242" x2="42.50840968460822" y1="974" y2="974" />
<line x1="36.29766084021242" x2="36.29766084021242" y1="968" y2="980" />
<line x1="42.50840968460822" x2="42.50840968460822" y1="968" y2="980" />
</g>
</g>
<text fill="hsl(129, 100%, 40%)" y="1012">pyth.32.freer.shallow 6.71 ms</text>
<g>
<title>6.71 ms ± 449 μs</title>
<rect y="1018" rx="5" height="22" width="98.80418791938827" fill="hsl(129, 100%, 80%)" stroke="hsl(129, 100%, 55%)" />
<g stroke="hsl(129, 100%, 40%)"><line x1="92.18397937118883" x2="105.42439646758771" y1="1029" y2="1029" />
<line x1="92.18397937118883" x2="92.18397937118883" y1="1023" y2="1035" />
<line x1="105.42439646758771" x2="105.42439646758771" y1="1023" y2="1035" />
</g>
</g>
<text fill="hsl(136, 100%, 40%)" y="1067">pyth.32.freer.deep 10.1 ms</text>
<g>
<title>10.1 ms ± 675 μs</title>
<rect y="1073" rx="5" height="22" width="148.89958090416553" fill="hsl(136, 100%, 80%)" stroke="hsl(136, 100%, 55%)" />
<g stroke="hsl(136, 100%, 40%)"><line x1="138.95019325033934" x2="158.84896855799172" y1="1084" y2="1084" />
<line x1="138.95019325033934" x2="138.95019325033934" y1="1078" y2="1090" />
<line x1="158.84896855799172" x2="158.84896855799172" y1="1078" y2="1090" />
</g>
</g>
<text fill="hsl(144, 100%, 40%)" y="1122">pyth.32.fused.shallow 1.44 ms</text>
<g>
<title>1.44 ms ± 125 μs</title>
<rect y="1128" rx="5" height="22" width="21.180842902702025" fill="hsl(144, 100%, 80%)" stroke="hsl(144, 100%, 55%)" />
<g stroke="hsl(144, 100%, 40%)"><line x1="19.33654358612971" x2="23.02514221927434" y1="1139" y2="1139" />
<line x1="19.33654358612971" x2="19.33654358612971" y1="1133" y2="1145" />
<line x1="23.02514221927434" x2="23.02514221927434" y1="1133" y2="1145" />
</g>
</g>
<text fill="hsl(151, 100%, 40%)" y="1177">pyth.32.fused.deep 12.1 ms</text>
<g>
<title>12.1 ms ± 684 μs</title>
<rect y="1183" rx="5" height="22" width="178.87739276771183" fill="hsl(151, 100%, 80%)" stroke="hsl(151, 100%, 55%)" />
<g stroke="hsl(151, 100%, 40%)"><line x1="168.7952555520475" x2="188.95952998337614" y1="1194" y2="1194" />
<line x1="168.7952555520475" x2="168.7952555520475" y1="1188" y2="1200" />
<line x1="188.95952998337614" x2="188.95952998337614" y1="1188" y2="1200" />
</g>
</g>
<g fill="hsl(158, 100%, 40%)">
<text y="1232">pyth.32.sem.shallow</text>
<text y="1232" x="217.53538050745402" text-anchor="end">14.8 ms</text>
</g>
<g>
<title>14.8 ms ± 355 μs</title>
<rect y="1238" rx="5" height="22" width="217.53538050745402" fill="hsl(158, 100%, 80%)" stroke="hsl(158, 100%, 55%)" />
<g stroke="hsl(158, 100%, 40%)"><line x1="212.30816107777696" x2="222.76259993713109" y1="1249" y2="1249" />
<line x1="212.30816107777696" x2="212.30816107777696" y1="1243" y2="1255" />
<line x1="222.76259993713109" x2="222.76259993713109" y1="1243" y2="1255" />
</g>
</g>
<g fill="hsl(165, 100%, 40%)">
<text y="1287">pyth.32.sem.deep</text>
<text y="1287" x="218.2081269100093" text-anchor="end">14.8 ms</text>
</g>
<g>
<title>14.8 ms ± 1.0 ms</title>
<rect y="1293" rx="5" height="22" width="218.2081269100093" fill="hsl(165, 100%, 80%)" stroke="hsl(165, 100%, 55%)" />
<g stroke="hsl(165, 100%, 40%)"><line x1="203.44945609711755" x2="232.96679772290105" y1="1304" y2="1304" />
<line x1="203.44945609711755" x2="203.44945609711755" y1="1298" y2="1310" />
<line x1="232.96679772290105" x2="232.96679772290105" y1="1298" y2="1310" />
</g>
</g>
<text fill="hsl(172, 100%, 40%)" y="1342">catch.10000.sp_modified_for_non_scoped_resumption_support.shallow 7.74 ms</text>
<g>
<title>7.74 ms ± 414 μs</title>
<rect y="1348" rx="5" height="22" width="113.97637828576585" fill="hsl(172, 100%, 80%)" stroke="hsl(172, 100%, 55%)" />
<g stroke="hsl(172, 100%, 40%)"><line x1="107.88088053512148" x2="120.07187603641022" y1="1359" y2="1359" />
<line x1="107.88088053512148" x2="107.88088053512148" y1="1353" y2="1365" />
<line x1="120.07187603641022" x2="120.07187603641022" y1="1353" y2="1365" />
</g>
</g>
<text fill="hsl(180, 100%, 40%)" y="1397">catch.10000.sp_modified_for_non_scoped_resumption_support.deep0 8.66 ms</text>
<g>
<title>8.66 ms ± 855 μs</title>
<rect y="1403" rx="5" height="22" width="127.61914592169954" fill="hsl(180, 100%, 80%)" stroke="hsl(180, 100%, 55%)" />
<g stroke="hsl(180, 100%, 40%)"><line x1="115.02232451176323" x2="140.21596733163585" y1="1414" y2="1414" />
<line x1="115.02232451176323" x2="115.02232451176323" y1="1408" y2="1420" />
<line x1="140.21596733163585" x2="140.21596733163585" y1="1408" y2="1420" />
</g>
</g>
<text fill="hsl(187, 100%, 40%)" y="1452">catch.10000.sp_modified_for_non_scoped_resumption_support.deep1 19.1 ms</text>
<g>
<title>19.1 ms ± 691 μs</title>
<rect y="1458" rx="5" height="22" width="281.21804209695523" fill="hsl(187, 100%, 80%)" stroke="hsl(187, 100%, 55%)" />
<g stroke="hsl(187, 100%, 40%)"><line x1="271.0429077183658" x2="291.39317647554464" y1="1469" y2="1469" />
<line x1="271.0429077183658" x2="271.0429077183658" y1="1463" y2="1475" />
<line x1="291.39317647554464" x2="291.39317647554464" y1="1463" y2="1475" />
</g>
</g>
<text fill="hsl(194, 100%, 40%)" y="1507">catch.10000.sp_modified_for_non_scoped_resumption_support.deep2 29.5 ms</text>
<g>
<title>29.5 ms ± 2.8 ms</title>
<rect y="1513" rx="5" height="22" width="434.4096925108509" fill="hsl(194, 100%, 80%)" stroke="hsl(194, 100%, 55%)" />
<g stroke="hsl(194, 100%, 40%)"><line x1="393.3815440534032" x2="475.4378409682986" y1="1524" y2="1524" />
<line x1="393.3815440534032" x2="393.3815440534032" y1="1518" y2="1530" />
<line x1="475.4378409682986" x2="475.4378409682986" y1="1518" y2="1530" />
</g>
</g>
<g fill="hsl(201, 100%, 40%)">
<text y="1562">catch.10000.sp_modified_for_non_scoped_resumption_support.deep3</text>
<text y="1562" x="598.5312341781505" text-anchor="end">40.6 ms</text>
</g>
<g>
<title>40.6 ms ± 3.0 ms</title>
<rect y="1568" rx="5" height="22" width="598.5312341781505" fill="hsl(201, 100%, 80%)" stroke="hsl(201, 100%, 55%)" />
<g stroke="hsl(201, 100%, 40%)"><line x1="554.0441533430567" x2="643.0183150132443" y1="1579" y2="1579" />
<line x1="554.0441533430567" x2="554.0441533430567" y1="1573" y2="1585" />
<line x1="643.0183150132443" x2="643.0183150132443" y1="1573" y2="1585" />
</g>
</g>
<g fill="hsl(208, 100%, 40%)">
<text y="1617">catch.10000.sp_modified_for_non_scoped_resumption_support.deep4</text>
<text y="1617" x="721.2431433543431" text-anchor="end">49.0 ms</text>
</g>
<g>
<title>49.0 ms ± 4.3 ms</title>
<rect y="1623" rx="5" height="22" width="721.2431433543431" fill="hsl(208, 100%, 80%)" stroke="hsl(208, 100%, 55%)" />
<g stroke="hsl(208, 100%, 40%)"><line x1="658.3773627170884" x2="784.1089239915979" y1="1634" y2="1634" />
<line x1="658.3773627170884" x2="658.3773627170884" y1="1628" y2="1640" />
<line x1="784.1089239915979" x2="784.1089239915979" y1="1628" y2="1640" />
</g>
</g>
<g fill="hsl(216, 100%, 40%)">
<text y="1672">catch.10000.sp_modified_for_non_scoped_resumption_support.deep5</text>
<text y="1672" x="865.7786878806553" text-anchor="end">58.8 ms</text>
</g>
<g>
<title>58.8 ms ± 5.0 ms</title>
<rect y="1678" rx="5" height="22" width="865.7786878806553" fill="hsl(216, 100%, 80%)" stroke="hsl(216, 100%, 55%)" />
<g stroke="hsl(216, 100%, 40%)"><line x1="791.5573757613106" x2="940.0" y1="1689" y2="1689" />
<line x1="791.5573757613106" x2="791.5573757613106" y1="1683" y2="1695" />
<line x1="940.0" x2="940.0" y1="1683" y2="1695" />
</g>
</g>
<text fill="hsl(223, 100%, 40%)" y="1727">catch.10000.effectful.shallow 1.27 ms</text>
<g>
<title>1.27 ms ± 102 μs</title>
<rect y="1733" rx="5" height="22" width="18.664389767400948" fill="hsl(223, 100%, 80%)" stroke="hsl(223, 100%, 55%)" />
<g stroke="hsl(223, 100%, 40%)"><line x1="17.16886565766053" x2="20.159913877141367" y1="1744" y2="1744" />
<line x1="17.16886565766053" x2="17.16886565766053" y1="1738" y2="1750" />
<line x1="20.159913877141367" x2="20.159913877141367" y1="1738" y2="1750" />
</g>
</g>
<text fill="hsl(230, 100%, 40%)" y="1782">catch.10000.effectful.deep 1.28 ms</text>
<g>
<title>1.28 ms ±  94 μs</title>
<rect y="1788" rx="5" height="22" width="18.884724415133526" fill="hsl(230, 100%, 80%)" stroke="hsl(230, 100%, 55%)" />
<g stroke="hsl(230, 100%, 40%)"><line x1="17.49728520267877" x2="20.27216362758828" y1="1799" y2="1799" />
<line x1="17.49728520267877" x2="17.49728520267877" y1="1793" y2="1805" />
<line x1="20.27216362758828" x2="20.27216362758828" y1="1793" y2="1805" />
</g>
</g>
<text fill="hsl(237, 100%, 40%)" y="1837">catch.10000.fused.shallow 4.83 ms</text>
<g>
<title>4.83 ms ± 312 μs</title>
<rect y="1843" rx="5" height="22" width="71.14352821211386" fill="hsl(237, 100%, 80%)" stroke="hsl(237, 100%, 55%)" />
<g stroke="hsl(237, 100%, 40%)"><line x1="66.55214154857936" x2="75.73491487564837" y1="1854" y2="1854" />
<line x1="66.55214154857936" x2="66.55214154857936" y1="1848" y2="1860" />
<line x1="75.73491487564837" x2="75.73491487564837" y1="1848" y2="1860" />
</g>
</g>
<g fill="hsl(244, 100%, 40%)">
<text y="1892">catch.10000.fused.deep</text>
<text y="1892" x="373.0937341265745" text-anchor="end">25.3 ms</text>
</g>
<g>
<title>25.3 ms ± 2.3 ms</title>
<rect y="1898" rx="5" height="22" width="373.0937341265745" fill="hsl(244, 100%, 80%)" stroke="hsl(244, 100%, 55%)" />
<g stroke="hsl(244, 100%, 40%)"><line x1="339.0840741961462" x2="407.10339405700273" y1="1909" y2="1909" />
<line x1="339.0840741961462" x2="339.0840741961462" y1="1903" y2="1915" />
<line x1="407.10339405700273" x2="407.10339405700273" y1="1903" y2="1915" />
</g>
</g>
<text fill="hsl(252, 100%, 40%)" y="1947">catch.10000.sem.shallow 3.12 ms</text>
<g>
<title>3.12 ms ± 131 μs</title>
<rect y="1953" rx="5" height="22" width="45.92210626291487" fill="hsl(252, 100%, 80%)" stroke="hsl(252, 100%, 55%)" />
<g stroke="hsl(252, 100%, 40%)"><line x1="43.9863375862479" x2="47.85787493958185" y1="1964" y2="1964" />
<line x1="43.9863375862479" x2="43.9863375862479" y1="1958" y2="1970" />
<line x1="47.85787493958185" x2="47.85787493958185" y1="1958" y2="1970" />
</g>
</g>
<text fill="hsl(259, 100%, 40%)" y="2002">catch.10000.sem.deep 12.5 ms</text>
<g>
<title>12.5 ms ± 1.2 ms</title>
<rect y="2008" rx="5" height="22" width="183.601946001429" fill="hsl(259, 100%, 80%)" stroke="hsl(259, 100%, 55%)" />
<g stroke="hsl(259, 100%, 40%)"><line x1="165.4743585055914" x2="201.72953349726663" y1="2019" y2="2019" />
<line x1="165.4743585055914" x2="165.4743585055914" y1="2013" y2="2025" />
<line x1="201.72953349726663" x2="201.72953349726663" y1="2013" y2="2025" />
</g>
</g>
<text fill="hsl(266, 100%, 40%)" y="2057">local.10000.sp_modified_for_non_scoped_resumption_support.shallow 7.66 ms</text>
<g>
<title>7.66 ms ± 258 μs</title>
<rect y="2063" rx="5" height="22" width="112.85157437332272" fill="hsl(266, 100%, 80%)" stroke="hsl(266, 100%, 55%)" />
<g stroke="hsl(266, 100%, 40%)"><line x1="109.05212350692031" x2="116.65102523972513" y1="2074" y2="2074" />
<line x1="109.05212350692031" x2="109.05212350692031" y1="2068" y2="2080" />
<line x1="116.65102523972513" x2="116.65102523972513" y1="2068" y2="2080" />
</g>
</g>
<text fill="hsl(273, 100%, 40%)" y="2112">local.10000.sp_modified_for_non_scoped_resumption_support.deep0 8.69 ms</text>
<g>
<title>8.69 ms ± 682 μs</title>
<rect y="2118" rx="5" height="22" width="127.96195495077902" fill="hsl(273, 100%, 80%)" stroke="hsl(273, 100%, 55%)" />
<g stroke="hsl(273, 100%, 40%)"><line x1="117.90955665927508" x2="138.01435324228297" y1="2129" y2="2129" />
<line x1="117.90955665927508" x2="117.90955665927508" y1="2123" y2="2135" />
<line x1="138.01435324228297" x2="138.01435324228297" y1="2123" y2="2135" />
</g>
</g>
<text fill="hsl(280, 100%, 40%)" y="2167">local.10000.sp_modified_for_non_scoped_resumption_support.deep1 16.9 ms</text>
<g>
<title>16.9 ms ± 830 μs</title>
<rect y="2173" rx="5" height="22" width="248.71092928081325" fill="hsl(280, 100%, 80%)" stroke="hsl(280, 100%, 55%)" />
<g stroke="hsl(280, 100%, 40%)"><line x1="236.48715407129725" x2="260.93470449032924" y1="2184" y2="2184" />
<line x1="236.48715407129725" x2="236.48715407129725" y1="2178" y2="2190" />
<line x1="260.93470449032924" x2="260.93470449032924" y1="2178" y2="2190" />
</g>
</g>
<text fill="hsl(288, 100%, 40%)" y="2222">local.10000.sp_modified_for_non_scoped_resumption_support.deep2 25.7 ms</text>
<g>
<title>25.7 ms ± 951 μs</title>
<rect y="2228" rx="5" height="22" width="378.8298316796525" fill="hsl(288, 100%, 80%)" stroke="hsl(288, 100%, 55%)" />
<g stroke="hsl(288, 100%, 40%)"><line x1="364.81137266024416" x2="392.84829069906084" y1="2239" y2="2239" />
<line x1="364.81137266024416" x2="364.81137266024416" y1="2233" y2="2245" />
<line x1="392.84829069906084" x2="392.84829069906084" y1="2233" y2="2245" />
</g>
</g>
<text fill="hsl(295, 100%, 40%)" y="2277">local.10000.sp_modified_for_non_scoped_resumption_support.deep3 35.7 ms</text>
<g>
<title>35.7 ms ± 1.5 ms</title>
<rect y="2283" rx="5" height="22" width="525.8809344028163" fill="hsl(295, 100%, 80%)" stroke="hsl(295, 100%, 55%)" />
<g stroke="hsl(295, 100%, 40%)"><line x1="503.3974251602706" x2="548.3644436453619" y1="2294" y2="2294" />
<line x1="503.3974251602706" x2="503.3974251602706" y1="2288" y2="2300" />
<line x1="548.3644436453619" x2="548.3644436453619" y1="2288" y2="2300" />
</g>
</g>
<g fill="hsl(302, 100%, 40%)">
<text y="2332">local.10000.sp_modified_for_non_scoped_resumption_support.deep4</text>
<text y="2332" x="704.4222593147119" text-anchor="end">47.8 ms</text>
</g>
<g>
<title>47.8 ms ± 726 μs</title>
<rect y="2338" rx="5" height="22" width="704.4222593147119" fill="hsl(302, 100%, 80%)" stroke="hsl(302, 100%, 55%)" />
<g stroke="hsl(302, 100%, 40%)"><line x1="693.7192909959418" x2="715.125227633482" y1="2349" y2="2349" />
<line x1="693.7192909959418" x2="693.7192909959418" y1="2343" y2="2355" />
<line x1="715.125227633482" x2="715.125227633482" y1="2343" y2="2355" />
</g>
</g>
<g fill="hsl(309, 100%, 40%)">
<text y="2387">local.10000.sp_modified_for_non_scoped_resumption_support.deep5</text>
<text y="2387" x="838.0719582100203" text-anchor="end">56.9 ms</text>
</g>
<g>
<title>56.9 ms ± 2.8 ms</title>
<rect y="2393" rx="5" height="22" width="838.0719582100203" fill="hsl(309, 100%, 80%)" stroke="hsl(309, 100%, 55%)" />
<g stroke="hsl(309, 100%, 40%)"><line x1="796.1740258758989" x2="879.9698905441417" y1="2404" y2="2404" />
<line x1="796.1740258758989" x2="796.1740258758989" y1="2398" y2="2410" />
<line x1="879.9698905441417" x2="879.9698905441417" y1="2398" y2="2410" />
</g>
</g>
<text fill="hsl(316, 100%, 40%)" y="2442">local.10000.effectful.shallow 686  μs</text>
<g>
<title>686  μs ±  62 μs</title>
<rect y="2448" rx="5" height="22" width="10.114029263640388" fill="hsl(316, 100%, 80%)" stroke="hsl(316, 100%, 55%)" />
<g stroke="hsl(316, 100%, 40%)"><line x1="9.199576462028931" x2="11.028482065251845" y1="2459" y2="2459" />
<line x1="9.199576462028931" x2="9.199576462028931" y1="2453" y2="2465" />
<line x1="11.028482065251845" x2="11.028482065251845" y1="2453" y2="2465" />
</g>
</g>
<text fill="hsl(324, 100%, 40%)" y="2497">local.10000.effectful.deep 690  μs</text>
<g>
<title>690  μs ±  46 μs</title>
<rect y="2503" rx="5" height="22" width="10.166778889176063" fill="hsl(324, 100%, 80%)" stroke="hsl(324, 100%, 55%)" />
<g stroke="hsl(324, 100%, 40%)"><line x1="9.488172535202601" x2="10.845385243149526" y1="2514" y2="2514" />
<line x1="9.488172535202601" x2="9.488172535202601" y1="2508" y2="2520" />
<line x1="10.845385243149526" x2="10.845385243149526" y1="2508" y2="2520" />
</g>
</g>
<text fill="hsl(331, 100%, 40%)" y="2552">local.10000.fused.shallow 1.72 ms</text>
<g>
<title>1.72 ms ± 114 μs</title>
<rect y="2558" rx="5" height="22" width="25.297708030165033" fill="hsl(331, 100%, 80%)" stroke="hsl(331, 100%, 55%)" />
<g stroke="hsl(331, 100%, 40%)"><line x1="23.618230083116195" x2="26.97718597721387" y1="2569" y2="2569" />
<line x1="23.618230083116195" x2="23.618230083116195" y1="2563" y2="2575" />
<line x1="26.97718597721387" x2="26.97718597721387" y1="2563" y2="2575" />
</g>
</g>
<text fill="hsl(338, 100%, 40%)" y="2607">local.10000.fused.deep 7.16 ms</text>
<g>
<title>7.16 ms ± 682 μs</title>
<rect y="2613" rx="5" height="22" width="105.42729193815468" fill="hsl(338, 100%, 80%)" stroke="hsl(338, 100%, 55%)" />
<g stroke="hsl(338, 100%, 40%)"><line x1="95.38660868753284" x2="115.46797518877652" y1="2624" y2="2624" />
<line x1="95.38660868753284" x2="95.38660868753284" y1="2618" y2="2630" />
<line x1="115.46797518877652" x2="115.46797518877652" y1="2618" y2="2630" />
</g>
</g>
<text fill="hsl(345, 100%, 40%)" y="2662">local.10000.sem.shallow 4.30 ms</text>
<g>
<title>4.30 ms ± 289 μs</title>
<rect y="2668" rx="5" height="22" width="63.34655339419771" fill="hsl(345, 100%, 80%)" stroke="hsl(345, 100%, 55%)" />
<g stroke="hsl(345, 100%, 40%)"><line x1="59.0831284711206" x2="67.60997831727482" y1="2679" y2="2679" />
<line x1="59.0831284711206" x2="59.0831284711206" y1="2673" y2="2685" />
<line x1="67.60997831727482" x2="67.60997831727482" y1="2673" y2="2685" />
</g>
</g>
<text fill="hsl(352, 100%, 40%)" y="2717">local.10000.sem.deep 8.52 ms</text>
<g>
<title>8.52 ms ± 535 μs</title>
<rect y="2723" rx="5" height="22" width="125.53341670393715" fill="hsl(352, 100%, 80%)" stroke="hsl(352, 100%, 55%)" />
<g stroke="hsl(352, 100%, 40%)"><line x1="117.64778065811475" x2="133.41905274975954" y1="2734" y2="2734" />
<line x1="117.64778065811475" x2="117.64778065811475" y1="2728" y2="2740" />
<line x1="133.41905274975954" x2="133.41905274975954" y1="2728" y2="2740" />
</g>
</g>
</g>
</svg>
