<svg xmlns="http://www.w3.org/2000/svg" height="447" width="960.0" font-size="16" font-family="sans-serif" stroke-width="2">
<g transform="translate(10.0 0)">
<text fill="hsl(0, 100%, 40%)" y="22">coroutine.10000.sp_modified_for_non_scoped_resumption_support.shallow 2.88 ms</text>
<g>
<title>2.88 ms ± 267 μs</title>
<rect y="28" rx="5" height="22" width="3.287626982227001" fill="hsl(0, 100%, 80%)" stroke="hsl(0, 100%, 55%)" />
<g stroke="hsl(0, 100%, 40%)"><line x1="2.982299662221063" x2="3.592954302232939" y1="39" y2="39" />
<line x1="2.982299662221063" x2="2.982299662221063" y1="33" y2="45" />
<line x1="3.592954302232939" x2="3.592954302232939" y1="33" y2="45" />
</g>
</g>
<text fill="hsl(45, 100%, 40%)" y="77">coroutine.10000.sp_modified_for_non_scoped_resumption_support.deep 6.46 ms</text>
<g>
<title>6.46 ms ± 584 μs</title>
<rect y="83" rx="5" height="22" width="7.381329784205924" fill="hsl(45, 100%, 80%)" stroke="hsl(45, 100%, 55%)" />
<g stroke="hsl(45, 100%, 40%)"><line x1="6.7147030523210525" x2="8.047956516090796" y1="94" y2="94" />
<line x1="6.7147030523210525" x2="6.7147030523210525" y1="88" y2="100" />
<line x1="8.047956516090796" x2="8.047956516090796" y1="88" y2="100" />
</g>
</g>
<g fill="hsl(90, 100%, 40%)">
<text y="132">coroutine.10000.mp.shallow</text>
<text y="132" x="880.4003788327035" text-anchor="end">771  ms</text>
</g>
<g>
<title>771  ms ±  52 ms</title>
<rect y="138" rx="5" height="22" width="880.4003788327035" fill="hsl(90, 100%, 80%)" stroke="hsl(90, 100%, 55%)" />
<g stroke="hsl(90, 100%, 40%)"><line x1="820.800757665407" x2="940.0" y1="149" y2="149" />
<line x1="820.800757665407" x2="820.800757665407" y1="143" y2="155" />
<line x1="940.0" x2="940.0" y1="143" y2="155" />
</g>
</g>
<g fill="hsl(135, 100%, 40%)">
<text y="187">coroutine.10000.mp.deep</text>
<text y="187" x="877.5810311970428" text-anchor="end">768  ms</text>
</g>
<g>
<title>768  ms ± 3.1 ms</title>
<rect y="193" rx="5" height="22" width="877.5810311970428" fill="hsl(135, 100%, 80%)" stroke="hsl(135, 100%, 55%)" />
<g stroke="hsl(135, 100%, 40%)"><line x1="874.0516031573675" x2="881.110459236718" y1="204" y2="204" />
<line x1="874.0516031573675" x2="874.0516031573675" y1="198" y2="210" />
<line x1="881.110459236718" x2="881.110459236718" y1="198" y2="210" />
</g>
</g>
<text fill="hsl(180, 100%, 40%)" y="242">coroutine.10000.freer.shallow 1.91 ms</text>
<g>
<title>1.91 ms ± 105 μs</title>
<rect y="248" rx="5" height="22" width="2.1863547857142667" fill="hsl(180, 100%, 80%)" stroke="hsl(180, 100%, 55%)" />
<g stroke="hsl(180, 100%, 40%)"><line x1="2.066973294988124" x2="2.3057362764404092" y1="259" y2="259" />
<line x1="2.066973294988124" x2="2.066973294988124" y1="253" y2="265" />
<line x1="2.3057362764404092" x2="2.3057362764404092" y1="253" y2="265" />
</g>
</g>
<text fill="hsl(225, 100%, 40%)" y="297">coroutine.10000.freer.deep 2.47 ms</text>
<g>
<title>2.47 ms ± 180 μs</title>
<rect y="303" rx="5" height="22" width="2.823574675903107" fill="hsl(225, 100%, 80%)" stroke="hsl(225, 100%, 55%)" />
<g stroke="hsl(225, 100%, 40%)"><line x1="2.6175214528014656" x2="3.0296278990047485" y1="314" y2="314" />
<line x1="2.6175214528014656" x2="2.6175214528014656" y1="308" y2="320" />
<line x1="3.0296278990047485" x2="3.0296278990047485" y1="308" y2="320" />
</g>
</g>
<g fill="hsl(270, 100%, 40%)">
<text y="352">coroutine.10000.eff.shallow</text>
<text y="352" x="430.864416292185" text-anchor="end">377  ms</text>
</g>
<g>
<title>377  ms ±  26 ms</title>
<rect y="358" rx="5" height="22" width="430.864416292185" fill="hsl(270, 100%, 80%)" stroke="hsl(270, 100%, 55%)" />
<g stroke="hsl(270, 100%, 40%)"><line x1="401.5303317208403" x2="460.1985008635297" y1="369" y2="369" />
<line x1="401.5303317208403" x2="401.5303317208403" y1="363" y2="375" />
<line x1="460.1985008635297" x2="460.1985008635297" y1="363" y2="375" />
</g>
</g>
<g fill="hsl(315, 100%, 40%)">
<text y="407">coroutine.10000.eff.deep</text>
<text y="407" x="434.6705297413236" text-anchor="end">381  ms</text>
</g>
<g>
<title>381  ms ±  11 ms</title>
<rect y="413" rx="5" height="22" width="434.6705297413236" fill="hsl(315, 100%, 80%)" stroke="hsl(315, 100%, 55%)" />
<g stroke="hsl(315, 100%, 40%)"><line x1="422.1103371014608" x2="447.2307223811864" y1="424" y2="424" />
<line x1="422.1103371014608" x2="422.1103371014608" y1="418" y2="430" />
<line x1="447.2307223811864" x2="447.2307223811864" y1="418" y2="430" />
</g>
</g>
</g>
</svg>
