<svg xmlns="http://www.w3.org/2000/svg" height="447" width="960.0" font-size="16" font-family="sans-serif" stroke-width="2">
<g transform="translate(10.0 0)">
<g fill="hsl(0, 100%, 40%)">
<text y="22">coroutine.10000.sp_modified_for_non_scoped_resumption_support.shallow</text>
<text y="22" x="876.0800013933375" text-anchor="end">794  ms</text>
</g>
<g>
<title>794  ms ± 6.9 ms</title>
<rect y="28" rx="5" height="22" width="876.0800013933375" fill="hsl(0, 100%, 80%)" stroke="hsl(0, 100%, 55%)" />
<g stroke="hsl(0, 100%, 40%)"><line x1="868.4899119641125" x2="883.6700908225625" y1="39" y2="39" />
<line x1="868.4899119641125" x2="868.4899119641125" y1="33" y2="45" />
<line x1="883.6700908225625" x2="883.6700908225625" y1="33" y2="45" />
</g>
</g>
<g fill="hsl(45, 100%, 40%)">
<text y="77">coroutine.10000.sp_modified_for_non_scoped_resumption_support.deep</text>
<text y="77" x="906.7203230533577" text-anchor="end">822  ms</text>
</g>
<g>
<title>822  ms ±  30 ms</title>
<rect y="83" rx="5" height="22" width="906.7203230533577" fill="hsl(45, 100%, 80%)" stroke="hsl(45, 100%, 55%)" />
<g stroke="hsl(45, 100%, 40%)"><line x1="873.4406461067153" x2="940.0" y1="94" y2="94" />
<line x1="873.4406461067153" x2="873.4406461067153" y1="88" y2="100" />
<line x1="940.0" x2="940.0" y1="88" y2="100" />
</g>
</g>
<g fill="hsl(90, 100%, 40%)">
<text y="132">coroutine.10000.mp.shallow</text>
<text y="132" x="887.7306478948465" text-anchor="end">804  ms</text>
</g>
<g>
<title>804  ms ± 3.1 ms</title>
<rect y="138" rx="5" height="22" width="887.7306478948465" fill="hsl(90, 100%, 80%)" stroke="hsl(90, 100%, 55%)" />
<g stroke="hsl(90, 100%, 40%)"><line x1="884.289533331763" x2="891.17176245793" y1="149" y2="149" />
<line x1="884.289533331763" x2="884.289533331763" y1="143" y2="155" />
<line x1="891.17176245793" x2="891.17176245793" y1="143" y2="155" />
</g>
</g>
<g fill="hsl(135, 100%, 40%)">
<text y="187">coroutine.10000.mp.deep</text>
<text y="187" x="891.7236777242524" text-anchor="end">808  ms</text>
</g>
<g>
<title>808  ms ± 5.6 ms</title>
<rect y="193" rx="5" height="22" width="891.7236777242524" fill="hsl(135, 100%, 80%)" stroke="hsl(135, 100%, 55%)" />
<g stroke="hsl(135, 100%, 40%)"><line x1="885.5512318876307" x2="897.8961235608741" y1="204" y2="204" />
<line x1="885.5512318876307" x2="885.5512318876307" y1="198" y2="210" />
<line x1="897.8961235608741" x2="897.8961235608741" y1="198" y2="210" />
</g>
</g>
<text fill="hsl(180, 100%, 40%)" y="242">coroutine.10000.freer.shallow 1.92 ms</text>
<g>
<title>1.92 ms ± 177 μs</title>
<rect y="248" rx="5" height="22" width="2.1138621690946042" fill="hsl(180, 100%, 80%)" stroke="hsl(180, 100%, 55%)" />
<g stroke="hsl(180, 100%, 40%)"><line x1="1.9179908404201518" x2="2.3097334977690567" y1="259" y2="259" />
<line x1="1.9179908404201518" x2="1.9179908404201518" y1="253" y2="265" />
<line x1="2.3097334977690567" x2="2.3097334977690567" y1="253" y2="265" />
</g>
</g>
<text fill="hsl(225, 100%, 40%)" y="297">coroutine.10000.freer.deep 2.39 ms</text>
<g>
<title>2.39 ms ± 120 μs</title>
<rect y="303" rx="5" height="22" width="2.63388564052336" fill="hsl(225, 100%, 80%)" stroke="hsl(225, 100%, 55%)" />
<g stroke="hsl(225, 100%, 40%)"><line x1="2.5011301536944788" x2="2.766641127352241" y1="314" y2="314" />
<line x1="2.5011301536944788" x2="2.5011301536944788" y1="308" y2="320" />
<line x1="2.766641127352241" x2="2.766641127352241" y1="308" y2="320" />
</g>
</g>
<g fill="hsl(270, 100%, 40%)">
<text y="352">coroutine.10000.eff.shallow</text>
<text y="352" x="418.2223736053156" text-anchor="end">379  ms</text>
</g>
<g>
<title>379  ms ± 5.0 ms</title>
<rect y="358" rx="5" height="22" width="418.2223736053156" fill="hsl(270, 100%, 80%)" stroke="hsl(270, 100%, 55%)" />
<g stroke="hsl(270, 100%, 40%)"><line x1="412.67650625210814" x2="423.7682409585231" y1="369" y2="369" />
<line x1="412.67650625210814" x2="412.67650625210814" y1="363" y2="375" />
<line x1="423.7682409585231" x2="423.7682409585231" y1="363" y2="375" />
</g>
</g>
<g fill="hsl(315, 100%, 40%)">
<text y="407">coroutine.10000.eff.deep</text>
<text y="407" x="422.8771954825686" text-anchor="end">383  ms</text>
</g>
<g>
<title>383  ms ± 8.3 ms</title>
<rect y="413" rx="5" height="22" width="422.8771954825686" fill="hsl(315, 100%, 80%)" stroke="hsl(315, 100%, 55%)" />
<g stroke="hsl(315, 100%, 40%)"><line x1="413.7640238378446" x2="431.9903671272926" y1="424" y2="424" />
<line x1="413.7640238378446" x2="413.7640238378446" y1="418" y2="430" />
<line x1="431.9903671272926" x2="431.9903671272926" y1="418" y2="430" />
</g>
</g>
</g>
</svg>
