<svg xmlns="http://www.w3.org/2000/svg" height="2207" width="960.0" font-size="16" font-family="sans-serif" stroke-width="2">
<g transform="translate(10.0 0)">
<text fill="hsl(0, 100%, 40%)" y="22">countdown.10000.sp_modified_for_non_scoped_resumption_support.shallow 142  μs</text>
<g>
<title>142  μs ± 6.4 μs</title>
<rect y="28" rx="5" height="22" width="4.360690504864427" fill="hsl(0, 100%, 80%)" stroke="hsl(0, 100%, 55%)" />
<g stroke="hsl(0, 100%, 40%)"><line x1="4.164451771765019" x2="4.556929237963835" y1="39" y2="39" />
<line x1="4.164451771765019" x2="4.164451771765019" y1="33" y2="45" />
<line x1="4.556929237963835" x2="4.556929237963835" y1="33" y2="45" />
</g>
</g>
<text fill="hsl(9, 100%, 40%)" y="77">countdown.10000.sp_modified_for_non_scoped_resumption_support.deep 147  μs</text>
<g>
<title>147  μs ±  11 μs</title>
<rect y="83" rx="5" height="22" width="4.508865784307657" fill="hsl(9, 100%, 80%)" stroke="hsl(9, 100%, 55%)" />
<g stroke="hsl(9, 100%, 40%)"><line x1="4.171390444915609" x2="4.846341123699705" y1="94" y2="94" />
<line x1="4.171390444915609" x2="4.171390444915609" y1="88" y2="100" />
<line x1="4.846341123699705" x2="4.846341123699705" y1="88" y2="100" />
</g>
</g>
<text fill="hsl(18, 100%, 40%)" y="132">countdown.10000.effectful.shallow 232  μs</text>
<g>
<title>232  μs ±  21 μs</title>
<rect y="138" rx="5" height="22" width="7.115518646480159" fill="hsl(18, 100%, 80%)" stroke="hsl(18, 100%, 55%)" />
<g stroke="hsl(18, 100%, 40%)"><line x1="6.485820039938773" x2="7.745217253021545" y1="149" y2="149" />
<line x1="6.485820039938773" x2="6.485820039938773" y1="143" y2="155" />
<line x1="7.745217253021545" x2="7.745217253021545" y1="143" y2="155" />
</g>
</g>
<text fill="hsl(27, 100%, 40%)" y="187">countdown.10000.effectful.deep 222  μs</text>
<g>
<title>222  μs ±  21 μs</title>
<rect y="193" rx="5" height="22" width="6.801444670471895" fill="hsl(27, 100%, 80%)" stroke="hsl(27, 100%, 55%)" />
<g stroke="hsl(27, 100%, 40%)"><line x1="6.152092606167889" x2="7.450796734775901" y1="204" y2="204" />
<line x1="6.152092606167889" x2="6.152092606167889" y1="198" y2="210" />
<line x1="7.450796734775901" x2="7.450796734775901" y1="198" y2="210" />
</g>
</g>
<text fill="hsl(36, 100%, 40%)" y="242">countdown.10000.ev.shallow 315  μs</text>
<g>
<title>315  μs ±  14 μs</title>
<rect y="248" rx="5" height="22" width="9.650269608149651" fill="hsl(36, 100%, 80%)" stroke="hsl(36, 100%, 55%)" />
<g stroke="hsl(36, 100%, 40%)"><line x1="9.23381579783131" x2="10.066723418467992" y1="259" y2="259" />
<line x1="9.23381579783131" x2="9.23381579783131" y1="253" y2="265" />
<line x1="10.066723418467992" x2="10.066723418467992" y1="253" y2="265" />
</g>
</g>
<text fill="hsl(45, 100%, 40%)" y="297">countdown.10000.ev.deep 323  μs</text>
<g>
<title>323  μs ±  28 μs</title>
<rect y="303" rx="5" height="22" width="9.902171841524881" fill="hsl(45, 100%, 80%)" stroke="hsl(45, 100%, 55%)" />
<g stroke="hsl(45, 100%, 40%)"><line x1="9.056902150398521" x2="10.74744153265124" y1="314" y2="314" />
<line x1="9.056902150398521" x2="9.056902150398521" y1="308" y2="320" />
<line x1="10.74744153265124" x2="10.74744153265124" y1="308" y2="320" />
</g>
</g>
<text fill="hsl(54, 100%, 40%)" y="352">countdown.10000.freer.shallow 461  μs</text>
<g>
<title>461  μs ±  25 μs</title>
<rect y="358" rx="5" height="22" width="14.137101413279094" fill="hsl(54, 100%, 80%)" stroke="hsl(54, 100%, 55%)" />
<g stroke="hsl(54, 100%, 40%)"><line x1="13.373756314046402" x2="14.900446512511786" y1="369" y2="369" />
<line x1="13.373756314046402" x2="13.373756314046402" y1="363" y2="375" />
<line x1="14.900446512511786" x2="14.900446512511786" y1="363" y2="375" />
</g>
</g>
<text fill="hsl(63, 100%, 40%)" y="407">countdown.10000.freer.deep 1.30 ms</text>
<g>
<title>1.30 ms ±  55 μs</title>
<rect y="413" rx="5" height="22" width="39.8225399465447" fill="hsl(63, 100%, 80%)" stroke="hsl(63, 100%, 55%)" />
<g stroke="hsl(63, 100%, 40%)"><line x1="38.14241275876169" x2="41.502667134327716" y1="424" y2="424" />
<line x1="38.14241275876169" x2="38.14241275876169" y1="418" y2="430" />
<line x1="41.502667134327716" x2="41.502667134327716" y1="418" y2="430" />
</g>
</g>
<text fill="hsl(72, 100%, 40%)" y="462">countdown.10000.mtl.shallow 1.32 ms</text>
<g>
<title>1.32 ms ± 100 μs</title>
<rect y="468" rx="5" height="22" width="40.59559625733466" fill="hsl(72, 100%, 80%)" stroke="hsl(72, 100%, 55%)" />
<g stroke="hsl(72, 100%, 40%)"><line x1="37.51891048553963" x2="43.6722820291297" y1="479" y2="479" />
<line x1="37.51891048553963" x2="37.51891048553963" y1="473" y2="485" />
<line x1="43.6722820291297" x2="43.6722820291297" y1="473" y2="485" />
</g>
</g>
<g fill="hsl(81, 100%, 40%)">
<text y="517">countdown.10000.mtl.deep</text>
<text y="517" x="310.12076654849375" text-anchor="end">10.1 ms</text>
</g>
<g>
<title>10.1 ms ± 895 μs</title>
<rect y="523" rx="5" height="22" width="310.12076654849375" fill="hsl(81, 100%, 80%)" stroke="hsl(81, 100%, 55%)" />
<g stroke="hsl(81, 100%, 40%)"><line x1="282.6865501509904" x2="337.5549829459971" y1="534" y2="534" />
<line x1="282.6865501509904" x2="282.6865501509904" y1="528" y2="540" />
<line x1="337.5549829459971" x2="337.5549829459971" y1="528" y2="540" />
</g>
</g>
<text fill="hsl(90, 100%, 40%)" y="572">countdown.10000.fused.shallow 2.21 ms</text>
<g>
<title>2.21 ms ± 104 μs</title>
<rect y="578" rx="5" height="22" width="67.71891313658838" fill="hsl(90, 100%, 80%)" stroke="hsl(90, 100%, 55%)" />
<g stroke="hsl(90, 100%, 40%)"><line x1="64.54410864205039" x2="70.89371763112638" y1="589" y2="589" />
<line x1="64.54410864205039" x2="64.54410864205039" y1="583" y2="595" />
<line x1="70.89371763112638" x2="70.89371763112638" y1="583" y2="595" />
</g>
</g>
<g fill="hsl(99, 100%, 40%)">
<text y="627">countdown.10000.fused.deep</text>
<text y="627" x="511.32622033875543" text-anchor="end">16.7 ms</text>
</g>
<g>
<title>16.7 ms ± 1.6 ms</title>
<rect y="633" rx="5" height="22" width="511.32622033875543" fill="hsl(99, 100%, 80%)" stroke="hsl(99, 100%, 55%)" />
<g stroke="hsl(99, 100%, 40%)"><line x1="462.72751440249203" x2="559.9249262750188" y1="644" y2="644" />
<line x1="462.72751440249203" x2="462.72751440249203" y1="638" y2="650" />
<line x1="559.9249262750188" x2="559.9249262750188" y1="638" y2="650" />
</g>
</g>
<text fill="hsl(108, 100%, 40%)" y="682">countdown.10000.sem.shallow 2.82 ms</text>
<g>
<title>2.82 ms ± 169 μs</title>
<rect y="688" rx="5" height="22" width="86.50551292711371" fill="hsl(108, 100%, 80%)" stroke="hsl(108, 100%, 55%)" />
<g stroke="hsl(108, 100%, 40%)"><line x1="81.31686408127224" x2="91.69416177295518" y1="699" y2="699" />
<line x1="81.31686408127224" x2="81.31686408127224" y1="693" y2="705" />
<line x1="91.69416177295518" x2="91.69416177295518" y1="693" y2="705" />
</g>
</g>
<text fill="hsl(117, 100%, 40%)" y="737">countdown.10000.sem.deep 4.58 ms</text>
<g>
<title>4.58 ms ± 442 μs</title>
<rect y="743" rx="5" height="22" width="140.46699664723153" fill="hsl(117, 100%, 80%)" stroke="hsl(117, 100%, 55%)" />
<g stroke="hsl(117, 100%, 40%)"><line x1="126.92465193468091" x2="154.00934135978216" y1="754" y2="754" />
<line x1="126.92465193468091" x2="126.92465193468091" y1="748" y2="760" />
<line x1="154.00934135978216" x2="154.00934135978216" y1="748" y2="760" />
</g>
</g>
<text fill="hsl(126, 100%, 40%)" y="792">pyth.32.sp_modified_for_non_scoped_resumption_support.shallow 4.02 ms</text>
<g>
<title>4.02 ms ± 171 μs</title>
<rect y="798" rx="5" height="22" width="123.16439497313823" fill="hsl(126, 100%, 80%)" stroke="hsl(126, 100%, 55%)" />
<g stroke="hsl(126, 100%, 40%)"><line x1="117.92376474172454" x2="128.40502520455192" y1="809" y2="809" />
<line x1="117.92376474172454" x2="117.92376474172454" y1="803" y2="815" />
<line x1="128.40502520455192" x2="128.40502520455192" y1="803" y2="815" />
</g>
</g>
<g fill="hsl(135, 100%, 40%)">
<text y="847">pyth.32.sp_modified_for_non_scoped_resumption_support.deep</text>
<text y="847" x="699.254018479494" text-anchor="end">22.8 ms</text>
</g>
<g>
<title>22.8 ms ± 1.7 ms</title>
<rect y="853" rx="5" height="22" width="699.254018479494" fill="hsl(135, 100%, 80%)" stroke="hsl(135, 100%, 55%)" />
<g stroke="hsl(135, 100%, 40%)"><line x1="646.6961229159193" x2="751.8119140430687" y1="864" y2="864" />
<line x1="646.6961229159193" x2="646.6961229159193" y1="858" y2="870" />
<line x1="751.8119140430687" x2="751.8119140430687" y1="858" y2="870" />
</g>
</g>
<text fill="hsl(144, 100%, 40%)" y="902">pyth.32.ev.shallow 1.41 ms</text>
<g>
<title>1.41 ms ±  74 μs</title>
<rect y="908" rx="5" height="22" width="43.20933427402035" fill="hsl(144, 100%, 80%)" stroke="hsl(144, 100%, 55%)" />
<g stroke="hsl(144, 100%, 40%)"><line x1="40.95337867162002" x2="45.46528987642068" y1="919" y2="919" />
<line x1="40.95337867162002" x2="40.95337867162002" y1="913" y2="925" />
<line x1="45.46528987642068" x2="45.46528987642068" y1="913" y2="925" />
</g>
</g>
<text fill="hsl(153, 100%, 40%)" y="957">pyth.32.ev.deep 5.42 ms</text>
<g>
<title>5.42 ms ± 448 μs</title>
<rect y="963" rx="5" height="22" width="166.05900061166585" fill="hsl(153, 100%, 80%)" stroke="hsl(153, 100%, 55%)" />
<g stroke="hsl(153, 100%, 40%)"><line x1="152.32196775922574" x2="179.79603346410596" y1="974" y2="974" />
<line x1="152.32196775922574" x2="152.32196775922574" y1="968" y2="980" />
<line x1="179.79603346410596" x2="179.79603346410596" y1="968" y2="980" />
</g>
</g>
<text fill="hsl(162, 100%, 40%)" y="1012">pyth.32.freer.shallow 7.42 ms</text>
<g>
<title>7.42 ms ± 716 μs</title>
<rect y="1018" rx="5" height="22" width="227.37819519572287" fill="hsl(162, 100%, 80%)" stroke="hsl(162, 100%, 55%)" />
<g stroke="hsl(162, 100%, 40%)"><line x1="205.43328723213065" x2="249.32310315931508" y1="1029" y2="1029" />
<line x1="205.43328723213065" x2="205.43328723213065" y1="1023" y2="1035" />
<line x1="249.32310315931508" x2="249.32310315931508" y1="1023" y2="1035" />
</g>
</g>
<g fill="hsl(171, 100%, 40%)">
<text y="1067">pyth.32.freer.deep</text>
<text y="1067" x="537.0657886406921" text-anchor="end">17.5 ms</text>
</g>
<g>
<title>17.5 ms ± 783 μs</title>
<rect y="1073" rx="5" height="22" width="537.0657886406921" fill="hsl(171, 100%, 80%)" stroke="hsl(171, 100%, 55%)" />
<g stroke="hsl(171, 100%, 40%)"><line x1="513.0655973676006" x2="561.0659799137835" y1="1084" y2="1084" />
<line x1="513.0655973676006" x2="513.0655973676006" y1="1078" y2="1090" />
<line x1="561.0659799137835" x2="561.0659799137835" y1="1078" y2="1090" />
</g>
</g>
<text fill="hsl(180, 100%, 40%)" y="1122">pyth.32.fused.shallow 1.57 ms</text>
<g>
<title>1.57 ms ±  96 μs</title>
<rect y="1128" rx="5" height="22" width="48.04337608305901" fill="hsl(180, 100%, 80%)" stroke="hsl(180, 100%, 55%)" />
<g stroke="hsl(180, 100%, 40%)"><line x1="45.114032044920805" x2="50.97272012119721" y1="1139" y2="1139" />
<line x1="45.114032044920805" x2="45.114032044920805" y1="1133" y2="1145" />
<line x1="50.97272012119721" x2="50.97272012119721" y1="1133" y2="1145" />
</g>
</g>
<g fill="hsl(189, 100%, 40%)">
<text y="1177">pyth.32.fused.deep</text>
<text y="1177" x="876.0297717053373" text-anchor="end">28.6 ms</text>
</g>
<g>
<title>28.6 ms ± 2.1 ms</title>
<rect y="1183" rx="5" height="22" width="876.0297717053373" fill="hsl(189, 100%, 80%)" stroke="hsl(189, 100%, 55%)" />
<g stroke="hsl(189, 100%, 40%)"><line x1="812.0595434106747" x2="940.0" y1="1194" y2="1194" />
<line x1="812.0595434106747" x2="812.0595434106747" y1="1188" y2="1200" />
<line x1="940.0" x2="940.0" y1="1188" y2="1200" />
</g>
</g>
<g fill="hsl(198, 100%, 40%)">
<text y="1232">pyth.32.sem.shallow</text>
<text y="1232" x="502.5591812599892" text-anchor="end">16.4 ms</text>
</g>
<g>
<title>16.4 ms ± 685 μs</title>
<rect y="1238" rx="5" height="22" width="502.5591812599892" fill="hsl(198, 100%, 80%)" stroke="hsl(198, 100%, 55%)" />
<g stroke="hsl(198, 100%, 40%)"><line x1="481.5631450429474" x2="523.5552174770311" y1="1249" y2="1249" />
<line x1="481.5631450429474" x2="481.5631450429474" y1="1243" y2="1255" />
<line x1="523.5552174770311" x2="523.5552174770311" y1="1243" y2="1255" />
</g>
</g>
<g fill="hsl(207, 100%, 40%)">
<text y="1287">pyth.32.sem.deep</text>
<text y="1287" x="498.6321877640502" text-anchor="end">16.3 ms</text>
</g>
<g>
<title>16.3 ms ± 1.1 ms</title>
<rect y="1293" rx="5" height="22" width="498.6321877640502" fill="hsl(207, 100%, 80%)" stroke="hsl(207, 100%, 55%)" />
<g stroke="hsl(207, 100%, 40%)"><line x1="464.6050757805224" x2="532.659299747578" y1="1304" y2="1304" />
<line x1="464.6050757805224" x2="464.6050757805224" y1="1298" y2="1310" />
<line x1="532.659299747578" x2="532.659299747578" y1="1298" y2="1310" />
</g>
</g>
<text fill="hsl(216, 100%, 40%)" y="1342">catch.10000.sp_modified_for_non_scoped_resumption_support.shallow 198  μs</text>
<g>
<title>198  μs ± 7.7 μs</title>
<rect y="1348" rx="5" height="22" width="6.073665846962225" fill="hsl(216, 100%, 80%)" stroke="hsl(216, 100%, 55%)" />
<g stroke="hsl(216, 100%, 40%)"><line x1="5.83630202678259" x2="6.3110296671418595" y1="1359" y2="1359" />
<line x1="5.83630202678259" x2="5.83630202678259" y1="1353" y2="1365" />
<line x1="6.3110296671418595" x2="6.3110296671418595" y1="1353" y2="1365" />
</g>
</g>
<text fill="hsl(225, 100%, 40%)" y="1397">catch.10000.sp_modified_for_non_scoped_resumption_support.deep 202  μs</text>
<g>
<title>202  μs ±  11 μs</title>
<rect y="1403" rx="5" height="22" width="6.1867472515439115" fill="hsl(225, 100%, 80%)" stroke="hsl(225, 100%, 55%)" />
<g stroke="hsl(225, 100%, 40%)"><line x1="5.8554192855013225" x2="6.5180752175865" y1="1414" y2="1414" />
<line x1="5.8554192855013225" x2="5.8554192855013225" y1="1408" y2="1420" />
<line x1="6.5180752175865" x2="6.5180752175865" y1="1408" y2="1420" />
</g>
</g>
<text fill="hsl(234, 100%, 40%)" y="1452">catch.10000.effectful.shallow 1.34 ms</text>
<g>
<title>1.34 ms ± 115 μs</title>
<rect y="1458" rx="5" height="22" width="40.94705648941131" fill="hsl(234, 100%, 80%)" stroke="hsl(234, 100%, 55%)" />
<g stroke="hsl(234, 100%, 40%)"><line x1="37.41351159615552" x2="44.480601382667096" y1="1469" y2="1469" />
<line x1="37.41351159615552" x2="37.41351159615552" y1="1463" y2="1475" />
<line x1="44.480601382667096" x2="44.480601382667096" y1="1463" y2="1475" />
</g>
</g>
<text fill="hsl(243, 100%, 40%)" y="1507">catch.10000.effectful.deep 1.35 ms</text>
<g>
<title>1.35 ms ±  61 μs</title>
<rect y="1513" rx="5" height="22" width="41.27693665672048" fill="hsl(243, 100%, 80%)" stroke="hsl(243, 100%, 55%)" />
<g stroke="hsl(243, 100%, 40%)"><line x1="39.418216926808256" x2="43.135656386632704" y1="1524" y2="1524" />
<line x1="39.418216926808256" x2="39.418216926808256" y1="1518" y2="1530" />
<line x1="43.135656386632704" x2="43.135656386632704" y1="1518" y2="1530" />
</g>
</g>
<text fill="hsl(252, 100%, 40%)" y="1562">catch.10000.fused.shallow 5.12 ms</text>
<g>
<title>5.12 ms ± 110 μs</title>
<rect y="1568" rx="5" height="22" width="156.82634553607585" fill="hsl(252, 100%, 80%)" stroke="hsl(252, 100%, 55%)" />
<g stroke="hsl(252, 100%, 40%)"><line x1="153.46804913010027" x2="160.18464194205143" y1="1579" y2="1579" />
<line x1="153.46804913010027" x2="153.46804913010027" y1="1573" y2="1585" />
<line x1="160.18464194205143" x2="160.18464194205143" y1="1573" y2="1585" />
</g>
</g>
<g fill="hsl(261, 100%, 40%)">
<text y="1617">catch.10000.fused.deep</text>
<text y="1617" x="839.061244276597" text-anchor="end">27.4 ms</text>
</g>
<g>
<title>27.4 ms ± 942 μs</title>
<rect y="1623" rx="5" height="22" width="839.061244276597" fill="hsl(261, 100%, 80%)" stroke="hsl(261, 100%, 55%)" />
<g stroke="hsl(261, 100%, 40%)"><line x1="810.1967176346477" x2="867.9257709185463" y1="1634" y2="1634" />
<line x1="810.1967176346477" x2="810.1967176346477" y1="1628" y2="1640" />
<line x1="867.9257709185463" x2="867.9257709185463" y1="1628" y2="1640" />
</g>
</g>
<text fill="hsl(270, 100%, 40%)" y="1672">catch.10000.sem.shallow 3.26 ms</text>
<g>
<title>3.26 ms ± 153 μs</title>
<rect y="1678" rx="5" height="22" width="99.88509314760779" fill="hsl(270, 100%, 80%)" stroke="hsl(270, 100%, 55%)" />
<g stroke="hsl(270, 100%, 40%)"><line x1="95.19014848308494" x2="104.58003781213064" y1="1689" y2="1689" />
<line x1="95.19014848308494" x2="95.19014848308494" y1="1683" y2="1695" />
<line x1="104.58003781213064" x2="104.58003781213064" y1="1683" y2="1695" />
</g>
</g>
<g fill="hsl(279, 100%, 40%)">
<text y="1727">catch.10000.sem.deep</text>
<text y="1727" x="404.19323902732066" text-anchor="end">13.2 ms</text>
</g>
<g>
<title>13.2 ms ± 857 μs</title>
<rect y="1733" rx="5" height="22" width="404.19323902732066" fill="hsl(279, 100%, 80%)" stroke="hsl(279, 100%, 55%)" />
<g stroke="hsl(279, 100%, 40%)"><line x1="377.92342928514523" x2="430.4630487694961" y1="1744" y2="1744" />
<line x1="377.92342928514523" x2="377.92342928514523" y1="1738" y2="1750" />
<line x1="430.4630487694961" x2="430.4630487694961" y1="1738" y2="1750" />
</g>
</g>
<text fill="hsl(288, 100%, 40%)" y="1782">local.10000.sp_modified_for_non_scoped_resumption_support.shallow 342  μs</text>
<g>
<title>342  μs ±  26 μs</title>
<rect y="1788" rx="5" height="22" width="10.486370724830046" fill="hsl(288, 100%, 80%)" stroke="hsl(288, 100%, 55%)" />
<g stroke="hsl(288, 100%, 40%)"><line x1="9.679720118368511" x2="11.29302133129158" y1="1799" y2="1799" />
<line x1="9.679720118368511" x2="9.679720118368511" y1="1793" y2="1805" />
<line x1="11.29302133129158" x2="11.29302133129158" y1="1793" y2="1805" />
</g>
</g>
<text fill="hsl(297, 100%, 40%)" y="1837">local.10000.sp_modified_for_non_scoped_resumption_support.deep 340  μs</text>
<g>
<title>340  μs ±  31 μs</title>
<rect y="1843" rx="5" height="22" width="10.424330410744817" fill="hsl(297, 100%, 80%)" stroke="hsl(297, 100%, 55%)" />
<g stroke="hsl(297, 100%, 40%)"><line x1="9.48328024164835" x2="11.365380579841284" y1="1854" y2="1854" />
<line x1="9.48328024164835" x2="9.48328024164835" y1="1848" y2="1860" />
<line x1="11.365380579841284" x2="11.365380579841284" y1="1848" y2="1860" />
</g>
</g>
<text fill="hsl(306, 100%, 40%)" y="1892">local.10000.effectful.shallow 735  μs</text>
<g>
<title>735  μs ±  49 μs</title>
<rect y="1898" rx="5" height="22" width="22.533630018466038" fill="hsl(306, 100%, 80%)" stroke="hsl(306, 100%, 55%)" />
<g stroke="hsl(306, 100%, 40%)"><line x1="21.03324748030619" x2="24.034012556625886" y1="1909" y2="1909" />
<line x1="21.03324748030619" x2="21.03324748030619" y1="1903" y2="1915" />
<line x1="24.034012556625886" x2="24.034012556625886" y1="1903" y2="1915" />
</g>
</g>
<text fill="hsl(315, 100%, 40%)" y="1947">local.10000.effectful.deep 728  μs</text>
<g>
<title>728  μs ±  53 μs</title>
<rect y="1953" rx="5" height="22" width="22.32738383073554" fill="hsl(315, 100%, 80%)" stroke="hsl(315, 100%, 55%)" />
<g stroke="hsl(315, 100%, 40%)"><line x1="20.708251813435403" x2="23.946515848035673" y1="1964" y2="1964" />
<line x1="20.708251813435403" x2="20.708251813435403" y1="1958" y2="1970" />
<line x1="23.946515848035673" x2="23.946515848035673" y1="1958" y2="1970" />
</g>
</g>
<text fill="hsl(324, 100%, 40%)" y="2002">local.10000.fused.shallow 1.82 ms</text>
<g>
<title>1.82 ms ± 156 μs</title>
<rect y="2008" rx="5" height="22" width="55.749677824397125" fill="hsl(324, 100%, 80%)" stroke="hsl(324, 100%, 55%)" />
<g stroke="hsl(324, 100%, 40%)"><line x1="50.97913982479864" x2="60.52021582399561" y1="2019" y2="2019" />
<line x1="50.97913982479864" x2="50.97913982479864" y1="2013" y2="2025" />
<line x1="60.52021582399561" x2="60.52021582399561" y1="2013" y2="2025" />
</g>
</g>
<g fill="hsl(333, 100%, 40%)">
<text y="2057">local.10000.fused.deep</text>
<text y="2057" x="244.88336183190953" text-anchor="end">7.99 ms</text>
</g>
<g>
<title>7.99 ms ± 725 μs</title>
<rect y="2063" rx="5" height="22" width="244.88336183190953" fill="hsl(333, 100%, 80%)" stroke="hsl(333, 100%, 55%)" />
<g stroke="hsl(333, 100%, 40%)"><line x1="222.66482784798376" x2="267.1018958158353" y1="2074" y2="2074" />
<line x1="222.66482784798376" x2="222.66482784798376" y1="2068" y2="2080" />
<line x1="267.1018958158353" x2="267.1018958158353" y1="2068" y2="2080" />
</g>
</g>
<text fill="hsl(342, 100%, 40%)" y="2112">local.10000.sem.shallow 4.40 ms</text>
<g>
<title>4.40 ms ±  98 μs</title>
<rect y="2118" rx="5" height="22" width="134.9705634493638" fill="hsl(342, 100%, 80%)" stroke="hsl(342, 100%, 55%)" />
<g stroke="hsl(342, 100%, 40%)"><line x1="131.97452759342775" x2="137.96659930529984" y1="2129" y2="2129" />
<line x1="131.97452759342775" x2="131.97452759342775" y1="2123" y2="2135" />
<line x1="137.96659930529984" x2="137.96659930529984" y1="2123" y2="2135" />
</g>
</g>
<g fill="hsl(351, 100%, 40%)">
<text y="2167">local.10000.sem.deep</text>
<text y="2167" x="271.5042333511031" text-anchor="end">8.86 ms</text>
</g>
<g>
<title>8.86 ms ± 430 μs</title>
<rect y="2173" rx="5" height="22" width="271.5042333511031" fill="hsl(351, 100%, 80%)" stroke="hsl(351, 100%, 55%)" />
<g stroke="hsl(351, 100%, 40%)"><line x1="258.3108038106047" x2="284.6976628916015" y1="2184" y2="2184" />
<line x1="258.3108038106047" x2="258.3108038106047" y1="2178" y2="2190" />
<line x1="284.6976628916015" x2="284.6976628916015" y1="2178" y2="2190" />
</g>
</g>
</g>
</svg>
