<svg xmlns="http://www.w3.org/2000/svg" height="2537" width="960.0" font-size="16" font-family="sans-serif" stroke-width="2">
<g transform="translate(10.0 0)">
<text fill="hsl(0, 100%, 40%)" y="22">countdown.10000.sp_modified_for_non_scoped_resumption_support.shallow 150  μs</text>
<g>
<title>150  μs ±  12 μs</title>
<rect y="28" rx="5" height="22" width="0.1685256700870891" fill="hsl(0, 100%, 80%)" stroke="hsl(0, 100%, 55%)" />
<g stroke="hsl(0, 100%, 40%)"><line x1="0.1546733607588648" x2="0.18237797941531342" y1="39" y2="39" />
<line x1="0.1546733607588648" x2="0.1546733607588648" y1="33" y2="45" />
<line x1="0.18237797941531342" x2="0.18237797941531342" y1="33" y2="45" />
</g>
</g>
<text fill="hsl(7, 100%, 40%)" y="77">countdown.10000.sp_modified_for_non_scoped_resumption_support.deep 150  μs</text>
<g>
<title>150  μs ±  11 μs</title>
<rect y="83" rx="5" height="22" width="0.16929041073514814" fill="hsl(7, 100%, 80%)" stroke="hsl(7, 100%, 55%)" />
<g stroke="hsl(7, 100%, 40%)"><line x1="0.15723810956231496" x2="0.18134271190798132" y1="94" y2="94" />
<line x1="0.15723810956231496" x2="0.15723810956231496" y1="88" y2="100" />
<line x1="0.18134271190798132" x2="0.18134271190798132" y1="88" y2="100" />
</g>
</g>
<text fill="hsl(15, 100%, 40%)" y="132">countdown.10000.effectful.shallow 235  μs</text>
<g>
<title>235  μs ±  19 μs</title>
<rect y="138" rx="5" height="22" width="0.2646443048201217" fill="hsl(15, 100%, 80%)" stroke="hsl(15, 100%, 55%)" />
<g stroke="hsl(15, 100%, 40%)"><line x1="0.24371911542625094" x2="0.28556949421399247" y1="149" y2="149" />
<line x1="0.24371911542625094" x2="0.24371911542625094" y1="143" y2="155" />
<line x1="0.28556949421399247" x2="0.28556949421399247" y1="143" y2="155" />
</g>
</g>
<text fill="hsl(23, 100%, 40%)" y="187">countdown.10000.effectful.deep 238  μs</text>
<g>
<title>238  μs ±  18 μs</title>
<rect y="193" rx="5" height="22" width="0.2675274090766514" fill="hsl(23, 100%, 80%)" stroke="hsl(23, 100%, 55%)" />
<g stroke="hsl(23, 100%, 40%)"><line x1="0.24734905965619008" x2="0.2877057584971127" y1="204" y2="204" />
<line x1="0.24734905965619008" x2="0.24734905965619008" y1="198" y2="210" />
<line x1="0.2877057584971127" x2="0.2877057584971127" y1="198" y2="210" />
</g>
</g>
<text fill="hsl(31, 100%, 40%)" y="242">countdown.10000.ev.shallow 344  μs</text>
<g>
<title>344  μs ±  28 μs</title>
<rect y="248" rx="5" height="22" width="0.3878235573136544" fill="hsl(31, 100%, 80%)" stroke="hsl(31, 100%, 55%)" />
<g stroke="hsl(31, 100%, 40%)"><line x1="0.356569377994011" x2="0.41907773663329784" y1="259" y2="259" />
<line x1="0.356569377994011" x2="0.356569377994011" y1="253" y2="265" />
<line x1="0.41907773663329784" x2="0.41907773663329784" y1="253" y2="265" />
</g>
</g>
<text fill="hsl(39, 100%, 40%)" y="297">countdown.10000.ev.deep 339  μs</text>
<g>
<title>339  μs ±  19 μs</title>
<rect y="303" rx="5" height="22" width="0.38223195610468935" fill="hsl(39, 100%, 80%)" stroke="hsl(39, 100%, 55%)" />
<g stroke="hsl(39, 100%, 40%)"><line x1="0.36077267643015587" x2="0.40369123577922283" y1="314" y2="314" />
<line x1="0.36077267643015587" x2="0.36077267643015587" y1="308" y2="320" />
<line x1="0.40369123577922283" x2="0.40369123577922283" y1="308" y2="320" />
</g>
</g>
<text fill="hsl(46, 100%, 40%)" y="352">countdown.10000.freer.shallow 470  μs</text>
<g>
<title>470  μs ±  45 μs</title>
<rect y="358" rx="5" height="22" width="0.5295304156963704" fill="hsl(46, 100%, 80%)" stroke="hsl(46, 100%, 55%)" />
<g stroke="hsl(46, 100%, 40%)"><line x1="0.4788435378303211" x2="0.5802172935624197" y1="369" y2="369" />
<line x1="0.4788435378303211" x2="0.4788435378303211" y1="363" y2="375" />
<line x1="0.5802172935624197" x2="0.5802172935624197" y1="363" y2="375" />
</g>
</g>
<text fill="hsl(54, 100%, 40%)" y="407">countdown.10000.freer.deep 1.42 ms</text>
<g>
<title>1.42 ms ± 123 μs</title>
<rect y="413" rx="5" height="22" width="1.6015736390305855" fill="hsl(54, 100%, 80%)" stroke="hsl(54, 100%, 55%)" />
<g stroke="hsl(54, 100%, 40%)"><line x1="1.4630294797722874" x2="1.7401177982888836" y1="424" y2="424" />
<line x1="1.4630294797722874" x2="1.4630294797722874" y1="418" y2="430" />
<line x1="1.7401177982888836" x2="1.7401177982888836" y1="418" y2="430" />
</g>
</g>
<text fill="hsl(62, 100%, 40%)" y="462">countdown.10000.mtl.shallow 1.29 ms</text>
<g>
<title>1.29 ms ±  96 μs</title>
<rect y="468" rx="5" height="22" width="1.456866869900634" fill="hsl(62, 100%, 80%)" stroke="hsl(62, 100%, 55%)" />
<g stroke="hsl(62, 100%, 40%)"><line x1="1.348879429140909" x2="1.564854310660359" y1="479" y2="479" />
<line x1="1.348879429140909" x2="1.348879429140909" y1="473" y2="485" />
<line x1="1.564854310660359" x2="1.564854310660359" y1="473" y2="485" />
</g>
</g>
<text fill="hsl(70, 100%, 40%)" y="517">countdown.10000.mtl.deep 10.4 ms</text>
<g>
<title>10.4 ms ± 791 μs</title>
<rect y="523" rx="5" height="22" width="11.694327935809167" fill="hsl(70, 100%, 80%)" stroke="hsl(70, 100%, 55%)" />
<g stroke="hsl(70, 100%, 40%)"><line x1="10.803270544813284" x2="12.58538532680505" y1="534" y2="534" />
<line x1="10.803270544813284" x2="10.803270544813284" y1="528" y2="540" />
<line x1="12.58538532680505" x2="12.58538532680505" y1="528" y2="540" />
</g>
</g>
<text fill="hsl(78, 100%, 40%)" y="572">countdown.10000.fused.shallow 2.19 ms</text>
<g>
<title>2.19 ms ± 208 μs</title>
<rect y="578" rx="5" height="22" width="2.465888085338169" fill="hsl(78, 100%, 80%)" stroke="hsl(78, 100%, 55%)" />
<g stroke="hsl(78, 100%, 40%)"><line x1="2.2313605311296127" x2="2.7004156395467254" y1="589" y2="589" />
<line x1="2.2313605311296127" x2="2.2313605311296127" y1="583" y2="595" />
<line x1="2.7004156395467254" x2="2.7004156395467254" y1="583" y2="595" />
</g>
</g>
<text fill="hsl(86, 100%, 40%)" y="627">countdown.10000.fused.deep 16.5 ms</text>
<g>
<title>16.5 ms ± 903 μs</title>
<rect y="633" rx="5" height="22" width="18.632339305510847" fill="hsl(86, 100%, 80%)" stroke="hsl(86, 100%, 55%)" />
<g stroke="hsl(86, 100%, 40%)"><line x1="17.615617840738096" x2="19.649060770283597" y1="644" y2="644" />
<line x1="17.615617840738096" x2="17.615617840738096" y1="638" y2="650" />
<line x1="19.649060770283597" x2="19.649060770283597" y1="638" y2="650" />
</g>
</g>
<text fill="hsl(93, 100%, 40%)" y="682">countdown.10000.sem.shallow 2.71 ms</text>
<g>
<title>2.71 ms ± 131 μs</title>
<rect y="688" rx="5" height="22" width="3.0546596020072565" fill="hsl(93, 100%, 80%)" stroke="hsl(93, 100%, 55%)" />
<g stroke="hsl(93, 100%, 40%)"><line x1="2.907040536006427" x2="3.202278668008086" y1="699" y2="699" />
<line x1="2.907040536006427" x2="2.907040536006427" y1="693" y2="705" />
<line x1="3.202278668008086" x2="3.202278668008086" y1="693" y2="705" />
</g>
</g>
<text fill="hsl(101, 100%, 40%)" y="737">countdown.10000.sem.deep 4.59 ms</text>
<g>
<title>4.59 ms ± 456 μs</title>
<rect y="743" rx="5" height="22" width="5.166216876716454" fill="hsl(101, 100%, 80%)" stroke="hsl(101, 100%, 55%)" />
<g stroke="hsl(101, 100%, 40%)"><line x1="4.652770984589715" x2="5.679662768843192" y1="754" y2="754" />
<line x1="4.652770984589715" x2="4.652770984589715" y1="748" y2="760" />
<line x1="5.679662768843192" x2="5.679662768843192" y1="748" y2="760" />
</g>
</g>
<text fill="hsl(109, 100%, 40%)" y="792">pyth.32.sp_modified_for_non_scoped_resumption_support.shallow 4.10 ms</text>
<g>
<title>4.10 ms ± 352 μs</title>
<rect y="798" rx="5" height="22" width="4.6205836618041305" fill="hsl(109, 100%, 80%)" stroke="hsl(109, 100%, 55%)" />
<g stroke="hsl(109, 100%, 40%)"><line x1="4.223764078049881" x2="5.01740324555838" y1="809" y2="809" />
<line x1="4.223764078049881" x2="4.223764078049881" y1="803" y2="815" />
<line x1="5.01740324555838" x2="5.01740324555838" y1="803" y2="815" />
</g>
</g>
<text fill="hsl(117, 100%, 40%)" y="847">pyth.32.sp_modified_for_non_scoped_resumption_support.deep 13.3 ms</text>
<g>
<title>13.3 ms ± 527 μs</title>
<rect y="853" rx="5" height="22" width="15.014042421978061" fill="hsl(117, 100%, 80%)" stroke="hsl(117, 100%, 55%)" />
<g stroke="hsl(117, 100%, 40%)"><line x1="14.42093859747521" x2="15.607146246480912" y1="864" y2="864" />
<line x1="14.42093859747521" x2="14.42093859747521" y1="858" y2="870" />
<line x1="15.607146246480912" x2="15.607146246480912" y1="858" y2="870" />
</g>
</g>
<text fill="hsl(125, 100%, 40%)" y="902">pyth.32.ev.shallow 1.42 ms</text>
<g>
<title>1.42 ms ±  71 μs</title>
<rect y="908" rx="5" height="22" width="1.6024597207366784" fill="hsl(125, 100%, 80%)" stroke="hsl(125, 100%, 55%)" />
<g stroke="hsl(125, 100%, 40%)"><line x1="1.5226554998629618" x2="1.682263941610395" y1="919" y2="919" />
<line x1="1.5226554998629618" x2="1.5226554998629618" y1="913" y2="925" />
<line x1="1.682263941610395" x2="1.682263941610395" y1="913" y2="925" />
</g>
</g>
<text fill="hsl(133, 100%, 40%)" y="957">pyth.32.ev.deep 2.71 ms</text>
<g>
<title>2.71 ms ± 246 μs</title>
<rect y="963" rx="5" height="22" width="3.05124922452261" fill="hsl(133, 100%, 80%)" stroke="hsl(133, 100%, 55%)" />
<g stroke="hsl(133, 100%, 40%)"><line x1="2.774472871176107" x2="3.3280255778691132" y1="974" y2="974" />
<line x1="2.774472871176107" x2="2.774472871176107" y1="968" y2="980" />
<line x1="3.3280255778691132" x2="3.3280255778691132" y1="968" y2="980" />
</g>
</g>
<text fill="hsl(140, 100%, 40%)" y="1012">pyth.32.freer.shallow 7.24 ms</text>
<g>
<title>7.24 ms ± 562 μs</title>
<rect y="1018" rx="5" height="22" width="8.149888169519695" fill="hsl(140, 100%, 80%)" stroke="hsl(140, 100%, 55%)" />
<g stroke="hsl(140, 100%, 40%)"><line x1="7.5165482339124905" x2="8.7832281051269" y1="1029" y2="1029" />
<line x1="7.5165482339124905" x2="7.5165482339124905" y1="1023" y2="1035" />
<line x1="8.7832281051269" x2="8.7832281051269" y1="1023" y2="1035" />
</g>
</g>
<text fill="hsl(148, 100%, 40%)" y="1067">pyth.32.freer.deep 10.3 ms</text>
<g>
<title>10.3 ms ± 819 μs</title>
<rect y="1073" rx="5" height="22" width="11.60553574194048" fill="hsl(148, 100%, 80%)" stroke="hsl(148, 100%, 55%)" />
<g stroke="hsl(148, 100%, 40%)"><line x1="10.683511149944039" x2="12.527560333936922" y1="1084" y2="1084" />
<line x1="10.683511149944039" x2="10.683511149944039" y1="1078" y2="1090" />
<line x1="12.527560333936922" x2="12.527560333936922" y1="1078" y2="1090" />
</g>
</g>
<text fill="hsl(156, 100%, 40%)" y="1122">pyth.32.fused.shallow 1.56 ms</text>
<g>
<title>1.56 ms ± 134 μs</title>
<rect y="1128" rx="5" height="22" width="1.7578151921249534" fill="hsl(156, 100%, 80%)" stroke="hsl(156, 100%, 55%)" />
<g stroke="hsl(156, 100%, 40%)"><line x1="1.6071449940213838" x2="1.908485390228523" y1="1139" y2="1139" />
<line x1="1.6071449940213838" x2="1.6071449940213838" y1="1133" y2="1145" />
<line x1="1.908485390228523" x2="1.908485390228523" y1="1133" y2="1145" />
</g>
</g>
<text fill="hsl(164, 100%, 40%)" y="1177">pyth.32.fused.deep 13.2 ms</text>
<g>
<title>13.2 ms ± 683 μs</title>
<rect y="1183" rx="5" height="22" width="14.848219955324408" fill="hsl(164, 100%, 80%)" stroke="hsl(164, 100%, 55%)" />
<g stroke="hsl(164, 100%, 40%)"><line x1="14.079635446764161" x2="15.616804463884655" y1="1194" y2="1194" />
<line x1="14.079635446764161" x2="14.079635446764161" y1="1188" y2="1200" />
<line x1="15.616804463884655" x2="15.616804463884655" y1="1188" y2="1200" />
</g>
</g>
<text fill="hsl(172, 100%, 40%)" y="1232">pyth.32.sem.shallow 15.7 ms</text>
<g>
<title>15.7 ms ± 406 μs</title>
<rect y="1238" rx="5" height="22" width="17.684435665271334" fill="hsl(172, 100%, 80%)" stroke="hsl(172, 100%, 55%)" />
<g stroke="hsl(172, 100%, 40%)"><line x1="17.227591255970164" x2="18.141280074572503" y1="1249" y2="1249" />
<line x1="17.227591255970164" x2="17.227591255970164" y1="1243" y2="1255" />
<line x1="18.141280074572503" x2="18.141280074572503" y1="1243" y2="1255" />
</g>
</g>
<text fill="hsl(180, 100%, 40%)" y="1287">pyth.32.sem.deep 16.0 ms</text>
<g>
<title>16.0 ms ± 798 μs</title>
<rect y="1293" rx="5" height="22" width="18.069313654579062" fill="hsl(180, 100%, 80%)" stroke="hsl(180, 100%, 55%)" />
<g stroke="hsl(180, 100%, 40%)"><line x1="17.17090272454085" x2="18.967724584617276" y1="1304" y2="1304" />
<line x1="17.17090272454085" x2="17.17090272454085" y1="1298" y2="1310" />
<line x1="18.967724584617276" x2="18.967724584617276" y1="1298" y2="1310" />
</g>
</g>
<text fill="hsl(187, 100%, 40%)" y="1342">catch.10000.sp_modified_for_non_scoped_resumption_support.shallow 201  μs</text>
<g>
<title>201  μs ± 8.4 μs</title>
<rect y="1348" rx="5" height="22" width="0.2263809106700342" fill="hsl(187, 100%, 80%)" stroke="hsl(187, 100%, 55%)" />
<g stroke="hsl(187, 100%, 40%)"><line x1="0.21695006460213442" x2="0.235811756737934" y1="1359" y2="1359" />
<line x1="0.21695006460213442" x2="0.21695006460213442" y1="1353" y2="1365" />
<line x1="0.235811756737934" x2="0.235811756737934" y1="1353" y2="1365" />
</g>
</g>
<text fill="hsl(195, 100%, 40%)" y="1397">catch.10000.sp_modified_for_non_scoped_resumption_support.deep 201  μs</text>
<g>
<title>201  μs ± 9.4 μs</title>
<rect y="1403" rx="5" height="22" width="0.22579548192559692" fill="hsl(195, 100%, 80%)" stroke="hsl(195, 100%, 55%)" />
<g stroke="hsl(195, 100%, 40%)"><line x1="0.21516351714151344" x2="0.2364274467096804" y1="1414" y2="1414" />
<line x1="0.21516351714151344" x2="0.21516351714151344" y1="1408" y2="1420" />
<line x1="0.2364274467096804" x2="0.2364274467096804" y1="1408" y2="1420" />
</g>
</g>
<text fill="hsl(203, 100%, 40%)" y="1452">catch.10000.effectful.shallow 1.34 ms</text>
<g>
<title>1.34 ms ±  94 μs</title>
<rect y="1458" rx="5" height="22" width="1.511247442810945" fill="hsl(203, 100%, 80%)" stroke="hsl(203, 100%, 55%)" />
<g stroke="hsl(203, 100%, 40%)"><line x1="1.405954994393284" x2="1.616539891228606" y1="1469" y2="1469" />
<line x1="1.405954994393284" x2="1.405954994393284" y1="1463" y2="1475" />
<line x1="1.616539891228606" x2="1.616539891228606" y1="1463" y2="1475" />
</g>
</g>
<text fill="hsl(211, 100%, 40%)" y="1507">catch.10000.effectful.deep 1.36 ms</text>
<g>
<title>1.36 ms ±  82 μs</title>
<rect y="1513" rx="5" height="22" width="1.5287859657666625" fill="hsl(211, 100%, 80%)" stroke="hsl(211, 100%, 55%)" />
<g stroke="hsl(211, 100%, 40%)"><line x1="1.4361789396091107" x2="1.6213929919242143" y1="1524" y2="1524" />
<line x1="1.4361789396091107" x2="1.4361789396091107" y1="1518" y2="1530" />
<line x1="1.6213929919242143" x2="1.6213929919242143" y1="1518" y2="1530" />
</g>
</g>
<text fill="hsl(219, 100%, 40%)" y="1562">catch.10000.fused.shallow 5.06 ms</text>
<g>
<title>5.06 ms ± 226 μs</title>
<rect y="1568" rx="5" height="22" width="5.692719455847427" fill="hsl(219, 100%, 80%)" stroke="hsl(219, 100%, 55%)" />
<g stroke="hsl(219, 100%, 40%)"><line x1="5.438051310627062" x2="5.947387601067792" y1="1579" y2="1579" />
<line x1="5.438051310627062" x2="5.438051310627062" y1="1573" y2="1585" />
<line x1="5.947387601067792" x2="5.947387601067792" y1="1573" y2="1585" />
</g>
</g>
<text fill="hsl(226, 100%, 40%)" y="1617">catch.10000.fused.deep 27.0 ms</text>
<g>
<title>27.0 ms ± 1.2 ms</title>
<rect y="1623" rx="5" height="22" width="30.436377027183575" fill="hsl(226, 100%, 80%)" stroke="hsl(226, 100%, 55%)" />
<g stroke="hsl(226, 100%, 40%)"><line x1="29.140510615486594" x2="31.732243438880555" y1="1634" y2="1634" />
<line x1="29.140510615486594" x2="29.140510615486594" y1="1628" y2="1640" />
<line x1="31.732243438880555" x2="31.732243438880555" y1="1628" y2="1640" />
</g>
</g>
<text fill="hsl(234, 100%, 40%)" y="1672">catch.10000.sem.shallow 3.22 ms</text>
<g>
<title>3.22 ms ± 150 μs</title>
<rect y="1678" rx="5" height="22" width="3.625908273590234" fill="hsl(234, 100%, 80%)" stroke="hsl(234, 100%, 55%)" />
<g stroke="hsl(234, 100%, 40%)"><line x1="3.4571425574491865" x2="3.7946739897312813" y1="1689" y2="1689" />
<line x1="3.4571425574491865" x2="3.4571425574491865" y1="1683" y2="1695" />
<line x1="3.7946739897312813" x2="3.7946739897312813" y1="1683" y2="1695" />
</g>
</g>
<text fill="hsl(242, 100%, 40%)" y="1727">catch.10000.sem.deep 13.3 ms</text>
<g>
<title>13.3 ms ± 1.3 ms</title>
<rect y="1733" rx="5" height="22" width="14.974706176448352" fill="hsl(242, 100%, 80%)" stroke="hsl(242, 100%, 55%)" />
<g stroke="hsl(242, 100%, 40%)"><line x1="13.49134250655173" x2="16.458069846344976" y1="1744" y2="1744" />
<line x1="13.49134250655173" x2="13.49134250655173" y1="1738" y2="1750" />
<line x1="16.458069846344976" x2="16.458069846344976" y1="1738" y2="1750" />
</g>
</g>
<text fill="hsl(250, 100%, 40%)" y="1782">local.10000.sp_modified_for_non_scoped_resumption_support.shallow 259  μs</text>
<g>
<title>259  μs ±  11 μs</title>
<rect y="1788" rx="5" height="22" width="0.29146778846883153" fill="hsl(250, 100%, 80%)" stroke="hsl(250, 100%, 55%)" />
<g stroke="hsl(250, 100%, 40%)"><line x1="0.27903725460982504" x2="0.30389832232783803" y1="1799" y2="1799" />
<line x1="0.27903725460982504" x2="0.27903725460982504" y1="1793" y2="1805" />
<line x1="0.30389832232783803" x2="0.30389832232783803" y1="1793" y2="1805" />
</g>
</g>
<text fill="hsl(258, 100%, 40%)" y="1837">local.10000.sp_modified_for_non_scoped_resumption_support.deep 264  μs</text>
<g>
<title>264  μs ±  22 μs</title>
<rect y="1843" rx="5" height="22" width="0.2970338206635632" fill="hsl(258, 100%, 80%)" stroke="hsl(258, 100%, 55%)" />
<g stroke="hsl(258, 100%, 40%)"><line x1="0.27185521162015336" x2="0.32221242970697306" y1="1854" y2="1854" />
<line x1="0.27185521162015336" x2="0.27185521162015336" y1="1848" y2="1860" />
<line x1="0.32221242970697306" x2="0.32221242970697306" y1="1848" y2="1860" />
</g>
</g>
<text fill="hsl(266, 100%, 40%)" y="1892">local.10000.effectful.shallow 745  μs</text>
<g>
<title>745  μs ±  67 μs</title>
<rect y="1898" rx="5" height="22" width="0.8394062233683147" fill="hsl(266, 100%, 80%)" stroke="hsl(266, 100%, 55%)" />
<g stroke="hsl(266, 100%, 40%)"><line x1="0.7643672303244058" x2="0.9144452164122236" y1="1909" y2="1909" />
<line x1="0.7643672303244058" x2="0.7643672303244058" y1="1903" y2="1915" />
<line x1="0.9144452164122236" x2="0.9144452164122236" y1="1903" y2="1915" />
</g>
</g>
<text fill="hsl(273, 100%, 40%)" y="1947">local.10000.effectful.deep 746  μs</text>
<g>
<title>746  μs ±  55 μs</title>
<rect y="1953" rx="5" height="22" width="0.8404787425658248" fill="hsl(273, 100%, 80%)" stroke="hsl(273, 100%, 55%)" />
<g stroke="hsl(273, 100%, 40%)"><line x1="0.7787565520098304" x2="0.9022009331218191" y1="1964" y2="1964" />
<line x1="0.7787565520098304" x2="0.7787565520098304" y1="1958" y2="1970" />
<line x1="0.9022009331218191" x2="0.9022009331218191" y1="1958" y2="1970" />
</g>
</g>
<text fill="hsl(281, 100%, 40%)" y="2002">local.10000.fused.shallow 1.80 ms</text>
<g>
<title>1.80 ms ±  87 μs</title>
<rect y="2008" rx="5" height="22" width="2.025271689892214" fill="hsl(281, 100%, 80%)" stroke="hsl(281, 100%, 55%)" />
<g stroke="hsl(281, 100%, 40%)"><line x1="1.9275416881575518" x2="2.123001691626876" y1="2019" y2="2019" />
<line x1="1.9275416881575518" x2="1.9275416881575518" y1="2013" y2="2025" />
<line x1="2.123001691626876" x2="2.123001691626876" y1="2013" y2="2025" />
</g>
</g>
<text fill="hsl(289, 100%, 40%)" y="2057">local.10000.fused.deep 7.67 ms</text>
<g>
<title>7.67 ms ± 694 μs</title>
<rect y="2063" rx="5" height="22" width="8.635020268291782" fill="hsl(289, 100%, 80%)" stroke="hsl(289, 100%, 55%)" />
<g stroke="hsl(289, 100%, 40%)"><line x1="7.853431791717409" x2="9.416608744866156" y1="2074" y2="2074" />
<line x1="7.853431791717409" x2="7.853431791717409" y1="2068" y2="2080" />
<line x1="9.416608744866156" x2="9.416608744866156" y1="2068" y2="2080" />
</g>
</g>
<text fill="hsl(297, 100%, 40%)" y="2112">local.10000.sem.shallow 4.40 ms</text>
<g>
<title>4.40 ms ± 347 μs</title>
<rect y="2118" rx="5" height="22" width="4.949022446566874" fill="hsl(297, 100%, 80%)" stroke="hsl(297, 100%, 55%)" />
<g stroke="hsl(297, 100%, 40%)"><line x1="4.558133817888261" x2="5.339911075245488" y1="2129" y2="2129" />
<line x1="4.558133817888261" x2="4.558133817888261" y1="2123" y2="2135" />
<line x1="5.339911075245488" x2="5.339911075245488" y1="2123" y2="2135" />
</g>
</g>
<text fill="hsl(305, 100%, 40%)" y="2167">local.10000.sem.deep 9.31 ms</text>
<g>
<title>9.31 ms ± 619 μs</title>
<rect y="2173" rx="5" height="22" width="10.479908253778946" fill="hsl(305, 100%, 80%)" stroke="hsl(305, 100%, 55%)" />
<g stroke="hsl(305, 100%, 40%)"><line x1="9.783367534366981" x2="11.176448973190912" y1="2184" y2="2184" />
<line x1="9.783367534366981" x2="9.783367534366981" y1="2178" y2="2190" />
<line x1="11.176448973190912" x2="11.176448973190912" y1="2178" y2="2190" />
</g>
</g>
<g fill="hsl(313, 100%, 40%)">
<text y="2222">coroutine.10000.sp_modified_for_non_scoped_resumption_support.shallow</text>
<text y="2222" x="897.5933440582415" text-anchor="end">797  ms</text>
</g>
<g>
<title>797  ms ±  31 ms</title>
<rect y="2228" rx="5" height="22" width="897.5933440582415" fill="hsl(313, 100%, 80%)" stroke="hsl(313, 100%, 55%)" />
<g stroke="hsl(313, 100%, 40%)"><line x1="862.4952712646452" x2="932.6914168518379" y1="2239" y2="2239" />
<line x1="862.4952712646452" x2="862.4952712646452" y1="2233" y2="2245" />
<line x1="932.6914168518379" x2="932.6914168518379" y1="2233" y2="2245" />
</g>
</g>
<g fill="hsl(320, 100%, 40%)">
<text y="2277">coroutine.10000.sp_modified_for_non_scoped_resumption_support.deep</text>
<text y="2277" x="886.3914928239849" text-anchor="end">787  ms</text>
</g>
<g>
<title>787  ms ± 5.4 ms</title>
<rect y="2283" rx="5" height="22" width="886.3914928239849" fill="hsl(320, 100%, 80%)" stroke="hsl(320, 100%, 55%)" />
<g stroke="hsl(320, 100%, 40%)"><line x1="880.3191646406524" x2="892.4638210073174" y1="2294" y2="2294" />
<line x1="880.3191646406524" x2="880.3191646406524" y1="2288" y2="2300" />
<line x1="892.4638210073174" x2="892.4638210073174" y1="2288" y2="2300" />
</g>
</g>
<g fill="hsl(328, 100%, 40%)">
<text y="2332">coroutine.10000.mp.shallow</text>
<text y="2332" x="907.4079230724514" text-anchor="end">806  ms</text>
</g>
<g>
<title>806  ms ±  28 ms</title>
<rect y="2338" rx="5" height="22" width="907.4079230724514" fill="hsl(328, 100%, 80%)" stroke="hsl(328, 100%, 55%)" />
<g stroke="hsl(328, 100%, 40%)"><line x1="876.2865508499998" x2="938.5292952949029" y1="2349" y2="2349" />
<line x1="876.2865508499998" x2="876.2865508499998" y1="2343" y2="2355" />
<line x1="938.5292952949029" x2="938.5292952949029" y1="2343" y2="2355" />
</g>
</g>
<g fill="hsl(336, 100%, 40%)">
<text y="2387">coroutine.10000.mp.deep</text>
<text y="2387" x="924.2572915615439" text-anchor="end">821  ms</text>
</g>
<g>
<title>821  ms ±  14 ms</title>
<rect y="2393" rx="5" height="22" width="924.2572915615439" fill="hsl(336, 100%, 80%)" stroke="hsl(336, 100%, 55%)" />
<g stroke="hsl(336, 100%, 40%)"><line x1="908.5145831230877" x2="940.0" y1="2404" y2="2404" />
<line x1="908.5145831230877" x2="908.5145831230877" y1="2398" y2="2410" />
<line x1="940.0" x2="940.0" y1="2398" y2="2410" />
</g>
</g>
<text fill="hsl(344, 100%, 40%)" y="2442">coroutine.10000.freer.shallow 2.47 ms</text>
<g>
<title>2.47 ms ± 235 μs</title>
<rect y="2448" rx="5" height="22" width="2.7839846120333904" fill="hsl(344, 100%, 80%)" stroke="hsl(344, 100%, 55%)" />
<g stroke="hsl(344, 100%, 40%)"><line x1="2.519076494936806" x2="3.048892729129975" y1="2459" y2="2459" />
<line x1="2.519076494936806" x2="2.519076494936806" y1="2453" y2="2465" />
<line x1="3.048892729129975" x2="3.048892729129975" y1="2453" y2="2465" />
</g>
</g>
<text fill="hsl(352, 100%, 40%)" y="2497">coroutine.10000.freer.deep 3.16 ms</text>
<g>
<title>3.16 ms ± 206 μs</title>
<rect y="2503" rx="5" height="22" width="3.5598838134716573" fill="hsl(352, 100%, 80%)" stroke="hsl(352, 100%, 55%)" />
<g stroke="hsl(352, 100%, 40%)"><line x1="3.328071628444094" x2="3.7916959984992205" y1="2514" y2="2514" />
<line x1="3.328071628444094" x2="3.328071628444094" y1="2508" y2="2520" />
<line x1="3.7916959984992205" x2="3.7916959984992205" y1="2508" y2="2520" />
</g>
</g>
</g>
</svg>
