<svg xmlns="http://www.w3.org/2000/svg" height="447" width="960.0" font-size="16" font-family="sans-serif" stroke-width="2">
<g transform="translate(10.0 0)">
<text fill="hsl(0, 100%, 40%)" y="22">coroutine.10000.sp_modified_for_non_scoped_resumption_support.shallow 2.95 ms</text>
<g>
<title>2.95 ms ± 179 μs</title>
<rect y="28" rx="5" height="22" width="3.2757806684182307" fill="hsl(0, 100%, 80%)" stroke="hsl(0, 100%, 55%)" />
<g stroke="hsl(0, 100%, 40%)"><line x1="3.076604945482256" x2="3.474956391354205" y1="39" y2="39" />
<line x1="3.076604945482256" x2="3.076604945482256" y1="33" y2="45" />
<line x1="3.474956391354205" x2="3.474956391354205" y1="33" y2="45" />
</g>
</g>
<text fill="hsl(45, 100%, 40%)" y="77">coroutine.10000.sp_modified_for_non_scoped_resumption_support.deep 5.75 ms</text>
<g>
<title>5.75 ms ± 272 μs</title>
<rect y="83" rx="5" height="22" width="6.384983546394876" fill="hsl(45, 100%, 80%)" stroke="hsl(45, 100%, 55%)" />
<g stroke="hsl(45, 100%, 40%)"><line x1="6.0833676346915455" x2="6.686599458098207" y1="94" y2="94" />
<line x1="6.0833676346915455" x2="6.0833676346915455" y1="88" y2="100" />
<line x1="6.686599458098207" x2="6.686599458098207" y1="88" y2="100" />
</g>
</g>
<g fill="hsl(90, 100%, 40%)">
<text y="132">coroutine.10000.mp.shallow</text>
<text y="132" x="915.7355602451139" text-anchor="end">824  ms</text>
</g>
<g>
<title>824  ms ±  11 ms</title>
<rect y="138" rx="5" height="22" width="915.7355602451139" fill="hsl(90, 100%, 80%)" stroke="hsl(90, 100%, 55%)" />
<g stroke="hsl(90, 100%, 40%)"><line x1="903.3778029617181" x2="928.0933175285097" y1="149" y2="149" />
<line x1="903.3778029617181" x2="903.3778029617181" y1="143" y2="155" />
<line x1="928.0933175285097" x2="928.0933175285097" y1="143" y2="155" />
</g>
</g>
<g fill="hsl(135, 100%, 40%)">
<text y="187">coroutine.10000.mp.deep</text>
<text y="187" x="924.5042267974659" text-anchor="end">832  ms</text>
</g>
<g>
<title>832  ms ±  14 ms</title>
<rect y="193" rx="5" height="22" width="924.5042267974659" fill="hsl(135, 100%, 80%)" stroke="hsl(135, 100%, 55%)" />
<g stroke="hsl(135, 100%, 40%)"><line x1="909.0084535949318" x2="940.0" y1="204" y2="204" />
<line x1="909.0084535949318" x2="909.0084535949318" y1="198" y2="210" />
<line x1="940.0" x2="940.0" y1="198" y2="210" />
</g>
</g>
<text fill="hsl(180, 100%, 40%)" y="242">coroutine.10000.freer.shallow 1.97 ms</text>
<g>
<title>1.97 ms ±  64 μs</title>
<rect y="248" rx="5" height="22" width="2.187174031705224" fill="hsl(180, 100%, 80%)" stroke="hsl(180, 100%, 55%)" />
<g stroke="hsl(180, 100%, 40%)"><line x1="2.1165308912821126" x2="2.2578171721283353" y1="259" y2="259" />
<line x1="2.1165308912821126" x2="2.1165308912821126" y1="253" y2="265" />
<line x1="2.2578171721283353" x2="2.2578171721283353" y1="253" y2="265" />
</g>
</g>
<text fill="hsl(225, 100%, 40%)" y="297">coroutine.10000.freer.deep 2.44 ms</text>
<g>
<title>2.44 ms ±  59 μs</title>
<rect y="303" rx="5" height="22" width="2.711165202659241" fill="hsl(225, 100%, 80%)" stroke="hsl(225, 100%, 55%)" />
<g stroke="hsl(225, 100%, 40%)"><line x1="2.6457928166014497" x2="2.7765375887170327" y1="314" y2="314" />
<line x1="2.6457928166014497" x2="2.6457928166014497" y1="308" y2="320" />
<line x1="2.7765375887170327" x2="2.7765375887170327" y1="308" y2="320" />
</g>
</g>
<g fill="hsl(270, 100%, 40%)">
<text y="352">coroutine.10000.eff.shallow</text>
<text y="352" x="426.05081450726976" text-anchor="end">384  ms</text>
</g>
<g>
<title>384  ms ± 3.0 ms</title>
<rect y="358" rx="5" height="22" width="426.05081450726976" fill="hsl(270, 100%, 80%)" stroke="hsl(270, 100%, 55%)" />
<g stroke="hsl(270, 100%, 40%)"><line x1="422.72909425174663" x2="429.3725347627929" y1="369" y2="369" />
<line x1="422.72909425174663" x2="422.72909425174663" y1="363" y2="375" />
<line x1="429.3725347627929" x2="429.3725347627929" y1="363" y2="375" />
</g>
</g>
<g fill="hsl(315, 100%, 40%)">
<text y="407">coroutine.10000.eff.deep</text>
<text y="407" x="430.82098514829386" text-anchor="end">388  ms</text>
</g>
<g>
<title>388  ms ± 3.7 ms</title>
<rect y="413" rx="5" height="22" width="430.82098514829386" fill="hsl(315, 100%, 80%)" stroke="hsl(315, 100%, 55%)" />
<g stroke="hsl(315, 100%, 40%)"><line x1="426.7332255830958" x2="434.9087447134919" y1="424" y2="424" />
<line x1="426.7332255830958" x2="426.7332255830958" y1="418" y2="430" />
<line x1="434.9087447134919" x2="434.9087447134919" y1="418" y2="430" />
</g>
</g>
</g>
</svg>
