<svg xmlns="http://www.w3.org/2000/svg" height="2867" width="960.0" font-size="16" font-family="sans-serif" stroke-width="2">
<g transform="translate(10.0 0)">
<text fill="hsl(0, 100%, 40%)" y="22">countdown.10000.sp_modified_for_non_scoped_resumption_support.shallow 5.90 ms</text>
<g>
<title>5.90 ms ± 481 μs</title>
<rect y="28" rx="5" height="22" width="136.10097558315786" fill="hsl(0, 100%, 80%)" stroke="hsl(0, 100%, 55%)" />
<g stroke="hsl(0, 100%, 40%)"><line x1="125.00229499954253" x2="147.1996561667732" y1="39" y2="39" />
<line x1="125.00229499954253" x2="125.00229499954253" y1="33" y2="45" />
<line x1="147.1996561667732" x2="147.1996561667732" y1="33" y2="45" />
</g>
</g>
<text fill="hsl(6, 100%, 40%)" y="77">countdown.10000.sp_modified_for_non_scoped_resumption_support.deep 8.34 ms</text>
<g>
<title>8.34 ms ± 571 μs</title>
<rect y="83" rx="5" height="22" width="192.40521987800372" fill="hsl(6, 100%, 80%)" stroke="hsl(6, 100%, 55%)" />
<g stroke="hsl(6, 100%, 40%)"><line x1="179.23289990275683" x2="205.5775398532506" y1="94" y2="94" />
<line x1="179.23289990275683" x2="179.23289990275683" y1="88" y2="100" />
<line x1="205.5775398532506" x2="205.5775398532506" y1="88" y2="100" />
</g>
</g>
<text fill="hsl(13, 100%, 40%)" y="132">countdown.10000.sp_modified_for_non_scoped_resumption_support.shallowIO 151  μs</text>
<g>
<title>151  μs ±  13 μs</title>
<rect y="138" rx="5" height="22" width="3.49248818768138" fill="hsl(13, 100%, 80%)" stroke="hsl(13, 100%, 55%)" />
<g stroke="hsl(13, 100%, 40%)"><line x1="3.1920789834370495" x2="3.7928973919257105" y1="149" y2="149" />
<line x1="3.1920789834370495" x2="3.1920789834370495" y1="143" y2="155" />
<line x1="3.7928973919257105" x2="3.7928973919257105" y1="143" y2="155" />
</g>
</g>
<text fill="hsl(20, 100%, 40%)" y="187">countdown.10000.sp_modified_for_non_scoped_resumption_support.deepIO 155  μs</text>
<g>
<title>155  μs ± 6.4 μs</title>
<rect y="193" rx="5" height="22" width="3.5697098900738613" fill="hsl(20, 100%, 80%)" stroke="hsl(20, 100%, 55%)" />
<g stroke="hsl(20, 100%, 40%)"><line x1="3.4230753035947212" x2="3.7163444765530014" y1="204" y2="204" />
<line x1="3.4230753035947212" x2="3.4230753035947212" y1="198" y2="210" />
<line x1="3.7163444765530014" x2="3.7163444765530014" y1="198" y2="210" />
</g>
</g>
<text fill="hsl(27, 100%, 40%)" y="242">countdown.10000.effectful.shallow 240  μs</text>
<g>
<title>240  μs ± 7.2 μs</title>
<rect y="248" rx="5" height="22" width="5.529119250382693" fill="hsl(27, 100%, 80%)" stroke="hsl(27, 100%, 55%)" />
<g stroke="hsl(27, 100%, 40%)"><line x1="5.363921062208467" x2="5.694317438556919" y1="259" y2="259" />
<line x1="5.363921062208467" x2="5.363921062208467" y1="253" y2="265" />
<line x1="5.694317438556919" x2="5.694317438556919" y1="253" y2="265" />
</g>
</g>
<text fill="hsl(34, 100%, 40%)" y="297">countdown.10000.effectful.deep 234  μs</text>
<g>
<title>234  μs ±  22 μs</title>
<rect y="303" rx="5" height="22" width="5.385945997620359" fill="hsl(34, 100%, 80%)" stroke="hsl(34, 100%, 55%)" />
<g stroke="hsl(34, 100%, 40%)"><line x1="4.889324708276347" x2="5.882567286964371" y1="314" y2="314" />
<line x1="4.889324708276347" x2="4.889324708276347" y1="308" y2="320" />
<line x1="5.882567286964371" x2="5.882567286964371" y1="308" y2="320" />
</g>
</g>
<text fill="hsl(41, 100%, 40%)" y="352">countdown.10000.ev.shallow 318  μs</text>
<g>
<title>318  μs ±  26 μs</title>
<rect y="358" rx="5" height="22" width="7.3315670274586555" fill="hsl(41, 100%, 80%)" stroke="hsl(41, 100%, 55%)" />
<g stroke="hsl(41, 100%, 40%)"><line x1="6.739625624032933" x2="7.923508430884378" y1="369" y2="369" />
<line x1="6.739625624032933" x2="6.739625624032933" y1="363" y2="375" />
<line x1="7.923508430884378" x2="7.923508430884378" y1="363" y2="375" />
</g>
</g>
<text fill="hsl(48, 100%, 40%)" y="407">countdown.10000.ev.deep 300  μs</text>
<g>
<title>300  μs ±  15 μs</title>
<rect y="413" rx="5" height="22" width="6.906695064544704" fill="hsl(48, 100%, 80%)" stroke="hsl(48, 100%, 55%)" />
<g stroke="hsl(48, 100%, 40%)"><line x1="6.561219042108408" x2="7.252171086981" y1="424" y2="424" />
<line x1="6.561219042108408" x2="6.561219042108408" y1="418" y2="430" />
<line x1="7.252171086981" x2="7.252171086981" y1="418" y2="430" />
</g>
</g>
<text fill="hsl(55, 100%, 40%)" y="462">countdown.10000.freer.shallow 480  μs</text>
<g>
<title>480  μs ±  42 μs</title>
<rect y="468" rx="5" height="22" width="11.064171316367272" fill="hsl(55, 100%, 80%)" stroke="hsl(55, 100%, 55%)" />
<g stroke="hsl(55, 100%, 40%)"><line x1="10.091805767806772" x2="12.036536864927772" y1="479" y2="479" />
<line x1="10.091805767806772" x2="10.091805767806772" y1="473" y2="485" />
<line x1="12.036536864927772" x2="12.036536864927772" y1="473" y2="485" />
</g>
</g>
<text fill="hsl(62, 100%, 40%)" y="517">countdown.10000.freer.deep 1.44 ms</text>
<g>
<title>1.44 ms ±  84 μs</title>
<rect y="523" rx="5" height="22" width="33.28994085067796" fill="hsl(62, 100%, 80%)" stroke="hsl(62, 100%, 55%)" />
<g stroke="hsl(62, 100%, 40%)"><line x1="31.343570600431676" x2="35.23631110092424" y1="534" y2="534" />
<line x1="31.343570600431676" x2="31.343570600431676" y1="528" y2="540" />
<line x1="35.23631110092424" x2="35.23631110092424" y1="528" y2="540" />
</g>
</g>
<text fill="hsl(69, 100%, 40%)" y="572">countdown.10000.mtl.shallow 1.33 ms</text>
<g>
<title>1.33 ms ±  74 μs</title>
<rect y="578" rx="5" height="22" width="30.704246898038786" fill="hsl(69, 100%, 80%)" stroke="hsl(69, 100%, 55%)" />
<g stroke="hsl(69, 100%, 40%)"><line x1="29.0030196282428" x2="32.405474167834775" y1="589" y2="589" />
<line x1="29.0030196282428" x2="29.0030196282428" y1="583" y2="595" />
<line x1="32.405474167834775" x2="32.405474167834775" y1="583" y2="595" />
</g>
</g>
<text fill="hsl(76, 100%, 40%)" y="627">countdown.10000.mtl.deep 10.5 ms</text>
<g>
<title>10.5 ms ± 726 μs</title>
<rect y="633" rx="5" height="22" width="242.5372914906561" fill="hsl(76, 100%, 80%)" stroke="hsl(76, 100%, 55%)" />
<g stroke="hsl(76, 100%, 40%)"><line x1="225.80259123313644" x2="259.2719917481757" y1="644" y2="644" />
<line x1="225.80259123313644" x2="225.80259123313644" y1="638" y2="650" />
<line x1="259.2719917481757" x2="259.2719917481757" y1="638" y2="650" />
</g>
</g>
<text fill="hsl(83, 100%, 40%)" y="682">countdown.10000.fused.shallow 2.27 ms</text>
<g>
<title>2.27 ms ±  93 μs</title>
<rect y="688" rx="5" height="22" width="52.409408928894905" fill="hsl(83, 100%, 80%)" stroke="hsl(83, 100%, 55%)" />
<g stroke="hsl(83, 100%, 40%)"><line x1="50.26677978168596" x2="54.55203807610385" y1="699" y2="699" />
<line x1="50.26677978168596" x2="50.26677978168596" y1="693" y2="705" />
<line x1="54.55203807610385" x2="54.55203807610385" y1="693" y2="705" />
</g>
</g>
<g fill="hsl(90, 100%, 40%)">
<text y="737">countdown.10000.fused.deep</text>
<text y="737" x="415.70267426378086" text-anchor="end">18.0 ms</text>
</g>
<g>
<title>18.0 ms ± 1.3 ms</title>
<rect y="743" rx="5" height="22" width="415.70267426378086" fill="hsl(90, 100%, 80%)" stroke="hsl(90, 100%, 55%)" />
<g stroke="hsl(90, 100%, 40%)"><line x1="384.71724619186676" x2="446.68810233569496" y1="754" y2="754" />
<line x1="384.71724619186676" x2="384.71724619186676" y1="748" y2="760" />
<line x1="446.68810233569496" x2="446.68810233569496" y1="748" y2="760" />
</g>
</g>
<text fill="hsl(96, 100%, 40%)" y="792">countdown.10000.sem.shallow 3.24 ms</text>
<g>
<title>3.24 ms ± 322 μs</title>
<rect y="798" rx="5" height="22" width="74.73381241904568" fill="hsl(96, 100%, 80%)" stroke="hsl(96, 100%, 55%)" />
<g stroke="hsl(96, 100%, 40%)"><line x1="67.31053481804152" x2="82.15709002004984" y1="809" y2="809" />
<line x1="67.31053481804152" x2="67.31053481804152" y1="803" y2="815" />
<line x1="82.15709002004984" x2="82.15709002004984" y1="803" y2="815" />
</g>
</g>
<text fill="hsl(103, 100%, 40%)" y="847">countdown.10000.sem.deep 5.08 ms</text>
<g>
<title>5.08 ms ± 209 μs</title>
<rect y="853" rx="5" height="22" width="117.17199461449833" fill="hsl(103, 100%, 80%)" stroke="hsl(103, 100%, 55%)" />
<g stroke="hsl(103, 100%, 40%)"><line x1="112.34790364394611" x2="121.99608558505055" y1="864" y2="864" />
<line x1="112.34790364394611" x2="112.34790364394611" y1="858" y2="870" />
<line x1="121.99608558505055" x2="121.99608558505055" y1="858" y2="870" />
</g>
</g>
<text fill="hsl(110, 100%, 40%)" y="902">pyth.32.sp_modified_for_non_scoped_resumption_support.shallow 4.11 ms</text>
<g>
<title>4.11 ms ± 175 μs</title>
<rect y="908" rx="5" height="22" width="94.87799563689317" fill="hsl(110, 100%, 80%)" stroke="hsl(110, 100%, 55%)" />
<g stroke="hsl(110, 100%, 40%)"><line x1="90.83654127304405" x2="98.9194500007423" y1="919" y2="919" />
<line x1="90.83654127304405" x2="90.83654127304405" y1="913" y2="925" />
<line x1="98.9194500007423" x2="98.9194500007423" y1="913" y2="925" />
</g>
</g>
<text fill="hsl(117, 100%, 40%)" y="957">pyth.32.sp_modified_for_non_scoped_resumption_support.deep 11.4 ms</text>
<g>
<title>11.4 ms ± 811 μs</title>
<rect y="963" rx="5" height="22" width="261.9322084571763" fill="hsl(117, 100%, 80%)" stroke="hsl(117, 100%, 55%)" />
<g stroke="hsl(117, 100%, 40%)"><line x1="243.23529944382156" x2="280.629117470531" y1="974" y2="974" />
<line x1="243.23529944382156" x2="243.23529944382156" y1="968" y2="980" />
<line x1="280.629117470531" x2="280.629117470531" y1="968" y2="980" />
</g>
</g>
<text fill="hsl(124, 100%, 40%)" y="1012">pyth.32.ev.shallow 1.45 ms</text>
<g>
<title>1.45 ms ± 132 μs</title>
<rect y="1018" rx="5" height="22" width="33.33089027727047" fill="hsl(124, 100%, 80%)" stroke="hsl(124, 100%, 55%)" />
<g stroke="hsl(124, 100%, 40%)"><line x1="30.28661852901022" x2="36.37516202553072" y1="1029" y2="1029" />
<line x1="30.28661852901022" x2="30.28661852901022" y1="1023" y2="1035" />
<line x1="36.37516202553072" x2="36.37516202553072" y1="1023" y2="1035" />
</g>
</g>
<text fill="hsl(131, 100%, 40%)" y="1067">pyth.32.ev.deep 2.83 ms</text>
<g>
<title>2.83 ms ± 223 μs</title>
<rect y="1073" rx="5" height="22" width="65.1743033766599" fill="hsl(131, 100%, 80%)" stroke="hsl(131, 100%, 55%)" />
<g stroke="hsl(131, 100%, 40%)"><line x1="60.03316723428166" x2="70.31543951903815" y1="1084" y2="1084" />
<line x1="60.03316723428166" x2="60.03316723428166" y1="1078" y2="1090" />
<line x1="70.31543951903815" x2="70.31543951903815" y1="1078" y2="1090" />
</g>
</g>
<text fill="hsl(138, 100%, 40%)" y="1122">pyth.32.freer.shallow 7.50 ms</text>
<g>
<title>7.50 ms ± 472 μs</title>
<rect y="1128" rx="5" height="22" width="172.9117382740967" fill="hsl(138, 100%, 80%)" stroke="hsl(138, 100%, 55%)" />
<g stroke="hsl(138, 100%, 40%)"><line x1="162.03617294525603" x2="183.78730360293738" y1="1139" y2="1139" />
<line x1="162.03617294525603" x2="162.03617294525603" y1="1133" y2="1145" />
<line x1="183.78730360293738" x2="183.78730360293738" y1="1133" y2="1145" />
</g>
</g>
<g fill="hsl(145, 100%, 40%)">
<text y="1177">pyth.32.freer.deep</text>
<text y="1177" x="261.40327130155515" text-anchor="end">11.3 ms</text>
</g>
<g>
<title>11.3 ms ± 950 μs</title>
<rect y="1183" rx="5" height="22" width="261.40327130155515" fill="hsl(145, 100%, 80%)" stroke="hsl(145, 100%, 55%)" />
<g stroke="hsl(145, 100%, 40%)"><line x1="239.4923186713326" x2="283.3142239317777" y1="1194" y2="1194" />
<line x1="239.4923186713326" x2="239.4923186713326" y1="1188" y2="1200" />
<line x1="283.3142239317777" x2="283.3142239317777" y1="1188" y2="1200" />
</g>
</g>
<text fill="hsl(152, 100%, 40%)" y="1232">pyth.32.fused.shallow 1.82 ms</text>
<g>
<title>1.82 ms ± 163 μs</title>
<rect y="1238" rx="5" height="22" width="41.92352314230102" fill="hsl(152, 100%, 80%)" stroke="hsl(152, 100%, 55%)" />
<g stroke="hsl(152, 100%, 40%)"><line x1="38.157993441315234" x2="45.68905284328681" y1="1249" y2="1249" />
<line x1="38.157993441315234" x2="38.157993441315234" y1="1243" y2="1255" />
<line x1="45.68905284328681" x2="45.68905284328681" y1="1243" y2="1255" />
</g>
</g>
<g fill="hsl(159, 100%, 40%)">
<text y="1287">pyth.32.fused.deep</text>
<text y="1287" x="313.77416407527124" text-anchor="end">13.6 ms</text>
</g>
<g>
<title>13.6 ms ± 677 μs</title>
<rect y="1293" rx="5" height="22" width="313.77416407527124" fill="hsl(159, 100%, 80%)" stroke="hsl(159, 100%, 55%)" />
<g stroke="hsl(159, 100%, 40%)"><line x1="298.16709186339904" x2="329.38123628714345" y1="1304" y2="1304" />
<line x1="298.16709186339904" x2="298.16709186339904" y1="1298" y2="1310" />
<line x1="329.38123628714345" x2="329.38123628714345" y1="1298" y2="1310" />
</g>
</g>
<g fill="hsl(166, 100%, 40%)">
<text y="1342">pyth.32.sem.shallow</text>
<text y="1342" x="383.7648933373509" text-anchor="end">16.6 ms</text>
</g>
<g>
<title>16.6 ms ± 987 μs</title>
<rect y="1348" rx="5" height="22" width="383.7648933373509" fill="hsl(166, 100%, 80%)" stroke="hsl(166, 100%, 55%)" />
<g stroke="hsl(166, 100%, 40%)"><line x1="361.01280366116" x2="406.5169830135418" y1="1359" y2="1359" />
<line x1="361.01280366116" x2="361.01280366116" y1="1353" y2="1365" />
<line x1="406.5169830135418" x2="406.5169830135418" y1="1353" y2="1365" />
</g>
</g>
<g fill="hsl(173, 100%, 40%)">
<text y="1397">pyth.32.sem.deep</text>
<text y="1397" x="380.4896529179102" text-anchor="end">16.5 ms</text>
</g>
<g>
<title>16.5 ms ± 1.4 ms</title>
<rect y="1403" rx="5" height="22" width="380.4896529179102" fill="hsl(173, 100%, 80%)" stroke="hsl(173, 100%, 55%)" />
<g stroke="hsl(173, 100%, 40%)"><line x1="347.1047757643069" x2="413.87453007151345" y1="1414" y2="1414" />
<line x1="347.1047757643069" x2="347.1047757643069" y1="1408" y2="1420" />
<line x1="413.87453007151345" x2="413.87453007151345" y1="1408" y2="1420" />
</g>
</g>
<text fill="hsl(180, 100%, 40%)" y="1452">catch.10000.sp_modified_for_non_scoped_resumption_support.shallow 6.38 ms</text>
<g>
<title>6.38 ms ± 529 μs</title>
<rect y="1458" rx="5" height="22" width="147.0975460034963" fill="hsl(180, 100%, 80%)" stroke="hsl(180, 100%, 55%)" />
<g stroke="hsl(180, 100%, 40%)"><line x1="134.88871364934573" x2="159.30637835764685" y1="1469" y2="1469" />
<line x1="134.88871364934573" x2="134.88871364934573" y1="1463" y2="1475" />
<line x1="159.30637835764685" x2="159.30637835764685" y1="1463" y2="1475" />
</g>
</g>
<text fill="hsl(186, 100%, 40%)" y="1507">catch.10000.sp_modified_for_non_scoped_resumption_support.deep0 7.19 ms</text>
<g>
<title>7.19 ms ± 568 μs</title>
<rect y="1513" rx="5" height="22" width="165.82487507185752" fill="hsl(186, 100%, 80%)" stroke="hsl(186, 100%, 55%)" />
<g stroke="hsl(186, 100%, 40%)"><line x1="152.72051360760062" x2="178.92923653611442" y1="1524" y2="1524" />
<line x1="152.72051360760062" x2="152.72051360760062" y1="1518" y2="1530" />
<line x1="178.92923653611442" x2="178.92923653611442" y1="1518" y2="1530" />
</g>
</g>
<text fill="hsl(193, 100%, 40%)" y="1562">catch.10000.sp_modified_for_non_scoped_resumption_support.deep1 12.0 ms</text>
<g>
<title>12.0 ms ± 587 μs</title>
<rect y="1568" rx="5" height="22" width="275.87449230683666" fill="hsl(193, 100%, 80%)" stroke="hsl(193, 100%, 55%)" />
<g stroke="hsl(193, 100%, 40%)"><line x1="262.33214281827975" x2="289.41684179539357" y1="1579" y2="1579" />
<line x1="262.33214281827975" x2="262.33214281827975" y1="1573" y2="1585" />
<line x1="289.41684179539357" x2="289.41684179539357" y1="1573" y2="1585" />
</g>
</g>
<text fill="hsl(200, 100%, 40%)" y="1617">catch.10000.sp_modified_for_non_scoped_resumption_support.deep2 17.8 ms</text>
<g>
<title>17.8 ms ± 1.5 ms</title>
<rect y="1623" rx="5" height="22" width="411.14231157486324" fill="hsl(200, 100%, 80%)" stroke="hsl(200, 100%, 55%)" />
<g stroke="hsl(200, 100%, 40%)"><line x1="376.7918120869716" x2="445.49281106275487" y1="1634" y2="1634" />
<line x1="376.7918120869716" x2="376.7918120869716" y1="1628" y2="1640" />
<line x1="445.49281106275487" x2="445.49281106275487" y1="1628" y2="1640" />
</g>
</g>
<text fill="hsl(207, 100%, 40%)" y="1672">catch.10000.sp_modified_for_non_scoped_resumption_support.deep3 24.1 ms</text>
<g>
<title>24.1 ms ± 1.2 ms</title>
<rect y="1678" rx="5" height="22" width="556.3564260854297" fill="hsl(207, 100%, 80%)" stroke="hsl(207, 100%, 55%)" />
<g stroke="hsl(207, 100%, 40%)"><line x1="528.8001400653724" x2="583.912712105487" y1="1689" y2="1689" />
<line x1="528.8001400653724" x2="528.8001400653724" y1="1683" y2="1695" />
<line x1="583.912712105487" x2="583.912712105487" y1="1683" y2="1695" />
</g>
</g>
<g fill="hsl(214, 100%, 40%)">
<text y="1727">catch.10000.sp_modified_for_non_scoped_resumption_support.deep4</text>
<text y="1727" x="678.9648607862821" text-anchor="end">29.4 ms</text>
</g>
<g>
<title>29.4 ms ± 2.9 ms</title>
<rect y="1733" rx="5" height="22" width="678.9648607862821" fill="hsl(214, 100%, 80%)" stroke="hsl(214, 100%, 55%)" />
<g stroke="hsl(214, 100%, 40%)"><line x1="612.6067711551207" x2="745.3229504174435" y1="1744" y2="1744" />
<line x1="612.6067711551207" x2="612.6067711551207" y1="1738" y2="1750" />
<line x1="745.3229504174435" x2="745.3229504174435" y1="1738" y2="1750" />
</g>
</g>
<g fill="hsl(221, 100%, 40%)">
<text y="1782">catch.10000.sp_modified_for_non_scoped_resumption_support.deep5</text>
<text y="1782" x="856.7966057164341" text-anchor="end">37.2 ms</text>
</g>
<g>
<title>37.2 ms ± 3.6 ms</title>
<rect y="1788" rx="5" height="22" width="856.7966057164341" fill="hsl(221, 100%, 80%)" stroke="hsl(221, 100%, 55%)" />
<g stroke="hsl(221, 100%, 40%)"><line x1="773.5932114328682" x2="940.0" y1="1799" y2="1799" />
<line x1="773.5932114328682" x2="773.5932114328682" y1="1793" y2="1805" />
<line x1="940.0" x2="940.0" y1="1793" y2="1805" />
</g>
</g>
<text fill="hsl(228, 100%, 40%)" y="1837">catch.10000.effectful.shallow 1.38 ms</text>
<g>
<title>1.38 ms ±  74 μs</title>
<rect y="1843" rx="5" height="22" width="31.718849914284704" fill="hsl(228, 100%, 80%)" stroke="hsl(228, 100%, 55%)" />
<g stroke="hsl(228, 100%, 40%)"><line x1="30.010012188569767" x2="33.42768763999964" y1="1854" y2="1854" />
<line x1="30.010012188569767" x2="30.010012188569767" y1="1848" y2="1860" />
<line x1="33.42768763999964" x2="33.42768763999964" y1="1848" y2="1860" />
</g>
</g>
<text fill="hsl(235, 100%, 40%)" y="1892">catch.10000.effectful.deep 1.38 ms</text>
<g>
<title>1.38 ms ± 113 μs</title>
<rect y="1898" rx="5" height="22" width="31.85323132267867" fill="hsl(235, 100%, 80%)" stroke="hsl(235, 100%, 55%)" />
<g stroke="hsl(235, 100%, 40%)"><line x1="29.251015342071106" x2="34.455447303286235" y1="1909" y2="1909" />
<line x1="29.251015342071106" x2="29.251015342071106" y1="1903" y2="1915" />
<line x1="34.455447303286235" x2="34.455447303286235" y1="1903" y2="1915" />
</g>
</g>
<text fill="hsl(242, 100%, 40%)" y="1947">catch.10000.fused.shallow 5.35 ms</text>
<g>
<title>5.35 ms ± 473 μs</title>
<rect y="1953" rx="5" height="22" width="123.30865600191565" fill="hsl(242, 100%, 80%)" stroke="hsl(242, 100%, 55%)" />
<g stroke="hsl(242, 100%, 40%)"><line x1="112.40918443115201" x2="134.2081275726793" y1="1964" y2="1964" />
<line x1="112.40918443115201" x2="112.40918443115201" y1="1958" y2="1970" />
<line x1="134.2081275726793" x2="134.2081275726793" y1="1958" y2="1970" />
</g>
</g>
<g fill="hsl(249, 100%, 40%)">
<text y="2002">catch.10000.fused.deep</text>
<text y="2002" x="638.9533940376822" text-anchor="end">27.7 ms</text>
</g>
<g>
<title>27.7 ms ± 2.2 ms</title>
<rect y="2008" rx="5" height="22" width="638.9533940376822" fill="hsl(249, 100%, 80%)" stroke="hsl(249, 100%, 55%)" />
<g stroke="hsl(249, 100%, 40%)"><line x1="588.4115761129656" x2="689.4952119623988" y1="2019" y2="2019" />
<line x1="588.4115761129656" x2="588.4115761129656" y1="2013" y2="2025" />
<line x1="689.4952119623988" x2="689.4952119623988" y1="2013" y2="2025" />
</g>
</g>
<text fill="hsl(256, 100%, 40%)" y="2057">catch.10000.sem.shallow 3.26 ms</text>
<g>
<title>3.26 ms ± 147 μs</title>
<rect y="2063" rx="5" height="22" width="75.23897698868363" fill="hsl(256, 100%, 80%)" stroke="hsl(256, 100%, 55%)" />
<g stroke="hsl(256, 100%, 40%)"><line x1="71.85493011885696" x2="78.62302385851031" y1="2074" y2="2074" />
<line x1="71.85493011885696" x2="71.85493011885696" y1="2068" y2="2080" />
<line x1="78.62302385851031" x2="78.62302385851031" y1="2068" y2="2080" />
</g>
</g>
<g fill="hsl(263, 100%, 40%)">
<text y="2112">catch.10000.sem.deep</text>
<text y="2112" x="308.78429966101083" text-anchor="end">13.4 ms</text>
</g>
<g>
<title>13.4 ms ± 768 μs</title>
<rect y="2118" rx="5" height="22" width="308.78429966101083" fill="hsl(263, 100%, 80%)" stroke="hsl(263, 100%, 55%)" />
<g stroke="hsl(263, 100%, 40%)"><line x1="291.07683288711127" x2="326.4917664349104" y1="2129" y2="2129" />
<line x1="291.07683288711127" x2="291.07683288711127" y1="2123" y2="2135" />
<line x1="326.4917664349104" x2="326.4917664349104" y1="2123" y2="2135" />
</g>
</g>
<text fill="hsl(270, 100%, 40%)" y="2167">local.10000.sp_modified_for_non_scoped_resumption_support.shallow 6.19 ms</text>
<g>
<title>6.19 ms ± 370 μs</title>
<rect y="2173" rx="5" height="22" width="142.62803003630194" fill="hsl(270, 100%, 80%)" stroke="hsl(270, 100%, 55%)" />
<g stroke="hsl(270, 100%, 40%)"><line x1="134.08814357935532" x2="151.16791649324855" y1="2184" y2="2184" />
<line x1="134.08814357935532" x2="134.08814357935532" y1="2178" y2="2190" />
<line x1="151.16791649324855" x2="151.16791649324855" y1="2178" y2="2190" />
</g>
</g>
<text fill="hsl(276, 100%, 40%)" y="2222">local.10000.sp_modified_for_non_scoped_resumption_support.deep0 6.84 ms</text>
<g>
<title>6.84 ms ± 301 μs</title>
<rect y="2228" rx="5" height="22" width="157.75178332220685" fill="hsl(276, 100%, 80%)" stroke="hsl(276, 100%, 55%)" />
<g stroke="hsl(276, 100%, 40%)"><line x1="150.81713717099734" x2="164.68642947341635" y1="2239" y2="2239" />
<line x1="150.81713717099734" x2="150.81713717099734" y1="2233" y2="2245" />
<line x1="164.68642947341635" x2="164.68642947341635" y1="2233" y2="2245" />
</g>
</g>
<text fill="hsl(283, 100%, 40%)" y="2277">local.10000.sp_modified_for_non_scoped_resumption_support.deep1 11.2 ms</text>
<g>
<title>11.2 ms ± 846 μs</title>
<rect y="2283" rx="5" height="22" width="258.91015334236585" fill="hsl(283, 100%, 80%)" stroke="hsl(283, 100%, 55%)" />
<g stroke="hsl(283, 100%, 40%)"><line x1="239.39763916491282" x2="278.4226675198189" y1="2294" y2="2294" />
<line x1="239.39763916491282" x2="239.39763916491282" y1="2288" y2="2300" />
<line x1="278.4226675198189" x2="278.4226675198189" y1="2288" y2="2300" />
</g>
</g>
<text fill="hsl(290, 100%, 40%)" y="2332">local.10000.sp_modified_for_non_scoped_resumption_support.deep2 17.5 ms</text>
<g>
<title>17.5 ms ± 1.1 ms</title>
<rect y="2338" rx="5" height="22" width="403.5198137077122" fill="hsl(290, 100%, 80%)" stroke="hsl(290, 100%, 55%)" />
<g stroke="hsl(290, 100%, 40%)"><line x1="378.7618201603797" x2="428.2778072550447" y1="2349" y2="2349" />
<line x1="378.7618201603797" x2="378.7618201603797" y1="2343" y2="2355" />
<line x1="428.2778072550447" x2="428.2778072550447" y1="2343" y2="2355" />
</g>
</g>
<text fill="hsl(297, 100%, 40%)" y="2387">local.10000.sp_modified_for_non_scoped_resumption_support.deep3 22.5 ms</text>
<g>
<title>22.5 ms ± 959 μs</title>
<rect y="2393" rx="5" height="22" width="517.9092768964304" fill="hsl(297, 100%, 80%)" stroke="hsl(297, 100%, 55%)" />
<g stroke="hsl(297, 100%, 40%)"><line x1="495.8060531865303" x2="540.0125006063304" y1="2404" y2="2404" />
<line x1="495.8060531865303" x2="495.8060531865303" y1="2398" y2="2410" />
<line x1="540.0125006063304" x2="540.0125006063304" y1="2398" y2="2410" />
</g>
</g>
<g fill="hsl(304, 100%, 40%)">
<text y="2442">local.10000.sp_modified_for_non_scoped_resumption_support.deep4</text>
<text y="2442" x="710.5689036842078" text-anchor="end">30.8 ms</text>
</g>
<g>
<title>30.8 ms ± 2.0 ms</title>
<rect y="2448" rx="5" height="22" width="710.5689036842078" fill="hsl(304, 100%, 80%)" stroke="hsl(304, 100%, 55%)" />
<g stroke="hsl(304, 100%, 40%)"><line x1="664.2665966880816" x2="756.8712106803341" y1="2459" y2="2459" />
<line x1="664.2665966880816" x2="664.2665966880816" y1="2453" y2="2465" />
<line x1="756.8712106803341" x2="756.8712106803341" y1="2453" y2="2465" />
</g>
</g>
<g fill="hsl(311, 100%, 40%)">
<text y="2497">local.10000.sp_modified_for_non_scoped_resumption_support.deep5</text>
<text y="2497" x="808.9637212375605" text-anchor="end">35.1 ms</text>
</g>
<g>
<title>35.1 ms ± 1.7 ms</title>
<rect y="2503" rx="5" height="22" width="808.9637212375605" fill="hsl(311, 100%, 80%)" stroke="hsl(311, 100%, 55%)" />
<g stroke="hsl(311, 100%, 40%)"><line x1="769.8103350772045" x2="848.1171073979166" y1="2514" y2="2514" />
<line x1="769.8103350772045" x2="769.8103350772045" y1="2508" y2="2520" />
<line x1="848.1171073979166" x2="848.1171073979166" y1="2508" y2="2520" />
</g>
</g>
<text fill="hsl(318, 100%, 40%)" y="2552">local.10000.effectful.shallow 749  μs</text>
<g>
<title>749  μs ±  56 μs</title>
<rect y="2558" rx="5" height="22" width="17.279500039522" fill="hsl(318, 100%, 80%)" stroke="hsl(318, 100%, 55%)" />
<g stroke="hsl(318, 100%, 40%)"><line x1="15.98289163777187" x2="18.576108441272126" y1="2569" y2="2569" />
<line x1="15.98289163777187" x2="15.98289163777187" y1="2563" y2="2575" />
<line x1="18.576108441272126" x2="18.576108441272126" y1="2563" y2="2575" />
</g>
</g>
<text fill="hsl(325, 100%, 40%)" y="2607">local.10000.effectful.deep 741  μs</text>
<g>
<title>741  μs ±  43 μs</title>
<rect y="2613" rx="5" height="22" width="17.096070244919346" fill="hsl(325, 100%, 80%)" stroke="hsl(325, 100%, 55%)" />
<g stroke="hsl(325, 100%, 40%)"><line x1="16.113249139932158" x2="18.078891349906534" y1="2624" y2="2624" />
<line x1="16.113249139932158" x2="16.113249139932158" y1="2618" y2="2630" />
<line x1="18.078891349906534" x2="18.078891349906534" y1="2618" y2="2630" />
</g>
</g>
<text fill="hsl(332, 100%, 40%)" y="2662">local.10000.fused.shallow 1.85 ms</text>
<g>
<title>1.85 ms ± 150 μs</title>
<rect y="2668" rx="5" height="22" width="42.64339714726462" fill="hsl(332, 100%, 80%)" stroke="hsl(332, 100%, 55%)" />
<g stroke="hsl(332, 100%, 40%)"><line x1="39.18327818677213" x2="46.103516107757116" y1="2679" y2="2679" />
<line x1="39.18327818677213" x2="39.18327818677213" y1="2673" y2="2685" />
<line x1="46.103516107757116" x2="46.103516107757116" y1="2673" y2="2685" />
</g>
</g>
<text fill="hsl(339, 100%, 40%)" y="2717">local.10000.fused.deep 7.67 ms</text>
<g>
<title>7.67 ms ± 508 μs</title>
<rect y="2723" rx="5" height="22" width="176.93427561821525" fill="hsl(339, 100%, 80%)" stroke="hsl(339, 100%, 55%)" />
<g stroke="hsl(339, 100%, 40%)"><line x1="165.21406696568891" x2="188.6544842707416" y1="2734" y2="2734" />
<line x1="165.21406696568891" x2="165.21406696568891" y1="2728" y2="2740" />
<line x1="188.6544842707416" x2="188.6544842707416" y1="2728" y2="2740" />
</g>
</g>
<text fill="hsl(346, 100%, 40%)" y="2772">local.10000.sem.shallow 4.50 ms</text>
<g>
<title>4.50 ms ± 314 μs</title>
<rect y="2778" rx="5" height="22" width="103.8597802923005" fill="hsl(346, 100%, 80%)" stroke="hsl(346, 100%, 55%)" />
<g stroke="hsl(346, 100%, 40%)"><line x1="96.62000602433793" x2="111.09955456026307" y1="2789" y2="2789" />
<line x1="96.62000602433793" x2="96.62000602433793" y1="2783" y2="2795" />
<line x1="111.09955456026307" x2="111.09955456026307" y1="2783" y2="2795" />
</g>
</g>
<text fill="hsl(353, 100%, 40%)" y="2827">local.10000.sem.deep 9.26 ms</text>
<g>
<title>9.26 ms ± 627 μs</title>
<rect y="2833" rx="5" height="22" width="213.57193703326723" fill="hsl(353, 100%, 80%)" stroke="hsl(353, 100%, 55%)" />
<g stroke="hsl(353, 100%, 40%)"><line x1="199.11042157996343" x2="228.03345248657104" y1="2844" y2="2844" />
<line x1="199.11042157996343" x2="199.11042157996343" y1="2838" y2="2850" />
<line x1="228.03345248657104" x2="228.03345248657104" y1="2838" y2="2850" />
</g>
</g>
</g>
</svg>
