<svg xmlns="http://www.w3.org/2000/svg" height="2647" width="960.0" font-size="16" font-family="sans-serif" stroke-width="2">
<g transform="translate(10.0 0)">
<text fill="hsl(0, 100%, 40%)" y="22">countdown.10000.sp_modified_for_non_scoped_resumption_support.shallow 154  μs</text>
<g>
<title>154  μs ±  13 μs</title>
<rect y="28" rx="5" height="22" width="0.1731469069739362" fill="hsl(0, 100%, 80%)" stroke="hsl(0, 100%, 55%)" />
<g stroke="hsl(0, 100%, 40%)"><line x1="0.15873622625206732" x2="0.18755758769580508" y1="39" y2="39" />
<line x1="0.15873622625206732" x2="0.15873622625206732" y1="33" y2="45" />
<line x1="0.18755758769580508" x2="0.18755758769580508" y1="33" y2="45" />
</g>
</g>
<text fill="hsl(7, 100%, 40%)" y="77">countdown.10000.sp_modified_for_non_scoped_resumption_support.deep 156  μs</text>
<g>
<title>156  μs ±  13 μs</title>
<rect y="83" rx="5" height="22" width="0.17543107347382467" fill="hsl(7, 100%, 80%)" stroke="hsl(7, 100%, 55%)" />
<g stroke="hsl(7, 100%, 40%)"><line x1="0.1612307443039703" x2="0.18963140264367903" y1="94" y2="94" />
<line x1="0.1612307443039703" x2="0.1612307443039703" y1="88" y2="100" />
<line x1="0.18963140264367903" x2="0.18963140264367903" y1="88" y2="100" />
</g>
</g>
<text fill="hsl(15, 100%, 40%)" y="132">countdown.10000.effectful.shallow 227  μs</text>
<g>
<title>227  μs ±  14 μs</title>
<rect y="138" rx="5" height="22" width="0.2557464094738179" fill="hsl(15, 100%, 80%)" stroke="hsl(15, 100%, 55%)" />
<g stroke="hsl(15, 100%, 40%)"><line x1="0.24021184891505648" x2="0.2712809700325793" y1="149" y2="149" />
<line x1="0.24021184891505648" x2="0.24021184891505648" y1="143" y2="155" />
<line x1="0.2712809700325793" x2="0.2712809700325793" y1="143" y2="155" />
</g>
</g>
<text fill="hsl(22, 100%, 40%)" y="187">countdown.10000.effectful.deep 234  μs</text>
<g>
<title>234  μs ±  13 μs</title>
<rect y="193" rx="5" height="22" width="0.2630145705605232" fill="hsl(22, 100%, 80%)" stroke="hsl(22, 100%, 55%)" />
<g stroke="hsl(22, 100%, 40%)"><line x1="0.248652651535145" x2="0.2773764895859014" y1="204" y2="204" />
<line x1="0.248652651535145" x2="0.248652651535145" y1="198" y2="210" />
<line x1="0.2773764895859014" x2="0.2773764895859014" y1="198" y2="210" />
</g>
</g>
<text fill="hsl(30, 100%, 40%)" y="242">countdown.10000.ev.shallow 300  μs</text>
<g>
<title>300  μs ±  23 μs</title>
<rect y="248" rx="5" height="22" width="0.3374622610971444" fill="hsl(30, 100%, 80%)" stroke="hsl(30, 100%, 55%)" />
<g stroke="hsl(30, 100%, 40%)"><line x1="0.3109996830826912" x2="0.36392483911159756" y1="259" y2="259" />
<line x1="0.3109996830826912" x2="0.3109996830826912" y1="253" y2="265" />
<line x1="0.36392483911159756" x2="0.36392483911159756" y1="253" y2="265" />
</g>
</g>
<text fill="hsl(37, 100%, 40%)" y="297">countdown.10000.ev.deep 273  μs</text>
<g>
<title>273  μs ±  23 μs</title>
<rect y="303" rx="5" height="22" width="0.30712413741615596" fill="hsl(37, 100%, 80%)" stroke="hsl(37, 100%, 55%)" />
<g stroke="hsl(37, 100%, 40%)"><line x1="0.2814209947785725" x2="0.3328272800537394" y1="314" y2="314" />
<line x1="0.2814209947785725" x2="0.2814209947785725" y1="308" y2="320" />
<line x1="0.3328272800537394" x2="0.3328272800537394" y1="308" y2="320" />
</g>
</g>
<text fill="hsl(45, 100%, 40%)" y="352">countdown.10000.freer.shallow 473  μs</text>
<g>
<title>473  μs ±  22 μs</title>
<rect y="358" rx="5" height="22" width="0.5327652599718251" fill="hsl(45, 100%, 80%)" stroke="hsl(45, 100%, 55%)" />
<g stroke="hsl(45, 100%, 40%)"><line x1="0.5083745607194318" x2="0.5571559592242185" y1="369" y2="369" />
<line x1="0.5083745607194318" x2="0.5083745607194318" y1="363" y2="375" />
<line x1="0.5571559592242185" x2="0.5571559592242185" y1="363" y2="375" />
</g>
</g>
<text fill="hsl(52, 100%, 40%)" y="407">countdown.10000.freer.deep 1.40 ms</text>
<g>
<title>1.40 ms ±  85 μs</title>
<rect y="413" rx="5" height="22" width="1.579017840054124" fill="hsl(52, 100%, 80%)" stroke="hsl(52, 100%, 55%)" />
<g stroke="hsl(52, 100%, 40%)"><line x1="1.4833975318813106" x2="1.6746381482269372" y1="424" y2="424" />
<line x1="1.4833975318813106" x2="1.4833975318813106" y1="418" y2="430" />
<line x1="1.6746381482269372" x2="1.6746381482269372" y1="418" y2="430" />
</g>
</g>
<text fill="hsl(60, 100%, 40%)" y="462">countdown.10000.mtl.shallow 1.29 ms</text>
<g>
<title>1.29 ms ±  93 μs</title>
<rect y="468" rx="5" height="22" width="1.4482115019082273" fill="hsl(60, 100%, 80%)" stroke="hsl(60, 100%, 55%)" />
<g stroke="hsl(60, 100%, 40%)"><line x1="1.3436903031309217" x2="1.552732700685533" y1="479" y2="479" />
<line x1="1.3436903031309217" x2="1.3436903031309217" y1="473" y2="485" />
<line x1="1.552732700685533" x2="1.552732700685533" y1="473" y2="485" />
</g>
</g>
<text fill="hsl(67, 100%, 40%)" y="517">countdown.10000.mtl.deep 10.5 ms</text>
<g>
<title>10.5 ms ± 853 μs</title>
<rect y="523" rx="5" height="22" width="11.784688219310873" fill="hsl(67, 100%, 80%)" stroke="hsl(67, 100%, 55%)" />
<g stroke="hsl(67, 100%, 40%)"><line x1="10.824442926753363" x2="12.744933511868382" y1="534" y2="534" />
<line x1="10.824442926753363" x2="10.824442926753363" y1="528" y2="540" />
<line x1="12.744933511868382" x2="12.744933511868382" y1="528" y2="540" />
</g>
</g>
<text fill="hsl(75, 100%, 40%)" y="572">countdown.10000.fused.shallow 2.22 ms</text>
<g>
<title>2.22 ms ± 111 μs</title>
<rect y="578" rx="5" height="22" width="2.4954179728226125" fill="hsl(75, 100%, 80%)" stroke="hsl(75, 100%, 55%)" />
<g stroke="hsl(75, 100%, 40%)"><line x1="2.3699384850827756" x2="2.6208974605624493" y1="589" y2="589" />
<line x1="2.3699384850827756" x2="2.3699384850827756" y1="583" y2="595" />
<line x1="2.6208974605624493" x2="2.6208974605624493" y1="583" y2="595" />
</g>
</g>
<text fill="hsl(82, 100%, 40%)" y="627">countdown.10000.fused.deep 16.4 ms</text>
<g>
<title>16.4 ms ± 1.6 ms</title>
<rect y="633" rx="5" height="22" width="18.518822789374845" fill="hsl(82, 100%, 80%)" stroke="hsl(82, 100%, 55%)" />
<g stroke="hsl(82, 100%, 40%)"><line x1="16.69502058191055" x2="20.342624996839138" y1="644" y2="644" />
<line x1="16.69502058191055" x2="16.69502058191055" y1="638" y2="650" />
<line x1="20.342624996839138" x2="20.342624996839138" y1="638" y2="650" />
</g>
</g>
<text fill="hsl(90, 100%, 40%)" y="682">countdown.10000.sem.shallow 2.81 ms</text>
<g>
<title>2.81 ms ± 269 μs</title>
<rect y="688" rx="5" height="22" width="3.160825692328841" fill="hsl(90, 100%, 80%)" stroke="hsl(90, 100%, 55%)" />
<g stroke="hsl(90, 100%, 40%)"><line x1="2.857363969209527" x2="3.4642874154481547" y1="699" y2="699" />
<line x1="2.857363969209527" x2="2.857363969209527" y1="693" y2="705" />
<line x1="3.4642874154481547" x2="3.4642874154481547" y1="693" y2="705" />
</g>
</g>
<text fill="hsl(97, 100%, 40%)" y="737">countdown.10000.sem.deep 4.55 ms</text>
<g>
<title>4.55 ms ± 375 μs</title>
<rect y="743" rx="5" height="22" width="5.1274306165958015" fill="hsl(97, 100%, 80%)" stroke="hsl(97, 100%, 55%)" />
<g stroke="hsl(97, 100%, 40%)"><line x1="4.704716852868931" x2="5.5501443803226715" y1="754" y2="754" />
<line x1="4.704716852868931" x2="4.704716852868931" y1="748" y2="760" />
<line x1="5.5501443803226715" x2="5.5501443803226715" y1="748" y2="760" />
</g>
</g>
<text fill="hsl(105, 100%, 40%)" y="792">pyth.32.sp_modified_for_non_scoped_resumption_support.shallow 4.21 ms</text>
<g>
<title>4.21 ms ± 206 μs</title>
<rect y="798" rx="5" height="22" width="4.738076334253528" fill="hsl(105, 100%, 80%)" stroke="hsl(105, 100%, 55%)" />
<g stroke="hsl(105, 100%, 40%)"><line x1="4.5063936440354615" x2="4.969759024471595" y1="809" y2="809" />
<line x1="4.5063936440354615" x2="4.5063936440354615" y1="803" y2="815" />
<line x1="4.969759024471595" x2="4.969759024471595" y1="803" y2="815" />
</g>
</g>
<text fill="hsl(112, 100%, 40%)" y="847">pyth.32.sp_modified_for_non_scoped_resumption_support.deep 13.7 ms</text>
<g>
<title>13.7 ms ± 714 μs</title>
<rect y="853" rx="5" height="22" width="15.407266985432512" fill="hsl(112, 100%, 80%)" stroke="hsl(112, 100%, 55%)" />
<g stroke="hsl(112, 100%, 40%)"><line x1="14.602871319505592" x2="16.211662651359433" y1="864" y2="864" />
<line x1="14.602871319505592" x2="14.602871319505592" y1="858" y2="870" />
<line x1="16.211662651359433" x2="16.211662651359433" y1="858" y2="870" />
</g>
</g>
<text fill="hsl(120, 100%, 40%)" y="902">pyth.32.ev.shallow 1.45 ms</text>
<g>
<title>1.45 ms ±  23 μs</title>
<rect y="908" rx="5" height="22" width="1.6292920783700373" fill="hsl(120, 100%, 80%)" stroke="hsl(120, 100%, 55%)" />
<g stroke="hsl(120, 100%, 40%)"><line x1="1.6039029898021597" x2="1.654681166937915" y1="919" y2="919" />
<line x1="1.6039029898021597" x2="1.6039029898021597" y1="913" y2="925" />
<line x1="1.654681166937915" x2="1.654681166937915" y1="913" y2="925" />
</g>
</g>
<text fill="hsl(127, 100%, 40%)" y="957">pyth.32.ev.deep 2.77 ms</text>
<g>
<title>2.77 ms ± 223 μs</title>
<rect y="963" rx="5" height="22" width="3.1185864866014272" fill="hsl(127, 100%, 80%)" stroke="hsl(127, 100%, 55%)" />
<g stroke="hsl(127, 100%, 40%)"><line x1="2.8670336280795783" x2="3.370139345123276" y1="974" y2="974" />
<line x1="2.8670336280795783" x2="2.8670336280795783" y1="968" y2="980" />
<line x1="3.370139345123276" x2="3.370139345123276" y1="968" y2="980" />
</g>
</g>
<text fill="hsl(135, 100%, 40%)" y="1012">pyth.32.freer.shallow 7.08 ms</text>
<g>
<title>7.08 ms ± 619 μs</title>
<rect y="1018" rx="5" height="22" width="7.971598258524497" fill="hsl(135, 100%, 80%)" stroke="hsl(135, 100%, 55%)" />
<g stroke="hsl(135, 100%, 40%)"><line x1="7.274320165866205" x2="8.66887635118279" y1="1029" y2="1029" />
<line x1="7.274320165866205" x2="7.274320165866205" y1="1023" y2="1035" />
<line x1="8.66887635118279" x2="8.66887635118279" y1="1023" y2="1035" />
</g>
</g>
<text fill="hsl(142, 100%, 40%)" y="1067">pyth.32.freer.deep 10.9 ms</text>
<g>
<title>10.9 ms ± 353 μs</title>
<rect y="1073" rx="5" height="22" width="12.230759862882758" fill="hsl(142, 100%, 80%)" stroke="hsl(142, 100%, 55%)" />
<g stroke="hsl(142, 100%, 40%)"><line x1="11.833193325564224" x2="12.628326400201292" y1="1084" y2="1084" />
<line x1="11.833193325564224" x2="11.833193325564224" y1="1078" y2="1090" />
<line x1="12.628326400201292" x2="12.628326400201292" y1="1078" y2="1090" />
</g>
</g>
<text fill="hsl(150, 100%, 40%)" y="1122">pyth.32.fused.shallow 1.47 ms</text>
<g>
<title>1.47 ms ± 128 μs</title>
<rect y="1128" rx="5" height="22" width="1.658502337208077" fill="hsl(150, 100%, 80%)" stroke="hsl(150, 100%, 55%)" />
<g stroke="hsl(150, 100%, 40%)"><line x1="1.5145805928596692" x2="1.8024240815564847" y1="1139" y2="1139" />
<line x1="1.5145805928596692" x2="1.5145805928596692" y1="1133" y2="1145" />
<line x1="1.8024240815564847" x2="1.8024240815564847" y1="1133" y2="1145" />
</g>
</g>
<text fill="hsl(157, 100%, 40%)" y="1177">pyth.32.fused.deep 13.2 ms</text>
<g>
<title>13.2 ms ± 772 μs</title>
<rect y="1183" rx="5" height="22" width="14.814585921553709" fill="hsl(157, 100%, 80%)" stroke="hsl(157, 100%, 55%)" />
<g stroke="hsl(157, 100%, 40%)"><line x1="13.94544354646825" x2="15.683728296639169" y1="1194" y2="1194" />
<line x1="13.94544354646825" x2="13.94544354646825" y1="1188" y2="1200" />
<line x1="15.683728296639169" x2="15.683728296639169" y1="1188" y2="1200" />
</g>
</g>
<text fill="hsl(165, 100%, 40%)" y="1232">pyth.32.sem.shallow 15.8 ms</text>
<g>
<title>15.8 ms ± 1.3 ms</title>
<rect y="1238" rx="5" height="22" width="17.812924893211086" fill="hsl(165, 100%, 80%)" stroke="hsl(165, 100%, 55%)" />
<g stroke="hsl(165, 100%, 40%)"><line x1="16.39340288373754" x2="19.232446902684632" y1="1249" y2="1249" />
<line x1="16.39340288373754" x2="16.39340288373754" y1="1243" y2="1255" />
<line x1="19.232446902684632" x2="19.232446902684632" y1="1243" y2="1255" />
</g>
</g>
<text fill="hsl(172, 100%, 40%)" y="1287">pyth.32.sem.deep 16.2 ms</text>
<g>
<title>16.2 ms ± 1.6 ms</title>
<rect y="1293" rx="5" height="22" width="18.297126641473362" fill="hsl(172, 100%, 80%)" stroke="hsl(172, 100%, 55%)" />
<g stroke="hsl(172, 100%, 40%)"><line x1="16.543220383723472" x2="20.05103289922325" y1="1304" y2="1304" />
<line x1="16.543220383723472" x2="16.543220383723472" y1="1298" y2="1310" />
<line x1="20.05103289922325" x2="20.05103289922325" y1="1298" y2="1310" />
</g>
</g>
<text fill="hsl(180, 100%, 40%)" y="1342">catch.10000.sp_modified_for_non_scoped_resumption_support.shallow 205  μs</text>
<g>
<title>205  μs ±  13 μs</title>
<rect y="1348" rx="5" height="22" width="0.2312290145116385" fill="hsl(180, 100%, 80%)" stroke="hsl(180, 100%, 55%)" />
<g stroke="hsl(180, 100%, 40%)"><line x1="0.2161130778253686" x2="0.2463449511979084" y1="1359" y2="1359" />
<line x1="0.2161130778253686" x2="0.2161130778253686" y1="1353" y2="1365" />
<line x1="0.2463449511979084" x2="0.2463449511979084" y1="1353" y2="1365" />
</g>
</g>
<text fill="hsl(187, 100%, 40%)" y="1397">catch.10000.sp_modified_for_non_scoped_resumption_support.deep 205  μs</text>
<g>
<title>205  μs ±  19 μs</title>
<rect y="1403" rx="5" height="22" width="0.23062115691600393" fill="hsl(187, 100%, 80%)" stroke="hsl(187, 100%, 55%)" />
<g stroke="hsl(187, 100%, 40%)"><line x1="0.2097498082156163" x2="0.2514925056163915" y1="1414" y2="1414" />
<line x1="0.2097498082156163" x2="0.2097498082156163" y1="1408" y2="1420" />
<line x1="0.2514925056163915" x2="0.2514925056163915" y1="1408" y2="1420" />
</g>
</g>
<text fill="hsl(195, 100%, 40%)" y="1452">catch.10000.effectful.shallow 1.35 ms</text>
<g>
<title>1.35 ms ±  99 μs</title>
<rect y="1458" rx="5" height="22" width="1.5207602660993906" fill="hsl(195, 100%, 80%)" stroke="hsl(195, 100%, 55%)" />
<g stroke="hsl(195, 100%, 40%)"><line x1="1.4086896479320214" x2="1.6328308842667598" y1="1469" y2="1469" />
<line x1="1.4086896479320214" x2="1.4086896479320214" y1="1463" y2="1475" />
<line x1="1.6328308842667598" x2="1.6328308842667598" y1="1463" y2="1475" />
</g>
</g>
<text fill="hsl(202, 100%, 40%)" y="1507">catch.10000.effectful.deep 1.35 ms</text>
<g>
<title>1.35 ms ± 112 μs</title>
<rect y="1513" rx="5" height="22" width="1.523560745437361" fill="hsl(202, 100%, 80%)" stroke="hsl(202, 100%, 55%)" />
<g stroke="hsl(202, 100%, 40%)"><line x1="1.3970569196625595" x2="1.6500645712121624" y1="1524" y2="1524" />
<line x1="1.3970569196625595" x2="1.3970569196625595" y1="1518" y2="1530" />
<line x1="1.6500645712121624" x2="1.6500645712121624" y1="1518" y2="1530" />
</g>
</g>
<text fill="hsl(210, 100%, 40%)" y="1562">catch.10000.fused.shallow 5.01 ms</text>
<g>
<title>5.01 ms ± 177 μs</title>
<rect y="1568" rx="5" height="22" width="5.648002689522444" fill="hsl(210, 100%, 80%)" stroke="hsl(210, 100%, 55%)" />
<g stroke="hsl(210, 100%, 40%)"><line x1="5.449109359005692" x2="5.846896020039197" y1="1579" y2="1579" />
<line x1="5.449109359005692" x2="5.449109359005692" y1="1573" y2="1585" />
<line x1="5.846896020039197" x2="5.846896020039197" y1="1573" y2="1585" />
</g>
</g>
<text fill="hsl(217, 100%, 40%)" y="1617">catch.10000.fused.deep 27.2 ms</text>
<g>
<title>27.2 ms ± 2.3 ms</title>
<rect y="1623" rx="5" height="22" width="30.59123801986804" fill="hsl(217, 100%, 80%)" stroke="hsl(217, 100%, 55%)" />
<g stroke="hsl(217, 100%, 40%)"><line x1="28.023788853818907" x2="33.158687185917174" y1="1634" y2="1634" />
<line x1="28.023788853818907" x2="28.023788853818907" y1="1628" y2="1640" />
<line x1="33.158687185917174" x2="33.158687185917174" y1="1628" y2="1640" />
</g>
</g>
<text fill="hsl(225, 100%, 40%)" y="1672">catch.10000.sem.shallow 3.26 ms</text>
<g>
<title>3.26 ms ±  94 μs</title>
<rect y="1678" rx="5" height="22" width="3.6663783100937377" fill="hsl(225, 100%, 80%)" stroke="hsl(225, 100%, 55%)" />
<g stroke="hsl(225, 100%, 40%)"><line x1="3.560857453737291" x2="3.7718991664501846" y1="1689" y2="1689" />
<line x1="3.560857453737291" x2="3.560857453737291" y1="1683" y2="1695" />
<line x1="3.7718991664501846" x2="3.7718991664501846" y1="1683" y2="1695" />
</g>
</g>
<text fill="hsl(232, 100%, 40%)" y="1727">catch.10000.sem.deep 13.4 ms</text>
<g>
<title>13.4 ms ± 1.3 ms</title>
<rect y="1733" rx="5" height="22" width="15.114663917235552" fill="hsl(232, 100%, 80%)" stroke="hsl(232, 100%, 55%)" />
<g stroke="hsl(232, 100%, 40%)"><line x1="13.70198728763949" x2="16.527340546831613" y1="1744" y2="1744" />
<line x1="13.70198728763949" x2="13.70198728763949" y1="1738" y2="1750" />
<line x1="16.527340546831613" x2="16.527340546831613" y1="1738" y2="1750" />
</g>
</g>
<text fill="hsl(240, 100%, 40%)" y="1782">local.10000.sp_modified_for_non_scoped_resumption_support.shallow 263  μs</text>
<g>
<title>263  μs ±  23 μs</title>
<rect y="1788" rx="5" height="22" width="0.29660845320016216" fill="hsl(240, 100%, 80%)" stroke="hsl(240, 100%, 55%)" />
<g stroke="hsl(240, 100%, 40%)"><line x1="0.2710059539292106" x2="0.3222109524711137" y1="1799" y2="1799" />
<line x1="0.2710059539292106" x2="0.2710059539292106" y1="1793" y2="1805" />
<line x1="0.3222109524711137" x2="0.3222109524711137" y1="1793" y2="1805" />
</g>
</g>
<text fill="hsl(247, 100%, 40%)" y="1837">local.10000.sp_modified_for_non_scoped_resumption_support.deep 265  μs</text>
<g>
<title>265  μs ±  22 μs</title>
<rect y="1843" rx="5" height="22" width="0.29809889164528763" fill="hsl(247, 100%, 80%)" stroke="hsl(247, 100%, 55%)" />
<g stroke="hsl(247, 100%, 40%)"><line x1="0.27317815054440586" x2="0.3230196327461694" y1="1854" y2="1854" />
<line x1="0.27317815054440586" x2="0.27317815054440586" y1="1848" y2="1860" />
<line x1="0.3230196327461694" x2="0.3230196327461694" y1="1848" y2="1860" />
</g>
</g>
<text fill="hsl(255, 100%, 40%)" y="1892">local.10000.effectful.shallow 706  μs</text>
<g>
<title>706  μs ±  64 μs</title>
<rect y="1898" rx="5" height="22" width="0.7950245220809139" fill="hsl(255, 100%, 80%)" stroke="hsl(255, 100%, 55%)" />
<g stroke="hsl(255, 100%, 40%)"><line x1="0.7228788506009902" x2="0.8671701935608376" y1="1909" y2="1909" />
<line x1="0.7228788506009902" x2="0.7228788506009902" y1="1903" y2="1915" />
<line x1="0.8671701935608376" x2="0.8671701935608376" y1="1903" y2="1915" />
</g>
</g>
<text fill="hsl(262, 100%, 40%)" y="1947">local.10000.effectful.deep 707  μs</text>
<g>
<title>707  μs ±  44 μs</title>
<rect y="1953" rx="5" height="22" width="0.7966747121877011" fill="hsl(262, 100%, 80%)" stroke="hsl(262, 100%, 55%)" />
<g stroke="hsl(262, 100%, 40%)"><line x1="0.7469756066607643" x2="0.8463738177146379" y1="1964" y2="1964" />
<line x1="0.7469756066607643" x2="0.7469756066607643" y1="1958" y2="1970" />
<line x1="0.8463738177146379" x2="0.8463738177146379" y1="1958" y2="1970" />
</g>
</g>
<text fill="hsl(270, 100%, 40%)" y="2002">local.10000.fused.shallow 1.84 ms</text>
<g>
<title>1.84 ms ± 162 μs</title>
<rect y="2008" rx="5" height="22" width="2.074243682939018" fill="hsl(270, 100%, 80%)" stroke="hsl(270, 100%, 55%)" />
<g stroke="hsl(270, 100%, 40%)"><line x1="1.892112274572132" x2="2.256375091305904" y1="2019" y2="2019" />
<line x1="1.892112274572132" x2="1.892112274572132" y1="2013" y2="2025" />
<line x1="2.256375091305904" x2="2.256375091305904" y1="2013" y2="2025" />
</g>
</g>
<text fill="hsl(277, 100%, 40%)" y="2057">local.10000.fused.deep 7.56 ms</text>
<g>
<title>7.56 ms ± 553 μs</title>
<rect y="2063" rx="5" height="22" width="8.513060449552578" fill="hsl(277, 100%, 80%)" stroke="hsl(277, 100%, 55%)" />
<g stroke="hsl(277, 100%, 40%)"><line x1="7.890285928749579" x2="9.135834970355576" y1="2074" y2="2074" />
<line x1="7.890285928749579" x2="7.890285928749579" y1="2068" y2="2080" />
<line x1="9.135834970355576" x2="9.135834970355576" y1="2068" y2="2080" />
</g>
</g>
<text fill="hsl(285, 100%, 40%)" y="2112">local.10000.sem.shallow 4.45 ms</text>
<g>
<title>4.45 ms ± 282 μs</title>
<rect y="2118" rx="5" height="22" width="5.017088594486768" fill="hsl(285, 100%, 80%)" stroke="hsl(285, 100%, 55%)" />
<g stroke="hsl(285, 100%, 40%)"><line x1="4.699973008398352" x2="5.334204180575183" y1="2129" y2="2129" />
<line x1="4.699973008398352" x2="4.699973008398352" y1="2123" y2="2135" />
<line x1="5.334204180575183" x2="5.334204180575183" y1="2123" y2="2135" />
</g>
</g>
<text fill="hsl(292, 100%, 40%)" y="2167">local.10000.sem.deep 9.09 ms</text>
<g>
<title>9.09 ms ± 523 μs</title>
<rect y="2173" rx="5" height="22" width="10.23441707083291" fill="hsl(292, 100%, 80%)" stroke="hsl(292, 100%, 55%)" />
<g stroke="hsl(292, 100%, 40%)"><line x1="9.645845401966987" x2="10.822988739698832" y1="2184" y2="2184" />
<line x1="9.645845401966987" x2="9.645845401966987" y1="2178" y2="2190" />
<line x1="10.822988739698832" x2="10.822988739698832" y1="2178" y2="2190" />
</g>
</g>
<g fill="hsl(300, 100%, 40%)">
<text y="2222">coroutine.10000.sp_modified_for_non_scoped_resumption_support.shallow</text>
<text y="2222" x="912.1010293909856" text-anchor="end">810  ms</text>
</g>
<g>
<title>810  ms ±  25 ms</title>
<rect y="2228" rx="5" height="22" width="912.1010293909856" fill="hsl(300, 100%, 80%)" stroke="hsl(300, 100%, 55%)" />
<g stroke="hsl(300, 100%, 40%)"><line x1="884.2020587819711" x2="940.0" y1="2239" y2="2239" />
<line x1="884.2020587819711" x2="884.2020587819711" y1="2233" y2="2245" />
<line x1="940.0" x2="940.0" y1="2233" y2="2245" />
</g>
</g>
<g fill="hsl(307, 100%, 40%)">
<text y="2277">coroutine.10000.sp_modified_for_non_scoped_resumption_support.deep</text>
<text y="2277" x="903.0570004776655" text-anchor="end">802  ms</text>
</g>
<g>
<title>802  ms ±  23 ms</title>
<rect y="2283" rx="5" height="22" width="903.0570004776655" fill="hsl(307, 100%, 80%)" stroke="hsl(307, 100%, 55%)" />
<g stroke="hsl(307, 100%, 40%)"><line x1="877.3356717434473" x2="928.7783292118837" y1="2294" y2="2294" />
<line x1="877.3356717434473" x2="877.3356717434473" y1="2288" y2="2300" />
<line x1="928.7783292118837" x2="928.7783292118837" y1="2288" y2="2300" />
</g>
</g>
<g fill="hsl(315, 100%, 40%)">
<text y="2332">coroutine.10000.mp.shallow</text>
<text y="2332" x="900.6928862861812" text-anchor="end">800  ms</text>
</g>
<g>
<title>800  ms ± 3.8 ms</title>
<rect y="2338" rx="5" height="22" width="900.6928862861812" fill="hsl(315, 100%, 80%)" stroke="hsl(315, 100%, 55%)" />
<g stroke="hsl(315, 100%, 40%)"><line x1="896.3844390989552" x2="905.0013334734072" y1="2349" y2="2349" />
<line x1="896.3844390989552" x2="896.3844390989552" y1="2343" y2="2355" />
<line x1="905.0013334734072" x2="905.0013334734072" y1="2343" y2="2355" />
</g>
</g>
<g fill="hsl(322, 100%, 40%)">
<text y="2387">coroutine.10000.mp.deep</text>
<text y="2387" x="906.1408171252627" text-anchor="end">804  ms</text>
</g>
<g>
<title>804  ms ± 5.5 ms</title>
<rect y="2393" rx="5" height="22" width="906.1408171252627" fill="hsl(322, 100%, 80%)" stroke="hsl(322, 100%, 55%)" />
<g stroke="hsl(322, 100%, 40%)"><line x1="899.9848648469697" x2="912.2967694035558" y1="2404" y2="2404" />
<line x1="899.9848648469697" x2="899.9848648469697" y1="2398" y2="2410" />
<line x1="912.2967694035558" x2="912.2967694035558" y1="2398" y2="2410" />
</g>
</g>
<text fill="hsl(330, 100%, 40%)" y="2442">coroutine.10000.freer.shallow 2.42 ms</text>
<g>
<title>2.42 ms ±  58 μs</title>
<rect y="2448" rx="5" height="22" width="2.7312626729738265" fill="hsl(330, 100%, 80%)" stroke="hsl(330, 100%, 55%)" />
<g stroke="hsl(330, 100%, 40%)"><line x1="2.6656349350682125" x2="2.7968904108794406" y1="2459" y2="2459" />
<line x1="2.6656349350682125" x2="2.6656349350682125" y1="2453" y2="2465" />
<line x1="2.7968904108794406" x2="2.7968904108794406" y1="2453" y2="2465" />
</g>
</g>
<text fill="hsl(337, 100%, 40%)" y="2497">coroutine.10000.freer.deep 3.23 ms</text>
<g>
<title>3.23 ms ± 265 μs</title>
<rect y="2503" rx="5" height="22" width="3.642112398523923" fill="hsl(337, 100%, 80%)" stroke="hsl(337, 100%, 55%)" />
<g stroke="hsl(337, 100%, 40%)"><line x1="3.343612219697274" x2="3.9406125773505725" y1="2514" y2="2514" />
<line x1="3.343612219697274" x2="3.343612219697274" y1="2508" y2="2520" />
<line x1="3.9406125773505725" x2="3.9406125773505725" y1="2508" y2="2520" />
</g>
</g>
<g fill="hsl(345, 100%, 40%)">
<text y="2552">coroutine.10000.eff.shallow</text>
<text y="2552" x="424.68278765794247" text-anchor="end">377  ms</text>
</g>
<g>
<title>377  ms ± 5.0 ms</title>
<rect y="2558" rx="5" height="22" width="424.68278765794247" fill="hsl(345, 100%, 80%)" stroke="hsl(345, 100%, 55%)" />
<g stroke="hsl(345, 100%, 40%)"><line x1="419.0314625738075" x2="430.3341127420774" y1="2569" y2="2569" />
<line x1="419.0314625738075" x2="419.0314625738075" y1="2563" y2="2575" />
<line x1="430.3341127420774" x2="430.3341127420774" y1="2563" y2="2575" />
</g>
</g>
<g fill="hsl(352, 100%, 40%)">
<text y="2607">coroutine.10000.eff.deep</text>
<text y="2607" x="424.652174746806" text-anchor="end">377  ms</text>
</g>
<g>
<title>377  ms ±  12 ms</title>
<rect y="2613" rx="5" height="22" width="424.652174746806" fill="hsl(352, 100%, 80%)" stroke="hsl(352, 100%, 55%)" />
<g stroke="hsl(352, 100%, 40%)"><line x1="411.3784235807602" x2="437.92592591285177" y1="2624" y2="2624" />
<line x1="411.3784235807602" x2="411.3784235807602" y1="2618" y2="2630" />
<line x1="437.92592591285177" x2="437.92592591285177" y1="2618" y2="2630" />
</g>
</g>
</g>
</svg>
