<svg xmlns="http://www.w3.org/2000/svg" height="2757" width="960.0" font-size="16" font-family="sans-serif" stroke-width="2">
<g transform="translate(10.0 0)">
<text fill="hsl(0, 100%, 40%)" y="22">countdown.10000.sp_modified_for_non_scoped_resumption_support.shallow 144  μs</text>
<g>
<title>144  μs ±  12 μs</title>
<rect y="28" rx="5" height="22" width="3.373398988069521" fill="hsl(0, 100%, 80%)" stroke="hsl(0, 100%, 55%)" />
<g stroke="hsl(0, 100%, 40%)"><line x1="3.0879617509373527" x2="3.6588362252016897" y1="39" y2="39" />
<line x1="3.0879617509373527" x2="3.0879617509373527" y1="33" y2="45" />
<line x1="3.6588362252016897" x2="3.6588362252016897" y1="33" y2="45" />
</g>
</g>
<text fill="hsl(7, 100%, 40%)" y="77">countdown.10000.sp_modified_for_non_scoped_resumption_support.deep 144  μs</text>
<g>
<title>144  μs ±  13 μs</title>
<rect y="83" rx="5" height="22" width="3.375957380575551" fill="hsl(7, 100%, 80%)" stroke="hsl(7, 100%, 55%)" />
<g stroke="hsl(7, 100%, 40%)"><line x1="3.078574478327355" x2="3.673340282823747" y1="94" y2="94" />
<line x1="3.078574478327355" x2="3.078574478327355" y1="88" y2="100" />
<line x1="3.673340282823747" x2="3.673340282823747" y1="88" y2="100" />
</g>
</g>
<text fill="hsl(14, 100%, 40%)" y="132">countdown.10000.effectful.shallow 231  μs</text>
<g>
<title>231  μs ±  16 μs</title>
<rect y="138" rx="5" height="22" width="5.3900299782232635" fill="hsl(14, 100%, 80%)" stroke="hsl(14, 100%, 55%)" />
<g stroke="hsl(14, 100%, 40%)"><line x1="5.01254046046891" x2="5.767519495977617" y1="149" y2="149" />
<line x1="5.01254046046891" x2="5.01254046046891" y1="143" y2="155" />
<line x1="5.767519495977617" x2="5.767519495977617" y1="143" y2="155" />
</g>
</g>
<text fill="hsl(21, 100%, 40%)" y="187">countdown.10000.effectful.deep 230  μs</text>
<g>
<title>230  μs ±  18 μs</title>
<rect y="193" rx="5" height="22" width="5.367863790022117" fill="hsl(21, 100%, 80%)" stroke="hsl(21, 100%, 55%)" />
<g stroke="hsl(21, 100%, 40%)"><line x1="4.95096657756065" x2="5.784761002483584" y1="204" y2="204" />
<line x1="4.95096657756065" x2="4.95096657756065" y1="198" y2="210" />
<line x1="5.784761002483584" x2="5.784761002483584" y1="198" y2="210" />
</g>
</g>
<text fill="hsl(28, 100%, 40%)" y="242">countdown.10000.ev.shallow 270  μs</text>
<g>
<title>270  μs ±  14 μs</title>
<rect y="248" rx="5" height="22" width="6.307019986677689" fill="hsl(28, 100%, 80%)" stroke="hsl(28, 100%, 55%)" />
<g stroke="hsl(28, 100%, 40%)"><line x1="5.985605511294001" x2="6.628434462061377" y1="259" y2="259" />
<line x1="5.985605511294001" x2="5.985605511294001" y1="253" y2="265" />
<line x1="6.628434462061377" x2="6.628434462061377" y1="253" y2="265" />
</g>
</g>
<text fill="hsl(36, 100%, 40%)" y="297">countdown.10000.ev.deep 348  μs</text>
<g>
<title>348  μs ±  11 μs</title>
<rect y="303" rx="5" height="22" width="8.127222108660723" fill="hsl(36, 100%, 80%)" stroke="hsl(36, 100%, 55%)" />
<g stroke="hsl(36, 100%, 40%)"><line x1="7.860732721250096" x2="8.39371149607135" y1="314" y2="314" />
<line x1="7.860732721250096" x2="7.860732721250096" y1="308" y2="320" />
<line x1="8.39371149607135" x2="8.39371149607135" y1="308" y2="320" />
</g>
</g>
<text fill="hsl(43, 100%, 40%)" y="352">countdown.10000.freer.shallow 488  μs</text>
<g>
<title>488  μs ±  23 μs</title>
<rect y="358" rx="5" height="22" width="11.405740623191432" fill="hsl(43, 100%, 80%)" stroke="hsl(43, 100%, 55%)" />
<g stroke="hsl(43, 100%, 40%)"><line x1="10.865619841730227" x2="11.945861404652637" y1="369" y2="369" />
<line x1="10.865619841730227" x2="10.865619841730227" y1="363" y2="375" />
<line x1="11.945861404652637" x2="11.945861404652637" y1="363" y2="375" />
</g>
</g>
<text fill="hsl(50, 100%, 40%)" y="407">countdown.10000.freer.deep 1.41 ms</text>
<g>
<title>1.41 ms ± 126 μs</title>
<rect y="413" rx="5" height="22" width="32.960407009109225" fill="hsl(50, 100%, 80%)" stroke="hsl(50, 100%, 55%)" />
<g stroke="hsl(50, 100%, 40%)"><line x1="30.00432233806176" x2="35.91649168015669" y1="424" y2="424" />
<line x1="30.00432233806176" x2="30.00432233806176" y1="418" y2="430" />
<line x1="35.91649168015669" x2="35.91649168015669" y1="418" y2="430" />
</g>
</g>
<text fill="hsl(57, 100%, 40%)" y="462">countdown.10000.mtl.shallow 1.30 ms</text>
<g>
<title>1.30 ms ±  89 μs</title>
<rect y="468" rx="5" height="22" width="30.283675072061254" fill="hsl(57, 100%, 80%)" stroke="hsl(57, 100%, 55%)" />
<g stroke="hsl(57, 100%, 40%)"><line x1="28.205851178970676" x2="32.36149896515183" y1="479" y2="479" />
<line x1="28.205851178970676" x2="28.205851178970676" y1="473" y2="485" />
<line x1="32.36149896515183" x2="32.36149896515183" y1="473" y2="485" />
</g>
</g>
<text fill="hsl(64, 100%, 40%)" y="517">countdown.10000.mtl.deep 10.4 ms</text>
<g>
<title>10.4 ms ± 929 μs</title>
<rect y="523" rx="5" height="22" width="243.57300606242302" fill="hsl(64, 100%, 80%)" stroke="hsl(64, 100%, 55%)" />
<g stroke="hsl(64, 100%, 40%)"><line x1="221.86136718355596" x2="265.2846449412901" y1="534" y2="534" />
<line x1="221.86136718355596" x2="221.86136718355596" y1="528" y2="540" />
<line x1="265.2846449412901" x2="265.2846449412901" y1="528" y2="540" />
</g>
</g>
<text fill="hsl(72, 100%, 40%)" y="572">countdown.10000.fused.shallow 2.16 ms</text>
<g>
<title>2.16 ms ± 112 μs</title>
<rect y="578" rx="5" height="22" width="50.43661791696167" fill="hsl(72, 100%, 80%)" stroke="hsl(72, 100%, 55%)" />
<g stroke="hsl(72, 100%, 40%)"><line x1="47.806260786809666" x2="53.06697504711368" y1="589" y2="589" />
<line x1="47.806260786809666" x2="47.806260786809666" y1="583" y2="595" />
<line x1="53.06697504711368" x2="53.06697504711368" y1="583" y2="595" />
</g>
</g>
<g fill="hsl(79, 100%, 40%)">
<text y="627">countdown.10000.fused.deep</text>
<text y="627" x="386.18141774270214" text-anchor="end">16.5 ms</text>
</g>
<g>
<title>16.5 ms ± 923 μs</title>
<rect y="633" rx="5" height="22" width="386.18141774270214" fill="hsl(79, 100%, 80%)" stroke="hsl(79, 100%, 55%)" />
<g stroke="hsl(79, 100%, 40%)"><line x1="364.5900608391043" x2="407.7727746463" y1="644" y2="644" />
<line x1="364.5900608391043" x2="364.5900608391043" y1="638" y2="650" />
<line x1="407.7727746463" x2="407.7727746463" y1="638" y2="650" />
</g>
</g>
<text fill="hsl(86, 100%, 40%)" y="682">countdown.10000.sem.shallow 2.75 ms</text>
<g>
<title>2.75 ms ± 260 μs</title>
<rect y="688" rx="5" height="22" width="64.29741124603416" fill="hsl(86, 100%, 80%)" stroke="hsl(86, 100%, 55%)" />
<g stroke="hsl(86, 100%, 40%)"><line x1="58.21682570230124" x2="70.37799678976708" y1="699" y2="699" />
<line x1="58.21682570230124" x2="58.21682570230124" y1="693" y2="705" />
<line x1="70.37799678976708" x2="70.37799678976708" y1="693" y2="705" />
</g>
</g>
<text fill="hsl(93, 100%, 40%)" y="737">countdown.10000.sem.deep 4.50 ms</text>
<g>
<title>4.50 ms ± 204 μs</title>
<rect y="743" rx="5" height="22" width="105.25844663952383" fill="hsl(93, 100%, 80%)" stroke="hsl(93, 100%, 55%)" />
<g stroke="hsl(93, 100%, 40%)"><line x1="100.48224556347965" x2="110.034647715568" y1="754" y2="754" />
<line x1="100.48224556347965" x2="100.48224556347965" y1="748" y2="760" />
<line x1="110.034647715568" x2="110.034647715568" y1="748" y2="760" />
</g>
</g>
<text fill="hsl(100, 100%, 40%)" y="792">pyth.32.sp_modified_for_non_scoped_resumption_support.shallow 3.76 ms</text>
<g>
<title>3.76 ms ± 185 μs</title>
<rect y="798" rx="5" height="22" width="87.99264984289523" fill="hsl(100, 100%, 80%)" stroke="hsl(100, 100%, 55%)" />
<g stroke="hsl(100, 100%, 40%)"><line x1="83.65607318589065" x2="92.32922649989982" y1="809" y2="809" />
<line x1="83.65607318589065" x2="83.65607318589065" y1="803" y2="815" />
<line x1="92.32922649989982" x2="92.32922649989982" y1="803" y2="815" />
</g>
</g>
<text fill="hsl(108, 100%, 40%)" y="847">pyth.32.sp_modified_for_non_scoped_resumption_support.deep 10.4 ms</text>
<g>
<title>10.4 ms ± 712 μs</title>
<rect y="853" rx="5" height="22" width="242.68784490339542" fill="hsl(108, 100%, 80%)" stroke="hsl(108, 100%, 55%)" />
<g stroke="hsl(108, 100%, 40%)"><line x1="226.04017337998735" x2="259.3355164268035" y1="864" y2="864" />
<line x1="226.04017337998735" x2="226.04017337998735" y1="858" y2="870" />
<line x1="259.3355164268035" x2="259.3355164268035" y1="858" y2="870" />
</g>
</g>
<text fill="hsl(115, 100%, 40%)" y="902">pyth.32.ev.shallow 1.37 ms</text>
<g>
<title>1.37 ms ± 107 μs</title>
<rect y="908" rx="5" height="22" width="32.01423957916464" fill="hsl(115, 100%, 80%)" stroke="hsl(115, 100%, 55%)" />
<g stroke="hsl(115, 100%, 40%)"><line x1="29.523245689476393" x2="34.505233468852886" y1="919" y2="919" />
<line x1="29.523245689476393" x2="29.523245689476393" y1="913" y2="925" />
<line x1="34.505233468852886" x2="34.505233468852886" y1="913" y2="925" />
</g>
</g>
<text fill="hsl(122, 100%, 40%)" y="957">pyth.32.ev.deep 2.82 ms</text>
<g>
<title>2.82 ms ± 255 μs</title>
<rect y="963" rx="5" height="22" width="65.82917040139525" fill="hsl(122, 100%, 80%)" stroke="hsl(122, 100%, 55%)" />
<g stroke="hsl(122, 100%, 40%)"><line x1="59.85571636015826" x2="71.80262444263224" y1="974" y2="974" />
<line x1="59.85571636015826" x2="59.85571636015826" y1="968" y2="980" />
<line x1="71.80262444263224" x2="71.80262444263224" y1="968" y2="980" />
</g>
</g>
<text fill="hsl(129, 100%, 40%)" y="1012">pyth.32.freer.shallow 7.08 ms</text>
<g>
<title>7.08 ms ± 252 μs</title>
<rect y="1018" rx="5" height="22" width="165.61191026935654" fill="hsl(129, 100%, 80%)" stroke="hsl(129, 100%, 55%)" />
<g stroke="hsl(129, 100%, 40%)"><line x1="159.72145140786222" x2="171.50236913085087" y1="1029" y2="1029" />
<line x1="159.72145140786222" x2="159.72145140786222" y1="1023" y2="1035" />
<line x1="171.50236913085087" x2="171.50236913085087" y1="1023" y2="1035" />
</g>
</g>
<g fill="hsl(136, 100%, 40%)">
<text y="1067">pyth.32.freer.deep</text>
<text y="1067" x="255.41569154863924" text-anchor="end">10.9 ms</text>
</g>
<g>
<title>10.9 ms ± 641 μs</title>
<rect y="1073" rx="5" height="22" width="255.41569154863924" fill="hsl(136, 100%, 80%)" stroke="hsl(136, 100%, 55%)" />
<g stroke="hsl(136, 100%, 40%)"><line x1="240.42341859154558" x2="270.4079645057329" y1="1084" y2="1084" />
<line x1="240.42341859154558" x2="240.42341859154558" y1="1078" y2="1090" />
<line x1="270.4079645057329" x2="270.4079645057329" y1="1078" y2="1090" />
</g>
</g>
<text fill="hsl(144, 100%, 40%)" y="1122">pyth.32.fused.shallow 1.44 ms</text>
<g>
<title>1.44 ms ±  88 μs</title>
<rect y="1128" rx="5" height="22" width="33.68789310453696" fill="hsl(144, 100%, 80%)" stroke="hsl(144, 100%, 55%)" />
<g stroke="hsl(144, 100%, 40%)"><line x1="31.619817332460638" x2="35.75596887661328" y1="1139" y2="1139" />
<line x1="31.619817332460638" x2="31.619817332460638" y1="1133" y2="1145" />
<line x1="35.75596887661328" x2="35.75596887661328" y1="1133" y2="1145" />
</g>
</g>
<g fill="hsl(151, 100%, 40%)">
<text y="1177">pyth.32.fused.deep</text>
<text y="1177" x="303.30061967250157" text-anchor="end">13.0 ms</text>
</g>
<g>
<title>13.0 ms ± 799 μs</title>
<rect y="1183" rx="5" height="22" width="303.30061967250157" fill="hsl(151, 100%, 80%)" stroke="hsl(151, 100%, 55%)" />
<g stroke="hsl(151, 100%, 40%)"><line x1="284.62150238308766" x2="321.9797369619155" y1="1194" y2="1194" />
<line x1="284.62150238308766" x2="284.62150238308766" y1="1188" y2="1200" />
<line x1="321.9797369619155" x2="321.9797369619155" y1="1188" y2="1200" />
</g>
</g>
<g fill="hsl(158, 100%, 40%)">
<text y="1232">pyth.32.sem.shallow</text>
<text y="1232" x="372.9743451033923" text-anchor="end">16.0 ms</text>
</g>
<g>
<title>16.0 ms ± 555 μs</title>
<rect y="1238" rx="5" height="22" width="372.9743451033923" fill="hsl(158, 100%, 80%)" stroke="hsl(158, 100%, 55%)" />
<g stroke="hsl(158, 100%, 40%)"><line x1="360.0025907969316" x2="385.946099409853" y1="1249" y2="1249" />
<line x1="360.0025907969316" x2="360.0025907969316" y1="1243" y2="1255" />
<line x1="385.946099409853" x2="385.946099409853" y1="1243" y2="1255" />
</g>
</g>
<g fill="hsl(165, 100%, 40%)">
<text y="1287">pyth.32.sem.deep</text>
<text y="1287" x="371.2955103532877" text-anchor="end">15.9 ms</text>
</g>
<g>
<title>15.9 ms ± 768 μs</title>
<rect y="1293" rx="5" height="22" width="371.2955103532877" fill="hsl(165, 100%, 80%)" stroke="hsl(165, 100%, 55%)" />
<g stroke="hsl(165, 100%, 40%)"><line x1="353.3411591297179" x2="389.2498615768575" y1="1304" y2="1304" />
<line x1="353.3411591297179" x2="353.3411591297179" y1="1298" y2="1310" />
<line x1="389.2498615768575" x2="389.2498615768575" y1="1298" y2="1310" />
</g>
</g>
<text fill="hsl(172, 100%, 40%)" y="1342">catch.10000.sp_modified_for_non_scoped_resumption_support.shallow 5.86 ms</text>
<g>
<title>5.86 ms ± 344 μs</title>
<rect y="1348" rx="5" height="22" width="137.03929420325218" fill="hsl(172, 100%, 80%)" stroke="hsl(172, 100%, 55%)" />
<g stroke="hsl(172, 100%, 40%)"><line x1="128.99179955389187" x2="145.0867888526125" y1="1359" y2="1359" />
<line x1="128.99179955389187" x2="128.99179955389187" y1="1353" y2="1365" />
<line x1="145.0867888526125" x2="145.0867888526125" y1="1353" y2="1365" />
</g>
</g>
<text fill="hsl(180, 100%, 40%)" y="1397">catch.10000.sp_modified_for_non_scoped_resumption_support.deep0 6.66 ms</text>
<g>
<title>6.66 ms ± 329 μs</title>
<rect y="1403" rx="5" height="22" width="155.6778212729771" fill="hsl(180, 100%, 80%)" stroke="hsl(180, 100%, 55%)" />
<g stroke="hsl(180, 100%, 40%)"><line x1="147.97381203051796" x2="163.38183051543623" y1="1414" y2="1414" />
<line x1="147.97381203051796" x2="147.97381203051796" y1="1408" y2="1420" />
<line x1="163.38183051543623" x2="163.38183051543623" y1="1408" y2="1420" />
</g>
</g>
<text fill="hsl(187, 100%, 40%)" y="1452">catch.10000.sp_modified_for_non_scoped_resumption_support.deep1 11.5 ms</text>
<g>
<title>11.5 ms ± 858 μs</title>
<rect y="1458" rx="5" height="22" width="268.7821969641642" fill="hsl(187, 100%, 80%)" stroke="hsl(187, 100%, 55%)" />
<g stroke="hsl(187, 100%, 40%)"><line x1="248.71731167500946" x2="288.84708225331894" y1="1469" y2="1469" />
<line x1="248.71731167500946" x2="248.71731167500946" y1="1463" y2="1475" />
<line x1="288.84708225331894" x2="288.84708225331894" y1="1463" y2="1475" />
</g>
</g>
<text fill="hsl(194, 100%, 40%)" y="1507">catch.10000.sp_modified_for_non_scoped_resumption_support.deep2 17.5 ms</text>
<g>
<title>17.5 ms ± 859 μs</title>
<rect y="1513" rx="5" height="22" width="408.65236653937734" fill="hsl(194, 100%, 80%)" stroke="hsl(194, 100%, 55%)" />
<g stroke="hsl(194, 100%, 40%)"><line x1="388.55701080225646" x2="428.7477222764982" y1="1524" y2="1524" />
<line x1="388.55701080225646" x2="388.55701080225646" y1="1518" y2="1530" />
<line x1="428.7477222764982" x2="428.7477222764982" y1="1518" y2="1530" />
</g>
</g>
<text fill="hsl(201, 100%, 40%)" y="1562">catch.10000.sp_modified_for_non_scoped_resumption_support.deep3 23.7 ms</text>
<g>
<title>23.7 ms ± 1.2 ms</title>
<rect y="1568" rx="5" height="22" width="554.7502101129531" fill="hsl(201, 100%, 80%)" stroke="hsl(201, 100%, 55%)" />
<g stroke="hsl(201, 100%, 40%)"><line x1="526.1715976690084" x2="583.3288225568979" y1="1579" y2="1579" />
<line x1="526.1715976690084" x2="526.1715976690084" y1="1573" y2="1585" />
<line x1="583.3288225568979" x2="583.3288225568979" y1="1573" y2="1585" />
</g>
</g>
<g fill="hsl(208, 100%, 40%)">
<text y="1617">catch.10000.sp_modified_for_non_scoped_resumption_support.deep4</text>
<text y="1617" x="738.450246103511" text-anchor="end">31.6 ms</text>
</g>
<g>
<title>31.6 ms ± 2.2 ms</title>
<rect y="1623" rx="5" height="22" width="738.450246103511" fill="hsl(208, 100%, 80%)" stroke="hsl(208, 100%, 55%)" />
<g stroke="hsl(208, 100%, 40%)"><line x1="686.1330871515936" x2="790.7674050554283" y1="1634" y2="1634" />
<line x1="686.1330871515936" x2="686.1330871515936" y1="1628" y2="1640" />
<line x1="790.7674050554283" x2="790.7674050554283" y1="1628" y2="1640" />
</g>
</g>
<g fill="hsl(216, 100%, 40%)">
<text y="1672">catch.10000.sp_modified_for_non_scoped_resumption_support.deep5</text>
<text y="1672" x="856.5891505794524" text-anchor="end">36.6 ms</text>
</g>
<g>
<title>36.6 ms ± 3.6 ms</title>
<rect y="1678" rx="5" height="22" width="856.5891505794524" fill="hsl(216, 100%, 80%)" stroke="hsl(216, 100%, 55%)" />
<g stroke="hsl(216, 100%, 40%)"><line x1="773.1783011589048" x2="940.0" y1="1689" y2="1689" />
<line x1="773.1783011589048" x2="773.1783011589048" y1="1683" y2="1695" />
<line x1="940.0" x2="940.0" y1="1683" y2="1695" />
</g>
</g>
<text fill="hsl(223, 100%, 40%)" y="1727">catch.10000.effectful.shallow 1.34 ms</text>
<g>
<title>1.34 ms ±  90 μs</title>
<rect y="1733" rx="5" height="22" width="31.408036542685803" fill="hsl(223, 100%, 80%)" stroke="hsl(223, 100%, 55%)" />
<g stroke="hsl(223, 100%, 40%)"><line x1="29.302999400346348" x2="33.51307368502526" y1="1744" y2="1744" />
<line x1="29.302999400346348" x2="29.302999400346348" y1="1738" y2="1750" />
<line x1="33.51307368502526" x2="33.51307368502526" y1="1738" y2="1750" />
</g>
</g>
<text fill="hsl(230, 100%, 40%)" y="1782">catch.10000.effectful.deep 1.34 ms</text>
<g>
<title>1.34 ms ± 132 μs</title>
<rect y="1788" rx="5" height="22" width="31.325754455318762" fill="hsl(230, 100%, 80%)" stroke="hsl(230, 100%, 55%)" />
<g stroke="hsl(230, 100%, 40%)"><line x1="28.242935466363413" x2="34.40857344427411" y1="1799" y2="1799" />
<line x1="28.242935466363413" x2="28.242935466363413" y1="1793" y2="1805" />
<line x1="34.40857344427411" x2="34.40857344427411" y1="1793" y2="1805" />
</g>
</g>
<text fill="hsl(237, 100%, 40%)" y="1837">catch.10000.fused.shallow 5.06 ms</text>
<g>
<title>5.06 ms ±  92 μs</title>
<rect y="1843" rx="5" height="22" width="118.21639230424007" fill="hsl(237, 100%, 80%)" stroke="hsl(237, 100%, 55%)" />
<g stroke="hsl(237, 100%, 40%)"><line x1="116.07585705962396" x2="120.35692754885619" y1="1854" y2="1854" />
<line x1="116.07585705962396" x2="116.07585705962396" y1="1848" y2="1860" />
<line x1="120.35692754885619" x2="120.35692754885619" y1="1848" y2="1860" />
</g>
</g>
<g fill="hsl(244, 100%, 40%)">
<text y="1892">catch.10000.fused.deep</text>
<text y="1892" x="615.0600340232311" text-anchor="end">26.3 ms</text>
</g>
<g>
<title>26.3 ms ± 1.8 ms</title>
<rect y="1898" rx="5" height="22" width="615.0600340232311" fill="hsl(244, 100%, 80%)" stroke="hsl(244, 100%, 55%)" />
<g stroke="hsl(244, 100%, 40%)"><line x1="574.1299643002309" x2="655.9901037462313" y1="1909" y2="1909" />
<line x1="574.1299643002309" x2="574.1299643002309" y1="1903" y2="1915" />
<line x1="655.9901037462313" x2="655.9901037462313" y1="1903" y2="1915" />
</g>
</g>
<text fill="hsl(252, 100%, 40%)" y="1947">catch.10000.sem.shallow 3.23 ms</text>
<g>
<title>3.23 ms ±  96 μs</title>
<rect y="1953" rx="5" height="22" width="75.55470814627121" fill="hsl(252, 100%, 80%)" stroke="hsl(252, 100%, 55%)" />
<g stroke="hsl(252, 100%, 40%)"><line x1="73.30624927693799" x2="77.80316701560443" y1="1964" y2="1964" />
<line x1="73.30624927693799" x2="73.30624927693799" y1="1958" y2="1970" />
<line x1="77.80316701560443" x2="77.80316701560443" y1="1958" y2="1970" />
</g>
</g>
<g fill="hsl(259, 100%, 40%)">
<text y="2002">catch.10000.sem.deep</text>
<text y="2002" x="317.8064320844725" text-anchor="end">13.6 ms</text>
</g>
<g>
<title>13.6 ms ± 1.1 ms</title>
<rect y="2008" rx="5" height="22" width="317.8064320844725" fill="hsl(259, 100%, 80%)" stroke="hsl(259, 100%, 55%)" />
<g stroke="hsl(259, 100%, 40%)"><line x1="292.44145696664026" x2="343.1714072023047" y1="2019" y2="2019" />
<line x1="292.44145696664026" x2="292.44145696664026" y1="2013" y2="2025" />
<line x1="343.1714072023047" x2="343.1714072023047" y1="2013" y2="2025" />
</g>
</g>
<text fill="hsl(266, 100%, 40%)" y="2057">local.10000.sp_modified_for_non_scoped_resumption_support.shallow 5.60 ms</text>
<g>
<title>5.60 ms ± 219 μs</title>
<rect y="2063" rx="5" height="22" width="131.02755375585045" fill="hsl(266, 100%, 80%)" stroke="hsl(266, 100%, 55%)" />
<g stroke="hsl(266, 100%, 40%)"><line x1="125.90603999999686" x2="136.14906751170403" y1="2074" y2="2074" />
<line x1="125.90603999999686" x2="125.90603999999686" y1="2068" y2="2080" />
<line x1="136.14906751170403" x2="136.14906751170403" y1="2068" y2="2080" />
</g>
</g>
<text fill="hsl(273, 100%, 40%)" y="2112">local.10000.sp_modified_for_non_scoped_resumption_support.deep0 6.48 ms</text>
<g>
<title>6.48 ms ± 554 μs</title>
<rect y="2118" rx="5" height="22" width="151.47322656238822" fill="hsl(273, 100%, 80%)" stroke="hsl(273, 100%, 55%)" />
<g stroke="hsl(273, 100%, 40%)"><line x1="138.51074198917848" x2="164.43571113559796" y1="2129" y2="2129" />
<line x1="138.51074198917848" x2="138.51074198917848" y1="2123" y2="2135" />
<line x1="164.43571113559796" x2="164.43571113559796" y1="2123" y2="2135" />
</g>
</g>
<text fill="hsl(280, 100%, 40%)" y="2167">local.10000.sp_modified_for_non_scoped_resumption_support.deep1 10.5 ms</text>
<g>
<title>10.5 ms ± 247 μs</title>
<rect y="2173" rx="5" height="22" width="244.6298849767222" fill="hsl(280, 100%, 80%)" stroke="hsl(280, 100%, 55%)" />
<g stroke="hsl(280, 100%, 40%)"><line x1="238.8542954813413" x2="250.4054744721031" y1="2184" y2="2184" />
<line x1="238.8542954813413" x2="238.8542954813413" y1="2178" y2="2190" />
<line x1="250.4054744721031" x2="250.4054744721031" y1="2178" y2="2190" />
</g>
</g>
<text fill="hsl(288, 100%, 40%)" y="2222">local.10000.sp_modified_for_non_scoped_resumption_support.deep2 15.6 ms</text>
<g>
<title>15.6 ms ± 1.3 ms</title>
<rect y="2228" rx="5" height="22" width="365.2376710253827" fill="hsl(288, 100%, 80%)" stroke="hsl(288, 100%, 55%)" />
<g stroke="hsl(288, 100%, 40%)"><line x1="334.26553827948703" x2="396.2098037712784" y1="2239" y2="2239" />
<line x1="334.26553827948703" x2="334.26553827948703" y1="2233" y2="2245" />
<line x1="396.2098037712784" x2="396.2098037712784" y1="2233" y2="2245" />
</g>
</g>
<text fill="hsl(295, 100%, 40%)" y="2277">local.10000.sp_modified_for_non_scoped_resumption_support.deep3 21.3 ms</text>
<g>
<title>21.3 ms ± 968 μs</title>
<rect y="2283" rx="5" height="22" width="497.45686129638455" fill="hsl(295, 100%, 80%)" stroke="hsl(295, 100%, 55%)" />
<g stroke="hsl(295, 100%, 40%)"><line x1="474.8186522849246" x2="520.0950703078445" y1="2294" y2="2294" />
<line x1="474.8186522849246" x2="474.8186522849246" y1="2288" y2="2300" />
<line x1="520.0950703078445" x2="520.0950703078445" y1="2288" y2="2300" />
</g>
</g>
<g fill="hsl(302, 100%, 40%)">
<text y="2332">local.10000.sp_modified_for_non_scoped_resumption_support.deep4</text>
<text y="2332" x="672.5482282351211" text-anchor="end">28.8 ms</text>
</g>
<g>
<title>28.8 ms ± 1.8 ms</title>
<rect y="2338" rx="5" height="22" width="672.5482282351211" fill="hsl(302, 100%, 80%)" stroke="hsl(302, 100%, 55%)" />
<g stroke="hsl(302, 100%, 40%)"><line x1="630.5727049987089" x2="714.5237514715333" y1="2349" y2="2349" />
<line x1="630.5727049987089" x2="630.5727049987089" y1="2343" y2="2355" />
<line x1="714.5237514715333" x2="714.5237514715333" y1="2343" y2="2355" />
</g>
</g>
<g fill="hsl(309, 100%, 40%)">
<text y="2387">local.10000.sp_modified_for_non_scoped_resumption_support.deep5</text>
<text y="2387" x="765.6287564042607" text-anchor="end">32.7 ms</text>
</g>
<g>
<title>32.7 ms ± 288 μs</title>
<rect y="2393" rx="5" height="22" width="765.6287564042607" fill="hsl(309, 100%, 80%)" stroke="hsl(309, 100%, 55%)" />
<g stroke="hsl(309, 100%, 40%)"><line x1="758.8894994653368" x2="772.3680133431845" y1="2404" y2="2404" />
<line x1="758.8894994653368" x2="758.8894994653368" y1="2398" y2="2410" />
<line x1="772.3680133431845" x2="772.3680133431845" y1="2398" y2="2410" />
</g>
</g>
<text fill="hsl(316, 100%, 40%)" y="2442">local.10000.effectful.shallow 699  μs</text>
<g>
<title>699  μs ±  31 μs</title>
<rect y="2448" rx="5" height="22" width="16.347048561163543" fill="hsl(316, 100%, 80%)" stroke="hsl(316, 100%, 55%)" />
<g stroke="hsl(316, 100%, 40%)"><line x1="15.629596730906828" x2="17.064500391420257" y1="2459" y2="2459" />
<line x1="15.629596730906828" x2="15.629596730906828" y1="2453" y2="2465" />
<line x1="17.064500391420257" x2="17.064500391420257" y1="2453" y2="2465" />
</g>
</g>
<text fill="hsl(324, 100%, 40%)" y="2497">local.10000.effectful.deep 712  μs</text>
<g>
<title>712  μs ±  62 μs</title>
<rect y="2503" rx="5" height="22" width="16.65135288793248" fill="hsl(324, 100%, 80%)" stroke="hsl(324, 100%, 55%)" />
<g stroke="hsl(324, 100%, 40%)"><line x1="15.204832260992003" x2="18.097873514872955" y1="2514" y2="2514" />
<line x1="15.204832260992003" x2="15.204832260992003" y1="2508" y2="2520" />
<line x1="18.097873514872955" x2="18.097873514872955" y1="2508" y2="2520" />
</g>
</g>
<text fill="hsl(331, 100%, 40%)" y="2552">local.10000.fused.shallow 1.81 ms</text>
<g>
<title>1.81 ms ±  84 μs</title>
<rect y="2558" rx="5" height="22" width="42.311062426159246" fill="hsl(331, 100%, 80%)" stroke="hsl(331, 100%, 55%)" />
<g stroke="hsl(331, 100%, 40%)"><line x1="40.34961821097011" x2="44.272506641348386" y1="2569" y2="2569" />
<line x1="40.34961821097011" x2="40.34961821097011" y1="2563" y2="2575" />
<line x1="44.272506641348386" x2="44.272506641348386" y1="2563" y2="2575" />
</g>
</g>
<text fill="hsl(338, 100%, 40%)" y="2607">local.10000.fused.deep 7.57 ms</text>
<g>
<title>7.57 ms ± 703 μs</title>
<rect y="2613" rx="5" height="22" width="176.91063456786839" fill="hsl(338, 100%, 80%)" stroke="hsl(338, 100%, 55%)" />
<g stroke="hsl(338, 100%, 40%)"><line x1="160.47440019469667" x2="193.3468689410401" y1="2624" y2="2624" />
<line x1="160.47440019469667" x2="160.47440019469667" y1="2618" y2="2630" />
<line x1="193.3468689410401" x2="193.3468689410401" y1="2618" y2="2630" />
</g>
</g>
<text fill="hsl(345, 100%, 40%)" y="2662">local.10000.sem.shallow 4.35 ms</text>
<g>
<title>4.35 ms ±  87 μs</title>
<rect y="2668" rx="5" height="22" width="101.82052502004254" fill="hsl(345, 100%, 80%)" stroke="hsl(345, 100%, 55%)" />
<g stroke="hsl(345, 100%, 40%)"><line x1="99.79003018416054" x2="103.85101985592453" y1="2679" y2="2679" />
<line x1="99.79003018416054" x2="99.79003018416054" y1="2673" y2="2685" />
<line x1="103.85101985592453" x2="103.85101985592453" y1="2673" y2="2685" />
</g>
</g>
<text fill="hsl(352, 100%, 40%)" y="2717">local.10000.sem.deep 8.91 ms</text>
<g>
<title>8.91 ms ± 734 μs</title>
<rect y="2723" rx="5" height="22" width="208.36844529974456" fill="hsl(352, 100%, 80%)" stroke="hsl(352, 100%, 55%)" />
<g stroke="hsl(352, 100%, 40%)"><line x1="191.2142389957586" x2="225.52265160373054" y1="2734" y2="2734" />
<line x1="191.2142389957586" x2="191.2142389957586" y1="2728" y2="2740" />
<line x1="225.52265160373054" x2="225.52265160373054" y1="2728" y2="2740" />
</g>
</g>
</g>
</svg>
