<svg xmlns="http://www.w3.org/2000/svg" height="447" width="960.0" font-size="16" font-family="sans-serif" stroke-width="2">
<g transform="translate(10.0 0)">
<g fill="hsl(0, 100%, 40%)">
<text y="22">coroutine.10000.sp_modified_for_non_scoped_resumption_support.shallow</text>
<text y="22" x="837.2799128797575" text-anchor="end">838  ms</text>
</g>
<g>
<title>838  ms ±  66 ms</title>
<rect y="28" rx="5" height="22" width="837.2799128797575" fill="hsl(0, 100%, 80%)" stroke="hsl(0, 100%, 55%)" />
<g stroke="hsl(0, 100%, 40%)"><line x1="771.3061478752397" x2="903.2536778842752" y1="39" y2="39" />
<line x1="771.3061478752397" x2="771.3061478752397" y1="33" y2="45" />
<line x1="903.2536778842752" x2="903.2536778842752" y1="33" y2="45" />
</g>
</g>
<g fill="hsl(45, 100%, 40%)">
<text y="77">coroutine.10000.sp_modified_for_non_scoped_resumption_support.deep</text>
<text y="77" x="870.7743755189141" text-anchor="end">872  ms</text>
</g>
<g>
<title>872  ms ±  27 ms</title>
<rect y="83" rx="5" height="22" width="870.7743755189141" fill="hsl(45, 100%, 80%)" stroke="hsl(45, 100%, 55%)" />
<g stroke="hsl(45, 100%, 40%)"><line x1="844.0693043074413" x2="897.4794467303869" y1="94" y2="94" />
<line x1="844.0693043074413" x2="844.0693043074413" y1="88" y2="100" />
<line x1="897.4794467303869" x2="897.4794467303869" y1="88" y2="100" />
</g>
</g>
<g fill="hsl(90, 100%, 40%)">
<text y="132">coroutine.10000.mp.shallow</text>
<text y="132" x="832.5374152368969" text-anchor="end">833  ms</text>
</g>
<g>
<title>833  ms ±  19 ms</title>
<rect y="138" rx="5" height="22" width="832.5374152368969" fill="hsl(90, 100%, 80%)" stroke="hsl(90, 100%, 55%)" />
<g stroke="hsl(90, 100%, 40%)"><line x1="813.8289324085412" x2="851.2458980652526" y1="149" y2="149" />
<line x1="813.8289324085412" x2="813.8289324085412" y1="143" y2="155" />
<line x1="851.2458980652526" x2="851.2458980652526" y1="143" y2="155" />
</g>
</g>
<g fill="hsl(135, 100%, 40%)">
<text y="187">coroutine.10000.mp.deep</text>
<text y="187" x="897.9270107584667" text-anchor="end">899  ms</text>
</g>
<g>
<title>899  ms ±  42 ms</title>
<rect y="193" rx="5" height="22" width="897.9270107584667" fill="hsl(135, 100%, 80%)" stroke="hsl(135, 100%, 55%)" />
<g stroke="hsl(135, 100%, 40%)"><line x1="855.8540215169335" x2="940.0" y1="204" y2="204" />
<line x1="855.8540215169335" x2="855.8540215169335" y1="198" y2="210" />
<line x1="940.0" x2="940.0" y1="198" y2="210" />
</g>
</g>
<text fill="hsl(180, 100%, 40%)" y="242">coroutine.10000.freer.shallow 2.05 ms</text>
<g>
<title>2.05 ms ± 151 μs</title>
<rect y="248" rx="5" height="22" width="2.0501094234387227" fill="hsl(180, 100%, 80%)" stroke="hsl(180, 100%, 55%)" />
<g stroke="hsl(180, 100%, 40%)"><line x1="1.8996188617262426" x2="2.200599985151203" y1="259" y2="259" />
<line x1="1.8996188617262426" x2="1.8996188617262426" y1="253" y2="265" />
<line x1="2.200599985151203" x2="2.200599985151203" y1="253" y2="265" />
</g>
</g>
<text fill="hsl(225, 100%, 40%)" y="297">coroutine.10000.freer.deep 2.88 ms</text>
<g>
<title>2.88 ms ± 126 μs</title>
<rect y="303" rx="5" height="22" width="2.8763541931086833" fill="hsl(225, 100%, 80%)" stroke="hsl(225, 100%, 55%)" />
<g stroke="hsl(225, 100%, 40%)"><line x1="2.7508041599077844" x2="3.0019042263095823" y1="314" y2="314" />
<line x1="2.7508041599077844" x2="2.7508041599077844" y1="308" y2="320" />
<line x1="3.0019042263095823" x2="3.0019042263095823" y1="308" y2="320" />
</g>
</g>
<g fill="hsl(270, 100%, 40%)">
<text y="352">coroutine.10000.eff.shallow</text>
<text y="352" x="435.463824691709" text-anchor="end">436  ms</text>
</g>
<g>
<title>436  ms ±  30 ms</title>
<rect y="358" rx="5" height="22" width="435.463824691709" fill="hsl(270, 100%, 80%)" stroke="hsl(270, 100%, 55%)" />
<g stroke="hsl(270, 100%, 40%)"><line x1="405.24204883673406" x2="465.685600546684" y1="369" y2="369" />
<line x1="405.24204883673406" x2="405.24204883673406" y1="363" y2="375" />
<line x1="465.685600546684" x2="465.685600546684" y1="363" y2="375" />
</g>
</g>
<g fill="hsl(315, 100%, 40%)">
<text y="407">coroutine.10000.eff.deep</text>
<text y="407" x="467.6759684132996" text-anchor="end">468  ms</text>
</g>
<g>
<title>468  ms ±  43 ms</title>
<rect y="413" rx="5" height="22" width="467.6759684132996" fill="hsl(315, 100%, 80%)" stroke="hsl(315, 100%, 55%)" />
<g stroke="hsl(315, 100%, 40%)"><line x1="424.65778720640753" x2="510.69414962019164" y1="424" y2="424" />
<line x1="424.65778720640753" x2="424.65778720640753" y1="418" y2="430" />
<line x1="510.69414962019164" x2="510.69414962019164" y1="418" y2="430" />
</g>
</g>
</g>
</svg>
