<svg xmlns="http://www.w3.org/2000/svg" height="2207" width="960.0" font-size="16" font-family="sans-serif" stroke-width="2">
<g transform="translate(10.0 0)">
<text fill="hsl(0, 100%, 40%)" y="22">countdown.10000.sp_modified_for_non_scoped_resumption_support.shallow 144  μs</text>
<g>
<title>144  μs ± 8.9 μs</title>
<rect y="28" rx="5" height="22" width="4.786403490141386" fill="hsl(0, 100%, 80%)" stroke="hsl(0, 100%, 55%)" />
<g stroke="hsl(0, 100%, 40%)"><line x1="4.4891758919273075" x2="5.083631088355465" y1="39" y2="39" />
<line x1="4.4891758919273075" x2="4.4891758919273075" y1="33" y2="45" />
<line x1="5.083631088355465" x2="5.083631088355465" y1="33" y2="45" />
</g>
</g>
<text fill="hsl(9, 100%, 40%)" y="77">countdown.10000.sp_modified_for_non_scoped_resumption_support.deep 148  μs</text>
<g>
<title>148  μs ±  14 μs</title>
<rect y="83" rx="5" height="22" width="4.9229825787119506" fill="hsl(9, 100%, 80%)" stroke="hsl(9, 100%, 55%)" />
<g stroke="hsl(9, 100%, 40%)"><line x1="4.465521876652054" x2="5.380443280771847" y1="94" y2="94" />
<line x1="4.465521876652054" x2="4.465521876652054" y1="88" y2="100" />
<line x1="5.380443280771847" x2="5.380443280771847" y1="88" y2="100" />
</g>
</g>
<text fill="hsl(18, 100%, 40%)" y="132">countdown.10000.effectful.shallow 234  μs</text>
<g>
<title>234  μs ±  23 μs</title>
<rect y="138" rx="5" height="22" width="7.782525080444127" fill="hsl(18, 100%, 80%)" stroke="hsl(18, 100%, 55%)" />
<g stroke="hsl(18, 100%, 40%)"><line x1="7.028949600019378" x2="8.536100560868874" y1="149" y2="149" />
<line x1="7.028949600019378" x2="7.028949600019378" y1="143" y2="155" />
<line x1="8.536100560868874" x2="8.536100560868874" y1="143" y2="155" />
</g>
</g>
<text fill="hsl(27, 100%, 40%)" y="187">countdown.10000.effectful.deep 232  μs</text>
<g>
<title>232  μs ±  11 μs</title>
<rect y="193" rx="5" height="22" width="7.7078348124263405" fill="hsl(27, 100%, 80%)" stroke="hsl(27, 100%, 55%)" />
<g stroke="hsl(27, 100%, 40%)"><line x1="7.351748670335659" x2="8.063920954517021" y1="204" y2="204" />
<line x1="7.351748670335659" x2="7.351748670335659" y1="198" y2="210" />
<line x1="8.063920954517021" x2="8.063920954517021" y1="198" y2="210" />
</g>
</g>
<text fill="hsl(36, 100%, 40%)" y="242">countdown.10000.ev.shallow 312  μs</text>
<g>
<title>312  μs ±  11 μs</title>
<rect y="248" rx="5" height="22" width="10.367743339104571" fill="hsl(36, 100%, 80%)" stroke="hsl(36, 100%, 55%)" />
<g stroke="hsl(36, 100%, 40%)"><line x1="10.00145593872557" x2="10.734030739483572" y1="259" y2="259" />
<line x1="10.00145593872557" x2="10.00145593872557" y1="253" y2="265" />
<line x1="10.734030739483572" x2="10.734030739483572" y1="253" y2="265" />
</g>
</g>
<text fill="hsl(45, 100%, 40%)" y="297">countdown.10000.ev.deep 325  μs</text>
<g>
<title>325  μs ±  24 μs</title>
<rect y="303" rx="5" height="22" width="10.78916192479767" fill="hsl(45, 100%, 80%)" stroke="hsl(45, 100%, 55%)" />
<g stroke="hsl(45, 100%, 40%)"><line x1="10.006829042982357" x2="11.571494806612982" y1="314" y2="314" />
<line x1="10.006829042982357" x2="10.006829042982357" y1="308" y2="320" />
<line x1="11.571494806612982" x2="11.571494806612982" y1="308" y2="320" />
</g>
</g>
<text fill="hsl(54, 100%, 40%)" y="352">countdown.10000.freer.shallow 455  μs</text>
<g>
<title>455  μs ±  38 μs</title>
<rect y="358" rx="5" height="22" width="15.099190263176903" fill="hsl(54, 100%, 80%)" stroke="hsl(54, 100%, 55%)" />
<g stroke="hsl(54, 100%, 40%)"><line x1="13.824049518963953" x2="16.374331007389852" y1="369" y2="369" />
<line x1="13.824049518963953" x2="13.824049518963953" y1="363" y2="375" />
<line x1="16.374331007389852" x2="16.374331007389852" y1="363" y2="375" />
</g>
</g>
<text fill="hsl(63, 100%, 40%)" y="407">countdown.10000.freer.deep 1.36 ms</text>
<g>
<title>1.36 ms ± 127 μs</title>
<rect y="413" rx="5" height="22" width="45.185950826518244" fill="hsl(63, 100%, 80%)" stroke="hsl(63, 100%, 55%)" />
<g stroke="hsl(63, 100%, 40%)"><line x1="40.96690333330369" x2="49.4049983197328" y1="424" y2="424" />
<line x1="40.96690333330369" x2="40.96690333330369" y1="418" y2="430" />
<line x1="49.4049983197328" x2="49.4049983197328" y1="418" y2="430" />
</g>
</g>
<text fill="hsl(72, 100%, 40%)" y="462">countdown.10000.mtl.shallow 1.26 ms</text>
<g>
<title>1.26 ms ±  95 μs</title>
<rect y="468" rx="5" height="22" width="42.006181109955016" fill="hsl(72, 100%, 80%)" stroke="hsl(72, 100%, 55%)" />
<g stroke="hsl(72, 100%, 40%)"><line x1="38.85551507700216" x2="45.15684714290787" y1="479" y2="479" />
<line x1="38.85551507700216" x2="38.85551507700216" y1="473" y2="485" />
<line x1="45.15684714290787" x2="45.15684714290787" y1="473" y2="485" />
</g>
</g>
<g fill="hsl(81, 100%, 40%)">
<text y="517">countdown.10000.mtl.deep</text>
<text y="517" x="330.0579013193941" text-anchor="end">9.94 ms</text>
</g>
<g>
<title>9.94 ms ± 744 μs</title>
<rect y="523" rx="5" height="22" width="330.0579013193941" fill="hsl(81, 100%, 80%)" stroke="hsl(81, 100%, 55%)" />
<g stroke="hsl(81, 100%, 40%)"><line x1="305.34907499377846" x2="354.7667276450097" y1="534" y2="534" />
<line x1="305.34907499377846" x2="305.34907499377846" y1="528" y2="540" />
<line x1="354.7667276450097" x2="354.7667276450097" y1="528" y2="540" />
</g>
</g>
<text fill="hsl(90, 100%, 40%)" y="572">countdown.10000.fused.shallow 2.19 ms</text>
<g>
<title>2.19 ms ± 207 μs</title>
<rect y="578" rx="5" height="22" width="72.5824780406504" fill="hsl(90, 100%, 80%)" stroke="hsl(90, 100%, 55%)" />
<g stroke="hsl(90, 100%, 40%)"><line x1="65.7134277516685" x2="79.4515283296323" y1="589" y2="589" />
<line x1="65.7134277516685" x2="65.7134277516685" y1="583" y2="595" />
<line x1="79.4515283296323" x2="79.4515283296323" y1="583" y2="595" />
</g>
</g>
<g fill="hsl(99, 100%, 40%)">
<text y="627">countdown.10000.fused.deep</text>
<text y="627" x="576.7834232379682" text-anchor="end">17.4 ms</text>
</g>
<g>
<title>17.4 ms ± 1.6 ms</title>
<rect y="633" rx="5" height="22" width="576.7834232379682" fill="hsl(99, 100%, 80%)" stroke="hsl(99, 100%, 55%)" />
<g stroke="hsl(99, 100%, 40%)"><line x1="523.0379203896441" x2="630.5289260862924" y1="644" y2="644" />
<line x1="523.0379203896441" x2="523.0379203896441" y1="638" y2="650" />
<line x1="630.5289260862924" x2="630.5289260862924" y1="638" y2="650" />
</g>
</g>
<text fill="hsl(108, 100%, 40%)" y="682">countdown.10000.sem.shallow 2.78 ms</text>
<g>
<title>2.78 ms ± 180 μs</title>
<rect y="688" rx="5" height="22" width="92.33846578298478" fill="hsl(108, 100%, 80%)" stroke="hsl(108, 100%, 55%)" />
<g stroke="hsl(108, 100%, 40%)"><line x1="86.35653407308061" x2="98.32039749288896" y1="699" y2="699" />
<line x1="86.35653407308061" x2="86.35653407308061" y1="693" y2="705" />
<line x1="98.32039749288896" x2="98.32039749288896" y1="693" y2="705" />
</g>
</g>
<text fill="hsl(117, 100%, 40%)" y="737">countdown.10000.sem.deep 4.63 ms</text>
<g>
<title>4.63 ms ± 385 μs</title>
<rect y="743" rx="5" height="22" width="153.8869681420952" fill="hsl(117, 100%, 80%)" stroke="hsl(117, 100%, 55%)" />
<g stroke="hsl(117, 100%, 40%)"><line x1="141.11376999859" x2="166.66016628560044" y1="754" y2="754" />
<line x1="141.11376999859" x2="141.11376999859" y1="748" y2="760" />
<line x1="166.66016628560044" x2="166.66016628560044" y1="748" y2="760" />
</g>
</g>
<text fill="hsl(126, 100%, 40%)" y="792">pyth.32.sp_modified_for_non_scoped_resumption_support.shallow 4.02 ms</text>
<g>
<title>4.02 ms ± 343 μs</title>
<rect y="798" rx="5" height="22" width="133.63365851196022" fill="hsl(126, 100%, 80%)" stroke="hsl(126, 100%, 55%)" />
<g stroke="hsl(126, 100%, 40%)"><line x1="122.25182033467343" x2="145.01549668924702" y1="809" y2="809" />
<line x1="122.25182033467343" x2="122.25182033467343" y1="803" y2="815" />
<line x1="145.01549668924702" x2="145.01549668924702" y1="803" y2="815" />
</g>
</g>
<text fill="hsl(135, 100%, 40%)" y="847">pyth.32.sp_modified_for_non_scoped_resumption_support.deep 9.83 ms</text>
<g>
<title>9.83 ms ± 377 μs</title>
<rect y="853" rx="5" height="22" width="326.62666427820665" fill="hsl(135, 100%, 80%)" stroke="hsl(135, 100%, 55%)" />
<g stroke="hsl(135, 100%, 40%)"><line x1="314.11293810915384" x2="339.14039044725945" y1="864" y2="864" />
<line x1="314.11293810915384" x2="314.11293810915384" y1="858" y2="870" />
<line x1="339.14039044725945" x2="339.14039044725945" y1="858" y2="870" />
</g>
</g>
<text fill="hsl(144, 100%, 40%)" y="902">pyth.32.ev.shallow 1.41 ms</text>
<g>
<title>1.41 ms ± 122 μs</title>
<rect y="908" rx="5" height="22" width="46.73589134150161" fill="hsl(144, 100%, 80%)" stroke="hsl(144, 100%, 55%)" />
<g stroke="hsl(144, 100%, 40%)"><line x1="42.69748285679454" x2="50.77429982620869" y1="919" y2="919" />
<line x1="42.69748285679454" x2="42.69748285679454" y1="913" y2="925" />
<line x1="50.77429982620869" x2="50.77429982620869" y1="913" y2="925" />
</g>
</g>
<text fill="hsl(153, 100%, 40%)" y="957">pyth.32.ev.deep 2.84 ms</text>
<g>
<title>2.84 ms ± 228 μs</title>
<rect y="963" rx="5" height="22" width="94.29229778834508" fill="hsl(153, 100%, 80%)" stroke="hsl(153, 100%, 55%)" />
<g stroke="hsl(153, 100%, 40%)"><line x1="86.70909365047149" x2="101.87550192621867" y1="974" y2="974" />
<line x1="86.70909365047149" x2="86.70909365047149" y1="968" y2="980" />
<line x1="101.87550192621867" x2="101.87550192621867" y1="968" y2="980" />
</g>
</g>
<g fill="hsl(162, 100%, 40%)">
<text y="1012">pyth.32.freer.shallow</text>
<text y="1012" x="235.19823149054307" text-anchor="end">7.08 ms</text>
</g>
<g>
<title>7.08 ms ± 238 μs</title>
<rect y="1018" rx="5" height="22" width="235.19823149054307" fill="hsl(162, 100%, 80%)" stroke="hsl(162, 100%, 55%)" />
<g stroke="hsl(162, 100%, 40%)"><line x1="227.27732396344723" x2="243.1191390176389" y1="1029" y2="1029" />
<line x1="227.27732396344723" x2="227.27732396344723" y1="1023" y2="1035" />
<line x1="243.1191390176389" x2="243.1191390176389" y1="1023" y2="1035" />
</g>
</g>
<g fill="hsl(171, 100%, 40%)">
<text y="1067">pyth.32.freer.deep</text>
<text y="1067" x="347.61072199980504" text-anchor="end">10.5 ms</text>
</g>
<g>
<title>10.5 ms ± 847 μs</title>
<rect y="1073" rx="5" height="22" width="347.61072199980504" fill="hsl(171, 100%, 80%)" stroke="hsl(171, 100%, 55%)" />
<g stroke="hsl(171, 100%, 40%)"><line x1="319.4721900142183" x2="375.74925398539176" y1="1084" y2="1084" />
<line x1="319.4721900142183" x2="319.4721900142183" y1="1078" y2="1090" />
<line x1="375.74925398539176" x2="375.74925398539176" y1="1078" y2="1090" />
</g>
</g>
<text fill="hsl(180, 100%, 40%)" y="1122">pyth.32.fused.shallow 1.51 ms</text>
<g>
<title>1.51 ms ± 105 μs</title>
<rect y="1128" rx="5" height="22" width="50.02521744477938" fill="hsl(180, 100%, 80%)" stroke="hsl(180, 100%, 55%)" />
<g stroke="hsl(180, 100%, 40%)"><line x1="46.523483289395045" x2="53.52695160016371" y1="1139" y2="1139" />
<line x1="46.523483289395045" x2="46.523483289395045" y1="1133" y2="1145" />
<line x1="53.52695160016371" x2="53.52695160016371" y1="1133" y2="1145" />
</g>
</g>
<g fill="hsl(189, 100%, 40%)">
<text y="1177">pyth.32.fused.deep</text>
<text y="1177" x="423.9524879827018" text-anchor="end">12.8 ms</text>
</g>
<g>
<title>12.8 ms ± 794 μs</title>
<rect y="1183" rx="5" height="22" width="423.9524879827018" fill="hsl(189, 100%, 80%)" stroke="hsl(189, 100%, 55%)" />
<g stroke="hsl(189, 100%, 40%)"><line x1="397.57129192562206" x2="450.3336840397816" y1="1194" y2="1194" />
<line x1="397.57129192562206" x2="397.57129192562206" y1="1188" y2="1200" />
<line x1="450.3336840397816" x2="450.3336840397816" y1="1188" y2="1200" />
</g>
</g>
<g fill="hsl(198, 100%, 40%)">
<text y="1232">pyth.32.sem.shallow</text>
<text y="1232" x="519.2475038847351" text-anchor="end">15.6 ms</text>
</g>
<g>
<title>15.6 ms ± 755 μs</title>
<rect y="1238" rx="5" height="22" width="519.2475038847351" fill="hsl(198, 100%, 80%)" stroke="hsl(198, 100%, 55%)" />
<g stroke="hsl(198, 100%, 40%)"><line x1="494.1673204541764" x2="544.3276873152939" y1="1249" y2="1249" />
<line x1="494.1673204541764" x2="494.1673204541764" y1="1243" y2="1255" />
<line x1="544.3276873152939" x2="544.3276873152939" y1="1243" y2="1255" />
</g>
</g>
<g fill="hsl(207, 100%, 40%)">
<text y="1287">pyth.32.sem.deep</text>
<text y="1287" x="524.3277621676613" text-anchor="end">15.8 ms</text>
</g>
<g>
<title>15.8 ms ± 879 μs</title>
<rect y="1293" rx="5" height="22" width="524.3277621676613" fill="hsl(207, 100%, 80%)" stroke="hsl(207, 100%, 55%)" />
<g stroke="hsl(207, 100%, 40%)"><line x1="495.1317299222632" x2="553.5237944130592" y1="1304" y2="1304" />
<line x1="495.1317299222632" x2="495.1317299222632" y1="1298" y2="1310" />
<line x1="553.5237944130592" x2="553.5237944130592" y1="1298" y2="1310" />
</g>
</g>
<text fill="hsl(216, 100%, 40%)" y="1342">catch.10000.sp_modified_for_non_scoped_resumption_support.shallow 205  μs</text>
<g>
<title>205  μs ±  20 μs</title>
<rect y="1348" rx="5" height="22" width="6.812369885180308" fill="hsl(216, 100%, 80%)" stroke="hsl(216, 100%, 55%)" />
<g stroke="hsl(216, 100%, 40%)"><line x1="6.152047459179568" x2="7.472692311181048" y1="1359" y2="1359" />
<line x1="6.152047459179568" x2="6.152047459179568" y1="1353" y2="1365" />
<line x1="7.472692311181048" x2="7.472692311181048" y1="1353" y2="1365" />
</g>
</g>
<text fill="hsl(225, 100%, 40%)" y="1397">catch.10000.sp_modified_for_non_scoped_resumption_support.deep 207  μs</text>
<g>
<title>207  μs ±  13 μs</title>
<rect y="1403" rx="5" height="22" width="6.891580489739842" fill="hsl(225, 100%, 80%)" stroke="hsl(225, 100%, 55%)" />
<g stroke="hsl(225, 100%, 40%)"><line x1="6.463872821037578" x2="7.319288158442106" y1="1414" y2="1414" />
<line x1="6.463872821037578" x2="6.463872821037578" y1="1408" y2="1420" />
<line x1="7.319288158442106" x2="7.319288158442106" y1="1408" y2="1420" />
</g>
</g>
<text fill="hsl(234, 100%, 40%)" y="1452">catch.10000.effectful.shallow 1.31 ms</text>
<g>
<title>1.31 ms ±  97 μs</title>
<rect y="1458" rx="5" height="22" width="43.55347264069398" fill="hsl(234, 100%, 80%)" stroke="hsl(234, 100%, 55%)" />
<g stroke="hsl(234, 100%, 40%)"><line x1="40.345211487414915" x2="46.76173379397305" y1="1469" y2="1469" />
<line x1="40.345211487414915" x2="40.345211487414915" y1="1463" y2="1475" />
<line x1="46.76173379397305" x2="46.76173379397305" y1="1463" y2="1475" />
</g>
</g>
<text fill="hsl(243, 100%, 40%)" y="1507">catch.10000.effectful.deep 1.31 ms</text>
<g>
<title>1.31 ms ±  85 μs</title>
<rect y="1513" rx="5" height="22" width="43.50937425602703" fill="hsl(243, 100%, 80%)" stroke="hsl(243, 100%, 55%)" />
<g stroke="hsl(243, 100%, 40%)"><line x1="40.67122425603018" x2="46.34752425602388" y1="1524" y2="1524" />
<line x1="40.67122425603018" x2="40.67122425603018" y1="1518" y2="1530" />
<line x1="46.34752425602388" x2="46.34752425602388" y1="1518" y2="1530" />
</g>
</g>
<text fill="hsl(252, 100%, 40%)" y="1562">catch.10000.fused.shallow 5.01 ms</text>
<g>
<title>5.01 ms ± 174 μs</title>
<rect y="1568" rx="5" height="22" width="166.32746746334684" fill="hsl(252, 100%, 80%)" stroke="hsl(252, 100%, 55%)" />
<g stroke="hsl(252, 100%, 40%)"><line x1="160.5458184803465" x2="172.10911644634717" y1="1579" y2="1579" />
<line x1="160.5458184803465" x2="160.5458184803465" y1="1573" y2="1585" />
<line x1="172.10911644634717" x2="172.10911644634717" y1="1573" y2="1585" />
</g>
</g>
<g fill="hsl(261, 100%, 40%)">
<text y="1617">catch.10000.fused.deep</text>
<text y="1617" x="865.4176619552492" text-anchor="end">26.1 ms</text>
</g>
<g>
<title>26.1 ms ± 2.2 ms</title>
<rect y="1623" rx="5" height="22" width="865.4176619552492" fill="hsl(261, 100%, 80%)" stroke="hsl(261, 100%, 55%)" />
<g stroke="hsl(261, 100%, 40%)"><line x1="790.8353239104983" x2="940.0" y1="1634" y2="1634" />
<line x1="790.8353239104983" x2="790.8353239104983" y1="1628" y2="1640" />
<line x1="940.0" x2="940.0" y1="1628" y2="1640" />
</g>
</g>
<text fill="hsl(270, 100%, 40%)" y="1672">catch.10000.sem.shallow 3.20 ms</text>
<g>
<title>3.20 ms ± 149 μs</title>
<rect y="1678" rx="5" height="22" width="106.24794035199726" fill="hsl(270, 100%, 80%)" stroke="hsl(270, 100%, 55%)" />
<g stroke="hsl(270, 100%, 40%)"><line x1="101.30379556168235" x2="111.19208514231217" y1="1689" y2="1689" />
<line x1="101.30379556168235" x2="101.30379556168235" y1="1683" y2="1695" />
<line x1="111.19208514231217" x2="111.19208514231217" y1="1683" y2="1695" />
</g>
</g>
<g fill="hsl(279, 100%, 40%)">
<text y="1727">catch.10000.sem.deep</text>
<text y="1727" x="432.559310135009" text-anchor="end">13.0 ms</text>
</g>
<g>
<title>13.0 ms ± 737 μs</title>
<rect y="1733" rx="5" height="22" width="432.559310135009" fill="hsl(279, 100%, 80%)" stroke="hsl(279, 100%, 55%)" />
<g stroke="hsl(279, 100%, 40%)"><line x1="408.08436650768897" x2="457.03425376232906" y1="1744" y2="1744" />
<line x1="408.08436650768897" x2="408.08436650768897" y1="1738" y2="1750" />
<line x1="457.03425376232906" x2="457.03425376232906" y1="1738" y2="1750" />
</g>
</g>
<text fill="hsl(288, 100%, 40%)" y="1782">local.10000.sp_modified_for_non_scoped_resumption_support.shallow 341  μs</text>
<g>
<title>341  μs ±  26 μs</title>
<rect y="1788" rx="5" height="22" width="11.314669590898118" fill="hsl(288, 100%, 80%)" stroke="hsl(288, 100%, 55%)" />
<g stroke="hsl(288, 100%, 40%)"><line x1="10.466729431994851" x2="12.162609749801385" y1="1799" y2="1799" />
<line x1="10.466729431994851" x2="10.466729431994851" y1="1793" y2="1805" />
<line x1="12.162609749801385" x2="12.162609749801385" y1="1793" y2="1805" />
</g>
</g>
<text fill="hsl(297, 100%, 40%)" y="1837">local.10000.sp_modified_for_non_scoped_resumption_support.deep 344  μs</text>
<g>
<title>344  μs ±  26 μs</title>
<rect y="1843" rx="5" height="22" width="11.431672556690293" fill="hsl(297, 100%, 80%)" stroke="hsl(297, 100%, 55%)" />
<g stroke="hsl(297, 100%, 40%)"><line x1="10.582695112304021" x2="12.280650001076564" y1="1854" y2="1854" />
<line x1="10.582695112304021" x2="10.582695112304021" y1="1848" y2="1860" />
<line x1="12.280650001076564" x2="12.280650001076564" y1="1848" y2="1860" />
</g>
</g>
<text fill="hsl(306, 100%, 40%)" y="1892">local.10000.effectful.shallow 725  μs</text>
<g>
<title>725  μs ±  68 μs</title>
<rect y="1898" rx="5" height="22" width="24.067329960157718" fill="hsl(306, 100%, 80%)" stroke="hsl(306, 100%, 55%)" />
<g stroke="hsl(306, 100%, 40%)"><line x1="21.80091638564768" x2="26.333743534667754" y1="1909" y2="1909" />
<line x1="21.80091638564768" x2="21.80091638564768" y1="1903" y2="1915" />
<line x1="26.333743534667754" x2="26.333743534667754" y1="1903" y2="1915" />
</g>
</g>
<text fill="hsl(315, 100%, 40%)" y="1947">local.10000.effectful.deep 732  μs</text>
<g>
<title>732  μs ±  49 μs</title>
<rect y="1953" rx="5" height="22" width="24.309581361339486" fill="hsl(315, 100%, 80%)" stroke="hsl(315, 100%, 55%)" />
<g stroke="hsl(315, 100%, 40%)"><line x1="22.680256917995816" x2="25.938905804683156" y1="1964" y2="1964" />
<line x1="22.680256917995816" x2="22.680256917995816" y1="1958" y2="1970" />
<line x1="25.938905804683156" x2="25.938905804683156" y1="1958" y2="1970" />
</g>
</g>
<text fill="hsl(324, 100%, 40%)" y="2002">local.10000.fused.shallow 1.74 ms</text>
<g>
<title>1.74 ms ± 126 μs</title>
<rect y="2008" rx="5" height="22" width="57.68622055155038" fill="hsl(324, 100%, 80%)" stroke="hsl(324, 100%, 55%)" />
<g stroke="hsl(324, 100%, 40%)"><line x1="53.51473187361147" x2="61.85770922948929" y1="2019" y2="2019" />
<line x1="53.51473187361147" x2="53.51473187361147" y1="2013" y2="2025" />
<line x1="61.85770922948929" x2="61.85770922948929" y1="2013" y2="2025" />
</g>
</g>
<g fill="hsl(333, 100%, 40%)">
<text y="2057">local.10000.fused.deep</text>
<text y="2057" x="245.9775307330396" text-anchor="end">7.41 ms</text>
</g>
<g>
<title>7.41 ms ± 715 μs</title>
<rect y="2063" rx="5" height="22" width="245.9775307330396" fill="hsl(333, 100%, 80%)" stroke="hsl(333, 100%, 55%)" />
<g stroke="hsl(333, 100%, 40%)"><line x1="222.21852541249257" x2="269.73653605358663" y1="2074" y2="2074" />
<line x1="222.21852541249257" x2="222.21852541249257" y1="2068" y2="2080" />
<line x1="269.73653605358663" x2="269.73653605358663" y1="2068" y2="2080" />
</g>
</g>
<text fill="hsl(342, 100%, 40%)" y="2112">local.10000.sem.shallow 4.33 ms</text>
<g>
<title>4.33 ms ± 120 μs</title>
<rect y="2118" rx="5" height="22" width="143.930927490184" fill="hsl(342, 100%, 80%)" stroke="hsl(342, 100%, 55%)" />
<g stroke="hsl(342, 100%, 40%)"><line x1="139.93086687978814" x2="147.93098810057984" y1="2129" y2="2129" />
<line x1="139.93086687978814" x2="139.93086687978814" y1="2123" y2="2135" />
<line x1="147.93098810057984" x2="147.93098810057984" y1="2123" y2="2135" />
</g>
</g>
<g fill="hsl(351, 100%, 40%)">
<text y="2167">local.10000.sem.deep</text>
<text y="2167" x="285.53045388259807" text-anchor="end">8.60 ms</text>
</g>
<g>
<title>8.60 ms ± 368 μs</title>
<rect y="2173" rx="5" height="22" width="285.53045388259807" fill="hsl(351, 100%, 80%)" stroke="hsl(351, 100%, 55%)" />
<g stroke="hsl(351, 100%, 40%)"><line x1="273.2954628115092" x2="297.76544495368694" y1="2184" y2="2184" />
<line x1="273.2954628115092" x2="273.2954628115092" y1="2178" y2="2190" />
<line x1="297.76544495368694" x2="297.76544495368694" y1="2178" y2="2190" />
</g>
</g>
</g>
</svg>
