<svg xmlns="http://www.w3.org/2000/svg" height="447" width="960.0" font-size="16" font-family="sans-serif" stroke-width="2">
<g transform="translate(10.0 0)">
<text fill="hsl(0, 100%, 40%)" y="22">coroutine.10000.sp_modified_for_non_scoped_resumption_support.shallow 2.93 ms</text>
<g>
<title>2.93 ms ± 146 μs</title>
<rect y="28" rx="5" height="22" width="3.49190423248285" fill="hsl(0, 100%, 80%)" stroke="hsl(0, 100%, 55%)" />
<g stroke="hsl(0, 100%, 40%)"><line x1="3.3180835097434493" x2="3.665724955222251" y1="39" y2="39" />
<line x1="3.3180835097434493" x2="3.3180835097434493" y1="33" y2="45" />
<line x1="3.665724955222251" x2="3.665724955222251" y1="33" y2="45" />
</g>
</g>
<text fill="hsl(45, 100%, 40%)" y="77">coroutine.10000.sp_modified_for_non_scoped_resumption_support.deep 6.80 ms</text>
<g>
<title>6.80 ms ± 367 μs</title>
<rect y="83" rx="5" height="22" width="8.115106775081813" fill="hsl(45, 100%, 80%)" stroke="hsl(45, 100%, 55%)" />
<g stroke="hsl(45, 100%, 40%)"><line x1="7.6771008967947" x2="8.553112653368926" y1="94" y2="94" />
<line x1="7.6771008967947" x2="7.6771008967947" y1="88" y2="100" />
<line x1="8.553112653368926" x2="8.553112653368926" y1="88" y2="100" />
</g>
</g>
<g fill="hsl(90, 100%, 40%)">
<text y="132">coroutine.10000.mp.shallow</text>
<text y="132" x="921.729710102814" text-anchor="end">772  ms</text>
</g>
<g>
<title>772  ms ± 6.2 ms</title>
<rect y="138" rx="5" height="22" width="921.729710102814" fill="hsl(90, 100%, 80%)" stroke="hsl(90, 100%, 55%)" />
<g stroke="hsl(90, 100%, 40%)"><line x1="914.3549052854261" x2="929.104514920202" y1="149" y2="149" />
<line x1="914.3549052854261" x2="914.3549052854261" y1="143" y2="155" />
<line x1="929.104514920202" x2="929.104514920202" y1="143" y2="155" />
</g>
</g>
<g fill="hsl(135, 100%, 40%)">
<text y="187">coroutine.10000.mp.deep</text>
<text y="187" x="932.7172857273537" text-anchor="end">781  ms</text>
</g>
<g>
<title>781  ms ± 6.1 ms</title>
<rect y="193" rx="5" height="22" width="932.7172857273537" fill="hsl(135, 100%, 80%)" stroke="hsl(135, 100%, 55%)" />
<g stroke="hsl(135, 100%, 40%)"><line x1="925.4345714547073" x2="940.0" y1="204" y2="204" />
<line x1="925.4345714547073" x2="925.4345714547073" y1="198" y2="210" />
<line x1="940.0" x2="940.0" y1="198" y2="210" />
</g>
</g>
<text fill="hsl(180, 100%, 40%)" y="242">coroutine.10000.freer.shallow 1.91 ms</text>
<g>
<title>1.91 ms ± 119 μs</title>
<rect y="248" rx="5" height="22" width="2.2753878998415527" fill="hsl(180, 100%, 80%)" stroke="hsl(180, 100%, 55%)" />
<g stroke="hsl(180, 100%, 40%)"><line x1="2.1336119460022664" x2="2.417163853680839" y1="259" y2="259" />
<line x1="2.1336119460022664" x2="2.1336119460022664" y1="253" y2="265" />
<line x1="2.417163853680839" x2="2.417163853680839" y1="253" y2="265" />
</g>
</g>
<text fill="hsl(225, 100%, 40%)" y="297">coroutine.10000.freer.deep 2.47 ms</text>
<g>
<title>2.47 ms ± 219 μs</title>
<rect y="303" rx="5" height="22" width="2.943693654963508" fill="hsl(225, 100%, 80%)" stroke="hsl(225, 100%, 55%)" />
<g stroke="hsl(225, 100%, 40%)"><line x1="2.682461554236496" x2="3.20492575569052" y1="314" y2="314" />
<line x1="2.682461554236496" x2="2.682461554236496" y1="308" y2="320" />
<line x1="3.20492575569052" x2="3.20492575569052" y1="308" y2="320" />
</g>
</g>
<g fill="hsl(270, 100%, 40%)">
<text y="352">coroutine.10000.eff.shallow</text>
<text y="352" x="450.3916206424816" text-anchor="end">377  ms</text>
</g>
<g>
<title>377  ms ±  14 ms</title>
<rect y="358" rx="5" height="22" width="450.3916206424816" fill="hsl(270, 100%, 80%)" stroke="hsl(270, 100%, 55%)" />
<g stroke="hsl(270, 100%, 40%)"><line x1="433.73051357566413" x2="467.05272770929906" y1="369" y2="369" />
<line x1="433.73051357566413" x2="433.73051357566413" y1="363" y2="375" />
<line x1="467.05272770929906" x2="467.05272770929906" y1="363" y2="375" />
</g>
</g>
<g fill="hsl(315, 100%, 40%)">
<text y="407">coroutine.10000.eff.deep</text>
<text y="407" x="453.4296031388298" text-anchor="end">380  ms</text>
</g>
<g>
<title>380  ms ±  10 ms</title>
<rect y="413" rx="5" height="22" width="453.4296031388298" fill="hsl(315, 100%, 80%)" stroke="hsl(315, 100%, 55%)" />
<g stroke="hsl(315, 100%, 40%)"><line x1="441.43306375228184" x2="465.42614252537777" y1="424" y2="424" />
<line x1="441.43306375228184" x2="441.43306375228184" y1="418" y2="430" />
<line x1="465.42614252537777" x2="465.42614252537777" y1="418" y2="430" />
</g>
</g>
</g>
</svg>
