<svg xmlns="http://www.w3.org/2000/svg" height="447" width="960.0" font-size="16" font-family="sans-serif" stroke-width="2">
<g transform="translate(10.0 0)">
<g fill="hsl(0, 100%, 40%)">
<text y="22">coroutine.10000.sp_modified_for_non_scoped_resumption_support.shallow</text>
<text y="22" x="905.9004485076874" text-anchor="end">795  ms</text>
</g>
<g>
<title>795  ms ± 6.5 ms</title>
<rect y="28" rx="5" height="22" width="905.9004485076874" fill="hsl(0, 100%, 80%)" stroke="hsl(0, 100%, 55%)" />
<g stroke="hsl(0, 100%, 40%)"><line x1="898.4540558910514" x2="913.3468411243234" y1="39" y2="39" />
<line x1="898.4540558910514" x2="898.4540558910514" y1="33" y2="45" />
<line x1="913.3468411243234" x2="913.3468411243234" y1="33" y2="45" />
</g>
</g>
<g fill="hsl(45, 100%, 40%)">
<text y="77">coroutine.10000.sp_modified_for_non_scoped_resumption_support.deep</text>
<text y="77" x="931.48318880148" text-anchor="end">818  ms</text>
</g>
<g>
<title>818  ms ± 7.5 ms</title>
<rect y="83" rx="5" height="22" width="931.48318880148" fill="hsl(45, 100%, 80%)" stroke="hsl(45, 100%, 55%)" />
<g stroke="hsl(45, 100%, 40%)"><line x1="922.9663776029599" x2="940.0" y1="94" y2="94" />
<line x1="922.9663776029599" x2="922.9663776029599" y1="88" y2="100" />
<line x1="940.0" x2="940.0" y1="88" y2="100" />
</g>
</g>
<g fill="hsl(90, 100%, 40%)">
<text y="132">coroutine.10000.mp.shallow</text>
<text y="132" x="921.103186203848" text-anchor="end">808  ms</text>
</g>
<g>
<title>808  ms ± 6.0 ms</title>
<rect y="138" rx="5" height="22" width="921.103186203848" fill="hsl(90, 100%, 80%)" stroke="hsl(90, 100%, 55%)" />
<g stroke="hsl(90, 100%, 40%)"><line x1="914.2366922684539" x2="927.9696801392422" y1="149" y2="149" />
<line x1="914.2366922684539" x2="914.2366922684539" y1="143" y2="155" />
<line x1="927.9696801392422" x2="927.9696801392422" y1="143" y2="155" />
</g>
</g>
<g fill="hsl(135, 100%, 40%)">
<text y="187">coroutine.10000.mp.deep</text>
<text y="187" x="919.9604217771969" text-anchor="end">807  ms</text>
</g>
<g>
<title>807  ms ± 6.4 ms</title>
<rect y="193" rx="5" height="22" width="919.9604217771969" fill="hsl(135, 100%, 80%)" stroke="hsl(135, 100%, 55%)" />
<g stroke="hsl(135, 100%, 40%)"><line x1="912.6916626965929" x2="927.2291808578009" y1="204" y2="204" />
<line x1="912.6916626965929" x2="912.6916626965929" y1="198" y2="210" />
<line x1="927.2291808578009" x2="927.2291808578009" y1="198" y2="210" />
</g>
</g>
<text fill="hsl(180, 100%, 40%)" y="242">coroutine.10000.freer.shallow 1.94 ms</text>
<g>
<title>1.94 ms ± 143 μs</title>
<rect y="248" rx="5" height="22" width="2.205902665920652" fill="hsl(180, 100%, 80%)" stroke="hsl(180, 100%, 55%)" />
<g stroke="hsl(180, 100%, 40%)"><line x1="2.0433467426883993" x2="2.3684585891529046" y1="259" y2="259" />
<line x1="2.0433467426883993" x2="2.0433467426883993" y1="253" y2="265" />
<line x1="2.3684585891529046" x2="2.3684585891529046" y1="253" y2="265" />
</g>
</g>
<text fill="hsl(225, 100%, 40%)" y="297">coroutine.10000.freer.deep 2.39 ms</text>
<g>
<title>2.39 ms ± 213 μs</title>
<rect y="303" rx="5" height="22" width="2.726213363614234" fill="hsl(225, 100%, 80%)" stroke="hsl(225, 100%, 55%)" />
<g stroke="hsl(225, 100%, 40%)"><line x1="2.483054845902588" x2="2.9693718813258796" y1="314" y2="314" />
<line x1="2.483054845902588" x2="2.483054845902588" y1="308" y2="320" />
<line x1="2.9693718813258796" x2="2.9693718813258796" y1="308" y2="320" />
</g>
</g>
<g fill="hsl(270, 100%, 40%)">
<text y="352">coroutine.10000.eff.shallow</text>
<text y="352" x="434.1616572119688" text-anchor="end">381  ms</text>
</g>
<g>
<title>381  ms ±  11 ms</title>
<rect y="358" rx="5" height="22" width="434.1616572119688" fill="hsl(270, 100%, 80%)" stroke="hsl(270, 100%, 55%)" />
<g stroke="hsl(270, 100%, 40%)"><line x1="422.01450042708154" x2="446.3088139968561" y1="369" y2="369" />
<line x1="422.01450042708154" x2="422.01450042708154" y1="363" y2="375" />
<line x1="446.3088139968561" x2="446.3088139968561" y1="363" y2="375" />
</g>
</g>
<g fill="hsl(315, 100%, 40%)">
<text y="407">coroutine.10000.eff.deep</text>
<text y="407" x="441.35849701849776" text-anchor="end">387  ms</text>
</g>
<g>
<title>387  ms ±  14 ms</title>
<rect y="413" rx="5" height="22" width="441.35849701849776" fill="hsl(315, 100%, 80%)" stroke="hsl(315, 100%, 55%)" />
<g stroke="hsl(315, 100%, 40%)"><line x1="425.8180832554168" x2="456.8989107815787" y1="424" y2="424" />
<line x1="425.8180832554168" x2="425.8180832554168" y1="418" y2="430" />
<line x1="456.8989107815787" x2="456.8989107815787" y1="418" y2="430" />
</g>
</g>
</g>
</svg>
