<svg xmlns="http://www.w3.org/2000/svg" height="557" width="960.0" font-size="16" font-family="sans-serif" stroke-width="2">
<g transform="translate(10.0 0)">
<text fill="hsl(0, 100%, 40%)" y="22">coroutine.10000.sp_modified_for_non_scoped_resumption_support.shallow 2.87 ms</text>
<g>
<title>2.87 ms ± 187 μs</title>
<rect y="28" rx="5" height="22" width="3.425541844417407" fill="hsl(0, 100%, 80%)" stroke="hsl(0, 100%, 55%)" />
<g stroke="hsl(0, 100%, 40%)"><line x1="3.20215506847964" x2="3.648928620355174" y1="39" y2="39" />
<line x1="3.20215506847964" x2="3.20215506847964" y1="33" y2="45" />
<line x1="3.648928620355174" x2="3.648928620355174" y1="33" y2="45" />
</g>
</g>
<text fill="hsl(36, 100%, 40%)" y="77">coroutine.10000.sp_modified_for_non_scoped_resumption_support.deep 5.55 ms</text>
<g>
<title>5.55 ms ± 182 μs</title>
<rect y="83" rx="5" height="22" width="6.613761093349498" fill="hsl(36, 100%, 80%)" stroke="hsl(36, 100%, 55%)" />
<g stroke="hsl(36, 100%, 40%)"><line x1="6.396791163841016" x2="6.8307310228579805" y1="94" y2="94" />
<line x1="6.396791163841016" x2="6.396791163841016" y1="88" y2="100" />
<line x1="6.8307310228579805" x2="6.8307310228579805" y1="88" y2="100" />
</g>
</g>
<g fill="hsl(72, 100%, 40%)">
<text y="132">coroutine.10000.mp.shallow</text>
<text y="132" x="919.2346704401715" text-anchor="end">771  ms</text>
</g>
<g>
<title>771  ms ± 2.9 ms</title>
<rect y="138" rx="5" height="22" width="919.2346704401715" fill="hsl(72, 100%, 80%)" stroke="hsl(72, 100%, 55%)" />
<g stroke="hsl(72, 100%, 40%)"><line x1="915.7919033042508" x2="922.6774375760922" y1="149" y2="149" />
<line x1="915.7919033042508" x2="915.7919033042508" y1="143" y2="155" />
<line x1="922.6774375760922" x2="922.6774375760922" y1="143" y2="155" />
</g>
</g>
<g fill="hsl(108, 100%, 40%)">
<text y="187">coroutine.10000.mp.deep</text>
<text y="187" x="925.3144739824761" text-anchor="end">776  ms</text>
</g>
<g>
<title>776  ms ±  12 ms</title>
<rect y="193" rx="5" height="22" width="925.3144739824761" fill="hsl(108, 100%, 80%)" stroke="hsl(108, 100%, 55%)" />
<g stroke="hsl(108, 100%, 40%)"><line x1="910.6289479649522" x2="940.0" y1="204" y2="204" />
<line x1="910.6289479649522" x2="910.6289479649522" y1="198" y2="210" />
<line x1="940.0" x2="940.0" y1="198" y2="210" />
</g>
</g>
<text fill="hsl(144, 100%, 40%)" y="242">coroutine.10000.freer.shallow 1.98 ms</text>
<g>
<title>1.98 ms ± 191 μs</title>
<rect y="248" rx="5" height="22" width="2.365991496661087" fill="hsl(144, 100%, 80%)" stroke="hsl(144, 100%, 55%)" />
<g stroke="hsl(144, 100%, 40%)"><line x1="2.138502453753321" x2="2.593480539568853" y1="259" y2="259" />
<line x1="2.138502453753321" x2="2.138502453753321" y1="253" y2="265" />
<line x1="2.593480539568853" x2="2.593480539568853" y1="253" y2="265" />
</g>
</g>
<text fill="hsl(180, 100%, 40%)" y="297">coroutine.10000.freer.deep 2.49 ms</text>
<g>
<title>2.49 ms ± 210 μs</title>
<rect y="303" rx="5" height="22" width="2.968033458214228" fill="hsl(180, 100%, 80%)" stroke="hsl(180, 100%, 55%)" />
<g stroke="hsl(180, 100%, 40%)"><line x1="2.7180826681771086" x2="3.2179842482513474" y1="314" y2="314" />
<line x1="2.7180826681771086" x2="2.7180826681771086" y1="308" y2="320" />
<line x1="3.2179842482513474" x2="3.2179842482513474" y1="308" y2="320" />
</g>
</g>
<text fill="hsl(216, 100%, 40%)" y="352">coroutine.10000.hefty-freer.shallow 1.93 ms</text>
<g>
<title>1.93 ms ± 187 μs</title>
<rect y="358" rx="5" height="22" width="2.306649652933881" fill="hsl(216, 100%, 80%)" stroke="hsl(216, 100%, 55%)" />
<g stroke="hsl(216, 100%, 40%)"><line x1="2.084091436456786" x2="2.5292078694109756" y1="369" y2="369" />
<line x1="2.084091436456786" x2="2.084091436456786" y1="363" y2="375" />
<line x1="2.5292078694109756" x2="2.5292078694109756" y1="363" y2="375" />
</g>
</g>
<text fill="hsl(252, 100%, 40%)" y="407">coroutine.10000.hefty-freer.deep 2.50 ms</text>
<g>
<title>2.50 ms ± 228 μs</title>
<rect y="413" rx="5" height="22" width="2.980173284072876" fill="hsl(252, 100%, 80%)" stroke="hsl(252, 100%, 55%)" />
<g stroke="hsl(252, 100%, 40%)"><line x1="2.7086482736731243" x2="3.251698294472628" y1="424" y2="424" />
<line x1="2.7086482736731243" x2="2.7086482736731243" y1="418" y2="430" />
<line x1="3.251698294472628" x2="3.251698294472628" y1="418" y2="430" />
</g>
</g>
<g fill="hsl(288, 100%, 40%)">
<text y="462">coroutine.10000.eff.shallow</text>
<text y="462" x="445.0545417303125" text-anchor="end">373  ms</text>
</g>
<g>
<title>373  ms ±  12 ms</title>
<rect y="468" rx="5" height="22" width="445.0545417303125" fill="hsl(288, 100%, 80%)" stroke="hsl(288, 100%, 55%)" />
<g stroke="hsl(288, 100%, 40%)"><line x1="430.21407620033835" x2="459.89500726028666" y1="479" y2="479" />
<line x1="430.21407620033835" x2="430.21407620033835" y1="473" y2="485" />
<line x1="459.89500726028666" x2="459.89500726028666" y1="473" y2="485" />
</g>
</g>
<g fill="hsl(324, 100%, 40%)">
<text y="517">coroutine.10000.eff.deep</text>
<text y="517" x="451.5608454005291" text-anchor="end">379  ms</text>
</g>
<g>
<title>379  ms ±  16 ms</title>
<rect y="523" rx="5" height="22" width="451.5608454005291" fill="hsl(324, 100%, 80%)" stroke="hsl(324, 100%, 55%)" />
<g stroke="hsl(324, 100%, 40%)"><line x1="432.7677961680445" x2="470.3538946330137" y1="534" y2="534" />
<line x1="432.7677961680445" x2="432.7677961680445" y1="528" y2="540" />
<line x1="470.3538946330137" x2="470.3538946330137" y1="528" y2="540" />
</g>
</g>
</g>
</svg>
