<svg xmlns="http://www.w3.org/2000/svg" height="777" width="960.0" font-size="16" font-family="sans-serif" stroke-width="2">
<g transform="translate(10.0 0)">
<text fill="hsl(0, 100%, 40%)" y="22">countdown.10000.sp.shallow 1.04 ms</text>
<g>
<title>1.04 ms ±  45 μs</title>
<rect y="28" rx="5" height="22" width="55.66313598713233" fill="hsl(0, 100%, 80%)" stroke="hsl(0, 100%, 55%)" />
<g stroke="hsl(0, 100%, 40%)"><line x1="53.25287077109819" x2="58.07340120316647" y1="39" y2="39" />
<line x1="53.25287077109819" x2="53.25287077109819" y1="33" y2="45" />
<line x1="58.07340120316647" x2="58.07340120316647" y1="33" y2="45" />
</g>
</g>
<text fill="hsl(25, 100%, 40%)" y="77">countdown.10000.sp.deep 1.05 ms</text>
<g>
<title>1.05 ms ±  87 μs</title>
<rect y="83" rx="5" height="22" width="55.93951884181463" fill="hsl(25, 100%, 80%)" stroke="hsl(25, 100%, 55%)" />
<g stroke="hsl(25, 100%, 40%)"><line x1="51.30577911534578" x2="60.573258568283485" y1="94" y2="94" />
<line x1="51.30577911534578" x2="51.30577911534578" y1="88" y2="100" />
<line x1="60.573258568283485" x2="60.573258568283485" y1="88" y2="100" />
</g>
</g>
<text fill="hsl(51, 100%, 40%)" y="132">countdown.10000.effectful.shallow 230  μs</text>
<g>
<title>230  μs ±  12 μs</title>
<rect y="138" rx="5" height="22" width="12.255567846396044" fill="hsl(51, 100%, 80%)" stroke="hsl(51, 100%, 55%)" />
<g stroke="hsl(51, 100%, 40%)"><line x1="11.594903858752229" x2="12.91623183403986" y1="149" y2="149" />
<line x1="11.594903858752229" x2="11.594903858752229" y1="143" y2="155" />
<line x1="12.91623183403986" x2="12.91623183403986" y1="143" y2="155" />
</g>
</g>
<text fill="hsl(77, 100%, 40%)" y="187">countdown.10000.effectful.deep 231  μs</text>
<g>
<title>231  μs ±  11 μs</title>
<rect y="193" rx="5" height="22" width="12.311832222679968" fill="hsl(77, 100%, 80%)" stroke="hsl(77, 100%, 55%)" />
<g stroke="hsl(77, 100%, 40%)"><line x1="11.722056652839436" x2="12.9016077925205" y1="204" y2="204" />
<line x1="11.722056652839436" x2="11.722056652839436" y1="198" y2="210" />
<line x1="12.9016077925205" x2="12.9016077925205" y1="198" y2="210" />
</g>
</g>
<text fill="hsl(102, 100%, 40%)" y="242">countdown.10000.ev.shallow 380  μs</text>
<g>
<title>380  μs ±  15 μs</title>
<rect y="248" rx="5" height="22" width="20.289553369768036" fill="hsl(102, 100%, 80%)" stroke="hsl(102, 100%, 55%)" />
<g stroke="hsl(102, 100%, 40%)"><line x1="19.51369757062181" x2="21.06540916891426" y1="259" y2="259" />
<line x1="19.51369757062181" x2="19.51369757062181" y1="253" y2="265" />
<line x1="21.06540916891426" x2="21.06540916891426" y1="253" y2="265" />
</g>
</g>
<text fill="hsl(128, 100%, 40%)" y="297">countdown.10000.ev.deep 405  μs</text>
<g>
<title>405  μs ±  30 μs</title>
<rect y="303" rx="5" height="22" width="21.59427132061312" fill="hsl(128, 100%, 80%)" stroke="hsl(128, 100%, 55%)" />
<g stroke="hsl(128, 100%, 40%)"><line x1="19.999888887470718" x2="23.188653753755524" y1="314" y2="314" />
<line x1="19.999888887470718" x2="19.999888887470718" y1="308" y2="320" />
<line x1="23.188653753755524" x2="23.188653753755524" y1="308" y2="320" />
</g>
</g>
<text fill="hsl(154, 100%, 40%)" y="352">countdown.10000.freer.shallow 487  μs</text>
<g>
<title>487  μs ±  47 μs</title>
<rect y="358" rx="5" height="22" width="25.980725760747443" fill="hsl(154, 100%, 80%)" stroke="hsl(154, 100%, 55%)" />
<g stroke="hsl(154, 100%, 40%)"><line x1="23.470861222853376" x2="28.49059029864151" y1="369" y2="369" />
<line x1="23.470861222853376" x2="23.470861222853376" y1="363" y2="375" />
<line x1="28.49059029864151" x2="28.49059029864151" y1="363" y2="375" />
</g>
</g>
<text fill="hsl(180, 100%, 40%)" y="407">countdown.10000.freer.deep 1.42 ms</text>
<g>
<title>1.42 ms ±  93 μs</title>
<rect y="413" rx="5" height="22" width="76.00926329937955" fill="hsl(180, 100%, 80%)" stroke="hsl(180, 100%, 55%)" />
<g stroke="hsl(180, 100%, 40%)"><line x1="71.03397698076901" x2="80.9845496179901" y1="424" y2="424" />
<line x1="71.03397698076901" x2="71.03397698076901" y1="418" y2="430" />
<line x1="80.9845496179901" x2="80.9845496179901" y1="418" y2="430" />
</g>
</g>
<text fill="hsl(205, 100%, 40%)" y="462">countdown.10000.mtl.shallow 752  μs</text>
<g>
<title>752  μs ±  69 μs</title>
<rect y="468" rx="5" height="22" width="40.09719252625687" fill="hsl(205, 100%, 80%)" stroke="hsl(205, 100%, 55%)" />
<g stroke="hsl(205, 100%, 40%)"><line x1="36.434472104388696" x2="43.75991294812504" y1="479" y2="479" />
<line x1="36.434472104388696" x2="36.434472104388696" y1="473" y2="485" />
<line x1="43.75991294812504" x2="43.75991294812504" y1="473" y2="485" />
</g>
</g>
<g fill="hsl(231, 100%, 40%)">
<text y="517">countdown.10000.mtl.deep</text>
<text y="517" x="318.85780263858226" text-anchor="end">5.98 ms</text>
</g>
<g>
<title>5.98 ms ± 146 μs</title>
<rect y="523" rx="5" height="22" width="318.85780263858226" fill="hsl(231, 100%, 80%)" stroke="hsl(231, 100%, 55%)" />
<g stroke="hsl(231, 100%, 40%)"><line x1="311.07798478049347" x2="326.63762049667105" y1="534" y2="534" />
<line x1="311.07798478049347" x2="311.07798478049347" y1="528" y2="540" />
<line x1="326.63762049667105" x2="326.63762049667105" y1="528" y2="540" />
</g>
</g>
<text fill="hsl(257, 100%, 40%)" y="572">countdown.10000.fused.shallow 2.31 ms</text>
<g>
<title>2.31 ms ± 191 μs</title>
<rect y="578" rx="5" height="22" width="123.16031988055937" fill="hsl(257, 100%, 80%)" stroke="hsl(257, 100%, 55%)" />
<g stroke="hsl(257, 100%, 40%)"><line x1="112.96209268646989" x2="133.35854707464884" y1="589" y2="589" />
<line x1="112.96209268646989" x2="112.96209268646989" y1="583" y2="595" />
<line x1="133.35854707464884" x2="133.35854707464884" y1="583" y2="595" />
</g>
</g>
<g fill="hsl(282, 100%, 40%)">
<text y="627">countdown.10000.fused.deep</text>
<text y="627" x="901.6381572391631" text-anchor="end">16.9 ms</text>
</g>
<g>
<title>16.9 ms ± 719 μs</title>
<rect y="633" rx="5" height="22" width="901.6381572391631" fill="hsl(282, 100%, 80%)" stroke="hsl(282, 100%, 55%)" />
<g stroke="hsl(282, 100%, 40%)"><line x1="863.2763144783262" x2="940.0" y1="644" y2="644" />
<line x1="863.2763144783262" x2="863.2763144783262" y1="638" y2="650" />
<line x1="940.0" x2="940.0" y1="638" y2="650" />
</g>
</g>
<text fill="hsl(308, 100%, 40%)" y="682">countdown.10000.sem.shallow 2.85 ms</text>
<g>
<title>2.85 ms ± 257 μs</title>
<rect y="688" rx="5" height="22" width="152.2847718274849" fill="hsl(308, 100%, 80%)" stroke="hsl(308, 100%, 55%)" />
<g stroke="hsl(308, 100%, 40%)"><line x1="138.59213453022716" x2="165.97740912474262" y1="699" y2="699" />
<line x1="138.59213453022716" x2="138.59213453022716" y1="693" y2="705" />
<line x1="165.97740912474262" x2="165.97740912474262" y1="693" y2="705" />
</g>
</g>
<text fill="hsl(334, 100%, 40%)" y="737">countdown.10000.sem.deep 4.30 ms</text>
<g>
<title>4.30 ms ± 204 μs</title>
<rect y="743" rx="5" height="22" width="229.25115500533667" fill="hsl(334, 100%, 80%)" stroke="hsl(334, 100%, 55%)" />
<g stroke="hsl(334, 100%, 40%)"><line x1="218.36756639564817" x2="240.13474361502517" y1="754" y2="754" />
<line x1="218.36756639564817" x2="218.36756639564817" y1="748" y2="760" />
<line x1="240.13474361502517" x2="240.13474361502517" y1="748" y2="760" />
</g>
</g>
</g>
</svg>
